<svg xmlns="http://www.w3.org/2000/svg" viewBox="0 0 64 64"><g stroke-width="8" transform="scale(.12583)"><circle cx="150.9" cy="200.1" r="39.7" fill="#eeb490"/><circle cx="357.7" cy="200.1" r="39.7" fill="#eeb490"/><path fill="#9d90c5" d="M463.5 508.6H45.1v-75a69 69 0 0 1 60.4-68.4l92.2-36.6h113.2l92.3 36.6a68.6 68.6 0 0 1 60.3 68.5z"/><path fill="#8075af" d="M178 348.6V382c0 42.8 35 78.7 77.7 78a76 76 0 0 0 74.6-76.3v-35.2a22 22 0 0 0-22-22H199.6a22.4 22.4 0 0 0-21.7 22z"/><path fill="#eeb490" d="M202 300.4V356a52.2 52.2 0 0 0 104.5 0v-55.6z"/><path fill="#faccb4" d="M306.9 94.6H201.7c-24.7 0-44.7 20-44.7 44.8V240a97.3 97.3 0 0 0 194.6 0V139.4c0-24.8-20-44.8-44.7-44.8z"/><g fill="#56545f" stroke-width="64"><path d="M351.6 52.9s75 9.8 0 151.2v-58s-5.4-41.7-30.8-44z"/><path d="M300.8 0h-93c-3.7 0-7.4.3-10.8 1-140.4 0-40 210.2-40 210.2 0-81 50.9-81.3 50.9-81.3H301c36 0 64.8-29.2 64.8-64.8 0-36-29.2-65.1-65.1-65.1Z"/></g></g></svg>