<svg enable-background="new 0 0 512 512" viewBox="0 0 512 512" xmlns="http://www.w3.org/2000/svg"><path d="m432.351 289.584c-14.305-20.514-36.456-34.17-66.463-40.967 23.916-9.608 41.613-23.907 53.101-42.9 11.491-18.999 17.229-40.673 17.229-65.057 0-46.651-17.819-81.761-53.448-105.318-35.635-23.561-85.222-35.342-148.747-35.342h-175.826v512h201.142c62.599 0 110.653-12.772 144.182-38.331 33.518-25.547 50.281-63.293 50.281-113.227.001-26.721-7.157-50.343-21.451-70.858zm-254.943-198.155h56.618c28.133 0 48.994 4.985 62.599 14.946 13.591 9.966 20.393 25.843 20.393 47.648 0 19.225-6.684 33.817-20.046 43.778-13.365 9.966-33.529 15.183-60.488 15.651h-59.076zm138.902 314.194c-12.659 9.966-31.649 14.951-56.971 14.951h-81.931v-128.351h88.62c24.379 0 42.02 5.685 52.918 17.051 10.904 11.372 16.357 28.192 16.357 50.465 0 20.63-6.337 35.923-18.993 45.884z"/></svg>