<svg height="48" viewBox="0 0 48 48" width="48" xmlns="http://www.w3.org/2000/svg"><g fill="#444"><path d="m8 27h-6c-.553 0-1-.447-1-1s.447-1 1-1h6c.553 0 1 .447 1 1s-.447 1-1 1z"/><path d="m12.185 15.19c-.256 0-.513-.098-.708-.293l-4.185-4.19c-.39-.392-.39-1.024.001-1.415.391-.389 1.024-.39 1.415.001l4.185 4.19c.39.392.39 1.024-.001 1.415-.196.195-.452.292-.707.292z"/><path d="m35.815 15.19c-.256 0-.512-.098-.707-.292-.391-.391-.391-1.023-.001-1.415l4.185-4.19c.391-.391 1.024-.39 1.415-.001.391.391.391 1.023.001 1.415l-4.185 4.19c-.195.196-.452.293-.708.293z"/><path d="m8 45c-.256 0-.513-.098-.708-.293-.39-.392-.39-1.024.001-1.415l4.189-4.184c.391-.389 1.024-.39 1.415.001.39.392.39 1.024-.001 1.415l-4.189 4.184c-.195.194-.451.292-.707.292z"/><path d="m40 45c-.256 0-.512-.098-.707-.292l-4.189-4.184c-.391-.391-.391-1.023-.001-1.415.391-.391 1.024-.39 1.415-.001l4.189 4.184c.391.391.391 1.023.001 1.415-.195.195-.452.293-.708.293z"/><path d="m46 27h-6c-.553 0-1-.447-1-1s.447-1 1-1h6c.553 0 1 .447 1 1s-.447 1-1 1z"/></g><path d="m32.324 9.555c-.164-.108-.355-.166-.552-.166-.001 0-.001 0-.002 0l-15.582.024c-.196 0-.389.059-.552.167-5.326 3.545-8.636 10.219-8.636 17.42 0 11.028 7.626 20 17 20s17-8.972 17-20c0-7.223-3.324-13.907-8.676-17.445z" fill="#e86c60"/><path d="m34.707 1.293c-.391-.391-1.023-.391-1.414 0l-3.694 3.694c-1.548-1.243-3.499-1.987-5.599-1.987s-4.051.744-5.599 1.987l-3.694-3.694c-.391-.391-1.023-.391-1.414 0s-.391 1.023 0 1.414l3.689 3.689c-.993 1.243-1.669 2.757-1.891 4.426-.021.156-.004.316.049.466.285.808 5.058 3.712 8.86 3.712s8.575-2.904 8.86-3.712c.053-.149.069-.31.049-.466-.223-1.669-.898-3.183-1.891-4.426l3.689-3.689c.391-.391.391-1.023 0-1.414z" fill="#444"/><path d="m24 47c.338 0 .667-.037 1-.06v-32.94c0-.553-.447-1-1-1s-1 .447-1 1v32.94c.333.023.662.06 1 .06z" fill="#444"/><circle cx="15" cy="23" fill="#444" r="3"/><circle cx="17.5" cy="34.5" fill="#444" r="2.5"/><circle cx="33" cy="23" fill="#444" r="3"/><circle cx="30.5" cy="34.5" fill="#444" r="2.5"/></svg>