<svg height="24" width="24" xmlns="http://www.w3.org/2000/svg"><path d="m7 6c-3.3137 0-6 2.6-6 6 0 3.3 2.6863 6 6 6h5 5c3.314 0 6-2.7 6-6 0-3.4-2.686-6-6-6h-5z" fill="#95a5a6"/><path d="m7 5c-3.3137 0-6 2.6-6 6 0 3.3 2.6863 6 6 6h5 5c3.314 0 6-2.7 6-6 0-3.4-2.686-6-6-6h-5z" fill="#bdc3c7"/><path d="m7 7c-2.2091 0-4 1.8-4 4s1.7909 4 4 4h5 5c2.209 0 4-1.8 4-4s-1.791-4-4-4h-5z" fill="#e74c3c"/><path d="m7 7c-2.2091 0-4 1.8-4 4 0 .1.0419.3.0625.5.2471-2 1.8985-3.5 3.9375-3.5h5 5c2.039 0 3.69 1.5 3.938 3.5.02-.2.062-.4.062-.5 0-2.2-1.791-4-4-4h-5z" fill="#c0392b"/><path d="m12.023 10.3-.023 1.2c-.04 1.9 1.567 3.5 3.5 3.5h1.5c2.209 0 4-1.8 4-4 0-.4-.074-.7-.156-1z" fill="#7f8c8d"/><path d="m15.5 7c-1.933 0-3.5 1.5-3.5 3.5 0 1.9 1.567 3.5 3.5 3.5h2c1.933 0 3.5-1.6 3.5-3.5 0-2-1.567-3.5-3.5-3.5z" fill="#ecf0f1"/><g fill="#bdc3c7"><path d="m14.5 8c-.276 0-.5.1-.5.4v3.2c0 .2.224.4.5.4s.5-.2.5-.4v-3.2c0-.3-.224-.4-.5-.4z"/><path d="m16.5 8c-.276 0-.5.1-.5.4v3.2c0 .2.224.4.5.4s.5-.2.5-.4v-3.2c0-.3-.224-.4-.5-.4z"/><path d="m18.5 8c-.276 0-.5.1-.5.4v3.2c0 .2.224.4.5.4s.5-.2.5-.4v-3.2c0-.3-.224-.4-.5-.4z"/></g></svg>