<svg enable-background="new 0 0 512 512" viewBox="0 0 512 512" xmlns="http://www.w3.org/2000/svg"><circle cx="256" cy="256" fill="#ddd" r="256"/><circle cx="196.347" cy="175.886" fill="#666" r="24.263"/><circle cx="316.951" cy="175.886" fill="#666" r="24.263"/><path d="m131.487 171.924-56.737 25.385 41.915.763c-1.109 4.424-1.7 9.048-1.7 13.819 0 31.26 25.339 56.603 56.603 56.603 5.644 0 11.094-.831 16.239-2.369l3.889 31.731 15.39-41.901c12.859-10.374 21.085-26.258 21.085-44.068 0-31.26-25.344-56.603-56.603-56.603-15.657 0-29.833 6.36-40.082 16.637v.003z" fill="#fad24d"/><path d="m109.529 189.919c-47.07 0-85.231 38.16-85.231 85.231s38.16 85.231 85.231 85.231 85.231-38.16 85.231-85.231-38.161-85.231-85.231-85.231z" fill="#666"/><path d="m109.529 203.277c-39.693 0-71.873 32.179-71.873 71.868 0 39.693 32.179 71.868 71.873 71.868s71.868-32.179 71.868-71.868c.001-39.694-32.173-71.868-71.868-71.868z" fill="#15bdb2"/><path d="m91.179 344.648c5.862 1.543 12.009 2.369 18.355 2.369 39.693 0 71.868-32.179 71.868-71.868 0-37.693-29.019-68.607-65.933-71.623-38.77 1.981-69.591 34.041-69.591 73.3 0 30.581 18.706 56.792 45.306 67.822z" fill="#21d0c3"/><path d="m380.508 171.924 56.737 25.384-41.915.763c1.109 4.424 1.7 9.048 1.7 13.819 0 31.26-25.339 56.603-56.603 56.603-5.644 0-11.094-.831-16.239-2.369l-3.889 31.731-15.39-41.901c-12.859-10.374-21.08-26.258-21.08-44.068 0-31.26 25.339-56.603 56.603-56.603 15.657 0 29.833 6.36 40.082 16.637z" fill="#fad24d"/><path d="m402.466 189.919c47.07 0 85.231 38.16 85.231 85.231s-38.16 85.231-85.231 85.231-85.231-38.16-85.231-85.231 38.161-85.231 85.231-85.231z" fill="#666"/><path d="m202.45 270.627 15.03-20.886h78.334l15.03 20.886c-9.857-30.082 8.702-64.335 44.954-79.161-47.786-26.978-150.507-26.978-198.293 0 36.253 14.826 54.811 49.074 44.95 79.161z" fill="#edb937"/><path d="m256.647 196.159c10.794 0 19.542 8.748 19.542 19.542 0 10.79-8.748 19.542-19.542 19.542-10.79 0-19.542-8.748-19.542-19.542s8.748-19.542 19.542-19.542z" fill="#666"/><path d="m256.647 200.117c8.605 0 15.584 6.979 15.584 15.584 0 8.609-6.979 15.584-15.584 15.584s-15.584-6.974-15.584-15.584c0-8.604 6.979-15.584 15.584-15.584z" fill="#21d0c3"/><path d="m402.466 203.277c-39.693 0-71.873 32.179-71.873 71.868 0 39.693 32.179 71.868 71.873 71.868s71.873-32.179 71.873-71.868c0-39.694-32.18-71.868-71.873-71.868z" fill="#15bdb2"/><path d="m384.116 344.648c5.862 1.543 12.009 2.369 18.355 2.369 39.693 0 71.868-32.179 71.868-71.868 0-37.693-29.019-68.607-65.933-71.623-38.77 1.981-69.591 34.041-69.591 73.3 0 30.581 18.706 56.792 45.306 67.822z" fill="#21d0c3"/><path d="m113.603 209.66c-2.79 0-5.542.18-8.24.522 35.385 1.039 63.752 30.045 63.752 65.684 0 28.119-17.663 52.104-42.493 61.485 29.385-6.023 51.485-32.021 51.485-63.19 0-35.624-28.877-64.501-64.501-64.501zm292.779 0c-2.79 0-5.542.18-8.24.522 35.385 1.039 63.753 30.045 63.753 65.684 0 28.119-17.663 52.104-42.493 61.485 29.385-6.023 51.485-32.021 51.485-63.19 0-35.624-28.877-64.501-64.501-64.501z" fill="#2be3d7"/></svg>