<svg enable-background="new 0 0 297 297" viewBox="0 0 297 297" xmlns="http://www.w3.org/2000/svg"><circle cx="148.5" cy="148.5" fill="#c63c22" r="148.5"/><path d="m68.489 183.939 110.026 110.026c62.607-12.851 110.838-65.104 117.653-129.706l-67.897-67.897z" fill="#a53d04"/><path d="m148.5 66c-54.676 0-99 33.243-99 74.25 0 38.177 38.42 69.62 87.843 73.778l-5.343 33.472 16.5-14.514z" fill="#ffcd02"/><path d="m148.5 66v166.986l23.394-20.577c43.384-7.884 75.606-37.197 75.606-72.159 0-41.007-44.324-74.25-99-74.25z" fill="#ffcd02"/><path d="m148.5 66v166.986l23.394-20.577c43.384-7.884 75.606-37.197 75.606-72.159 0-41.007-44.324-74.25-99-74.25z" fill="#d6ad00"/><circle cx="198" cy="142.5" fill="#cc3b3b" r="13"/><circle cx="148.5" cy="142.5" fill="#e95755" r="13"/><path d="m161.5 142.5c0-7.18-5.82-13-13-13v26c7.18 0 13-5.82 13-13z" fill="#cc3b3b"/><circle cx="99" cy="142.5" fill="#e95755" r="13"/></svg>