<svg enable-background="new 0 0 512 512" viewBox="0 0 512 512" xmlns="http://www.w3.org/2000/svg"><path d="m398.515 366.845h95.01v95.01h-95.01z" fill="#d4145a"/><path d="m303.505 366.845h95.01v95.01h-95.01z" fill="#d4145a"/><path d="m208.495 366.845h95.01v95.01h-95.01z" fill="#9e005d"/><path d="m113.485 366.845h95.01v95.01h-95.01z" fill="#93278f"/><path d="m18.474 366.845h95.01v95.01h-95.01z" fill="#662d91"/><path d="m398.515 271.835h95.01v95.01h-95.01z" fill="#0087ce"/><path d="m303.505 271.835h95.01v95.01h-95.01z" fill="#008fd0"/><path d="m208.495 271.835h95.01v95.01h-95.01z" fill="#0098d2"/><path d="m113.485 271.835h95.01v95.01h-95.01z" fill="#00a4d4"/><path d="m18.474 271.835h95.01v95.01h-95.01z" fill="#00b4d7"/><path d="m398.515 176.825h95.01v95.01h-95.01z" fill="#595e62"/><path d="m303.505 176.825h95.01v95.01h-95.01z" fill="#7e8488"/><path d="m208.495 176.825h95.01v95.01h-95.01z" fill="#afb6bb"/><path d="m113.485 176.825h95.01v95.01h-95.01z" fill="#e7eced"/><path d="m18.474 176.825h95.01v95.01h-95.01z" fill="#f1f2f2"/><path d="m398.515 81.814h95.01v95.01h-95.01z" fill="#ffd311"/><path d="m303.505 81.814h95.01v95.01h-95.01z" fill="#fdb51e"/><path d="m303.505 81.814v95.011h-95.01v-95.011h31.67z" fill="#ed1c24"/><path d="m113.485 81.814h95.01v95.01h-95.01z" fill="#ed1c24"/><path d="m18.474 81.814h95.01v95.01h-95.01z" fill="#c1272d"/><path d="m493.526 461.856v42.226h-475.052v-42.226h95.011 95.01 95.01 95.01z" fill="#364853"/><path d="m240.165 7.918v73.896h-31.67-95.01-95.011v-73.896z" fill="#364853"/><path d="m248.082 73.897v-73.897h-237.525v512h490.887v-438.103zm63.341 380.041v-79.175h79.175v79.175zm0-95.01v-79.175h79.175v79.175zm-110.846-174.186v79.175h-79.175v-79.175zm0 95.011v79.175h-79.175v-79.175zm15.835 0h79.175v79.175h-79.175zm95.011-15.835v-79.175h79.175v79.175zm-15.835 0h-79.175v-79.175h79.175zm-95.011-95.011h-79.175v-79.175h79.175zm-79.175 205.856h79.175v79.175h-79.175zm95.01 0h79.175v79.175h-79.175zm174.186-285.031v79.175h-79.175v-79.175zm-95.01 79.175h-79.175v-79.175h79.175zm-269.196-153.072h205.856v58.062h-205.856zm0 73.897h79.175v79.175h-79.175zm0 95.01h79.175v79.175h-79.175zm0 95.011h79.175v79.175h-79.175zm0 95.01h79.175v79.175h-79.175zm459.216 121.402h-459.216v-26.392h459.217v26.392zm-79.175-42.227v-79.175h79.175v79.175zm0-95.01v-79.175h79.175v79.175zm0-95.01v-79.175h79.175v79.175zm0-95.011v-79.175h79.175v79.175z"/><g fill="#fff"><path d="m44.866 36.948h47.505v15.835h-47.505z"/><path d="m108.206 36.948h105.567v15.835h-105.567z"/><path d="m44.866 110.845h21.113v15.835h-21.113z"/><path d="m234.887 110.845h21.113v15.835h-21.113z"/><path d="m234.887 205.856h21.113v15.835h-21.113z"/><path d="m329.897 205.856h21.113v15.835h-21.113z"/><path d="m139.876 300.866h21.113v15.835h-21.113z"/><path d="m44.866 395.876h21.113v15.835h-21.113z"/><path d="m329.897 395.876h21.113v15.835h-21.113z"/><path d="m424.907 300.866h21.113v15.835h-21.113z"/><path d="m424.907 110.845h21.113v15.835h-21.113z"/></g></svg>