<svg enable-background="new 0 0 503.82 503.82" viewBox="0 0 503.82 503.82" xmlns="http://www.w3.org/2000/svg"><g transform="translate(1 1)"><path d="m491.909 112.838-270.269 198.925 167.869 109.115 113.311-306.361c-.839 0-1.678-1.679-10.911-1.679" fill="#e2e3e5"/><path d="m175.476 408.287 99.043-66.308" fill="#b6b6b6"/><path d="m209.05 299.173-33.574 109.114 99.043-66.308z" fill="#ccc"/><path d="m209.05 299.173-32.734 109.114-26.02-142.688 344.131-176.263z" fill="#ccc"/><path d="m486.034 104.445c-3.357 0-5.875-1.679-7.554-4.197l-269.43 198.925 167.869 109.115 111.633-303.843s-.84 0-2.518 0" fill="#ccc"/><path d="m444.066 122.91-235.016 176.263 151.082 92.327 100.721-276.983z" fill="#e2e3e5"/><path d="m466.729 95.212-459.961 94.846 143.528 75.541 323.148-165.351c-3.358-.839-5.037-2.518-6.715-5.036" fill="#fff"/><path d="m444.066 114.517-411.278 92.328 117.508 58.754 299.646-146.046c-2.518-.839-5.036-2.518-5.876-5.036" fill="#e2e3e5"/><g fill="#b6b6b6"><path d="m376.919 416.681c-1.679 0-3.357-.839-4.197-1.679l-167.869-109.115c-2.518-.839-4.197-3.357-4.197-6.715 0-2.518.839-5.036 3.357-6.715l201.443-147.725-250.964 128.42c-2.518.839-5.036.839-7.554 0l-143.527-75.54c-3.357-1.679-5.036-5.036-4.197-8.393 0-4.197 2.518-6.715 5.875-7.554l486.82-100.721h4.197c1.679.839 3.357 1.679 5.036 3.357v.839c1.679 1.679 1.679 3.357 1.679 5.036v1.679.839l-117.509 318.951c-.839 2.518-2.518 4.197-5.036 5.036-1.679 0-2.518 0-3.357 0zm-152.761-118.348 148.564 96.525 104.079-282.02zm-192.21-104.918 118.348 62.951 285.377-146.046z"/><path d="m175.476 416.681c-2.518 0-5.036-1.679-6.715-3.357-2.518-4.197-1.679-9.233 2.518-11.751l99.043-66.308c4.197-2.518 9.233-1.679 11.751 2.518s1.679 9.233-2.518 11.751l-99.043 66.308c-1.678-.001-3.357.839-5.036.839z"/><path d="m176.316 416.681c-.84 0-.84 0 0 0-4.197 0-7.554-3.357-8.393-6.715l-26.02-142.689c-.839-3.357.839-7.554 4.197-9.233l344.13-176.262c4.197-1.679 8.393-.839 10.911 3.357 2.518 3.357 1.679 8.393-2.518 10.911l-282.02 208.157-32.733 106.598c-.84 3.358-4.197 5.876-7.554 5.876zm-16.787-146.046 18.466 102.4 22.662-75.541c.839-1.679 1.679-3.357 3.357-4.197l201.443-147.725z"/><path d="m175.476 416.681c-1.679 0-3.357-.839-5.036-1.679-2.518-2.518-4.197-5.875-3.357-9.233l33.574-109.115c.839-2.518 2.518-4.197 5.036-5.036s5.036-.839 7.554.839l65.469 42.807c2.518 1.679 4.197 4.197 4.197 6.715s-1.679 5.875-3.357 6.715l-99.043 66.308c-1.679.839-3.358 1.679-5.037 1.679zm38.61-104.079-23.502 75.541 68.826-46.164z"/></g></g></svg>