<svg enable-background="new 0 0 512 512" viewBox="0 0 512 512" xmlns="http://www.w3.org/2000/svg"><g transform="matrix(16.040028 0 0 16.226121 -.635378 45.338008)"><g fill="#fff" transform="matrix(.06034269 0 0 .05961648 .55227 -2.279241)"><path d="m503.467 256c0 136.533-110.933 247.467-247.467 247.467s-247.467-110.934-247.467-247.467 110.934-247.467 247.467-247.467 247.467 110.934 247.467 247.467"/><path d="m477.867 256c0 136.533-98.987 247.467-221.867 247.467s-221.867-110.934-221.867-247.467 98.987-247.467 221.867-247.467 221.867 110.934 221.867 247.467"/><path d="m34.133 256c0-136.533 98.987-247.467 221.867-247.467-136.533 0-247.467 110.934-247.467 247.467s110.934 247.467 247.467 247.467c-122.88 0-221.867-110.934-221.867-247.467"/><path d="m199.68 179.2h-70.827c-10.24 0-17.92 7.68-17.92 17.92v109.227c0 10.24 7.68 17.92 17.92 17.92h70.827c3.413 0 5.973.853 9.387 2.56l113.493 105.813c11.947 6.827 27.307-1.707 27.307-15.36v-331.093c0-13.653-15.36-22.187-27.307-15.36l-113.493 105.813c-2.56 1.707-5.974 2.56-9.387 2.56"/></g><g fill="#393"><path d="m12.601498 8.4040324h-4.2738913c-.6179091 0-1.081341.4578546-1.081341 1.0683273v6.5117293c0 .610473.4634319 1.068327 1.081341 1.068327h4.2738913c.20595 0 .360427.05085.566437-.508707l5.921609 6.308198c.720915 1.068328 1.029869.55962 1.029869-.254383v-19.7385992c0-.8139438-.308954-.4578546-1.029869-.050853l-5.921609 5.4434019c-.154477.1017058-.360487.1525586-.566437.1525586" stroke-width=".059979"/><path d="m20.582845 24.174559c-.257482 0-.566437-.05085-.823859-.203471-.05147 0-.05147-.05085-.103005-.05085l-6.797-6.308199c-.05147-.05085-.154478-.05085-.257483-.05085h-4.2738913c-.8753914 0-1.5962451-.712238-1.5962451-1.577034v-6.5117953c0-.8648562.7209141-1.5770347 1.5962451-1.5770347h4.2738913c.103005 0 .154478 0 .257483-.050853l6.797-6.2573457c.05147 0 .05147-.050853.103005-.050853.514904-.3052363 1.081341-.3052363 1.596245 0 .514905.2543836.823859.763091.823859 1.3227109v19.7385398c0 .55962-.308954 1.068327-.823859 1.373564-.206009.152618-.514964.203471-.772386.203471zm-.257482-1.068328c.257482.101766.463432.05085.514904 0 .103005-.05085.308955-.203471.308955-.508707v-19.7385992c0-.3052364-.20595-.4578546-.308955-.5087075-.103005-.050853-.308955-.1526182-.514904 0l-6.797001 6.2573458c-.05147 0-.05147.050853-.103005.050853-.257482.152618-.514904.2034709-.823859.2034709h-4.2738913c-.3089545 0-.5664368.2543835-.5664368.5596199v6.5117291c0 .305237.2574823.55962.5664368.55962h4.2738913c.308955 0 .566437.05085.823859.203471.05147 0 .05147.05085.103005.05085z" stroke-width=".059979"/><path d="m15.999999 28.0096c-8.3655397 0-15.21007174-6.76216-15.21007174-15.027022 0-8.2648621 6.84453204-15.0270218 15.21007174-15.0270218 8.365539 0 15.210071 6.7621597 15.210071 15.0270218 0 8.264862-6.844532 15.027022-15.210071 15.027022zm0-29.0522228c-7.8078169 0-14.1960471 6.3113488-14.1960471 14.0252008s6.3882302 14.025201 14.1960471 14.025201c7.807816 0 14.196046-6.311349 14.196046-14.025201s-6.38823-14.0252008-14.196046-14.0252008z" stroke="#393" stroke-width="1.5"/></g></g></svg>