<svg enable-background="new 0 0 230 230" viewBox="0 0 230 230" xmlns="http://www.w3.org/2000/svg"><path d="m61.638 164.165c13.598 11.225 31.619 16.835 53.82 16.835 21.955 0 39.679-5.61 53.239-16.835 13.557-11.223 20.303-27.035 20.303-47.434v-116.731h-42v116.731c0 11.06-2.501 19.212-8.03 24.454-5.529 5.244-13.284 7.864-23.524 7.864-10.322 0-18.312-2.642-23.965-7.926-5.652-5.282-8.481-13.412-8.481-24.392v-116.731h-42v116.731c0 20.399 7.039 36.211 20.638 47.434z"/><path d="m0 197h230v33h-230z"/></svg>