<svg enable-background="new 0 0 128 128" viewBox="0 0 128 128" xmlns="http://www.w3.org/2000/svg" xmlns:xlink="http://www.w3.org/1999/xlink"><linearGradient id="a" gradientUnits="userSpaceOnUse" x1="65.667" x2="65.667" y1="19.467" y2="111.47"><stop offset=".3413" stop-color="#f15b52"/><stop offset=".5564" stop-color="#ef5851"/><stop offset=".718" stop-color="#ea4e50"/><stop offset=".8618" stop-color="#e13e4d"/><stop offset=".9457" stop-color="#d9314b"/></linearGradient><path d="m65.67 119.46c-27.88 0-57.9-17.46-57.9-55.79s30.01-55.79 57.89-55.79c15.46 0 29.76 5.12 40.29 14.41 11.52 10.17 17.61 24.48 17.61 41.38 0 16.83-6.09 31.12-17.61 41.31-10.55 9.33-24.86 14.48-40.28 14.48z" fill="url(#a)"/><path d="m65.67 9.98c14.94 0 28.75 4.93 38.9 13.88 11.05 9.75 16.89 23.52 16.89 39.81 0 16.21-5.84 29.95-16.9 39.73-10.17 9-23.98 13.95-38.89 13.95-14.99 0-28.8-4.89-38.9-13.77-11.05-9.71-16.89-23.51-16.89-39.91 0-16.48 5.84-30.3 16.88-39.99 10.07-8.83 23.89-13.7 38.91-13.7m0-4.21c-31.15 0-60 20.01-60 57.89 0 37.68 28.85 57.89 60 57.89s60-20.73 60-57.89c0-37.37-28.85-57.89-60-57.89z" fill="#c7203a"/><g fill="#242424"><path d="m57.87 67.23c-.69 0-1.35-.25-1.89-.72-2.98-2.55-12.74-7.93-16.33-9.69-1.34-.65-1.98-1.97-1.67-3.32.31-1.34 1.45-2.27 2.79-2.27.25 0 .5.03.75.1 1.32.34 2.61.8 3.85 1.37 3.33 1.56 12.56 6.98 14.8 9.8.71.9.85 2.04.36 3.05-.5 1.01-1.54 1.68-2.66 1.68z"/><path d="m75.67 67.23c.69 0 1.35-.25 1.89-.72 2.98-2.55 12.74-7.93 16.33-9.69 1.34-.65 1.98-1.97 1.67-3.32-.31-1.34-1.45-2.27-2.79-2.27-.25 0-.5.03-.75.1-1.32.34-2.61.8-3.85 1.37-3.33 1.56-12.56 6.98-14.8 9.8-.71.9-.85 2.04-.36 3.05.5 1.01 1.54 1.68 2.66 1.68z"/><path d="m43.04 68.84c0 4.29 3.36 7.77 7.5 7.77s7.5-3.48 7.5-7.77v-1.46c0-4.29-3.36-7.77-7.5-7.77s-7.5 3.48-7.5 7.77z"/><path d="m75.5 68.84c0 4.29 3.36 7.77 7.5 7.77s7.5-3.48 7.5-7.77v-1.46c0-4.29-3.36-7.77-7.5-7.77s-7.5 3.48-7.5 7.77z"/></g><path d="m24.26 81.36h79.43v33.75h-79.43z" transform="matrix(.9945 .1046 -.1046 .9945 10.628 -6.1532)"/><g fill="#fff"><path d="m40.39 98.96-2.1-.2-1.39 5.26-2.59-.25 1.39-5.26-2.89-.28.23-2.39 3.28.32.91-3.39-2.88-.28.23-2.39 3.27.32 1.42-5.34 2.58.25-1.41 5.34 2.1.2 1.42-5.34 2.59.25-1.42 5.34 3.01.29-.23 2.39-3.4-.33-.91 3.39 2.99.29-.23 2.39-3.38-.33-1.39 5.26-2.59-.25zm-1.47-2.55 2.1.2.91-3.39-2.1-.2z"/><path d="m58.62 101.17c.06-.6-.04-1.09-.31-1.46-.26-.37-.76-.75-1.47-1.12-.72-.38-1.37-.75-1.98-1.13-.6-.37-1.11-.79-1.53-1.24s-.72-.96-.91-1.53c-.19-.56-.25-1.23-.18-2 .12-1.29.66-2.3 1.61-3.05s2.15-1.12 3.61-1.12l.23-2.41 1.81.18-.24 2.45c1.37.34 2.41 1.02 3.12 2.04s.99 2.25.85 3.7l-3.86-.37c.08-.79-.02-1.41-.28-1.87s-.68-.71-1.24-.77c-.5-.05-.91.07-1.22.36s-.49.71-.54 1.27.06 1.03.35 1.39.77.73 1.45 1.1 1.32.75 1.91 1.13c.6.38 1.1.8 1.52 1.26.42.45.73.97.93 1.54.21.57.27 1.24.2 2.01-.13 1.3-.64 2.32-1.55 3.07-.9.74-2.08 1.11-3.51 1.11l-.22 2.3-1.81-.18.22-2.31c-1.64-.34-2.86-1.03-3.65-2.08s-1.11-2.36-.96-3.94l3.85.37c-.08.87.04 1.55.39 2.04.34.49.86.77 1.57.84.52.05.94-.06 1.27-.34.33-.29.52-.7.57-1.24z"/><path d="m67.42 106.35c.06-.62.33-1.11.82-1.47s1.07-.5 1.74-.44c.67.07 1.22.32 1.63.76s.59.97.53 1.6c-.06.62-.34 1.11-.82 1.47-.49.36-1.07.5-1.74.43-.67-.06-1.21-.32-1.62-.76-.43-.43-.6-.97-.54-1.59zm4.48-3.51-3.44-.33.67-12.59 4.53.44z"/><path d="m97.93 100.84c-.28 2.04-.94 3.61-2 4.74-1.06 1.12-2.37 1.61-3.93 1.46-.64-.06-1.2-.26-1.66-.58-.47-.33-.81-.76-1.04-1.29-.87.96-1.95 1.38-3.24 1.25-.75-.07-1.39-.36-1.91-.85-.52-.5-.87-1.17-1.06-2-.19-.84-.17-1.77.03-2.8.42-1.93 1.21-3.45 2.35-4.54s2.46-1.56 3.94-1.42c1.15.11 2.12.47 2.89 1.09l.7.55-1.27 6.84c-.24 1.08.09 1.66.97 1.74.66.07 1.26-.31 1.8-1.11.53-.81.89-1.87 1.06-3.19.39-2.6.04-4.67-1.04-6.22-1.08-1.54-2.79-2.43-5.14-2.66-1.49-.14-2.86.11-4.1.76s-2.26 1.64-3.07 2.97-1.35 2.89-1.61 4.66c-.39 2.73-.04 4.88 1.04 6.45s2.84 2.47 5.29 2.71c.66.06 1.36.05 2.11-.03s1.37-.2 1.85-.36l.25 1.99c-.51.27-1.18.46-2.01.57s-1.65.13-2.46.05c-2.14-.21-3.9-.79-5.3-1.75s-2.38-2.28-2.94-3.95c-.57-1.67-.7-3.65-.4-5.93.3-2.15.99-4.04 2.06-5.66s2.43-2.83 4.1-3.61c1.66-.78 3.48-1.08 5.45-.89s3.64.76 4.99 1.72c1.36.96 2.32 2.24 2.89 3.84.55 1.62.69 3.43.41 5.45zm-11.87.2c-.19 1.01-.18 1.79.02 2.33s.57.84 1.12.9c.37.03.72-.1 1.06-.4s.64-.74.9-1.34l.99-5.31c-.23-.09-.47-.14-.72-.16-.88-.08-1.59.19-2.13.83-.54.65-.95 1.7-1.24 3.15z"/></g></svg>