<svg enable-background="new 0 0 128 128" viewBox="0 0 128 128" xmlns="http://www.w3.org/2000/svg" xmlns:xlink="http://www.w3.org/1999/xlink"><radialGradient id="a" cx="60.375" cy="67.033" gradientTransform="matrix(.9563 .2924 -.2924 .9563 22.548 -15.105)" gradientUnits="userSpaceOnUse" r="47.649"><stop offset=".2311" stop-color="#616161"/><stop offset=".9281" stop-color="#212121"/></radialGradient><linearGradient id="b" gradientUnits="userSpaceOnUse"><stop offset=".3616" stop-color="#ff9100"/><stop offset=".454" stop-color="#ff8a04"/><stop offset=".5892" stop-color="#ff760f"/><stop offset=".7507" stop-color="#ff5621"/><stop offset=".9311" stop-color="#ff2a39"/><stop offset="1" stop-color="#ff1744"/></linearGradient><linearGradient id="c" x1="28.667" x2="28.834" xlink:href="#b" y1="2.6887" y2="14.022"/><linearGradient id="d" x1="13.25" x2="24.472" xlink:href="#b" y1="13.82" y2="13.82"/><linearGradient id="e" x1="13.52" x2="23.02" xlink:href="#b" y1="25.321" y2="22.654"/><linearGradient id="f" x1="19.648" x2="26.148" xlink:href="#b" y1="36.347" y2="27.181"/><linearGradient id="g" gradientTransform="matrix(.7057 -.7085 .7085 .7057 -15.834 31.389)" x1="29.578" x2="34.903" xlink:href="#b" y1="38.598" y2="31.088"/><linearGradient id="h" gradientUnits="userSpaceOnUse" x1="34.528" x2="41.528" y1="14.587" y2="6.587"><stop offset="0" stop-color="#ff1744"/><stop offset=".0689" stop-color="#ff2a39"/><stop offset=".2493" stop-color="#ff5621"/><stop offset=".4108" stop-color="#ff760f"/><stop offset=".546" stop-color="#ff8a04"/><stop offset=".6384" stop-color="#ff9100"/></linearGradient><path d="m31.24 18.76c-.33-.34-.68-.68-1.11-.98-2.51-1.75-5.65 1.54-4.27 4.07.41.76.96 1.42 1.58 2 2.5-.53 3.88-2.48 3.8-5.09z" fill="#f44336"/><path d="m80.4 4.7c-10.18-.51-17.33 6.91-25.27 12.02-5.23 3.36-10.89 5.32-17.18 4.74-1.49-.14-3.02-.35-4.41-.92-1.04-.42-1.64-1.1-2.29-1.77.07 2.62-1.31 4.56-3.79 5.09 3.03 2.81 8.17 3.58 11.92 3.67 9.89.25 17.43-4.52 25.12-10.12 4.93-3.6 16.74-11.53 21.83-3.91 2.7 4.04-.04 13.03-4.73 14.68-3.62 1.28-2.06 7.08 1.59 5.79 6.22-2.2 9.77-9.39 10.11-15.67.42-7.93-5.18-13.21-12.9-13.6z" fill="#212121"/><path d="m80.4 4.7c-10.18-.51-17.33 6.91-25.27 12.02-5.23 3.36-10.89 5.32-17.18 4.74-1.49-.14-3.02-.35-4.41-.92-1.04-.42-1.64-1.1-2.29-1.77.07 2.62-1.31 4.56-3.79 5.09 3.03 2.81 8.17 3.58 11.92 3.67 9.89.25 17.43-4.52 25.12-10.12 4.93-3.6 16.74-11.53 21.83-3.91 2.7 4.04-.04 13.03-4.73 14.68-3.62 1.28-2.06 7.08 1.59 5.79 6.22-2.2 9.77-9.39 10.11-15.67.42-7.93-5.18-13.21-12.9-13.6z" fill="#212121"/><path d="m79.4 5.67c.31 0 .63.01.95.02 3.74.19 6.99 1.61 9.14 4 2.01 2.23 2.98 5.18 2.8 8.53-.43 8.01-5.19 13.28-9.44 14.78-.24.09-.47.13-.69.13-.91 0-1.45-.81-1.59-1.62-.15-.88.12-1.98 1.35-2.41 2.41-.85 4.54-3.42 5.68-6.86 1.18-3.56 1.01-7.13-.45-9.32-1.62-2.42-3.96-3.64-6.96-3.64-4.23 0-9.56 2.39-16.29 7.3-7.19 5.24-14.41 9.94-23.79 9.94-.24 0-.48 0-.72-.01-2.91-.07-8.25-.62-11.26-3.41-.59-.54-1.04-1.11-1.38-1.74-.45-.83-.08-1.64.11-1.95.41-.69 1.11-1.14 1.78-1.14.32 0 .64.11.93.31.37.26.68.56.96.86l.17.17c.62.64 1.32 1.36 2.46 1.83 1.56.64 3.25.86 4.7.99.76.07 1.53.11 2.29.11 5.22 0 10.29-1.63 15.52-5 1.79-1.15 3.55-2.43 5.26-3.66 5.84-4.21 11.35-8.21 18.47-8.21m0-1c-9.66 0-16.59 7.1-24.27 12.04-4.61 2.96-9.56 4.84-14.98 4.84-.73 0-1.46-.03-2.2-.1-1.49-.14-3.02-.35-4.41-.92-1.04-.42-1.64-1.1-2.29-1.77-.33-.34-.68-.68-1.11-.98-.49-.34-1.01-.49-1.51-.49-2.06 0-3.87 2.53-2.76 4.57.41.76.96 1.42 1.58 2 3.03 2.81 8.17 3.58 11.92 3.67.25.01.5.01.75.01 9.53 0 16.88-4.67 24.38-10.13 3.43-2.5 10.19-7.11 15.71-7.11 2.41 0 4.58.88 6.13 3.2 2.7 4.04-.04 13.03-4.73 14.68-3.26 1.15-2.32 5.97.57 5.97.32 0 .66-.06 1.02-.19 6.22-2.2 9.77-9.39 10.11-15.67.42-7.91-5.18-13.2-12.89-13.59-.36-.02-.69-.03-1.02-.03z" fill="#eee" opacity=".2"/><path d="m99.96 44.22-3.23-11.43c-.56-2.13-2.31-3.39-4.42-4.03l-12.69-3.88c-2.11-.64-4.26-.58-5.92.87l-9.14 7.89c-17.25 2.13-32.46 13.99-37.87 31.69-7.33 23.99 6.18 49.32 30.17 56.66 23.99 7.33 49.39-6.19 56.72-30.18 5.43-17.7-.5-36.18-13.62-47.59z" fill="url(#a)"/><path d="m77.21 27.49c.46 0 .98.09 1.54.26l12.69 3.88c1.36.42 2.17 1.06 2.39 1.92 0 .02.01.04.02.06l3.23 11.43c.16.56.48 1.07.92 1.45 12.63 10.99 17.63 28.43 12.73 44.45-2.71 8.87-8.09 16.43-15.57 21.88-7.23 5.27-16.11 8.17-25 8.17-4.19 0-8.36-.63-12.4-1.86-10.84-3.31-19.74-10.64-25.06-20.62-5.32-9.99-6.43-21.45-3.12-32.29 4.87-15.93 18.75-27.54 35.37-29.59.59-.07 1.14-.32 1.59-.71l9.16-7.92c.25-.22.68-.51 1.51-.51m0-3c-1.27 0-2.48.37-3.5 1.26l-9.14 7.89c-17.25 2.13-32.46 13.99-37.87 31.69-7.33 23.99 6.18 49.32 30.17 56.66 4.42 1.35 8.89 1.99 13.28 1.99 19.45 0 37.46-12.61 43.44-32.18 5.41-17.7-.52-36.18-13.63-47.59l-3.23-11.43c-.56-2.13-2.31-3.39-4.42-4.03l-12.69-3.88c-.8-.24-1.61-.38-2.41-.38z" fill="#eee" opacity=".2"/><path d="m-32.31-8.06 2.86-3.9c.29-.4.92-.19.93.3l.04 4.24c.01.93 1.06 1.46 1.82.92l9.7-7c.46-.33 1.04.21.73.69l-7.86 12.4c-.22.34.03.78.43.79l6.51.05c.56 0 .71.78.19.99l-5.9 2.38c-.45.18-.42.82.04.96l4.92 1.58c.5.16.47.88-.04.99l-5.77 1.29c-.34.08-.51.47-.32.77l6.15 9.95c.31.5-.33 1.04-.77.66l-7.08-6.13c-.64-.55-1.62.02-1.45.85l1.79 6.77c.2.97-.57 1.03-1.3.36l-4.78-6.01c-.71-.65-1.85-.22-1.96.73l-.74 3.74c-.14 1.17-.86 1.21-1.3.12l-1.49-2.45c-.42-1.05-1.76-1.35-2.59-.59l-5.87 5.35c-.4.36-1.01-.05-.83-.55l2.33-6.44c.33-.91-.67-1.73-1.5-1.22l-5.94 3.64c-.49.3-1.03-.32-.66-.76l5.15-6.22c.27-.32.06-.81-.36-.84l-3.65-.82c-1.02-.06-1.21-.8-.33-1.33l2.97-1.8c1.03-.62.93-2.14-.16-2.64l-3.96-1.79c-.47-.21-.37-.92.15-.98l4.07-.47c1.75-.2 2.62-2.22 1.57-3.63l-4.64-6.24c-.36-.48.26-1.08.73-.71l6.46 5.16c.61.48 1.47-.12 1.22-.86l-1.04-3.05c-.18-.52.48-.92.86-.51l1.94 2.09c.7.75 1.95.34 2.07-.67l.66-5.35c.06-.52.78-.62.98-.13l2.05 4.99c.52 1.2 2.18 1.4 2.97.33z" fill="#ff9100"/><path d="m-29.1-.68c.5-.23.75.13.45.58-.43.64-1.36 1.85-1.73 2.23-.38.39-.24 1.04.26 1.25l1.77.33c.36.15.33.66-.04.77l-1.62.4c-.52.16-.69.81-.31 1.2l1.72 2.38c.19.22-.05.55-.32.44l-2.5-1.24c-.99-.57-1.98-.2-2.32.89l-.82 2.56c-.06.28-.45.3-.54.03l-.64-2.22c-.19-.65-1-.86-1.48-.38l-2.09 2.08c-.25.19-.58-.1-.41-.37l1.01-2.1c.22-.36-.22-1.23-.64-1.2l-1.87-.13c-.32 0-.61-.27-.58-.59.02-.19.13-.37.33-.46.54-.24 1.49-.77 2.31-1.24.84-.48 1.08-1.58.52-2.37l-1.78-2.35c-.33-.42.11-1.01.61-.8l3.24 2.31c.56.23 1.19-.14 1.26-.74l.29-2.5c.03-.27.38-.34.52-.11l1.02 2.05c.37.74 1.25 1.05 2 .71z" fill="#ffea00"/><path d="m-40.89 40.54c.71 1.09 1.93 1.76 3.27 1.76 1.22 0 2.34-.55 3.09-1.52.34 1.49 1.68 2.6 3.27 2.6.7 0 1.38-.22 1.96-.64l2.6-1.88-3.17 5.01c-.53.83-.56 1.89-.09 2.75.31.57.82 1.01 1.41 1.23-.5.52-.78 1.23-.75 1.98.03.85.46 1.63 1.13 2.11-.83.2-1.53.79-1.86 1.58-.34.81-.27 1.74.19 2.48l.68 1.1c-.35-.13-.71-.2-1.09-.2-.93 0-1.81.42-2.4 1.14-.54.65-.77 1.49-.67 2.33l-.37-.46c-.07-.09-.15-.17-.23-.25-.62-.57-1.43-.89-2.28-.89-1.63 0-3.02 1.16-3.32 2.74-.71-.82-1.75-1.31-2.88-1.31-.95 0-1.86.35-2.57 1l-.82.75v-.01c.36-.99.21-2.09-.39-2.94-.61-.87-1.6-1.38-2.65-1.38h-.01c.4-.73.45-1.61.11-2.39-.38-.87-1.16-1.47-2.08-1.6l-.08-.02c1.07-.73 1.68-1.97 1.6-3.27-.06-.98-.5-1.87-1.2-2.51 1.03-.43 1.86-1.24 2.33-2.31.37-.85.46-1.76.28-2.62.13.02.26.03.39.03.96 0 1.87-.47 2.43-1.25.2-.28.35-.59.44-.9.17.02.33.04.51.04 1.48-.02 2.75-.95 3.22-2.28m-.84-6.8c-.24 0-.48.16-.51.45l-.66 5.35c-.08.65-.63 1.06-1.2 1.06-.31 0-.63-.12-.87-.38l-1.94-2.09c-.11-.12-.24-.17-.37-.17-.32 0-.62.31-.49.68l1.04 3.05c.19.55-.25 1.03-.74 1.03-.16 0-.33-.05-.48-.17l-6.46-5.16c-.1-.08-.21-.12-.32-.12-.38 0-.69.45-.41.82l4.73 6.36c1.01 1.36.17 3.31-1.51 3.5l-4.22.48c-.52.06-.63.76-.15.98l3.96 1.79c1.1.49 1.19 2.01.16 2.64l-2.97 1.8c-.88.53-.69 1.27.33 1.33l3.65.82c.42.03.63.52.36.84l-5.15 6.22c-.3.36 0 .84.39.84.09 0 .18-.02.27-.08l5.94-3.64c.18-.11.36-.16.54-.16.66 0 1.22.66.96 1.38l-2.33 6.44c-.13.37.16.69.49.69.12 0 .24-.04.34-.14l5.87-5.35c.32-.29.7-.42 1.09-.42.63 0 1.24.36 1.51 1.01l1.49 2.45c.21.53.49.79.74.79.27 0 .49-.3.57-.91l.74-3.74c.07-.64.61-1.04 1.17-1.04.27 0 .55.1.79.31l4.78 6.01c.32.29.65.45.9.45.32 0 .52-.26.41-.8l-1.79-6.77c-.12-.6.36-1.07.88-1.07.2 0 .4.07.58.22l7.08 6.13c.11.09.22.13.33.13.36 0 .68-.41.44-.79l-6.15-9.95c-.19-.3-.02-.69.32-.77l5.77-1.29c.51-.11.54-.83.04-.99l-4.92-1.58c-.46-.15-.48-.78-.04-.96l5.9-2.38c.52-.21.37-.98-.19-.99l-6.51-.05c-.4 0-.64-.45-.43-.79l7.86-12.4c.24-.38-.07-.79-.43-.79-.1 0-.2.03-.3.1l-9.7 7c-.21.15-.44.22-.67.22-.59 0-1.15-.47-1.15-1.14l-.04-4.24c0-.31-.26-.51-.52-.51-.15 0-.3.07-.41.21l-2.86 3.9c-.35.47-.86.7-1.38.7-.65 0-1.3-.37-1.59-1.06l-2.05-4.99c-.12-.2-.32-.3-.51-.3z" fill="#424242" opacity=".2"/><path d="m28.67 2.67 1.66 11.31-3 .04z" fill="url(#c)"/><path d="m13.25 9.88 11.22 5.35-1.61 2.54z" fill="url(#d)"/><path d="m11.5 25.17 11.3-4.01.65 2.93z" fill="url(#e)"/><path d="m27.34 28.09-7.66 8.47 5.19-10.17z" fill="url(#f)"/><path d="m32.04 28.43.48 9.34-2.9-8.89z" fill="url(#g)"/><path d="m33.04 14.01 8.63-7.51-6.38 9.49z" fill="url(#h)"/><g fill="#f44336"><circle cx="22.94" cy="10.19" r=".94"/><circle cx="17.75" cy="19.38" r="1"/><circle cx="38" cy="17.38" r="1"/><circle cx="26.33" cy="32.92" r=".57"/><circle cx="17.38" cy="29.5" r="1"/></g></svg>