<?xml version="1.0" encoding="UTF-8" standalone="no"?>
<svg
   xmlns:dc="http://purl.org/dc/elements/1.1/"
   xmlns:cc="http://creativecommons.org/ns#"
   xmlns:rdf="http://www.w3.org/1999/02/22-rdf-syntax-ns#"
   xmlns:svg="http://www.w3.org/2000/svg"
   xmlns="http://www.w3.org/2000/svg"
   xmlns:sodipodi="http://sodipodi.sourceforge.net/DTD/sodipodi-0.dtd"
   xmlns:inkscape="http://www.inkscape.org/namespaces/inkscape"
   sodipodi:docname="bye.svg"
   inkscape:version="1.0 (4035a4fb49, 2020-05-01)"
   id="svg1807"
   version="1.1"
   viewBox="0 0 33.866666 33.866668"
   height="128"
   width="128">
  <defs
     id="defs1801">
    <clipPath
       id="a-3">
      <path
         id="path2-6"
         d="M 4,4 H 124 V 124 H 4 Z" />
    </clipPath>
  </defs>
  <sodipodi:namedview
     inkscape:window-maximized="0"
     inkscape:window-y="47"
     inkscape:window-x="445"
     inkscape:window-height="1002"
     inkscape:window-width="1473"
     units="px"
     showgrid="false"
     inkscape:document-rotation="0"
     inkscape:current-layer="layer1"
     inkscape:document-units="mm"
     inkscape:cy="560"
     inkscape:cx="-150"
     inkscape:zoom="0.35"
     inkscape:pageshadow="2"
     inkscape:pageopacity="0.0"
     borderopacity="1.0"
     bordercolor="#666666"
     pagecolor="#ffffff"
     id="base" />
  <metadata
     id="metadata1804">
    <rdf:RDF>
      <cc:Work
         rdf:about="">
        <dc:format>image/svg+xml</dc:format>
        <dc:type
           rdf:resource="http://purl.org/dc/dcmitype/StillImage" />
        <dc:title></dc:title>
      </cc:Work>
    </rdf:RDF>
  </metadata>
  <g
     id="layer1"
     inkscape:groupmode="layer"
     inkscape:label="Layer 1">
    <g
       transform="matrix(0.74760458,0,0,0.74760458,-4.2635633,-1.8552769)"
       id="g107"
       clip-path="url(#a-3)">
      <path
         id="path99"
         fill="#ffd29c"
         d="m 46.19,27.82 c -0.52,-1.04 -2.07,-1.94 -4.46,-1.62 -2.4,0.32 -3.78,2.58 -5.35,3.33 -0.5,0.24 -1.04,-0.26 -0.84,-0.79 1.31,-3.47 6,-16.28 6,-16.28 0.66,-1.72 0.14,-3.5 -1.61,-3.95 -1.39,-0.35 -2.63,0.64 -3.18,2.08 l -4.7,11.35 c -0.06,0.15 -0.21,0.23 -0.36,0.19 H 31.68 C 31.53,22.08 31.44,21.92 31.49,21.75 L 34.98,7.91 C 35.39,6.43 35.11,4.92 33.8,4.34 32.17,3.61 30.65,4.7 30.16,6.48 l -4.11,13.55 c -0.09,0.33 -0.41,0.54 -0.72,0.47 H 25.32 C 25,20.43 24.8,20.09 24.88,19.75 c 0,0 1.89,-10.04 2.18,-11.48 0.29,-1.44 0.02,-3.28 -1.75,-3.67 -1.77,-0.39 -2.6,0.88 -3.04,2.46 -0.37,1.35 -2.03,8.95 -2.51,11.14 -0.07,0.33 -0.39,0.54 -0.72,0.48 -0.31,-0.06 -0.53,-0.34 -0.51,-0.65 l 0.39,-6.54 c 0.1,-1.62 -0.29,-2.88 -1.68,-3.23 -1.73,-0.43 -3,0.75 -3.21,2.58 L 12.36,21.7 c 0,0 -1.16,6.94 -1.66,9.81 -1.31,7.55 0.77,11.24 1.54,11.69 1.15,0.67 7.82,1.79 9.49,2.31 9.36,2.92 11.37,-4.68 14.21,-8.32 1.75,-2.24 6.11,-5.73 8.41,-5.76 2.3,-0.04 2.28,-2.74 1.84,-3.61 z" />
      <g
         id="g105"
         fill="#e3b57c">
        <path
           id="path101"
           d="m 32.77,5.1 c 0.2,0 0.41,0.05 0.62,0.14 1.09,0.49 0.71,2.08 0.61,2.42 l -3.48,13.81 c -0.19,0.69 0.19,1.39 0.86,1.6 0.12,0.04 0.25,0.06 0.38,0.06 0.54,0 1.01,-0.33 1.2,-0.82 l 4.71,-11.37 c 0.35,-0.92 1.02,-1.51 1.69,-1.51 0.1,0 0.21,0.01 0.31,0.04 0.44,0.11 0.76,0.35 0.95,0.71 0.26,0.5 0.25,1.2 -0.03,1.92 -0.05,0.13 -4.7,12.85 -6,16.27 -0.19,0.5 -0.12,1.06 0.18,1.5 0.31,0.44 0.8,0.71 1.33,0.71 0.24,0 0.47,-0.05 0.69,-0.16 0.71,-0.34 1.32,-0.87 1.97,-1.44 0.92,-0.81 1.88,-1.64 3.08,-1.8 0.28,-0.04 0.56,-0.06 0.82,-0.06 1.51,0 2.36,0.61 2.62,1.13 0.15,0.29 0.22,1.2 -0.11,1.74 -0.12,0.19 -0.32,0.42 -0.86,0.42 -2.91,0.04 -7.53,4.02 -9.18,6.15 -0.58,0.74 -1.1,1.6 -1.65,2.51 -1.82,2.99 -3.71,6.08 -7.9,6.08 -1.07,0 -2.27,-0.2 -3.56,-0.61 -0.69,-0.22 -2.08,-0.5 -3.68,-0.84 -1.89,-0.39 -5.05,-1.05 -5.58,-1.36 -0.42,-0.34 -2.32,-3.56 -1.09,-10.67 0.5,-2.87 1.66,-9.81 1.66,-9.83 L 15,10.94 c 0.1,-0.86 0.55,-1.78 1.52,-1.78 0.14,0 0.3,0.02 0.45,0.06 0.34,0.08 1.04,0.26 0.92,2.2 l -0.39,6.54 c -0.05,0.82 0.52,1.54 1.32,1.69 0.1,0.02 0.2,0.03 0.3,0.03 0.76,0 1.42,-0.54 1.59,-1.28 1.02,-4.67 2.2,-10.04 2.5,-11.09 0.5,-1.79 1.2,-1.8 1.46,-1.8 0.12,0 0.26,0.02 0.4,0.05 1.36,0.3 1.06,2.13 0.99,2.49 -0.29,1.43 -2.11,11.08 -2.18,11.46 -0.19,0.88 0.35,1.75 1.22,1.95 0.11,0.02 0.22,0.04 0.34,0.04 0.72,0 1.37,-0.5 1.56,-1.19 L 31.12,6.74 C 31.39,5.76 32.05,5.1 32.77,5.1 m 0,-1 c -1.21,0 -2.23,0.98 -2.62,2.37 l -4.11,13.55 c -0.08,0.29 -0.33,0.48 -0.6,0.48 -0.04,0 -0.08,0 -0.12,-0.01 h -0.01 c -0.32,-0.07 -0.52,-0.41 -0.44,-0.75 0,0 1.89,-10.04 2.18,-11.48 C 27.34,6.82 27.07,4.98 25.3,4.59 25.08,4.54 24.88,4.52 24.69,4.52 c -1.36,0 -2.04,1.14 -2.43,2.53 -0.37,1.35 -2.03,8.95 -2.51,11.14 -0.06,0.29 -0.32,0.49 -0.61,0.49 -0.04,0 -0.08,0 -0.11,-0.01 -0.31,-0.06 -0.53,-0.34 -0.51,-0.65 l 0.39,-6.54 C 19.01,9.86 18.62,8.6 17.23,8.25 16.99,8.19 16.76,8.16 16.53,8.16 c -1.37,0 -2.33,1.1 -2.52,2.67 L 12.36,21.7 c 0,0 -1.16,6.94 -1.66,9.81 -1.31,7.55 0.77,11.24 1.54,11.69 1.15,0.67 7.82,1.79 9.49,2.31 1.45,0.45 2.73,0.65 3.86,0.65 6.14,0 7.95,-5.9 10.35,-8.97 1.75,-2.24 6.11,-5.73 8.41,-5.76 2.3,-0.03 2.29,-2.74 1.85,-3.61 -0.44,-0.89 -1.65,-1.69 -3.51,-1.69 -0.3,0 -0.62,0.02 -0.95,0.07 -2.4,0.32 -3.78,2.58 -5.35,3.33 -0.09,0.04 -0.18,0.06 -0.27,0.06 -0.41,0 -0.74,-0.42 -0.58,-0.85 1.31,-3.47 6,-16.28 6,-16.28 0.66,-1.72 0.14,-3.5 -1.61,-3.95 -0.19,-0.05 -0.38,-0.07 -0.56,-0.07 -1.15,0 -2.14,0.91 -2.62,2.15 l -4.7,11.35 c -0.05,0.12 -0.16,0.2 -0.28,0.2 -0.03,0 -0.05,0 -0.08,-0.01 H 31.68 C 31.53,22.08 31.44,21.92 31.49,21.75 L 34.98,7.91 C 35.39,6.43 35.11,4.92 33.8,4.34 33.45,4.17 33.1,4.1 32.77,4.1 Z" />
        <path
           id="path103"
           d="m 34.87,29.27 c -4.15,0.08 -8.07,3.08 -10.35,6.76 -0.35,0.56 0.2,0.92 0.55,0.36 1.97,-3.18 6.29,-5.68 9.92,-5.53 0.49,0.02 1.82,-0.43 1.82,-0.43 L 35.9,29.76 c 0,0 -0.3,-0.36 -1.03,-0.49 z" />
      </g>
    </g>
  </g>
</svg>
