<svg xmlns="http://www.w3.org/2000/svg" height="128" viewBox="0 0 33.867 33.867" width="128"><clipPath id="A"><path d="M4 4h120v120H4z"/></clipPath><g clip-path="url(#A)" transform="matrix(.7476 0 0 .7476 -4.2636 -1.8553)"><path d="M46.2 27.82c-.52-1.04-2.07-1.94-4.46-1.62-2.4.32-3.78 2.58-5.35 3.33-.5.24-1.04-.26-.84-.8l6-16.28c.66-1.72.14-3.5-1.6-3.95-1.4-.35-2.63.64-3.18 2.08l-4.7 11.35c-.06.15-.2.23-.36.2h-.01c-.15-.05-.24-.2-.2-.38l3.5-13.84c.4-1.48.13-3-1.18-3.57-1.63-.73-3.15.36-3.64 2.14l-4.1 13.55c-.1.33-.4.54-.72.47h-.01c-.32-.07-.52-.4-.44-.75l2.18-11.48c.3-1.44.02-3.28-1.75-3.67s-2.6.88-3.04 2.46C21.9 8.4 20.24 16 19.76 18.2a.62.62 0 0 1-.72.48c-.3-.06-.53-.34-.5-.65l.4-6.54c.1-1.62-.3-2.88-1.68-3.23-1.73-.43-3 .75-3.2 2.58L12.36 21.7l-1.66 9.8c-1.3 7.55.77 11.24 1.54 11.7 1.15.67 7.82 1.8 9.5 2.3 9.36 2.92 11.37-4.68 14.2-8.32 1.75-2.24 6.1-5.73 8.4-5.76 2.3-.04 2.28-2.74 1.84-3.6z" fill="#ffd29c"/><g fill="#e3b57c"><path d="M32.77 5.1c.2 0 .4.05.62.14 1.1.5.7 2.08.6 2.42l-3.48 13.8c-.2.7.2 1.4.86 1.6a1.21 1.21 0 0 0 .38.06 1.28 1.28 0 0 0 1.2-.82l4.7-11.37c.35-.92 1.02-1.5 1.7-1.5a1.1 1.1 0 0 1 .31.04c.44.1.76.35.95.7.26.5.25 1.2-.03 1.92l-6 16.27c-.2.5-.12 1.06.18 1.5.3.44.8.7 1.33.7a1.52 1.52 0 0 0 .69-.16c.7-.34 1.32-.87 1.97-1.44.92-.8 1.88-1.64 3.08-1.8.28-.04.56-.06.82-.06 1.5 0 2.36.6 2.62 1.13.15.3.22 1.2-.1 1.74-.12.2-.32.42-.86.42-2.9.04-7.53 4.02-9.18 6.15-.58.74-1.1 1.6-1.65 2.5-1.82 3-3.7 6.08-7.9 6.08-1.07 0-2.27-.2-3.56-.6-.7-.22-2.08-.5-3.68-.84-1.9-.4-5.05-1.05-5.58-1.36-.42-.34-2.32-3.56-1.1-10.67l1.66-9.83L15 10.94c.1-.86.55-1.78 1.52-1.78a1.8 1.8 0 0 1 .45.06c.34.08 1.04.26.92 2.2l-.4 6.54a1.62 1.62 0 0 0 1.32 1.69c.1.02.2.03.3.03.76 0 1.42-.54 1.6-1.28l2.5-11.1c.5-1.8 1.2-1.8 1.46-1.8.12 0 .26.02.4.05 1.36.3 1.06 2.13 1 2.5L23.88 19.5c-.2.88.35 1.75 1.22 1.95a1.86 1.86 0 0 0 .34.04A1.64 1.64 0 0 0 27 20.31l4.12-13.57c.27-.98.93-1.64 1.65-1.64m0-1c-1.2 0-2.23.98-2.62 2.37l-4.1 13.55c-.08.3-.33.48-.6.48-.04 0-.08 0-.12-.01h-.01c-.32-.07-.52-.4-.44-.75l2.18-11.48c.3-1.44.02-3.28-1.75-3.67a2.72 2.72 0 0 0-.61-.07c-1.36 0-2.04 1.14-2.43 2.53-.37 1.35-2.03 8.95-2.5 11.14a.62.62 0 0 1-.61.49c-.04 0-.08 0-.1-.01-.3-.06-.53-.34-.5-.65l.4-6.54c.1-1.62-.3-2.88-1.68-3.23a2.86 2.86 0 0 0-.7-.09c-1.37 0-2.33 1.1-2.52 2.67L12.36 21.7l-1.66 9.8c-1.3 7.55.77 11.24 1.54 11.7 1.15.67 7.82 1.8 9.5 2.3 1.45.45 2.73.65 3.86.65 6.14 0 7.95-5.9 10.35-8.97 1.75-2.24 6.1-5.73 8.4-5.76s2.3-2.74 1.85-3.6c-.44-.9-1.65-1.7-3.5-1.7a6.35 6.35 0 0 0-.95.07c-2.4.32-3.78 2.58-5.35 3.33a.66.66 0 0 1-.27.06.63.63 0 0 1-.58-.85l6-16.28c.66-1.72.14-3.5-1.6-3.95-.2-.05-.38-.07-.56-.07-1.15 0-2.14.9-2.62 2.15l-4.7 11.35c-.05.12-.16.2-.28.2-.03 0-.05 0-.08-.01h-.01c-.15-.05-.24-.2-.2-.38l3.5-13.84c.4-1.48.13-3-1.18-3.57a2.34 2.34 0 0 0-1.03-.24z"/><path d="M34.87 29.27c-4.15.08-8.07 3.08-10.35 6.76-.35.56.2.92.55.36 1.97-3.18 6.3-5.68 9.92-5.53.5.02 1.82-.43 1.82-.43l-.9-.67s-.3-.36-1.03-.5z"/></g></g></svg>