<svg enable-background="new 0 0 128 128" viewBox="0 0 128 128" xmlns="http://www.w3.org/2000/svg" xmlns:xlink="http://www.w3.org/1999/xlink"><linearGradient id="a" gradientUnits="userSpaceOnUse" x1="63.989" x2="63.989" y1="19.871" y2="107.6"><stop offset=".5" stop-color="#fff"/><stop offset=".6126" stop-color="#fcfcfc"/><stop offset=".7091" stop-color="#f1f1f1"/><stop offset=".7997" stop-color="#dfdfdf"/><stop offset=".8861" stop-color="#c7c7c7"/><stop offset=".9" stop-color="#c2c2c2"/></linearGradient><linearGradient id="b" gradientUnits="userSpaceOnUse"><stop offset="0" stop-color="#ed7770"/><stop offset=".9" stop-color="#ed7770" stop-opacity="0"/></linearGradient><radialGradient id="c" cx="39.417" cy="67.104" gradientTransform="matrix(1 0 0 .7307 0 19.795)" r="21.667" xlink:href="#b"/><radialGradient id="d" cx="87.583" cy="67.104" gradientTransform="matrix(1 0 0 .7307 0 19.795)" r="21.667" xlink:href="#b"/><linearGradient id="e" gradientUnits="userSpaceOnUse"><stop offset="0" stop-color="#ff4900"/><stop offset="1" stop-color="#e30c00"/></linearGradient><radialGradient id="f" cx="66" cy="60" r="20.67" xlink:href="#e"/><linearGradient id="g" x1="23.808" x2="23.808" xlink:href="#e" y1="5.8113" y2="43.454"/><linearGradient id="h" x1="104.63" x2="104.63" xlink:href="#e" y1="5.8113" y2="43.454"/><path d="m63.99 119.76c-27.85 0-57.83-17.44-57.83-55.73s29.98-55.73 57.83-55.73c15.44 0 29.73 5.11 40.24 14.39 11.51 10.16 17.59 24.45 17.59 41.34 0 16.81-6.08 31.08-17.59 41.27-10.54 9.32-24.83 14.46-40.24 14.46z" fill="url(#a)"/><path d="m63.99 10.29c14.95 0 28.77 4.93 38.92 13.89 11.06 9.77 16.91 23.54 16.91 39.84 0 16.22-5.85 29.98-16.92 39.77-10.17 9-23.99 13.96-38.91 13.96-14.99 0-28.82-4.89-38.92-13.78-11.06-9.72-16.91-23.53-16.91-39.95 0-16.48 5.84-30.32 16.9-40.02 10.08-8.84 23.91-13.71 38.93-13.71m0-4c-31.06 0-59.83 19.95-59.83 57.73 0 37.58 28.77 57.73 59.83 57.73s59.83-20.67 59.83-57.73c0-37.26-28.77-57.73-59.83-57.73z" fill="#b0aba3"/><ellipse cx="39.42" cy="68.83" fill="url(#c)" rx="19.92" ry="15.27"/><ellipse cx="87.58" cy="68.83" fill="url(#d)" rx="19.92" ry="15.27"/><g fill="#242424"><path d="m91.29 50h-14.28c-2.12 0-3.86-1.74-3.86-3.86s1.74-3.86 3.86-3.86h14.28c2.12 0 3.86 1.74 3.86 3.86-.2 2.13-1.93 3.86-3.86 3.86z"/><path d="m83.95 57.15c-2.12 0-3.86-1.74-3.86-3.86v-14.29c0-2.12 1.74-3.86 3.86-3.86s3.86 1.74 3.86 3.86v14.28c0 2.13-1.73 3.87-3.86 3.87z"/></g><circle cx="63.99" cy="66" fill="url(#f)" r="15.11" stroke="#b32e2e" stroke-miterlimit="10" stroke-width="5"/><path d="m63.99 103.51c-14.4 0-27.92-6.15-37.1-16.88-.97-1.13-1.19-2.65-.57-3.98.62-1.35 1.97-2.23 3.42-2.23.66 0 1.32.18 1.91.52 9.41 5.47 20.6 8.35 32.34 8.35 11.75 0 22.93-2.89 32.34-8.35.59-.34 1.25-.52 1.91-.52 1.46 0 2.8.87 3.42 2.23.61 1.33.39 2.85-.57 3.98-9.18 10.73-22.7 16.88-37.1 16.88z" fill="#242424"/><path d="m98.24 82.42c1.35 0 2.39 1.67 1.33 2.91-8.45 9.88-21.25 16.17-35.58 16.17s-27.13-6.3-35.58-16.17c-1.06-1.24-.02-2.91 1.33-2.91.29 0 .6.08.9.25 9.33 5.42 20.86 8.63 33.35 8.63s24.02-3.21 33.35-8.63c.3-.17.61-.25.9-.25m0-4c-1.01 0-2.02.27-2.91.8-9.11 5.29-19.95 8.08-31.34 8.08s-22.23-2.8-31.34-8.08c-.9-.52-1.9-.79-2.91-.79-2.23 0-4.29 1.33-5.24 3.39-.94 2.05-.61 4.39.87 6.12 9.55 11.16 23.63 17.57 38.62 17.57s29.06-6.41 38.62-17.57c1.48-1.73 1.81-4.07.87-6.12-.95-2.07-3-3.4-5.24-3.4z" fill="#ed0009"/><path d="m11.62 46.87c-4.6 0-8.34-3.74-8.34-8.34 0-3.13 1.73-5.97 4.52-7.41.93-.48 1.33-1.6.92-2.56-.69-1.61-1.04-3.33-1.04-5.09 0-7.14 5.81-12.94 12.94-12.94 2.79 0 5.46.89 7.71 2.57.35.26.77.4 1.2.4.22 0 .43-.04.64-.11.62-.21 1.1-.72 1.28-1.35.79-2.82 3.39-4.79 6.32-4.79 3.63 0 6.57 2.95 6.57 6.57 0 3.63-2.95 6.57-6.57 6.57-.57 0-1.16-.08-1.75-.25-.18-.05-.35-.07-.53-.07-.46 0-.92.16-1.28.47-.5.42-.77 1.06-.71 1.72.04.4.06.8.06 1.2 0 6.75-5.06 12.28-11.78 12.88-1.05.09-1.85.98-1.82 2.04 0 .03.01.15.01.18-.01 4.57-3.75 8.31-8.35 8.31z" fill="url(#g)"/><path d="m37.77 9.24c2.52 0 4.57 2.05 4.57 4.57s-2.05 4.57-4.57 4.57c-.39 0-.8-.06-1.22-.17-.35-.1-.71-.14-1.07-.14-.93 0-1.84.32-2.57.93-1.01.84-1.54 2.13-1.42 3.44.04.39.05.72.05 1.02 0 5.7-4.28 10.38-9.96 10.89-2.09.19-3.68 1.96-3.65 4.06 0 .07 0 .14.01.21-.05 3.46-2.88 6.25-6.34 6.25-3.5 0-6.34-2.85-6.34-6.34 0-2.38 1.32-4.54 3.44-5.63 1.86-.96 2.67-3.2 1.84-5.13-.58-1.36-.88-2.81-.88-4.3 0-6.03 4.91-10.94 10.94-10.94 2.36 0 4.61.75 6.52 2.17.7.52 1.54.79 2.39.79.43 0 .87-.07 1.29-.21 1.25-.42 2.21-1.43 2.56-2.7.57-1.97 2.37-3.34 4.41-3.34m0-4c-3.93 0-7.23 2.64-8.25 6.25-2.49-1.86-5.57-2.97-8.91-2.97-8.25 0-14.94 6.69-14.94 14.94 0 2.09.43 4.07 1.2 5.88-3.33 1.72-5.6 5.18-5.6 9.19 0 5.71 4.63 10.34 10.34 10.34s10.34-4.63 10.34-10.34c0-.06-.01-.13-.01-.19 7.62-.68 13.6-7.07 13.6-14.87 0-.47-.03-.93-.07-1.39.73.2 1.49.32 2.29.32 4.74 0 8.57-3.84 8.57-8.57.01-4.75-3.83-8.59-8.56-8.59z" fill="#b32e2e"/><path d="m116.82 46.87c-4.6 0-8.34-3.74-8.34-8.34 0-.04.01-.12.01-.16.02-1.05-.78-1.93-1.82-2.02-6.71-.6-11.78-6.13-11.78-12.88 0-.41.03-.81.06-1.21.06-.65-.2-1.3-.71-1.72-.36-.3-.82-.47-1.28-.47-.18 0-.36.02-.53.07-.59.16-1.18.25-1.75.25-3.62 0-6.57-2.95-6.57-6.57s2.95-6.57 6.57-6.57c2.93 0 5.53 1.97 6.32 4.79.18.63.66 1.14 1.28 1.35.21.07.43.11.64.11.42 0 .84-.14 1.2-.4 2.26-1.68 4.92-2.57 7.71-2.57 7.14 0 12.94 5.8 12.94 12.94 0 1.76-.35 3.48-1.04 5.09-.41.96-.01 2.08.92 2.56 2.79 1.44 4.52 4.28 4.52 7.41 0 4.6-3.75 8.34-8.35 8.34z" fill="url(#h)"/><path d="m90.67 9.24c2.04 0 3.84 1.37 4.4 3.33.36 1.27 1.32 2.28 2.56 2.7.42.14.86.21 1.29.21.85 0 1.69-.27 2.39-.79 1.91-1.42 4.16-2.17 6.52-2.17 6.03 0 10.94 4.91 10.94 10.94 0 1.49-.3 2.94-.88 4.3-.83 1.93-.02 4.17 1.84 5.13 2.12 1.1 3.44 3.26 3.44 5.63 0 3.5-2.85 6.34-6.34 6.34-3.47 0-6.29-2.8-6.34-6.25 0-.07.01-.14.01-.21.04-2.1-1.55-3.87-3.65-4.06-5.68-.5-9.96-5.19-9.96-10.89 0-.3.02-.63.05-1.02.12-1.31-.41-2.59-1.42-3.44-.73-.61-1.64-.93-2.57-.93-.36 0-.71.05-1.07.14-.42.11-.83.17-1.22.17-2.52 0-4.57-2.05-4.57-4.57.01-2.5 2.06-4.56 4.58-4.56m0-4c-4.74 0-8.57 3.84-8.57 8.57 0 4.74 3.84 8.57 8.57 8.57.79 0 1.56-.12 2.29-.32-.04.46-.07.92-.07 1.39 0 7.8 5.98 14.19 13.6 14.87 0 .06-.01.13-.01.19 0 5.71 4.63 10.34 10.34 10.34s10.34-4.63 10.34-10.34c0-4-2.28-7.47-5.6-9.19.77-1.8 1.2-3.79 1.2-5.88 0-8.25-6.69-14.94-14.94-14.94-3.34 0-6.42 1.11-8.91 2.97-1.01-3.58-4.31-6.23-8.24-6.23z" fill="#b32e2e"/><path d="m43.67 36.94c-4.19 0-8 3.54-8 9.42s3.81 9.42 8 9.42 8-3.54 8-9.42-3.81-9.42-8-9.42z" fill="#242424"/></svg>