<svg enable-background="new 0 0 128 128" viewBox="0 0 128 128" xmlns="http://www.w3.org/2000/svg" xmlns:xlink="http://www.w3.org/1999/xlink"><linearGradient id="a" gradientUnits="userSpaceOnUse" x1="63.678" x2="63.678" y1="112.76" y2="123.88"><stop offset="0" stop-color="#f2f3ed"/><stop offset="1" stop-color="#c8c6b9"/></linearGradient><linearGradient id="b" gradientUnits="userSpaceOnUse" x1="64" x2="64" y1="6.9404" y2="116.96"><stop offset="0" stop-color="#f2f3ed"/><stop offset=".7602" stop-color="#c8c6b9"/><stop offset=".9949" stop-color="#fffcec"/></linearGradient><linearGradient id="c" gradientUnits="userSpaceOnUse" x1="63.83" x2="63.83" y1="18.132" y2="48.712"><stop offset="0" stop-color="#e8ffa1"/><stop offset="1" stop-color="#9ba269"/></linearGradient><ellipse cx="63.68" cy="118.15" fill="url(#a)" rx="17.25" ry="5.49"/><path d="m103.44 10.5h-.04c-.82-2.1-18.06-3.78-39.23-3.78-21.35 0-39.05 1.65-39.59 3.78h-.03l.02.02c-.01.03-.02.05-.02.08 0 .27 33.08 38.76 35.14 45.02 2.27 6.92 2.49 14.02 2.29 28.26-.21 14.24-1.21 31.53-1.21 31.53s-.1 2.43 3.05 2.43c3.26 0 2.95-2.43 2.95-2.43s-1-17.28-1.2-31.53c-.21-14.24.02-21.34 2.28-28.26 2.04-6.23 35.58-44.67 35.58-44.97 0-.04-.02-.08-.03-.12.03-.01.04-.03.04-.03z" fill="url(#b)"/><path d="m91.91 21.59c0-2.22-12.53-4.01-27.98-4.01-15.4 0-27.89 1.78-27.98 3.99l-.21.02s19.33 27.47 28.08 27.47c7.85 0 24.22-22.11 27.5-26.65.39-.26.59-.54.59-.82z" fill="url(#c)"/><ellipse cx="64.2" cy="10.6" fill="#fff" rx="39.24" ry="5.63"/><path d="m62.85 44.49s1.38-2.5 3.68-6.09c1.14-1.8 2.51-3.87 4.01-6.07.76-1.09 1.52-2.24 2.33-3.37.81-1.14 1.63-2.29 2.46-3.44.84-1.14 1.69-2.28 2.51-3.4.82-1.13 1.68-2.2 2.48-3.26 1.62-2.11 3.17-4.05 4.53-5.69 2.7-3.29 4.65-5.38 4.65-5.38s-1.38 2.5-3.68 6.09c-1.14 1.8-2.51 3.87-4.01 6.07-.76 1.09-1.52 2.24-2.34 3.37-.81 1.14-1.63 2.29-2.46 3.44-.84 1.14-1.69 2.28-2.52 3.4-.82 1.13-1.68 2.2-2.48 3.26-1.62 2.11-3.17 4.05-4.53 5.69-2.68 3.29-4.63 5.38-4.63 5.38z" fill="#8c6239"/><ellipse cx="68.75" cy="33.09" fill="#81882d" rx="8.34" ry="6.92" transform="matrix(.9756 -.2196 .2196 .9756 -5.5889 15.908)"/><ellipse cx="77.34" cy="23.96" fill="#727724" rx="6.21" ry="5.15" transform="matrix(.9756 -.2196 .2196 .9756 -3.3747 17.572)"/><ellipse cx="67.4" cy="32.87" fill="#85471b" rx="4.18" ry="3.34" transform="matrix(.7071 -.7071 .7071 .7071 -3.5055 57.286)"/><ellipse cx="75.54" cy="23.72" fill="#85471b" rx="2.83" ry="2.26" transform="matrix(.7071 -.7071 .7071 .7071 5.3537 60.36)"/><ellipse cx="63.93" cy="21.59" fill="#e6eecb" opacity=".52" rx="27.98" ry="4.01"/><path d="m64.2 7.98c18.7 0 30.5 1.78 34.94 3.18-.58.68-1.27 1.5-2.05 2.42-21.52 25.33-30.81 37.25-32.08 41.11-.5 1.52-.9 3.04-1.23 4.62-.33-1.58-.73-3.1-1.23-4.62-1.28-3.9-10.52-15.89-31.87-41.39-.61-.73-1.2-1.43-1.71-2.05 4.18-1.41 16.09-3.27 35.23-3.27m-.42 105.68c.37 1.16 1.43 2.01 2.69 2.08 5.71.32 9.44 1.52 10.93 2.41-1.63.97-6.11 2.5-13.72 2.5s-12.08-1.53-13.72-2.5c1.51-.9 5.3-2.12 11.12-2.42 1.27-.07 2.32-.91 2.7-2.07m.42-108.68c-19.88 0-36.29 2.12-38.88 4.87-.43.21-.69.43-.75.66h-.03l.02.02c-.01.03-.02.05-.02.08 0 .27 33.08 38.76 35.14 45.02 2.27 6.92 2.49 14.02 2.29 28.26-.16 10.85-.77 23.45-1.06 28.85-8.21.42-14.49 2.68-14.49 5.42 0 3.03 7.72 5.49 17.25 5.49s17.25-2.46 17.25-5.49c0-2.71-6.18-4.96-14.29-5.41-.28-5.39-.9-18-1.06-28.86-.21-14.24.02-21.34 2.28-28.26 1.83-5.61 29.18-37.3 34.63-43.79.58-.37.91-.76.94-1.16 0 0 .01-.01.01-.02v-.02c0-.01.01-.02.01-.04 0-.03-.01-.06-.01-.08 0-.01.01-.02.01-.02h-.02c-.37-3.06-17.78-5.52-39.22-5.52z" fill="#424242" opacity=".2"/></svg>