<?xml version="1.0" encoding="UTF-8"?>
<svg xmlns="http://www.w3.org/2000/svg" xmlns:xlink="http://www.w3.org/1999/xlink" width="16pt" height="16pt" viewBox="0 0 16 16" version="1.1">
<defs>
<linearGradient id="linear0" gradientUnits="userSpaceOnUse" x1="16.433" y1="110.26" x2="16.433" y2="-56.892" >
<stop offset="0" style="stop-color:rgb(89.019608%,89.019608%,89.019608%);stop-opacity:1;"/>
<stop offset="0.138" style="stop-color:rgb(90.196078%,90.196078%,90.196078%);stop-opacity:1;"/>
<stop offset="0.2561" style="stop-color:rgb(94.509804%,94.509804%,94.509804%);stop-opacity:1;"/>
<stop offset="0.3484" style="stop-color:rgb(100%,100%,100%);stop-opacity:1;"/>
</linearGradient>
<linearGradient id="linear1" gradientUnits="userSpaceOnUse" x1="111.57" y1="110.26" x2="111.57" y2="-56.892" >
<stop offset="0" style="stop-color:rgb(89.019608%,89.019608%,89.019608%);stop-opacity:1;"/>
<stop offset="0.138" style="stop-color:rgb(90.196078%,90.196078%,90.196078%);stop-opacity:1;"/>
<stop offset="0.2561" style="stop-color:rgb(94.509804%,94.509804%,94.509804%);stop-opacity:1;"/>
<stop offset="0.3484" style="stop-color:rgb(100%,100%,100%);stop-opacity:1;"/>
</linearGradient>
<linearGradient id="linear2" gradientUnits="userSpaceOnUse" x1="63.998" y1="108.63" x2="63.998" y2="-53.414" gradientTransform="matrix(0.125,0,0,0.125,0,0)">
<stop offset="0.1318" style="stop-color:rgb(83.137255%,83.137255%,83.137255%);stop-opacity:1;"/>
<stop offset="0.2029" style="stop-color:rgb(84.313725%,84.313725%,84.313725%);stop-opacity:1;"/>
<stop offset="0.2638" style="stop-color:rgb(88.627451%,88.627451%,88.627451%);stop-opacity:1;"/>
<stop offset="0.3208" style="stop-color:rgb(95.294118%,95.294118%,95.294118%);stop-opacity:1;"/>
<stop offset="0.3484" style="stop-color:rgb(100%,100%,100%);stop-opacity:1;"/>
</linearGradient>
<clipPath id="clip1">
  <path d="M 2 4 L 7 4 L 7 11 L 2 11 Z M 2 4 "/>
</clipPath>
<clipPath id="clip2">
  <path d="M 8.375 1.75 L 7.554688 1.75 C 4.785156 1.75 2.515625 4.042969 2.515625 6.8125 L 2.890625 12.5 L 13.109375 12.5 L 13.449219 6.8125 "/>
</clipPath>
<linearGradient id="linear3" gradientUnits="userSpaceOnUse" x1="63" y1="138.84" x2="63" y2="18.645" >
<stop offset="0" style="stop-color:rgb(83.921569%,58.431373%,28.627451%);stop-opacity:1;"/>
<stop offset="0.1132" style="stop-color:rgb(84.313725%,59.215686%,29.803922%);stop-opacity:1;"/>
<stop offset="0.2102" style="stop-color:rgb(85.882353%,61.960784%,34.117647%);stop-opacity:1;"/>
<stop offset="0.3009" style="stop-color:rgb(88.235294%,66.27451%,41.176471%);stop-opacity:1;"/>
<stop offset="0.3484" style="stop-color:rgb(90.196078%,69.411765%,45.882353%);stop-opacity:1;"/>
</linearGradient>
</defs>
<g id="surface1">
<path style="fill-rule:nonzero;fill:url(#linear0);stroke-width:3;stroke-linecap:butt;stroke-linejoin:round;stroke:rgb(69.019608%,69.019608%,69.019608%);stroke-opacity:1;stroke-miterlimit:10;" d="M 27 39.59375 C 27 39.59375 19.0625 35.71875 10.53125 44.21875 C 2 52.75 5.875 60.6875 5.875 60.6875 C 5.875 60.6875 13.8125 64.5625 22.34375 56.0625 C 30.875 47.53125 27 39.59375 27 39.59375 Z M 27 39.59375 " transform="matrix(0.125,0,0,0.125,0,0)"/>
<path style="fill-rule:nonzero;fill:url(#linear1);stroke-width:3;stroke-linecap:butt;stroke-linejoin:round;stroke:rgb(69.019608%,69.019608%,69.019608%);stroke-opacity:1;stroke-miterlimit:10;" d="M 122.125 60.6875 C 122.125 60.6875 126 52.75 117.46875 44.21875 C 108.96875 35.71875 101.03125 39.59375 101.03125 39.59375 C 101.03125 39.59375 97.15625 47.53125 105.65625 56.0625 C 114.1875 64.5625 122.125 60.6875 122.125 60.6875 Z M 122.125 60.6875 " transform="matrix(0.125,0,0,0.125,0,0)"/>
<path style="fill-rule:nonzero;fill:rgb(90.196078%,69.411765%,45.882353%);fill-opacity:1;stroke-width:3;stroke-linecap:butt;stroke-linejoin:round;stroke:rgb(76.078431%,52.54902%,25.098039%);stroke-opacity:1;stroke-miterlimit:10;" d="M 35.53125 16.09375 C 32.375 10.65625 35.28125 3.125 29.84375 6.25 C 24.40625 9.40625 22.5625 16.34375 25.6875 21.78125 C 28.84375 27.21875 35.78125 29.09375 41.21875 25.9375 C 46.625 22.8125 38.65625 21.53125 35.53125 16.09375 Z M 35.53125 16.09375 " transform="matrix(0.125,0,0,0.125,0,0)"/>
<path style="fill-rule:nonzero;fill:rgb(90.196078%,69.411765%,45.882353%);fill-opacity:1;stroke-width:3;stroke-linecap:butt;stroke-linejoin:round;stroke:rgb(76.078431%,52.54902%,25.098039%);stroke-opacity:1;stroke-miterlimit:10;" d="M 92.46875 16.09375 C 95.625 10.65625 92.71875 3.125 98.15625 6.25 C 103.59375 9.40625 105.4375 16.34375 102.3125 21.78125 C 99.15625 27.21875 92.21875 29.09375 86.78125 25.9375 C 81.375 22.8125 89.34375 21.53125 92.46875 16.09375 Z M 92.46875 16.09375 " transform="matrix(0.125,0,0,0.125,0,0)"/>
<path style=" stroke:none;fill-rule:nonzero;fill:url(#linear2);" d="M 3.066406 12.25 L 2.703125 6.738281 C 2.703125 4.074219 4.878906 1.875 7.554688 1.875 L 8.445312 1.875 C 11.121094 1.875 13.296875 4.074219 13.296875 6.75 L 12.933594 12.25 Z M 3.066406 12.25 "/>
<path style=" stroke:none;fill-rule:nonzero;fill:rgb(69.019608%,69.019608%,69.019608%);fill-opacity:1;" d="M 8.445312 2.125 C 11.011719 2.125 13.101562 4.171875 13.109375 6.738281 L 12.757812 12 L 3.242188 12 L 2.890625 6.738281 C 2.898438 4.171875 4.988281 2.125 7.554688 2.125 L 8.5 2.125 M 8.445312 1.75 L 7.554688 1.75 C 4.78125 1.75 2.515625 3.980469 2.515625 6.75 L 2.890625 12.375 L 13.109375 12.375 L 13.484375 6.75 C 13.484375 3.980469 11.21875 1.75 8.445312 1.75 Z M 8.445312 1.75 "/>
<g clip-path="url(#clip1)" clip-rule="nonzero">
<g clip-path="url(#clip2)" clip-rule="nonzero">
<path style=" stroke:none;fill-rule:nonzero;fill:rgb(76.862745%,76.862745%,76.862745%);fill-opacity:1;" d="M 7 7.296875 C 7 5.890625 5.859375 4.75 4.453125 4.75 L 4.421875 4.75 C 3.015625 4.75 1.875 5.890625 1.875 7.296875 L 1.875 7.578125 C 1.875 8.984375 3.015625 10.125 4.421875 10.125 L 4.453125 10.125 C 5.859375 10.125 7 8.984375 7 7.578125 Z M 7 7.296875 "/>
</g>
</g>
<path style=" stroke:none;fill-rule:nonzero;fill:rgb(25.098039%,25.098039%,25.098039%);fill-opacity:1;" d="M 5.691406 7.265625 C 5.691406 6.578125 5.203125 6.023438 4.597656 6.023438 C 3.992188 6.023438 3.5 6.578125 3.5 7.265625 C 3.5 7.949219 3.992188 8.503906 4.597656 8.503906 C 5.203125 8.503906 5.691406 7.949219 5.691406 7.265625 Z M 5.691406 7.265625 "/>
<path style=" stroke:none;fill-rule:nonzero;fill:rgb(25.098039%,25.098039%,25.098039%);fill-opacity:1;" d="M 12.5 7.265625 C 12.5 6.578125 12.007812 6.023438 11.402344 6.023438 C 10.796875 6.023438 10.308594 6.578125 10.308594 7.265625 C 10.308594 7.949219 10.796875 8.503906 11.402344 8.503906 C 12.007812 8.503906 12.5 7.949219 12.5 7.265625 Z M 12.5 7.265625 "/>
<path style="fill-rule:nonzero;fill:url(#linear3);stroke-width:3;stroke-linecap:butt;stroke-linejoin:round;stroke:rgb(76.078431%,52.54902%,25.098039%);stroke-opacity:1;stroke-miterlimit:10;" d="M 103.5 100.4375 C 103.5 88.3125 93.6875 78.5 81.5625 78.5 L 44.4375 78.5 C 32.3125 78.5 22.5 88.3125 22.5 100.4375 L 22.5 100.5625 C 22.5 112.6875 32.3125 122.5 44.4375 122.5 L 81.5625 122.5 C 93.6875 122.5 103.5 112.6875 103.5 100.5625 Z M 103.5 100.4375 " transform="matrix(0.125,0,0,0.125,0,0)"/>
<path style=" stroke:none;fill-rule:nonzero;fill:rgb(45.882353%,29.803922%,14.117647%);fill-opacity:1;" d="M 6.507812 12.410156 C 6.507812 11.835938 6.128906 11.371094 5.660156 11.371094 C 5.191406 11.371094 4.8125 11.835938 4.8125 12.410156 C 4.8125 12.984375 5.191406 13.453125 5.660156 13.453125 C 6.128906 13.453125 6.507812 12.984375 6.507812 12.410156 Z M 6.507812 12.410156 "/>
<path style=" stroke:none;fill-rule:nonzero;fill:rgb(45.882353%,29.803922%,14.117647%);fill-opacity:1;" d="M 11.1875 12.410156 C 11.1875 11.835938 10.808594 11.371094 10.339844 11.371094 C 9.871094 11.371094 9.492188 11.835938 9.492188 12.410156 C 9.492188 12.984375 9.871094 13.453125 10.339844 13.453125 C 10.808594 13.453125 11.1875 12.984375 11.1875 12.410156 Z M 11.1875 12.410156 "/>
</g>
</svg>
