<svg enable-background="new 0 0 128 128" viewBox="0 0 128 128" xmlns="http://www.w3.org/2000/svg" xmlns:xlink="http://www.w3.org/1999/xlink"><linearGradient id="a" gradientUnits="userSpaceOnUse" x1="64" x2="64" y1="19.717" y2="107.7"><stop offset=".5664" stop-color="#f6a323"/><stop offset=".9168" stop-color="#fee133"/></linearGradient><clipPath id="b"><path d="m37.64 97.09c2.96 4.36 8.73 5.74 13.36 3.24 3.91-2.1 8.32-3.29 13-3.29s9.09 1.19 13 3.29c4.64 2.5 10.41 1.11 13.36-3.24 2.14-3.15 2.33-7.22.56-10.59-5.48-10.44-15.48-17.43-26.92-17.43s-21.44 6.99-26.92 17.43c-1.77 3.38-1.58 7.44.56 10.59z"/></clipPath><path d="m64 119.89c-27.93 0-58-17.49-58-55.89s30.07-55.89 58-55.89c15.48 0 29.81 5.12 40.36 14.43 11.54 10.18 17.64 24.52 17.64 41.46 0 16.86-6.1 31.17-17.64 41.39-10.58 9.35-24.91 14.5-40.36 14.5z" fill="url(#a)"/><path d="m64 10.11c14.99 0 28.86 4.95 39.03 13.93 11.1 9.79 16.97 23.61 16.97 39.96 0 16.27-5.87 30.07-16.97 39.89-10.21 9.03-24.07 14-39.03 14-15.04 0-28.9-4.91-39.04-13.82-11.1-9.75-16.96-23.61-16.96-40.07 0-16.54 5.86-30.42 16.96-40.15 10.11-8.86 23.97-13.74 39.04-13.74m0-4c-31.15 0-60 20-60 57.89 0 37.68 28.85 57.89 60 57.89s60-20.73 60-57.89c0-37.37-28.85-57.89-60-57.89z" fill="#eb8f00"/><path clip-path="url(#b)" d="m37.64 97.09c2.96 4.36 8.73 5.74 13.36 3.24 3.91-2.1 8.32-3.29 13-3.29s9.09 1.19 13 3.29c4.64 2.5 10.41 1.11 13.36-3.24 2.14-3.15 2.33-7.22.56-10.59-5.48-10.44-15.48-17.43-26.92-17.43s-21.44 6.99-26.92 17.43c-1.77 3.38-1.58 7.44.56 10.59z" fill="#242424"/><g clip-path="url(#b)" opacity=".6"><path d="m66.37 74.15c0 4.4-.39 5.74 1.64 9.9h-.02c.34.69.55 1.46.55 2.28 0 2.88-2.33 5.21-5.21 5.21s-5.21-2.33-5.21-5.21c0-.82.21-1.59.55-2.28h-.02c2.02-4.16 1.64-5.58 1.64-9.9-8.2 1.44-14.43 8.58-14.43 17.2 0 9.65 7.83 17.48 17.48 17.48s17.47-7.83 17.47-17.48c0-8.62-6.24-15.76-14.44-17.2z"/></g><g fill="#6d4c41"><path d="m48.37 22.74c.05-.01.09-.01.14-.02 2.18-.3 2.4-3.51-.04-3.66-1.91-.09-3.88.12-5.84.63-5.39 1.4-9.84 4.87-12.38 9.04-1.24 2.1 1.55 3.75 3 2.1 3.76-4.13 9.16-7.16 15.12-8.09z"/><path d="m79.63 22.74c-.05-.01-.09-.01-.14-.02-2.18-.3-2.4-3.51.04-3.66 1.91-.09 3.88.12 5.84.63 5.39 1.4 9.84 4.87 12.38 9.04 1.24 2.1-1.55 3.75-3 2.1-3.76-4.13-9.16-7.16-15.12-8.09z"/></g><path d="m35.88 122.34c-9.46 0-15.49-3.31-15.49-5.59 0-.14.04-.31.12-.53.19-.51.17-1.07-.06-1.56s-.65-.86-1.16-1.04c-2.73-.93-3.73-2.09-3.73-2.65 0-1.2 3.73-3.61 10.57-3.76 1.06-.02 1.91-.95 1.95-2.01l2.4-62.2h10.66l2.74 67.49c.03.85.6 1.63 1.42 1.87 4.17 1.26 6.07 3.15 6.07 4.35 0 2.28-6.04 5.63-15.49 5.63z" fill="#5f7aff"/><path d="m39.22 45 2.66 65.57c.07 1.7 1.21 3.21 2.84 3.71 2.95.89 4.2 1.98 4.57 2.44-.86 1.17-5.48 3.61-13.41 3.61-7.99 0-12.62-2.45-13.43-3.61.3-.96.24-2-.2-2.92-.46-.98-1.3-1.73-2.33-2.08-.76-.26-1.33-.53-1.73-.76 1.33-.76 4.11-1.67 7.97-1.75 2.11-.05 3.82-1.82 3.91-3.93l2.34-60.28h6.59m4.06-4h-14.5l-2.48 64.13c-6.98.16-12.52 2.73-12.52 5.8 0 1.84 1.99 3.51 5.08 4.56-.15.4-.25.82-.25 1.24 0 4.19 7.83 7.59 17.49 7.59s17.49-3.42 17.49-7.61c0-2.58-2.97-4.95-7.49-6.32z" fill="#4864ed"/><path d="m92.42 122.33c-9.46 0-15.49-3.32-15.49-5.6 0-1.2 1.9-3.06 6.07-4.33.81-.25 1.38-1.07 1.42-1.92l2.74-67.48h10.66l2.4 62.21c.04 1.06.9 1.94 1.95 1.96 6.84.16 10.57 2.6 10.57 3.8 0 .55-.99 1.71-3.73 2.64-.51.17-.93.56-1.16 1.04-.23.49-.25 1.05-.06 1.56.08.22.12.39.12.52 0 2.29-6.04 5.6-15.49 5.6z" fill="#5f7aff"/><path d="m95.89 45 2.33 60.29c.08 2.11 1.79 3.84 3.91 3.89 3.86.09 6.64 1.03 7.97 1.79-.4.23-.96.51-1.73.77-1.02.35-1.86 1.1-2.33 2.08-.43.91-.5 1.96-.2 2.91-.81 1.16-5.45 3.6-13.43 3.6-7.92 0-12.54-2.42-13.41-3.59.37-.46 1.62-1.53 4.57-2.42 1.63-.49 2.77-2.05 2.84-3.75l2.67-65.57h6.92m3.74-4h-14.5l-2.82 69.4c-4.53 1.37-7.49 3.71-7.49 6.28 0 4.19 7.83 7.62 17.49 7.62s17.49-3.38 17.49-7.57c0-.42-.1-.82-.25-1.22 3.09-1.05 5.08-2.68 5.08-4.52 0-3.07-5.55-5.71-12.52-5.86z" fill="#4864ed"/><g fill="#242424"><path d="m42.15 49.11s-.06-.08-.18-.22c-.06-.07-.13-.16-.21-.27-.09-.11-.18-.23-.26-.29l-.62-.62c-.25-.25-.55-.52-.86-.79-.64-.54-1.4-1.04-2.2-1.39-.81-.34-1.62-.53-2.45-.52.35-.01.09 0 .17 0h-.01-.02-.04-.07-.15l-.29.01c-.26 0-.21.02-.29.03-.07-.01-.35.06-.54.09-.4.1-.82.22-1.22.39-.8.35-1.56.85-2.2 1.39-.63.54-1.16 1.07-1.51 1.47-.36.41-.57.64-.57.64l-.3.34c-1.22 1.37-3.32 1.5-4.69.28-1.04-.92-1.36-2.36-.93-3.6 0 0 .04-.11.11-.32.08-.21.17-.53.35-.91.33-.78.89-1.87 1.82-3.08.91-1.21 2.25-2.51 4.03-3.54.9-.49 1.89-.96 2.97-1.25.56-.13 1.04-.26 1.74-.34.3-.04.74-.09.87-.09l.76-.04c1.14.02 2.28.18 3.37.47 1.08.28 2.07.75 2.97 1.25 1.78 1.03 3.12 2.33 4.03 3.54.47.6.84 1.18 1.13 1.7.29.5.53 1.01.72 1.44.11.22.16.38.2.5.04.13.08.24.11.33l.09.27c.57 1.77-.4 3.67-2.17 4.24-1.36.43-2.81-.06-3.66-1.11z"/><path d="m99.48 49.11s-.06-.08-.18-.22c-.06-.07-.13-.16-.21-.27-.09-.11-.18-.23-.26-.29l-.62-.62c-.25-.25-.55-.52-.86-.79-.64-.54-1.4-1.04-2.2-1.39-.81-.34-1.62-.53-2.45-.52.35-.01.09 0 .17 0h-.01-.02-.04-.07-.15l-.29.01c-.26 0-.21.02-.29.03-.07-.01-.35.06-.54.09-.4.1-.82.22-1.22.39-.8.35-1.56.85-2.2 1.39-.63.54-1.16 1.07-1.52 1.47-.36.41-.57.64-.57.64l-.3.34c-1.22 1.37-3.32 1.5-4.69.28-1.04-.92-1.36-2.36-.93-3.6 0 0 .04-.11.11-.32.08-.21.17-.53.35-.91.33-.78.89-1.87 1.82-3.08.91-1.21 2.25-2.51 4.03-3.54.9-.49 1.89-.96 2.97-1.25.56-.13 1.04-.26 1.74-.34.3-.04.73-.09.87-.09l.76-.04c1.14.02 2.28.18 3.37.47 1.08.28 2.07.75 2.97 1.25 1.78 1.03 3.12 2.33 4.03 3.54.47.6.84 1.18 1.13 1.7.29.5.53 1.01.72 1.44.11.22.16.38.2.5.04.13.08.24.11.33l.09.27c.57 1.77-.4 3.67-2.17 4.24-1.35.43-2.8-.06-3.65-1.11z"/></g></svg>