<svg enable-background="new 0 0 128 128" viewBox="0 0 128 128" xmlns="http://www.w3.org/2000/svg" xmlns:xlink="http://www.w3.org/1999/xlink"><linearGradient id="a" gradientUnits="userSpaceOnUse" x1="64.495" x2="64.495" y1="19.717" y2="107.7"><stop offset=".5" stop-color="#fee133"/><stop offset=".6118" stop-color="#fede32"/><stop offset=".7076" stop-color="#fcd32f"/><stop offset=".7975" stop-color="#fac12b"/><stop offset=".8834" stop-color="#f7a924"/><stop offset=".9" stop-color="#f6a323"/></linearGradient><linearGradient id="b" gradientUnits="userSpaceOnUse"><stop offset="0" stop-color="#ed7770"/><stop offset=".9" stop-color="#ed7770" stop-opacity="0"/></linearGradient><radialGradient id="c" cx="25.701" cy="66.546" gradientTransform="matrix(.9791 0 0 .9301 2.0871 7.9338)" r="19.444" xlink:href="#b"/><radialGradient id="d" cx="100.77" cy="66.546" gradientTransform="matrix(.9791 0 0 .9301 2.0871 7.9338)" r="19.444" xlink:href="#b"/><path d="m64.5 119.89c-27.93 0-58-17.49-58-55.89s30.07-55.89 58-55.89c15.48 0 29.81 5.12 40.36 14.43 11.53 10.18 17.64 24.52 17.64 41.46 0 16.86-6.1 31.17-17.64 41.39-10.58 9.35-24.91 14.5-40.36 14.5z" fill="url(#a)"/><path d="m64.5 10.11c14.99 0 28.86 4.95 39.03 13.93 11.1 9.8 16.97 23.61 16.97 39.96 0 16.27-5.87 30.07-16.97 39.89-10.21 9.03-24.07 14-39.03 14-15.04 0-28.9-4.91-39.04-13.82-11.1-9.75-16.96-23.61-16.96-40.07 0-16.54 5.86-30.42 16.96-40.15 10.1-8.86 23.97-13.74 39.04-13.74m0-4c-31.15 0-60 20.01-60 57.89 0 37.68 28.85 57.89 60 57.89s60-20.73 60-57.89c0-37.37-28.85-57.89-60-57.89z" fill="#eb8f00"/><path d="m63.97 96.66c-12.74 0-21.82-6.61-24.55-10.77-1.06-1.61-1.26-3.35-.55-4.67.53-.99 1.51-1.56 2.67-1.56.39 0 .79.07 1.2.19 6.42 2.01 13.78 3.07 21.28 3.07 7.46 0 14.79-1.06 21.19-3.07.41-.13.81-.19 1.2-.19 1.16 0 2.14.57 2.67 1.56.71 1.31.5 3.06-.55 4.67-2.74 4.16-11.82 10.77-24.56 10.77z" fill="#242424"/><circle cx="27.25" cy="69.83" fill="url(#c)" opacity=".8" r="17.5"/><circle cx="100.75" cy="69.83" fill="url(#d)" opacity=".8" r="17.5"/><path d="m49.61 36.61c2.28.39 3.43-2.63 1.09-3.52-1.75-.65-3.73-1.01-5.73-1.07-5.6-.26-10.79 1.82-14.46 5.03-1.84 1.65.37 4.04 2.27 2.9 4.84-2.82 10.88-4.23 16.83-3.34z" fill="#eb8f00" stroke="#eb8f00" stroke-miterlimit="10"/><path d="m79.19 36.61c-2.28.39-3.43-2.63-1.09-3.52 1.75-.65 3.73-1.01 5.73-1.07 5.6-.26 10.79 1.82 14.46 5.03 1.84 1.65-.37 4.04-2.27 2.9-4.85-2.82-10.88-4.23-16.83-3.34z" fill="#eb8f00" stroke="#eb8f00" stroke-miterlimit="10"/><g fill="#242424"><path d="m50.15 59.1s-.06-.08-.18-.22c-.06-.07-.13-.16-.21-.27-.09-.11-.18-.23-.26-.29l-.62-.62c-.25-.25-.55-.52-.86-.79-.64-.54-1.4-1.04-2.2-1.39-.81-.34-1.62-.53-2.45-.52.35-.01.09 0 .17 0h-.29l-.29.01c-.26 0-.21.02-.29.03-.07-.01-.35.06-.54.09-.4.1-.82.22-1.22.39-.8.35-1.56.85-2.2 1.39-.63.54-1.16 1.07-1.51 1.47-.36.41-.57.64-.57.64l-.3.34c-1.22 1.37-3.32 1.5-4.69.28-1.04-.92-1.36-2.36-.93-3.6 0 0 .04-.11.11-.32.08-.21.17-.53.35-.91.33-.78.89-1.87 1.82-3.08.91-1.21 2.25-2.51 4.03-3.54.9-.49 1.89-.96 2.97-1.25.56-.13 1.04-.26 1.74-.34.3-.04.74-.09.87-.09l.76-.04c1.14.02 2.28.18 3.37.47 1.08.28 2.07.75 2.97 1.25 1.78 1.03 3.12 2.33 4.03 3.54.47.6.84 1.18 1.13 1.7.29.5.53 1.01.72 1.44.11.22.16.38.2.5.04.13.08.24.11.33l.09.27c.57 1.77-.4 3.67-2.17 4.24-1.36.43-2.81-.06-3.66-1.11z"/><path d="m93.48 59.1s-.06-.08-.18-.22c-.06-.07-.13-.16-.21-.27-.09-.11-.18-.23-.26-.29l-.62-.62c-.25-.25-.55-.52-.86-.79-.64-.54-1.4-1.04-2.2-1.39-.81-.34-1.62-.53-2.45-.52.35-.01.09 0 .17 0h-.29l-.29.01c-.26 0-.21.02-.29.03-.07-.01-.35.06-.54.09-.4.1-.82.22-1.22.39-.8.35-1.56.85-2.2 1.39-.63.54-1.16 1.07-1.52 1.47-.36.41-.57.64-.57.64l-.3.34c-1.22 1.37-3.32 1.5-4.69.28-1.04-.92-1.36-2.36-.93-3.6 0 0 .04-.11.11-.32.08-.21.17-.53.35-.91.33-.78.89-1.87 1.82-3.08.91-1.21 2.25-2.51 4.03-3.54.9-.49 1.89-.96 2.97-1.25.56-.13 1.04-.26 1.74-.34.3-.04.73-.09.87-.09l.76-.04c1.14.02 2.28.18 3.37.47 1.08.28 2.07.75 2.97 1.25 1.78 1.03 3.12 2.33 4.03 3.54.47.6.84 1.18 1.13 1.7.29.5.53 1.01.72 1.44.11.22.16.38.2.5.04.13.08.24.11.33l.09.27c.57 1.77-.4 3.67-2.17 4.24-1.35.43-2.8-.06-3.65-1.11z"/></g></svg>