<svg enable-background="new 0 0 128 128" viewBox="0 0 128 128" xmlns="http://www.w3.org/2000/svg" xmlns:xlink="http://www.w3.org/1999/xlink"><linearGradient id="a" gradientTransform="matrix(.9777 -.21 .21 .9777 -12.106 14.872)" gradientUnits="userSpaceOnUse" x1="64.116" x2="64.116" y1="22.925" y2="104.55"><stop offset=".5047" stop-color="#fee133"/><stop offset=".6152" stop-color="#fede32"/><stop offset=".7099" stop-color="#fcd32f"/><stop offset=".7987" stop-color="#fac12b"/><stop offset=".8835" stop-color="#f7a924"/><stop offset=".9" stop-color="#f6a323"/></linearGradient><linearGradient id="b" gradientUnits="userSpaceOnUse"><stop offset="0" stop-color="#ed7770"/><stop offset=".9" stop-color="#ed7770" stop-opacity="0"/></linearGradient><radialGradient id="c" cx="28.543" cy="57.614" gradientTransform="matrix(.9623 -.1803 .1713 .9142 -7.6643 16.607)" r="18.103" xlink:href="#b"/><radialGradient id="d" cx="98.434" cy="57.614" gradientTransform="matrix(.9623 -.1803 .1713 .9142 -7.6643 16.607)" r="18.103" xlink:href="#b"/><linearGradient id="e" gradientUnits="userSpaceOnUse"><stop offset="0" stop-color="#f6a323"/><stop offset=".1575" stop-color="#fabe2a"/><stop offset=".3384" stop-color="#fdd831"/><stop offset=".4476" stop-color="#fee133"/></linearGradient><linearGradient id="f" gradientTransform="matrix(.9971 -.0755 .0755 .9971 -7.2825 3.016)" x1="32.968" x2="22.054" xlink:href="#e" y1="119.85" y2="92.836"/><linearGradient id="g" gradientTransform="matrix(-.9971 -.0755 -.0755 .9971 150.44 3.016)" x1="48.085" x2="37.17" xlink:href="#e" y1="121" y2="93.98"/><path d="m61.72 116.11c-20.08 0-43.84-10.72-50.31-40.82-7.48-34.83 16.38-56.56 41.72-62 4.33-.93 8.72-1.4 13.04-1.4 20.15 0 43.99 10.72 50.45 40.8 3.28 15.29.54 29.46-7.94 40.98-7.77 10.54-19.76 18.01-33.78 21.02-4.37.94-8.81 1.42-13.18 1.42z" fill="url(#a)"/><path d="m66.18 13.75c19.43 0 42.4 10.33 48.63 39.33 3.17 14.76.53 28.41-7.62 39.48-7.5 10.18-19.1 17.39-32.67 20.3-4.25.91-8.56 1.38-12.8 1.38-11.51 0-22.02-3.33-30.41-9.63-9.12-6.85-15.38-17.13-18.08-29.72-3.22-15-.61-28.73 7.56-39.71 7.44-10.01 19.07-17.14 32.73-20.07 4.2-.9 8.46-1.36 12.66-1.36m0-3.72c-4.46 0-8.97.48-13.44 1.44-28.26 6.07-50.53 29.84-43.15 64.21 6.17 28.72 28.41 42.29 52.13 42.29 4.51 0 9.07-.49 13.58-1.46 28.26-6.07 50.39-30.49 43.15-64.21-6.13-28.55-28.49-42.27-52.27-42.27z" fill="#eb8f00"/><circle cx="29.67" cy="64.13" fill="url(#c)" opacity=".8" r="16.29"/><circle cx="96.93" cy="51.53" fill="url(#d)" opacity=".8" r="16.29"/><path d="m96.87 49.39c-7.64 7.15-17.83 12.68-29.63 15.4-11.79 2.71-23.38 2.19-33.37-.9-1.84-.57-3.08 1.85-1.53 3 10.13 7.49 23.59 10.66 37.12 7.54 13.54-3.12 24.26-11.85 30.1-23.01.89-1.7-1.29-3.34-2.69-2.03z" fill="#242424"/><g fill="#242424"><path d="m48.54 47.16s-.06-.06-.18-.16c-.11-.1-.28-.24-.48-.42-.16-.12-.36-.26-.59-.43-.24-.18-.52-.37-.8-.56-.29-.18-.6-.36-.89-.51-.3-.16-.61-.26-.86-.35-.26-.1-.49-.09-.64-.11-.08-.02-.14 0-.2 0-.03.01-.05 0-.08.01l-.04.01h-.02-.01c.11-.02-.25.05.25-.05l-.5.11c-.13.03-.04.02-.03.02.02 0 .05-.01.07-.02.07-.04 0 0-.02.01-.03 0-.06.02-.1.04-.13.07-.35.15-.55.34-.21.17-.45.38-.67.64-.22.25-.44.53-.64.81-.39.56-.72 1.11-.94 1.5-.23.41-.36.64-.36.64l-.16.28c-.97 1.7-3.22 2.4-5.03 1.55-1.23-.57-1.94-1.71-1.96-2.92 0 0-.01-.38.05-1.07.07-.68.21-1.68.63-2.88s1.09-2.65 2.41-4.11c.65-.72 1.47-1.46 2.49-2.05.25-.15.51-.3.79-.43.29-.13.51-.26.91-.4l.55-.19c.17-.06.42-.13.46-.14l.5-.13.28-.06h.03l.18-.03.24-.03.47-.06c.31-.04.63-.04.94-.05.62 0 1.24.03 1.82.13 1.17.17 2.2.56 3.07.98 1.77.86 2.92 1.96 3.77 2.92.42.48.76.94 1.02 1.35.27.39.5.82.68 1.14.17.31.2.48.27.63.05.14.08.22.08.22.69 1.78-.33 3.79-2.27 4.48-1.46.54-2.95.22-3.94-.65z"/><path d="m82.81 40.55s-.06-.06-.18-.16c-.11-.1-.28-.24-.48-.42-.16-.12-.36-.26-.59-.43-.24-.18-.52-.37-.8-.56-.29-.18-.6-.36-.89-.51-.3-.16-.61-.26-.86-.35-.26-.1-.49-.09-.64-.11-.08-.02-.14 0-.2 0-.03.01-.05 0-.08.01l-.04.01h-.02-.01c.11-.02-.25.05.25-.05l-.5.11c-.13.03-.04.02-.03.02.02 0 .05-.01.07-.02.07-.04 0 0-.02.01-.03 0-.06.02-.1.04-.13.07-.35.15-.55.34-.21.17-.45.38-.67.64-.22.25-.44.53-.64.81-.39.56-.72 1.11-.94 1.5-.23.41-.36.64-.36.64l-.16.28c-.97 1.7-3.22 2.4-5.03 1.55-1.23-.57-1.94-1.71-1.96-2.92 0 0-.01-.38.05-1.07.07-.68.21-1.68.63-2.88s1.09-2.65 2.41-4.11c.65-.72 1.47-1.46 2.49-2.05.25-.15.51-.3.79-.43.29-.13.51-.26.91-.4l.55-.19c.17-.06.42-.13.46-.14l.5-.13.28-.06h.03l.18-.03.24-.03.47-.06c.31-.04.63-.04.94-.05.62 0 1.24.03 1.82.13 1.17.17 2.2.56 3.07.98 1.77.86 2.92 1.96 3.77 2.92.42.48.76.94 1.02 1.35.27.39.5.82.68 1.14.17.31.2.48.27.63.05.14.08.22.08.22.69 1.78-.33 3.79-2.27 4.48-1.46.53-2.95.22-3.94-.65z"/></g><path d="m37.45 86.25c-2.84-3.64-6.02-5.4-7.62-2.96-2.14 3.24 4.79 6.29 4.59 9.5-.06.88-.91 1.06-1.28.65-5.54-6.23-10.28-12.37-10.33-12.44-.92-1.15-2.61-1.34-3.76-.42s-1.17 2.38-.18 4.16c.04.07 2.11 3.82 8.06 9.74.31.31.28.82-.02 1.14l-.01.01c-.37.41-.99.47-1.43.15-7.34-5.38-11.02-11.8-11.11-11.93-.78-1.26-2.42-1.65-3.68-.87s-1.65 2.42-.87 3.68c.24.38 4.28 7.43 12.5 13.44.45.33.58.95.3 1.43 0 .01-.01.01-.01.02-.29.5-.95.66-1.44.35-6.66-4.26-10.36-9.16-10.45-9.27-.91-1.16-2.59-1.37-3.75-.46-1.17.91-1.37 2.59-.47 3.75.28.36 4.76 6.29 12.75 11.09.38.23.75.73.28 1.48-.21.34-.85.39-1.29.15-4.81-2.69-5.83-3.65-7.16-4.55s-2.7-1.5-4.09-.48c-.87.64-.91 2.47.39 3.87 7.51 8.04 14.37 11.65 19.63 12.54 7.61 1.3 12-1.77 15.09-5.16 10.81-11.83-3.41-27.02-4.64-28.61z" fill="url(#f)"/><path d="m20.72 80c.78 0 1.56.34 2.09 1 .06.07 4.79 6.21 10.33 12.44.12.14.3.21.49.21.36 0 .75-.28.79-.86.2-3.21-6.72-6.26-4.59-9.5.51-.77 1.18-1.12 1.95-1.12 1.64 0 3.74 1.61 5.67 4.09 1.24 1.58 15.45 16.78 4.66 28.62-2.6 2.85-6.11 5.46-11.67 5.46-1.06 0-2.2-.1-3.43-.3-5.26-.9-12.11-4.51-19.63-12.54-1.3-1.4-1.26-3.23-.39-3.87.51-.38 1.03-.53 1.54-.53.86 0 1.72.45 2.56 1.01 1.33.9 2.35 1.86 7.16 4.55.18.1.39.15.6.15.29 0 .56-.1.69-.3.47-.75.1-1.25-.28-1.48-7.99-4.8-12.47-10.73-12.75-11.09-.91-1.17-.7-2.85.47-3.75.49-.38 1.07-.57 1.64-.57.8 0 1.58.35 2.11 1.03.09.11 3.78 5.01 10.45 9.27.17.11.36.16.55.16.35 0 .7-.18.89-.51 0-.01.01-.01.01-.02.28-.49.15-1.1-.3-1.43-8.23-6.02-12.28-13.07-12.52-13.45-.78-1.26-.38-2.91.87-3.68.44-.27.92-.4 1.4-.4.9 0 1.77.45 2.28 1.27.08.13 3.77 6.55 11.11 11.93.19.14.41.21.63.21.3 0 .59-.12.8-.35l.01-.01c.29-.32.33-.83.02-1.14-5.96-5.93-8.02-9.67-8.06-9.74-.99-1.78-.98-3.23.18-4.16.49-.41 1.08-.6 1.67-.6m0-3c-1.28 0-2.54.44-3.54 1.24-.43.34-1.28 1.15-1.73 2.44-.95-.7-2.12-1.09-3.35-1.09-1.05 0-2.08.29-2.98.84-1.29.8-2.19 2.05-2.54 3.52-.35 1.48-.1 3 .69 4.29.08.13.17.29.28.46-.88.17-1.72.55-2.43 1.1-1.19.93-1.95 2.27-2.14 3.77s.22 2.99 1.16 4.19c.41.53 1.19 1.5 2.33 2.72-.43.18-.85.42-1.25.71-1.04.77-1.69 1.97-1.82 3.38-.16 1.75.49 3.56 1.8 4.96 9.02 9.65 16.57 12.64 21.31 13.45 1.35.23 2.67.35 3.93.35 7.18 0 11.36-3.68 13.88-6.44 4.43-4.86 9.79-15.5-4.19-32.1-.14-.17-.25-.3-.32-.38-1.87-2.39-4.78-5.24-8.04-5.24-1.82 0-3.4.88-4.45 2.47-.03.04-.06.09-.09.13-1.03-1.28-1.75-2.2-2.03-2.57l-.01-.01-.03-.04c-1.1-1.37-2.71-2.15-4.44-2.15z" fill="#eb8f00"/><path d="m33.14 109.01c-5.55-7.25-2.41-12.6-1.49-14.26.91-1.66 2.42-3.4 2.42-3.4.88 1.36 1.54 2.52.73 4.07-.37.72-4.92 5.65-.33 12.67.27.41.17 1.05-.17 1.24-.36.18-.93-.03-1.16-.32z" fill="#eb8f00"/><path d="m90.55 86.25c2.84-3.64 6.02-5.4 7.62-2.96 2.14 3.24-4.79 6.29-4.59 9.5.06.88.91 1.06 1.28.65 5.54-6.23 10.27-12.37 10.33-12.44.92-1.15 2.61-1.34 3.76-.42s1.17 2.38.18 4.16c-.04.07-2.11 3.82-8.06 9.74-.31.31-.28.82.02 1.14l.01.01c.37.41.99.47 1.43.15 7.34-5.38 11.02-11.8 11.11-11.93.78-1.26 2.42-1.65 3.68-.87s1.65 2.42.87 3.68c-.24.38-4.28 7.43-12.5 13.44-.45.33-.58.95-.3 1.43 0 .01.01.01.01.02.29.5.95.66 1.44.35 6.66-4.26 10.36-9.16 10.45-9.27.91-1.16 2.59-1.37 3.75-.46 1.17.91 1.37 2.59.47 3.75-.28.36-4.76 6.29-12.75 11.09-.38.23-.75.73-.28 1.48.21.34.85.39 1.29.15 4.81-2.69 5.83-3.65 7.16-4.55s2.7-1.5 4.09-.48c.87.64.91 2.47-.39 3.87-7.51 8.04-14.37 11.65-19.63 12.54-7.61 1.3-12-1.77-15.09-5.16-10.81-11.83 3.41-27.02 4.64-28.61z" fill="url(#g)"/><g fill="#eb8f00"><path d="m107.28 80c.59 0 1.18.19 1.67.59 1.15.92 1.17 2.38.18 4.16-.04.07-2.11 3.82-8.06 9.74-.31.31-.28.82.02 1.14l.01.01c.21.23.5.35.8.35.22 0 .44-.07.63-.21 7.34-5.38 11.02-11.8 11.11-11.93.51-.82 1.38-1.27 2.28-1.27.48 0 .96.13 1.4.4 1.26.78 1.65 2.42.87 3.68-.24.38-4.28 7.43-12.5 13.44-.45.33-.58.95-.3 1.43 0 .01.01.01.01.02.19.33.54.51.89.51.19 0 .38-.05.55-.16 6.66-4.26 10.36-9.16 10.45-9.27.53-.68 1.31-1.03 2.11-1.03.58 0 1.15.18 1.64.57 1.17.91 1.37 2.59.47 3.75-.28.36-4.76 6.29-12.75 11.09-.38.23-.75.73-.28 1.48.12.2.4.3.69.3.21 0 .42-.05.6-.15 4.81-2.69 5.83-3.65 7.16-4.55.84-.56 1.69-1.01 2.56-1.01.51 0 1.02.16 1.54.53.87.64.91 2.47-.39 3.87-7.51 8.04-14.37 11.65-19.63 12.54-1.22.21-2.36.3-3.43.3-5.56 0-9.07-2.61-11.67-5.46-10.8-11.84 3.42-27.03 4.66-28.62 1.94-2.48 4.03-4.09 5.67-4.09.77 0 1.44.35 1.95 1.12 2.14 3.24-4.79 6.29-4.59 9.5.04.59.43.86.79.86.18 0 .36-.07.49-.21 5.54-6.23 10.27-12.37 10.33-12.44.51-.64 1.29-.98 2.07-.98m0-3c-1.73 0-3.35.78-4.43 2.13l-.01.02-.04.05c-.29.37-1.01 1.29-2.03 2.57-.03-.04-.06-.09-.09-.13-1.05-1.59-2.63-2.47-4.45-2.47-3.26 0-6.17 2.85-8.04 5.24-.06.08-.17.21-.32.38-13.98 16.6-8.63 27.24-4.19 32.1 2.52 2.77 6.7 6.44 13.88 6.44 1.26 0 2.58-.12 3.93-.35 4.74-.81 12.29-3.8 21.31-13.45 1.31-1.4 1.96-3.2 1.8-4.96-.13-1.41-.78-2.61-1.82-3.38-.4-.3-.82-.53-1.25-.71 1.13-1.21 1.91-2.17 2.31-2.7.95-1.22 1.36-2.7 1.17-4.21-.19-1.5-.95-2.85-2.14-3.78-.71-.55-1.54-.93-2.42-1.1.1-.16.19-.31.26-.43.82-1.32 1.06-2.85.71-4.32s-1.25-2.72-2.54-3.52c-.9-.55-1.93-.84-2.98-.84-1.23 0-2.4.39-3.35 1.09-.45-1.28-1.31-2.09-1.73-2.44-.99-.79-2.25-1.23-3.54-1.23z"/><path d="m94.86 109.01c5.55-7.25 2.41-12.6 1.49-14.26-.91-1.66-2.42-3.4-2.42-3.4-.88 1.36-1.54 2.52-.73 4.07.37.72 4.92 5.65.33 12.67-.27.41-.17 1.05.17 1.24.36.18.93-.03 1.16-.32z"/></g></svg>