<svg enable-background="new 0 0 128 128" viewBox="0 0 128 128" xmlns="http://www.w3.org/2000/svg" xmlns:xlink="http://www.w3.org/1999/xlink"><linearGradient id="a" gradientUnits="userSpaceOnUse" x1="64" x2="64" y1="19.717" y2="107.7"><stop offset=".5664" stop-color="#f6a323"/><stop offset=".9168" stop-color="#fee133"/></linearGradient><path d="m64 119.89c-27.93 0-58-17.49-58-55.89s30.07-55.89 58-55.89c15.48 0 29.81 5.12 40.36 14.43 11.54 10.18 17.64 24.52 17.64 41.46 0 16.86-6.1 31.17-17.64 41.39-10.58 9.35-24.91 14.5-40.36 14.5z" fill="url(#a)"/><path d="m64 10.11c14.99 0 28.86 4.95 39.03 13.93 11.1 9.79 16.97 23.61 16.97 39.96 0 16.27-5.87 30.07-16.97 39.89-10.21 9.03-24.07 14-39.03 14-15.04 0-28.9-4.91-39.04-13.82-11.1-9.75-16.96-23.61-16.96-40.07 0-16.54 5.86-30.42 16.96-40.15 10.11-8.86 23.97-13.74 39.04-13.74m0-4c-31.15 0-60 20-60 57.89 0 37.68 28.85 57.89 60 57.89s60-20.73 60-57.89c0-37.37-28.85-57.89-60-57.89z" fill="#eb8f00"/><g fill="#242424"><path d="m64 87.15c10.82 0 17.83 7.92 19.65 11.57.7 1.41.74 2.58.14 3.13-.46.41-1.21.4-2.08.01-.29-.13-.59-.31-.9-.52-4.76-3.34-10.72-5.41-16.84-5.4-6.08.01-12.02 2.07-16.77 5.4-.3.21-.61.39-.9.52-.87.4-1.63.41-2.08-.01-.6-.55-.56-1.72.14-3.13 1.81-3.64 8.82-11.57 19.64-11.57z"/><path d="m74.41 67.7c-1.61 1.49-1.36 4.01.51 5.34 2.37 1.69 5.81 3.75 9.68 4.8 3.87 1.06 7.87 1.04 10.77.79 2.28-.2 3.78-2.24 3.15-4.34-.51-1.69-2.24-2.83-4.07-2.67-2.19.2-5.22.23-8-.53-2.79-.76-5.37-2.33-7.16-3.62-1.51-1.08-3.59-.97-4.88.23z"/><path d="m53.59 67.7c1.61 1.49 1.36 4.01-.51 5.34-2.37 1.69-5.81 3.75-9.68 4.8-3.87 1.06-7.87 1.04-10.77.79-2.28-.2-3.78-2.24-3.15-4.34.51-1.69 2.24-2.83 4.07-2.67 2.19.2 5.22.23 8-.53 2.79-.76 5.37-2.33 7.16-3.62 1.51-1.08 3.59-.97 4.88.23z"/></g></svg>