<svg enable-background="new 0 0 128 128" viewBox="0 0 128 128" xmlns="http://www.w3.org/2000/svg" xmlns:xlink="http://www.w3.org/1999/xlink"><linearGradient id="a" gradientUnits="userSpaceOnUse" x1="64" x2="64" y1="19.717" y2="107.7"><stop offset=".3487" stop-color="#fee133"/><stop offset=".4888" stop-color="#fddd32"/><stop offset=".629" stop-color="#fcd12f"/><stop offset=".7687" stop-color="#f9bd2a"/><stop offset=".9" stop-color="#f6a323"/></linearGradient><clipPath id="b"><circle cx="37.53" cy="55.57" r="23.32"/></clipPath><clipPath id="c"><circle cx="91.2" cy="55.57" r="23.32"/></clipPath><path d="m64 119.89c-27.93 0-58-17.49-58-55.89s30.07-55.89 58-55.89c15.48 0 29.81 5.12 40.36 14.43 11.54 10.18 17.64 24.52 17.64 41.46 0 16.86-6.1 31.17-17.64 41.39-10.58 9.35-24.91 14.5-40.36 14.5z" fill="url(#a)"/><path d="m64 10.11c14.99 0 28.86 4.95 39.03 13.93 11.1 9.79 16.97 23.61 16.97 39.96 0 16.27-5.87 30.07-16.97 39.89-10.21 9.03-24.07 14-39.03 14-15.04 0-28.9-4.91-39.04-13.82-11.1-9.75-16.96-23.61-16.96-40.07 0-16.54 5.86-30.42 16.96-40.15 10.11-8.86 23.97-13.74 39.04-13.74m0-4c-31.15 0-60 20-60 57.89 0 37.68 28.85 57.89 60 57.89s60-20.73 60-57.89c0-37.37-28.85-57.89-60-57.89z" fill="#eb8f00"/><circle cx="37.53" cy="55.57" fill="#fff" r="23.32"/><circle clip-path="url(#b)" cx="31.33" cy="40.5" fill="#242424" r="9.12"/><path d="m37.53 36.25c10.66 0 19.32 8.67 19.32 19.32s-8.67 19.32-19.32 19.32c-10.66 0-19.32-8.67-19.32-19.32s8.67-19.32 19.32-19.32m0-4c-12.88 0-23.32 10.44-23.32 23.32s10.44 23.32 23.32 23.32 23.32-10.44 23.32-23.32-10.44-23.32-23.32-23.32z" fill="#eb8f00"/><circle cx="91.2" cy="55.57" fill="#fff" r="23.32"/><circle clip-path="url(#c)" cx="85" cy="40.5" fill="#242424" r="9.12"/><path d="m91.2 36.25c10.66 0 19.32 8.67 19.32 19.32s-8.67 19.32-19.32 19.32-19.32-8.67-19.32-19.32 8.66-19.32 19.32-19.32m0-4c-12.88 0-23.32 10.44-23.32 23.32s10.44 23.32 23.32 23.32 23.32-10.44 23.32-23.32-10.44-23.32-23.32-23.32z" fill="#eb8f00"/><path d="m52.66 103.66c-.85.19-1.69-.09-2.25-.73-.69-.8-.83-2.01-.37-3.22 1.01-2.65 5.23-7.44 12.22-8.98s12.83 1.03 14.86 3.02c.93.9 1.31 2.05 1.01 3.07-.23.82-.88 1.42-1.74 1.61-.27.06-.56.08-.86.05-3.56-.31-7.51-.02-11.41.84-3.88.85-7.57 2.24-10.66 4.02-.26.15-.53.26-.8.32z" fill="#242424"/></svg>