<svg enable-background="new 0 0 128 128" viewBox="0 0 128 128" xmlns="http://www.w3.org/2000/svg" xmlns:xlink="http://www.w3.org/1999/xlink"><linearGradient id="a" gradientUnits="userSpaceOnUse" x1="64" x2="64" y1="19.717" y2="107.7"><stop offset=".5" stop-color="#fee133"/><stop offset=".6118" stop-color="#fede32"/><stop offset=".7076" stop-color="#fcd32f"/><stop offset=".7975" stop-color="#fac12b"/><stop offset=".8834" stop-color="#f7a924"/><stop offset=".9" stop-color="#f6a323"/></linearGradient><linearGradient id="b" gradientUnits="userSpaceOnUse"><stop offset="0" stop-color="#ed7770"/><stop offset=".9" stop-color="#ed7770" stop-opacity="0"/></linearGradient><radialGradient id="c" cx="25.701" cy="65.316" gradientTransform="matrix(.9791 0 0 .9301 2.0871 7.4118)" r="19.444" xlink:href="#b"/><radialGradient id="d" cx="100.77" cy="65.316" gradientTransform="matrix(.9791 0 0 .9301 2.0871 7.4118)" r="19.444" xlink:href="#b"/><radialGradient id="e" cx="92.422" cy="70.397" gradientTransform="matrix(-.5231 -.8522 -.8522 .5231 187.66 122.43)" gradientUnits="userSpaceOnUse" r="57.806"><stop offset=".6676" stop-color="#fee133"/><stop offset=".8723" stop-color="#f9b928"/></radialGradient><path d="m64 119.89c-27.93 0-58-17.49-58-55.89s30.07-55.89 58-55.89c15.48 0 29.81 5.12 40.36 14.43 11.54 10.18 17.64 24.52 17.64 41.46 0 16.86-6.1 31.17-17.64 41.39-10.58 9.35-24.91 14.5-40.36 14.5z" fill="url(#a)"/><path d="m64 10.11c14.99 0 28.86 4.95 39.03 13.93 11.1 9.79 16.97 23.61 16.97 39.96 0 16.27-5.87 30.07-16.97 39.89-10.21 9.03-24.07 14-39.03 14-15.04 0-28.9-4.91-39.04-13.82-11.1-9.75-16.96-23.61-16.96-40.07 0-16.54 5.86-30.42 16.96-40.15 10.11-8.86 23.97-13.74 39.04-13.74m0-4c-31.15 0-60 20-60 57.89 0 37.68 28.85 57.89 60 57.89s60-20.73 60-57.89c0-37.37-28.85-57.89-60-57.89z" fill="#eb8f00"/><circle cx="27.25" cy="68.16" fill="url(#c)" opacity=".8" r="17.5"/><circle cx="100.75" cy="68.16" fill="url(#d)" opacity=".8" r="17.5"/><path d="m45.72 57.4c2.53-.52 4.55 3.49 5.03 5.4 1.26 5.01-2.52 7.78-3.27 12.32-.17 1.01.07 2.27.89 1.65.35-.26 24.72-14.93 24.72-14.93 2.65-1.63 5.79-1.34 7.42 1.3 1.62 2.64.46 5.57-2.2 7.2l-18.35 11.61 24.99-14.91c2.65-1.63 5.79-1.34 7.42 1.3s.46 5.57-2.2 7.2l-24.75 15.62 20.4-12.17c2.65-1.63 5.79-1.34 7.42 1.3 1.62 2.64.46 5.57-2.2 7.2l-20.18 12.82 12.45-7.3c2.65-1.63 5.79-1.34 7.42 1.3 1.62 2.64.13 5.04-2.52 6.67 0 0-30.55 18.23-33.5 19.62-4.84 2.29-15.1 5.05-24.01-9.48-11.51-18.74-.87-26.4 2.06-31.19 2.29-3.74 5.21-7.53 7.16-11.62 1.7-3.59 1.22-9.97 5.8-10.91z" style="stroke:#eb8f00;stroke-linecap:round;stroke-linejoin:round;stroke-miterlimit:10;stroke-width:4;fill:url(#e)"/><g fill="#242424"><path d="m49.56 49.12s-.05-.07-.16-.2c-.1-.13-.24-.31-.42-.54-.15-.16-.33-.35-.54-.57-.21-.24-.47-.49-.73-.75-.27-.25-.55-.51-.84-.72-.28-.23-.59-.4-.84-.54-.26-.16-.5-.2-.65-.25-.08-.03-.15-.03-.21-.04-.03.01-.06-.01-.09 0l-.04.01h-.02-.01c.12 0-.27.01.27-.01l-.55.02c-.14 0-.05.01-.04.01.03 0 .05 0 .07-.01.08-.03 0 0-.02 0-.03 0-.07.01-.11.03-.16.05-.4.09-.65.25-.25.14-.56.31-.84.54-.28.22-.57.47-.84.72-.52.51-.98 1.02-1.3 1.39-.33.38-.51.6-.51.6l-.23.27c-1.37 1.6-3.89 1.87-5.62.61-1.18-.86-1.69-2.2-1.47-3.48 0 0 .07-.41.27-1.12.21-.71.56-1.72 1.25-2.91.69-1.18 1.69-2.57 3.38-3.84.83-.62 1.84-1.24 3.04-1.66.29-.11.6-.21.92-.29.33-.08.59-.17 1.04-.23l.62-.09c.19-.02.47-.05.51-.05l.55-.04.31-.01h.03.06l.13.01.26.01.51.03c.34.03.67.09 1 .14.65.12 1.3.29 1.89.51 1.2.42 2.21 1.03 3.04 1.66 1.69 1.27 2.69 2.66 3.38 3.84.35.59.61 1.15.8 1.64.21.47.36.97.48 1.34.11.36.11.55.16.72.03.16.04.25.04.25.37 2.02-1.12 3.93-3.31 4.26-1.59.25-3.1-.39-3.97-1.51z"/><path d="m87.06 49.12s-.05-.07-.16-.2c-.1-.13-.24-.31-.42-.54-.15-.16-.33-.35-.54-.57-.21-.24-.47-.49-.73-.75-.27-.25-.55-.51-.84-.72-.28-.23-.59-.4-.84-.54-.26-.16-.5-.2-.65-.25-.08-.03-.15-.03-.21-.04-.03.01-.06-.01-.09 0l-.04.01h-.02-.01-.01c.12 0-.27.01.27-.01l-.55.02c-.14 0-.05.01-.04.01.03 0 .05 0 .07-.01.08-.03 0 0-.02 0-.03 0-.07.01-.11.03-.16.05-.4.09-.65.25-.25.14-.56.31-.84.54-.28.22-.57.47-.84.72-.52.51-.98 1.02-1.3 1.39-.33.38-.51.6-.51.6l-.23.27c-1.37 1.6-3.89 1.87-5.62.61-1.18-.86-1.69-2.2-1.47-3.48 0 0 .07-.41.27-1.12.21-.71.56-1.72 1.25-2.91.69-1.18 1.69-2.57 3.38-3.84.83-.62 1.84-1.24 3.04-1.66.29-.11.6-.21.92-.29.33-.08.59-.17 1.04-.23l.62-.09c.19-.02.47-.05.51-.05l.55-.04.31-.01h.03.06l.13.01.26.01.51.03c.34.03.67.09 1 .14.65.12 1.3.29 1.89.51 1.2.42 2.21 1.03 3.04 1.66 1.69 1.27 2.69 2.66 3.38 3.84.35.59.61 1.15.8 1.64.21.47.36.97.48 1.34.11.36.11.55.16.72.03.16.04.25.04.25.37 2.02-1.12 3.93-3.31 4.26-1.59.25-3.1-.39-3.96-1.51z"/></g></svg>