<svg enable-background="new 0 0 128 128" viewBox="0 0 128 128" xmlns="http://www.w3.org/2000/svg" xmlns:xlink="http://www.w3.org/1999/xlink"><linearGradient id="a" gradientUnits="userSpaceOnUse" x1="64" x2="64" y1="19.717" y2="107.7"><stop offset=".5" stop-color="#fee133"/><stop offset=".6118" stop-color="#fede32"/><stop offset=".7076" stop-color="#fcd32f"/><stop offset=".7975" stop-color="#fac12b"/><stop offset=".8834" stop-color="#f7a924"/><stop offset=".9" stop-color="#f6a323"/></linearGradient><clipPath id="b"><path d="m93.86 73.67c4.76 0 8.64 4.6 8.64 10.25s-3.87 10.25-8.64 10.25h-59.72c-4.76 0-8.64-4.6-8.64-10.25s3.87-10.25 8.64-10.25z"/></clipPath><path d="m64 119.89c-27.93 0-58-17.49-58-55.89s30.07-55.89 58-55.89c15.48 0 29.81 5.12 40.36 14.43 11.54 10.18 17.64 24.52 17.64 41.46 0 16.86-6.1 31.17-17.64 41.39-10.58 9.35-24.91 14.5-40.36 14.5z" fill="url(#a)"/><path d="m64 10.11c14.99 0 28.86 4.95 39.03 13.93 11.1 9.79 16.97 23.61 16.97 39.96 0 16.27-5.87 30.07-16.97 39.89-10.21 9.03-24.07 14-39.03 14-15.04 0-28.9-4.91-39.04-13.82-11.1-9.75-16.96-23.61-16.96-40.07 0-16.54 5.86-30.42 16.96-40.15 10.11-8.86 23.97-13.74 39.04-13.74m0-4c-31.15 0-60 20-60 57.89 0 37.68 28.85 57.89 60 57.89s60-20.73 60-57.89c0-37.37-28.85-57.89-60-57.89z" fill="#eb8f00"/><path d="m35.47 96.24c-6.6 0-11.98-5.37-11.98-11.98v-.66c0-6.6 5.37-11.98 11.98-11.98h57.06c6.6 0 11.98 5.37 11.98 11.98v.66c0 6.6-5.37 11.98-11.98 11.98z" fill="#fff"/><path d="m92.53 73.62c5.5 0 9.98 4.48 9.98 9.98v.66c0 5.5-4.48 9.98-9.98 9.98h-57.06c-5.5 0-9.98-4.48-9.98-9.98v-.66c0-5.5 4.48-9.98 9.98-9.98zm0-4h-57.06c-7.69 0-13.98 6.29-13.98 13.98v.66c0 7.69 6.29 13.98 13.98 13.98h57.06c7.69 0 13.98-6.29 13.98-13.98v-.66c0-7.69-6.29-13.98-13.98-13.98z" fill="#eb8f00"/><g fill="none" stroke="#b3b3b0" stroke-miterlimit="10" stroke-width="4"><path clip-path="url(#b)" d="m16.4 83.93h95.2"/><path clip-path="url(#b)" d="m37.02 68.66v30.53"/><path clip-path="url(#b)" d="m50.76 68.66v30.53"/><path clip-path="url(#b)" d="m64.51 68.66v30.53"/><path clip-path="url(#b)" d="m78.25 68.66v30.53"/><path clip-path="url(#b)" d="m92 68.66v30.53"/></g><g fill="#242424"><path d="m44.67 37.86c-4.19 0-8 3.54-8 9.42s3.81 9.42 8 9.42 8-3.54 8-9.42-3.81-9.42-8-9.42z"/><path d="m83.33 37.86c-4.19 0-8 3.54-8 9.42s3.81 9.42 8 9.42 8-3.54 8-9.42-3.81-9.42-8-9.42z"/></g></svg>