<svg enable-background="new 0 0 128 128" viewBox="0 0 128 128" xmlns="http://www.w3.org/2000/svg" xmlns:xlink="http://www.w3.org/1999/xlink"><linearGradient id="a" gradientTransform="matrix(-.7071 -.7071 -.8163 .8163 445.01 -54.62)" gradientUnits="userSpaceOnUse" x1="185.86" x2="186.68" y1="289.95" y2="304.88"><stop offset="0" stop-color="#d1824d"/><stop offset=".3646" stop-color="#f6c970"/><stop offset="1" stop-color="#fee8af"/></linearGradient><linearGradient id="b" gradientTransform="matrix(-.7071 -.7071 -.7071 .7071 414 -23.614)" gradientUnits="userSpaceOnUse" x1="186.11" x2="187.01" y1="296.69" y2="312.95"><stop offset="0" stop-color="#ff3800"/><stop offset=".9951" stop-color="#7d1d00"/></linearGradient><linearGradient id="c" gradientTransform="matrix(-.7071 -.7071 -.7071 .7071 414 -23.614)" gradientUnits="userSpaceOnUse" x1="186.43" x2="187.6" y1="312.03" y2="345.98"><stop offset="0" stop-color="#f6c970"/><stop offset=".0225" stop-color="#f7c96f"/><stop offset=".1921" stop-color="#ffca68"/><stop offset="1" stop-color="#b74e09"/></linearGradient><linearGradient id="d" gradientUnits="userSpaceOnUse" x1="28.134" x2="104.9" y1="17.396" y2="97.571"><stop offset="0" stop-color="#ff0"/><stop offset=".5359" stop-color="#ffcb00"/><stop offset=".9949" stop-color="#ffe973"/></linearGradient><path d="m112.89 101.14c-3.49 6.07-19.84-3.71-50.04-38.69-30.21-34.99-34.77-47.85-33.52-50.75 2.67-6.12 9.38-7.25 14.03-4.45 2.81 1.69 17.78 30.9 29.99 44.2 16.15 17.6 38.26 28.62 42.17 35.83 3.93 7.21-2.63 13.86-2.63 13.86z" fill="url(#a)"/><path d="m112.48 105.57c-4.69 5.58-8.72 12.76-49.28-31.59s-44.85-53.7-40.18-61.41 10.99-4.17 13.27-2.15 16.3 26.66 35.63 47.76 51.17 34.76 40.56 47.39z" fill="url(#b)"/><path d="m103.64 119.98c-4.59 6.42-13.66 5.16-26.33-.48-18.17-8.09-48-30-63.25-65.86-13.32-31.31-3.54-35.38.25-38.16s6.44.13 10.74 5.43 16.05 20.34 28.68 35 15.41 17.19 28.68 29.7 28.81 23.76 21.23 34.37z" fill="url(#c)"/><path d="m38.14 8.8c1.24 0 2.46.32 3.53.93 1.06 1.09 4.35 6.53 7.27 11.34 6.17 10.19 14.63 24.16 22.2 32.41 8.87 9.67 19.41 17.33 27.87 23.48 6.65 4.83 12.39 9.01 13.88 11.75 1.8 3.3.49 6.57-.91 8.72-.41.63-.57 1.38-.45 2.12.23 1.44-.18 2.71-1.34 4.09l-.35.42c-1.58 1.9-2.37 2.68-3.78 2.68-.27 0-.56-.03-.88-.08-.17-.03-.35-.05-.52-.05-.9 0-1.76.4-2.34 1.12-.69.85-.85 2.01-.43 3.03 1.18 2.85.97 5.16-.69 7.47-1.49 2.08-3.63 3.05-6.76 3.05-3.86 0-9.06-1.48-15.91-4.53-19.55-8.69-47.45-30.75-61.71-64.28-11.54-27.12-5.05-31.58-1.57-33.98.3-.21.58-.4.84-.59.43-.32.8-.49 1.04-.49.22 0 .87.16 2.31 1.6.57.58 1.34.88 2.13.88.35 0 .69-.06 1.03-.18 1.1-.4 1.86-1.4 1.96-2.57.09-1.03.41-1.95 1.04-3 2-3.3 3.85-3.3 4.46-3.3.37 0 .75.05 1.15.15.24.06.49.09.74.09.72 0 1.42-.26 1.97-.74 1.45-1.27 3.1-1.54 4.22-1.54m0-3c-2.21 0-4.42.74-6.2 2.28-.6-.15-1.24-.24-1.89-.24-2.32 0-4.85 1.15-7.03 4.74-.81 1.33-1.34 2.71-1.47 4.31-1.55-1.56-2.95-2.48-4.43-2.48-.89 0-1.82.34-2.82 1.07-3.79 2.78-13.57 6.85-.25 38.16 15.25 35.86 45.08 57.77 63.25 65.86 6.79 3.02 12.54 4.79 17.13 4.79 3.97 0 7.07-1.33 9.2-4.31 2.42-3.38 2.48-6.83 1.02-10.36.5.09.97.13 1.4.13 3.17 0 4.76-2.19 6.43-4.17 1.79-2.13 2.37-4.28 2.01-6.5 1.64-2.52 3.63-7.04 1.04-11.8-3.92-7.21-26.02-18.23-42.17-35.83-12.22-13.29-27.18-42.51-30-44.2-1.58-.95-3.4-1.45-5.22-1.45z" fill="#424242" opacity=".2"/><path d="m101.53 97.67c-1.47 0-2.99-.3-4.38-1.18-2.58-1.62-3.48-4.3-4.28-6.67-.52-1.55-1.01-3.02-1.88-3.88-1.05-1.04-2.9-1.4-4.85-1.79-2.44-.48-5.21-1.02-7.34-3.07-2.44-2.35-2.98-5.72-3.4-8.43l-.06-.4c-.29-1.8-.84-4.3-2.33-5.16-.75-.43-1.91-.59-3.14-.76-2.29-.31-5.14-.7-6.79-3.33-1.11-1.76-1.05-3.7-1-5.26.03-1.02.06-1.98-.24-2.45-.33-.51-1.35-.84-2.43-1.19-1.56-.5-3.5-1.13-4.84-2.81-1.47-1.85-1.53-4.06-1.58-5.85-.03-1.19-.06-2.31-.48-2.87-.43-.58-1.54-.92-2.72-1.28-1.66-.5-3.73-1.13-5.16-2.9-1.59-1.97-1.62-4.34-1.65-6.25-.02-1.21-.03-2.36-.41-3.09-.53-1.02-2.03-1.63-3.19-1.96-.51-.15-1.04-.27-1.56-.39-1.42-.34-3.03-.72-4.54-1.53-2.45-1.31-4.68-4.08-4.14-7.31.23-1.36 1.51-2.29 2.87-2.06s2.28 1.51 2.06 2.87c-.1.63.6 1.57 1.57 2.09.94.5 2.1.78 3.34 1.07.59.14 1.18.28 1.77.45 3.06.87 5.17 2.37 6.26 4.46.93 1.79.96 3.67.98 5.34.02 1.37.03 2.56.54 3.18.46.57 1.56.91 2.72 1.26 1.72.52 3.87 1.18 5.29 3.09 1.35 1.83 1.41 3.98 1.46 5.71.03 1.2.06 2.33.49 2.87.4.5 1.4.83 2.46 1.17 1.69.54 3.79 1.22 5.08 3.21 1.16 1.78 1.1 3.75 1.05 5.33-.03 1.02-.06 1.98.24 2.45.38.61 1.48.8 3.23 1.04 1.57.21 3.36.46 4.96 1.38 3.29 1.9 4.28 5.65 4.76 8.7l.06.41c.34 2.17.7 4.42 1.93 5.61 1.07 1.02 2.9 1.38 4.83 1.76 2.47.49 5.27 1.03 7.4 3.14 1.71 1.7 2.46 3.9 3.11 5.85.6 1.8 1.13 3.36 2.19 4.03 1.39.87 3.72.22 5.8-.46 1.31-.43 2.72.29 3.15 1.6s-.29 2.72-1.6 3.15c-1.35.44-3.42 1.11-5.61 1.11z" fill="url(#d)"/></svg>