<svg enable-background="new 0 0 128 128" viewBox="0 0 128 128" xmlns="http://www.w3.org/2000/svg" xmlns:xlink="http://www.w3.org/1999/xlink"><linearGradient id="a" gradientUnits="userSpaceOnUse" x1="64" x2="64" y1="19.717" y2="107.7"><stop offset=".5" stop-color="#fee133"/><stop offset=".6118" stop-color="#fede32"/><stop offset=".7076" stop-color="#fcd32f"/><stop offset=".7975" stop-color="#fac12b"/><stop offset=".8834" stop-color="#f7a924"/><stop offset=".9" stop-color="#f6a323"/></linearGradient><clipPath id="b"><path d="m63.47 62.53c-15.71 0-30.31-1.32-42.49-3.57-3.02-.56-5.69 2.1-5.08 5.11 4.04 19.81 23.55 36.08 47.55 36.08 26.27 0 43.94-16.8 47.61-36.15.57-2.99-2.1-5.6-5.09-5.04-12.18 2.25-26.78 3.57-42.5 3.57z"/></clipPath><clipPath id="c"><path d="m10.24 46.49v14.89c16.38 9.62 34.36 14.97 53.24 14.97s36.86-5.35 53.24-14.97v-14.89zm53.24 39.93c-11.78 0-22.05 6.42-27.53 15.95 7.12 3.89 16.83 6.29 27.53 6.29 10.71 0 20.41-2.4 27.53-6.29-5.48-9.53-15.75-15.95-27.53-15.95z"/></clipPath><path d="m64 119.89c-27.93 0-58-17.49-58-55.89s30.07-55.89 58-55.89c15.48 0 29.81 5.12 40.36 14.43 11.54 10.18 17.64 24.52 17.64 41.46 0 16.86-6.1 31.17-17.64 41.39-10.58 9.35-24.91 14.5-40.36 14.5z" fill="url(#a)"/><path d="m64 10.11c14.99 0 28.86 4.95 39.03 13.93 11.1 9.79 16.97 23.61 16.97 39.96 0 16.27-5.87 30.07-16.97 39.89-10.21 9.03-24.07 14-39.03 14-15.04 0-28.9-4.91-39.04-13.82-11.1-9.75-16.96-23.61-16.96-40.07 0-16.54 5.86-30.42 16.96-40.15 10.11-8.86 23.97-13.74 39.04-13.74m0-4c-31.15 0-60 20-60 57.89 0 37.68 28.85 57.89 60 57.89s60-20.73 60-57.89c0-37.37-28.85-57.89-60-57.89z" fill="#eb8f00"/><path clip-path="url(#b)" d="m63.47 62.53c-15.71 0-30.31-1.32-42.49-3.57-3.02-.56-5.69 2.1-5.08 5.11 4.04 19.81 23.55 36.08 47.55 36.08 26.27 0 43.94-16.8 47.61-36.15.57-2.99-2.1-5.6-5.09-5.04-12.18 2.25-26.78 3.57-42.5 3.57z" fill="#242424"/><path clip-path="url(#b)" d="m116.72 61.38v-14.89h-106.48v14.89c16.37 9.62 34.36 14.97 53.24 14.97s36.86-5.35 53.24-14.97z" fill="#fff"/><path clip-path="url(#b)" d="m63.48 86.42c-11.78 0-22.05 6.42-27.53 15.95 7.12 3.89 16.83 6.29 27.53 6.29s20.41-2.4 27.53-6.29c-5.48-9.53-15.75-15.95-27.53-15.95z" fill="#ed7770"/><g clip-path="url(#b)"><g clip-path="url(#c)"><path d="m106.79 63.09c.07 0 .14.07.14.12-1.68 8.85-6.6 16.96-13.85 22.84-7.97 6.46-18.21 9.88-29.63 9.88-10.46 0-20.64-3.45-28.67-9.72-7.72-6.03-12.96-14.19-14.76-23.02.01-.02.07-.1.18-.1h.01c12.86 2.38 27.82 3.64 43.26 3.64s30.41-1.26 43.28-3.65c.01.01.03.01.04.01m0-4.21c-.27 0-.54.02-.81.08-12.18 2.26-26.79 3.58-42.51 3.58-15.71 0-30.31-1.32-42.49-3.57-.27-.05-.54-.08-.81-.08-2.67 0-4.83 2.44-4.27 5.18 4.04 19.81 23.55 36.08 47.55 36.08 26.27 0 43.94-16.8 47.61-36.15.52-2.72-1.63-5.12-4.27-5.12z" fill="#eb8f00"/></g></g><g fill="#cc1775" stroke="#b3005c" stroke-miterlimit="10" stroke-width="4"><path d="m32.08 17.13 8.06 10.7c.4.53 1.03.82 1.68.79l13.38-.57c1.66-.07 2.67 1.79 1.72 3.15l-7.69 10.97c-.38.54-.47 1.23-.24 1.85l4.68 12.55c.58 1.55-.87 3.1-2.46 2.61l-12.81-3.92c-.63-.19-1.31-.06-1.83.35l-10.47 8.32c-1.3 1.03-3.21.13-3.24-1.53l-.23-13.4c-.01-.66-.35-1.27-.89-1.63l-11.16-7.4c-1.38-.92-1.11-3.02.45-3.56l12.67-4.36c.62-.21 1.1-.72 1.28-1.36l3.59-12.9c.43-1.59 2.51-1.99 3.51-.66z"/><path d="m95.92 17.13-8.06 10.7c-.4.53-1.03.82-1.68.79l-13.38-.57c-1.66-.07-2.67 1.79-1.72 3.15l7.69 10.97c.38.54.47 1.23.24 1.85l-4.68 12.55c-.58 1.55.87 3.1 2.46 2.61l12.81-3.92c.63-.19 1.31-.06 1.83.35l10.49 8.33c1.3 1.03 3.21.13 3.24-1.53l.21-13.41c.01-.66.35-1.27.89-1.63l11.16-7.4c1.38-.92 1.11-3.02-.45-3.56l-12.67-4.36c-.62-.21-1.1-.72-1.28-1.36l-3.59-12.9c-.43-1.59-2.51-1.99-3.51-.66z"/></g></svg>