<svg enable-background="new 0 0 128 128" viewBox="0 0 128 128" xmlns="http://www.w3.org/2000/svg" xmlns:xlink="http://www.w3.org/1999/xlink"><linearGradient id="a" gradientUnits="userSpaceOnUse" x1="64" x2="64" y1="19.717" y2="107.7"><stop offset=".5" stop-color="#fee133"/><stop offset=".6118" stop-color="#fede32"/><stop offset=".7076" stop-color="#fcd32f"/><stop offset=".7975" stop-color="#fac12b"/><stop offset=".8834" stop-color="#f7a924"/><stop offset=".9" stop-color="#f6a323"/></linearGradient><clipPath id="b"><path d="m63.47 62.53c-15.71 0-30.31-1.32-42.49-3.57-3.02-.56-5.69 2.1-5.08 5.11 4.04 19.81 23.55 36.08 47.55 36.08 26.27 0 43.94-16.8 47.61-36.15.57-2.99-2.1-5.6-5.09-5.04-12.18 2.25-26.78 3.57-42.5 3.57z"/></clipPath><clipPath id="c"><path d="m10.24 46.49v14.89c16.38 9.62 34.36 14.97 53.24 14.97s36.86-5.35 53.24-14.97v-14.89zm53.24 39.93c-11.78 0-22.05 6.42-27.53 15.95 7.12 3.89 16.83 6.29 27.53 6.29 10.71 0 20.41-2.4 27.53-6.29-5.48-9.53-15.75-15.95-27.53-15.95z"/></clipPath><path d="m64 119.89c-27.93 0-58-17.49-58-55.89s30.07-55.89 58-55.89c15.48 0 29.81 5.12 40.36 14.43 11.54 10.18 17.64 24.52 17.64 41.46 0 16.86-6.1 31.17-17.64 41.39-10.58 9.35-24.91 14.5-40.36 14.5z" fill="url(#a)"/><path d="m64 10.11c14.99 0 28.86 4.95 39.03 13.93 11.1 9.79 16.97 23.61 16.97 39.96 0 16.27-5.87 30.07-16.97 39.89-10.21 9.03-24.07 14-39.03 14-15.04 0-28.9-4.91-39.04-13.82-11.1-9.75-16.96-23.61-16.96-40.07 0-16.54 5.86-30.42 16.96-40.15 10.11-8.86 23.97-13.74 39.04-13.74m0-4c-31.15 0-60 20-60 57.89 0 37.68 28.85 57.89 60 57.89s60-20.73 60-57.89c0-37.37-28.85-57.89-60-57.89z" fill="#eb8f00"/><path clip-path="url(#b)" d="m63.47 62.53c-15.71 0-30.31-1.32-42.49-3.57-3.02-.56-5.69 2.1-5.08 5.11 4.04 19.81 23.55 36.08 47.55 36.08 26.27 0 43.94-16.8 47.61-36.15.57-2.99-2.1-5.6-5.09-5.04-12.18 2.25-26.78 3.57-42.5 3.57z" fill="#242424"/><path clip-path="url(#b)" d="m116.72 61.38v-14.89h-106.48v14.89c16.37 9.62 34.36 14.97 53.24 14.97s36.86-5.35 53.24-14.97z" fill="#fff"/><path clip-path="url(#b)" d="m63.48 86.42c-11.78 0-22.05 6.42-27.53 15.95 7.12 3.89 16.83 6.29 27.53 6.29s20.41-2.4 27.53-6.29c-5.48-9.53-15.75-15.95-27.53-15.95z" fill="#ed7770"/><g clip-path="url(#b)"><g clip-path="url(#c)"><path d="m106.79 63.09c.07 0 .14.07.14.12-1.68 8.85-6.6 16.96-13.85 22.84-7.97 6.46-18.21 9.88-29.63 9.88-10.46 0-20.64-3.45-28.67-9.72-7.72-6.03-12.96-14.19-14.76-23.02.01-.02.07-.1.18-.1h.01c12.86 2.38 27.82 3.64 43.26 3.64s30.41-1.26 43.28-3.65c.01.01.03.01.04.01m0-4.21c-.27 0-.54.02-.81.08-12.18 2.26-26.79 3.58-42.51 3.58-15.71 0-30.31-1.32-42.49-3.57-.27-.05-.54-.08-.81-.08-2.67 0-4.83 2.44-4.27 5.18 4.04 19.81 23.55 36.08 47.55 36.08 26.27 0 43.94-16.8 47.61-36.15.52-2.72-1.63-5.12-4.27-5.12z" fill="#eb8f00"/></g></g><g fill="#242424"><path d="m48.83 47.08s-.06-.07-.17-.21c-.1-.13-.25-.33-.45-.57-.16-.17-.35-.37-.57-.6-.23-.26-.5-.52-.77-.79-.28-.26-.58-.53-.88-.76-.3-.24-.62-.42-.88-.57-.27-.16-.52-.21-.69-.26-.09-.04-.16-.03-.22-.04-.03.01-.06-.01-.09 0l-.04.01h-.02-.01-.01c.13 0-.29.01.29-.01l-.58.02c-.15 0-.05.01-.04.01.03 0 .05 0 .08-.01.09-.03 0 0-.03 0-.04 0-.08.01-.12.03-.16.05-.42.1-.69.26-.27.15-.58.33-.88.57-.3.23-.6.5-.88.76-.55.54-1.03 1.08-1.37 1.47-.34.4-.54.63-.54.63l-.24.28c-1.44 1.68-4.09 1.97-5.91.64-1.24-.9-1.78-2.32-1.55-3.66 0 0 .07-.43.28-1.18.22-.74.59-1.81 1.31-3.06.73-1.24 1.78-2.71 3.55-4.04.87-.66 1.94-1.31 3.2-1.74.31-.12.63-.22.97-.3.35-.09.62-.17 1.1-.24l.65-.09c.2-.03.49-.06.54-.06l.58-.04.32-.01h.03.07l.13.01.27.01.54.04c.36.03.7.09 1.05.15.69.13 1.37.3 1.99.53 1.26.44 2.32 1.09 3.2 1.74 1.78 1.33 2.82 2.8 3.55 4.04.37.62.64 1.2.84 1.72.22.49.38 1.02.51 1.41.12.38.12.58.16.76.03.17.05.26.05.26.39 2.12-1.17 4.13-3.48 4.49-1.65.25-3.24-.42-4.15-1.6z"/><path d="m88.26 47.08s-.06-.07-.16-.21c-.1-.13-.25-.33-.45-.57-.16-.17-.35-.37-.57-.6-.23-.26-.5-.52-.77-.79-.28-.26-.58-.53-.88-.76-.3-.24-.62-.42-.88-.57-.27-.16-.52-.21-.69-.26-.09-.04-.16-.03-.22-.04-.03.01-.06-.01-.09 0l-.04.01h-.02-.01-.01c.13 0-.29.01.29-.01l-.58.02c-.15 0-.05.01-.04.01.03 0 .05 0 .08-.01.09-.03 0 0-.03 0-.04 0-.08.01-.12.03-.16.05-.42.1-.69.26-.27.15-.58.33-.88.57-.3.23-.6.5-.88.76-.55.54-1.03 1.08-1.37 1.47-.34.4-.54.63-.54.63l-.24.28c-1.44 1.68-4.09 1.97-5.91.64-1.24-.9-1.78-2.32-1.55-3.66 0 0 .07-.43.28-1.18.22-.74.59-1.81 1.31-3.06.73-1.24 1.78-2.71 3.55-4.04.87-.66 1.94-1.31 3.2-1.74.31-.12.63-.22.97-.3.35-.09.62-.17 1.1-.24l.65-.09c.2-.03.49-.06.54-.06l.58-.04.32-.01h.03.07l.13.01.27.01.54.04c.36.03.7.09 1.05.15.69.13 1.37.3 1.99.53 1.26.44 2.32 1.09 3.2 1.74 1.78 1.33 2.82 2.8 3.55 4.04.37.62.64 1.2.84 1.72.22.49.38 1.02.51 1.41.12.38.12.58.16.76.03.17.05.26.05.26.39 2.12-1.17 4.13-3.48 4.49-1.66.25-3.25-.42-4.16-1.6z"/></g></svg>