<?xml version="1.0" encoding="UTF-8"?><svg xmlns="http://www.w3.org/2000/svg" xmlns:xlink="http://www.w3.org/1999/xlink" width="16pt" height="16pt" viewBox="0 0 16 16" version="1.1"><defs><radialGradient id="radial0" gradientUnits="userSpaceOnUse" cx="63.41" cy="-3.0014" fx="63.41" fy="-3.0014" r="76.735" gradientTransform="matrix(0.124812,0,0,0.116713,0.0123125,0.53085)"><stop offset="0.4748" style="stop-color:rgb(89.803922%,22.352941%,20.784314%);stop-opacity:1;"/><stop offset="0.913" style="stop-color:rgb(77.647059%,15.686275%,15.686275%);stop-opacity:1;"/></radialGradient><filter id="alpha" filterUnits="objectBoundingBox" x="0%" y="0%" width="100%" height="100%"> <feColorMatrix type="matrix" in="SourceGraphic" values="0 0 0 0 1 0 0 0 0 1 0 0 0 0 1 0 0 0 1 0"/></filter><mask id="mask0"> <g filter="url(#alpha)"><rect x="0" y="0" width="16" height="16" style="fill:rgb(0%,0%,0%);fill-opacity:0.2;stroke:none;"/> </g></mask><clipPath id="clip1"> <rect width="16" height="16"/></clipPath><g id="surface6" clip-path="url(#clip1)"><path style=" stroke:none;fill-rule:nonzero;fill:rgb(25.882353%,25.882353%,25.882353%);fill-opacity:1;" d="M 11.738281 1.511719 C 12.796875 1.511719 13.789062 1.96875 14.394531 2.734375 C 15.105469 3.628906 15.292969 4.90625 14.9375 6.429688 C 14.1875 9.632812 9.050781 13.640625 7.992188 14.4375 C 6.921875 13.632812 1.789062 9.628906 1.039062 6.429688 C 0.683594 4.90625 0.871094 3.632812 1.578125 2.738281 C 2.191406 1.96875 3.183594 1.511719 4.238281 1.511719 C 6.683594 1.511719 7.625 4.488281 7.636719 4.519531 L 7.988281 5.691406 L 8.351562 4.523438 C 8.359375 4.492188 9.3125 1.511719 11.738281 1.511719 M 11.738281 1.136719 C 9 1.136719 7.992188 4.410156 7.992188 4.410156 C 7.992188 4.410156 7 1.136719 4.238281 1.136719 C 2.167969 1.136719 -0.199219 2.777344 0.675781 6.515625 C 1.546875 10.25 7.964844 14.886719 7.964844 14.886719 C 7.964844 14.886719 8 14.871094 8 14.851562 C 8 14.871094 8.019531 14.882812 8.019531 14.882812 C 8.019531 14.882812 14.429688 10.25 15.300781 6.515625 C 16.175781 2.777344 13.8125 1.136719 11.738281 1.136719 Z M 11.738281 1.136719 "/></g></defs><g id="surface1"><path style=" stroke:none;fill-rule:nonzero;fill:url(#radial0);" d="M 11.738281 1.136719 C 9 1.136719 7.992188 4.410156 7.992188 4.410156 C 7.992188 4.410156 7 1.136719 4.238281 1.136719 C 2.167969 1.136719 -0.199219 2.777344 0.675781 6.515625 C 1.546875 10.25 7.964844 14.886719 7.964844 14.886719 C 7.964844 14.886719 8 14.871094 8 14.851562 C 8 14.871094 8.019531 14.882812 8.019531 14.882812 C 8.019531 14.882812 14.429688 10.25 15.300781 6.515625 C 16.175781 2.777344 13.8125 1.136719 11.738281 1.136719 Z M 11.738281 1.136719 "/><use xlink:href="#surface6" mask="url(#mask0)"/></g></svg>