<svg enable-background="new 0 0 128 128" viewBox="0 0 128 128" xmlns="http://www.w3.org/2000/svg" xmlns:xlink="http://www.w3.org/1999/xlink"><linearGradient id="a" gradientUnits="userSpaceOnUse" x1="64" x2="64" y1="19.717" y2="107.7"><stop offset=".5" stop-color="#fee133"/><stop offset=".6118" stop-color="#fede32"/><stop offset=".7076" stop-color="#fcd32f"/><stop offset=".7975" stop-color="#fac12b"/><stop offset=".8834" stop-color="#f7a924"/><stop offset=".9" stop-color="#f6a323"/></linearGradient><path d="m64 119.89c-27.93 0-58-17.49-58-55.89s30.07-55.89 58-55.89c15.48 0 29.81 5.12 40.36 14.43 11.54 10.18 17.64 24.52 17.64 41.46 0 16.86-6.1 31.17-17.64 41.39-10.58 9.35-24.91 14.5-40.36 14.5z" fill="url(#a)"/><path d="m64 10.11c14.99 0 28.86 4.95 39.03 13.93 11.1 9.79 16.97 23.61 16.97 39.96 0 16.27-5.87 30.07-16.97 39.89-10.21 9.03-24.07 14-39.03 14-15.04 0-28.9-4.91-39.04-13.82-11.1-9.75-16.96-23.61-16.96-40.07 0-16.54 5.86-30.42 16.96-40.15 10.11-8.86 23.97-13.74 39.04-13.74m0-4c-31.15 0-60 20-60 57.89 0 37.68 28.85 57.89 60 57.89s60-20.73 60-57.89c0-37.37-28.85-57.89-60-57.89z" fill="#eb8f00"/><g fill="none" stroke="#242424" stroke-linecap="round" stroke-linejoin="round" stroke-miterlimit="10"><path d="m39 86.5h50" stroke-width="9"/><g stroke-width="8"><path d="m28 51h21"/><path d="m78 51h21"/></g></g></svg>