<?xml version="1.0" encoding="UTF-8"?>
<svg xmlns="http://www.w3.org/2000/svg" xmlns:xlink="http://www.w3.org/1999/xlink" width="16pt" height="16pt" viewBox="0 0 16 16" version="1.1">
<defs>
<linearGradient id="linear0" gradientUnits="userSpaceOnUse" x1="35.23" y1="51.869" x2="75.483" y2="51.869" gradientTransform="matrix(0.125,0,0,0.125,0,0)">
<stop offset="0" style="stop-color:rgb(100%,0%,0%);stop-opacity:1;"/>
<stop offset="0.9972" style="stop-color:rgb(71.764706%,3.529412%,1.568627%);stop-opacity:1;"/>
</linearGradient>
</defs>
<g id="surface1">
<path style=" stroke:none;fill-rule:nonzero;fill:rgb(67.058824%,56.078431%,47.843137%);fill-opacity:1;" d="M 5.097656 1.992188 C 5.496094 1.992188 5.859375 2.152344 5.992188 2.296875 C 6.050781 2.347656 6.097656 2.402344 6.113281 2.457031 C 6.234375 2.8125 6.488281 2.820312 6.511719 2.820312 C 6.511719 2.820312 6.507812 2.824219 6.503906 2.832031 C 6.515625 2.835938 6.523438 2.839844 6.523438 2.839844 C 6.523438 2.839844 6.40625 2.96875 6.421875 3.410156 C 6.429688 3.636719 6.316406 3.90625 6.140625 4.082031 C 5.996094 4.234375 5.8125 4.3125 5.613281 4.3125 C 5.4375 4.3125 5.246094 4.246094 5.046875 4.121094 L 5.027344 4.117188 L 5.03125 4.109375 L 5.042969 4.097656 C 5.164062 3.917969 5.253906 3.628906 5.300781 3.449219 C 4.679688 3.574219 4.605469 3.671875 4.558594 4.265625 C 4.257812 4.203125 3.796875 3.605469 3.890625 2.980469 L 3.890625 2.976562 C 3.894531 2.945312 3.902344 2.910156 3.910156 2.878906 C 3.914062 2.867188 3.914062 2.859375 3.917969 2.851562 C 3.921875 2.824219 3.933594 2.792969 3.945312 2.765625 C 3.953125 2.746094 3.957031 2.726562 3.96875 2.707031 C 3.972656 2.695312 3.980469 2.683594 3.984375 2.671875 C 4 2.636719 4.019531 2.605469 4.039062 2.570312 C 4.046875 2.558594 4.050781 2.546875 4.0625 2.535156 C 4.074219 2.515625 4.085938 2.5 4.097656 2.480469 C 4.117188 2.453125 4.140625 2.421875 4.167969 2.390625 C 4.226562 2.324219 4.292969 2.269531 4.359375 2.21875 C 4.589844 2.054688 4.851562 1.992188 5.097656 1.992188 M 5.097656 1.867188 C 4.792969 1.867188 4.515625 1.953125 4.285156 2.117188 C 4.199219 2.179688 4.132812 2.242188 4.070312 2.3125 C 4.046875 2.339844 4.019531 2.371094 3.996094 2.410156 C 3.980469 2.425781 3.96875 2.445312 3.953125 2.464844 C 3.949219 2.476562 3.941406 2.488281 3.933594 2.5 L 3.929688 2.507812 C 3.90625 2.542969 3.886719 2.582031 3.871094 2.617188 C 3.863281 2.632812 3.855469 2.644531 3.851562 2.660156 C 3.84375 2.683594 3.832031 2.703125 3.828125 2.722656 C 3.8125 2.757812 3.804688 2.789062 3.796875 2.820312 C 3.792969 2.828125 3.792969 2.835938 3.789062 2.839844 L 3.789062 2.851562 C 3.777344 2.886719 3.769531 2.921875 3.765625 2.960938 C 3.664062 3.644531 4.15625 4.3125 4.53125 4.390625 C 4.539062 4.390625 4.546875 4.394531 4.554688 4.394531 C 4.582031 4.394531 4.609375 4.386719 4.632812 4.367188 C 4.660156 4.347656 4.679688 4.3125 4.679688 4.277344 C 4.714844 3.824219 4.738281 3.714844 5.117188 3.621094 C 5.0625 3.792969 5 3.933594 4.9375 4.023438 L 4.933594 4.03125 C 4.921875 4.042969 4.914062 4.054688 4.910156 4.070312 C 4.894531 4.101562 4.894531 4.140625 4.910156 4.171875 C 4.925781 4.210938 4.960938 4.238281 5 4.246094 C 5.210938 4.375 5.417969 4.441406 5.609375 4.441406 C 5.84375 4.441406 6.058594 4.347656 6.230469 4.171875 C 6.425781 3.96875 6.550781 3.667969 6.542969 3.40625 C 6.53125 3.042969 6.617188 2.921875 6.617188 2.921875 C 6.648438 2.890625 6.65625 2.847656 6.644531 2.804688 C 6.640625 2.792969 6.636719 2.777344 6.625 2.765625 C 6.605469 2.722656 6.5625 2.695312 6.511719 2.695312 L 6.507812 2.695312 C 6.492188 2.695312 6.324219 2.683594 6.234375 2.417969 C 6.207031 2.34375 6.15625 2.273438 6.078125 2.203125 C 5.917969 2.039062 5.527344 1.867188 5.097656 1.867188 Z M 5.097656 1.867188 "/>
<path style="fill:none;stroke-width:2.9252;stroke-linecap:round;stroke-linejoin:round;stroke:rgb(72.941176%,1.960784%,1.960784%);stroke-opacity:1;stroke-miterlimit:10;" d="M 92.9375 115 C 90.0625 111.34375 87.8125 107.625 86.09375 104.125 C 86.21875 103.09375 85.875 101.53125 84.90625 99.625 C 85.125 99.625 85.375 99.53125 85.5 98.90625 C 85.875 97.1875 85.125 94.65625 83.34375 91.3125 C 83.625 91.46875 83.90625 91.59375 84.15625 91.59375 C 84.375 91.59375 84.5625 91.5 84.71875 91.34375 C 85.03125 90.96875 85.09375 90.21875 84.90625 89.09375 C 84.59375 87.125 83.84375 85.15625 83 83.46875 C 83.1875 83.53125 83.34375 83.5625 83.46875 83.5625 C 83.71875 83.5625 83.9375 83.46875 84.09375 83.28125 C 84.5 82.71875 84.4375 81.46875 83.90625 79.53125 C 83.6875 78.75 83.40625 77.84375 83.09375 76.90625 C 83.15625 76.90625 83.21875 76.9375 83.28125 76.9375 C 83.5 76.9375 83.65625 76.84375 83.78125 76.65625 C 84.4375 75.625 83.34375 71.53125 82.21875 68.96875 C 82.25 68.6875 82.25 68.40625 82.25 68.09375 C 82.25 66.625 81.875 65.09375 81.875 65.09375 C 81.875 64.96875 81.875 64.875 81.875 64.71875 C 81.8125 62.8125 81.40625 45.40625 71.59375 35.75 C 69.4375 31.75 69.5625 27.75 67.625 19.40625 C 65.65625 10.78125 61.4375 5.53125 49.8125 5.03125 C 38.15625 4.53125 34.125 8.1875 35.46875 17.375 C 36.21875 22.59375 47.75 26.15625 46.75 32.71875 C 45.78125 39.28125 39.59375 42.6875 39.625 57.125 C 39.6875 71.59375 54.8125 84.25 59.875 88.625 C 64.59375 92.6875 69.4375 97.96875 71.34375 98.6875 C 71.625 100.4375 71.8125 102.1875 71.875 103.75 L 71.875 103.96875 L 72.125 103.8125 C 72.71875 103.375 73.1875 103 73.5625 102.53125 C 73.625 103.625 73.59375 104.59375 73.4375 105.21875 L 73.375 105.625 L 73.71875 105.25 C 74.03125 104.96875 74.28125 104.59375 74.53125 104.21875 C 74.75 107.875 75.125 111.875 75.5625 114.25 C 77.03125 121.75 78.25 122.71875 79.15625 122.71875 L 79.1875 122.71875 C 80.25 122.6875 80.6875 120.40625 81.03125 116.4375 C 81.3125 117.03125 81.625 117.53125 81.9375 117.96875 C 84.40625 121.46875 86.1875 123.03125 86.8125 123.03125 C 86.84375 123.03125 86.875 123 86.9375 123 C 88.21875 122.9375 88.1875 120.15625 87.5 116.1875 C 90.9375 119.1875 94.21875 121.28125 95.5625 121.28125 C 95.78125 121.28125 95.96875 121.21875 96.09375 121.125 C 96.96875 120.4375 94.875 117.40625 92.9375 115 Z M 92.9375 115 " transform="matrix(0.125,0,0,0.125,0,0)"/>
<path style=" stroke:none;fill-rule:nonzero;fill:rgb(1.568627%,61.176471%,74.901961%);fill-opacity:1;" d="M 9.894531 15.335938 C 9.78125 15.335938 9.628906 15.21875 9.445312 14.28125 C 9.324219 13.640625 9.261719 12.03125 9.261719 12.015625 C 9.269531 11.863281 9.339844 11.832031 9.398438 11.832031 C 9.582031 11.832031 9.828125 12.148438 9.835938 12.484375 C 9.84375 12.730469 9.921875 13.074219 10.003906 13.40625 C 10.082031 13.753906 10.160156 14.082031 10.148438 14.273438 L 10.148438 14.296875 C 10.105469 14.953125 10.050781 15.332031 9.898438 15.335938 Z M 9.894531 15.335938 "/>
<path style=" stroke:none;fill-rule:nonzero;fill:rgb(1.960784%,70.196078%,85.882353%);fill-opacity:1;" d="M 9.984375 11.0625 C 9.976562 10.882812 9.886719 10.792969 9.710938 10.792969 C 9.539062 10.792969 9.339844 10.882812 9.300781 10.898438 C 9.320312 11.035156 9.703125 13.984375 10.242188 14.746094 C 10.554688 15.183594 10.773438 15.378906 10.855469 15.378906 C 10.859375 15.378906 10.859375 15.375 10.867188 15.375 C 11.429688 15.351562 9.984375 11.0625 9.984375 11.0625 "/>
<path style=" stroke:none;fill-rule:nonzero;fill:rgb(1.960784%,70.196078%,85.882353%);fill-opacity:1;" d="M 11.949219 15.160156 C 11.757812 15.160156 11.269531 14.832031 10.785156 14.382812 C 9.917969 13.574219 9.691406 10.953125 9.6875 10.929688 L 9.6875 10.921875 L 9.703125 10.917969 C 9.703125 10.917969 9.730469 10.917969 9.773438 10.917969 C 9.878906 10.917969 10.140625 10.9375 10.242188 11.128906 L 10.242188 11.132812 C 10.222656 11.855469 10.640625 13.136719 11.617188 14.371094 C 11.859375 14.675781 12.121094 15.054688 12.015625 15.140625 C 12 15.152344 11.976562 15.160156 11.949219 15.160156 Z M 11.949219 15.160156 "/>
<path style=" stroke:none;fill-rule:nonzero;fill:rgb(0%,29.019608%,57.647059%);fill-opacity:1;" d="M 8.617188 10.929688 C 8.617188 10.929688 8.976562 12.132812 9.003906 12.96875 C 9.261719 12.792969 9.3125 12.613281 9.289062 12.132812 C 9.261719 11.648438 9.25 11.046875 8.617188 10.929688 Z M 8.617188 10.929688 "/>
<path style=" stroke:none;fill-rule:nonzero;fill:rgb(0.784314%,21.960784%,38.823529%);fill-opacity:1;" d="M 8.984375 12.996094 L 8.984375 12.96875 C 8.957031 12.140625 8.601562 10.941406 8.597656 10.929688 L 8.59375 10.914062 L 8.621094 10.921875 C 9.25 11.035156 9.277344 11.621094 9.300781 12.089844 L 9.304688 12.132812 C 9.332031 12.632812 9.273438 12.796875 9.015625 12.972656 Z M 8.640625 10.945312 C 8.683594 11.089844 8.988281 12.167969 9.019531 12.9375 C 9.242188 12.777344 9.292969 12.605469 9.265625 12.132812 L 9.265625 12.089844 C 9.242188 11.636719 9.214844 11.070312 8.640625 10.945312 Z M 8.640625 10.945312 "/>
<path style=" stroke:none;fill-rule:nonzero;fill:rgb(0%,26.666667%,48.627451%);fill-opacity:1;" d="M 8.914062 10.929688 C 8.914062 10.929688 9.300781 12.6875 9.199219 13.152344 C 9.609375 12.746094 9.4375 11.660156 9.386719 10.929688 C 9.101562 10.8125 8.914062 10.929688 8.914062 10.929688 Z M 8.914062 10.929688 "/>
<path style=" stroke:none;fill-rule:nonzero;fill:rgb(0.784314%,21.960784%,38.823529%);fill-opacity:1;" d="M 9.171875 13.203125 L 9.183594 13.148438 C 9.28125 12.691406 8.898438 10.949219 8.894531 10.929688 L 8.894531 10.925781 L 8.898438 10.921875 C 8.902344 10.921875 8.988281 10.867188 9.136719 10.867188 C 9.222656 10.867188 9.3125 10.886719 9.398438 10.921875 L 9.40625 10.921875 L 9.40625 10.929688 C 9.414062 11.039062 9.421875 11.15625 9.433594 11.28125 C 9.492188 11.960938 9.566406 12.808594 9.21875 13.15625 Z M 8.933594 10.933594 C 8.953125 11.027344 9.289062 12.582031 9.226562 13.097656 C 9.523438 12.730469 9.453125 11.929688 9.394531 11.28125 C 9.386719 11.160156 9.375 11.042969 9.367188 10.933594 C 9.289062 10.902344 9.210938 10.886719 9.136719 10.886719 C 9.027344 10.886719 8.953125 10.921875 8.933594 10.933594 Z M 8.933594 10.933594 "/>
<path style=" stroke:none;fill-rule:nonzero;fill:url(#linear0);" d="M 9.203125 11.613281 C 9.203125 11.613281 9.15625 12.347656 8.964844 12.34375 C 8.769531 12.34375 8.117188 11.621094 7.484375 11.074219 C 6.851562 10.527344 4.960938 8.945312 4.953125 7.140625 C 4.949219 5.335938 5.71875 4.90625 5.84375 4.085938 C 5.96875 3.269531 4.527344 2.820312 4.433594 2.167969 C 4.265625 1.019531 4.769531 0.5625 6.226562 0.625 C 7.679688 0.6875 8.207031 1.34375 8.453125 2.425781 C 8.703125 3.503906 8.679688 4 8.976562 4.523438 C 9.277344 5.042969 9.707031 10.816406 9.203125 11.613281 Z M 9.203125 11.613281 "/>
<path style=" stroke:none;fill-rule:nonzero;fill:rgb(0%,29.019608%,57.647059%);fill-opacity:1;" d="M 10.648438 13.167969 L 10.652344 13.167969 C 10.71875 13.132812 10.753906 13.046875 10.742188 12.914062 C 10.722656 12.667969 10.542969 12.261719 10.136719 11.796875 C 9.238281 10.765625 8.21875 8.644531 7.996094 8.058594 C 7.769531 7.476562 7.421875 5.9375 6.914062 7.191406 C 6.914062 7.191406 6.886719 7.398438 6.925781 7.746094 L 6.925781 7.75 C 6.929688 7.796875 6.9375 7.84375 6.945312 7.890625 C 6.945312 7.898438 6.949219 7.90625 6.949219 7.914062 C 6.953125 7.960938 6.964844 8.011719 6.972656 8.0625 C 6.976562 8.074219 6.976562 8.082031 6.980469 8.09375 C 6.988281 8.144531 7 8.199219 7.015625 8.257812 C 7.015625 8.265625 7.019531 8.273438 7.023438 8.285156 C 7.039062 8.34375 7.054688 8.402344 7.070312 8.464844 C 7.074219 8.46875 7.074219 8.476562 7.078125 8.480469 C 7.09375 8.542969 7.113281 8.605469 7.136719 8.671875 C 7.140625 8.675781 7.140625 8.683594 7.144531 8.6875 C 7.167969 8.753906 7.191406 8.820312 7.21875 8.890625 C 7.226562 8.898438 7.230469 8.910156 7.234375 8.921875 C 7.261719 8.988281 7.292969 9.058594 7.324219 9.125 C 7.328125 9.140625 7.332031 9.152344 7.339844 9.164062 C 7.375 9.234375 7.410156 9.304688 7.449219 9.378906 C 7.453125 9.386719 7.457031 9.398438 7.464844 9.40625 C 7.503906 9.484375 7.546875 9.5625 7.597656 9.640625 C 8.417969 11 9.640625 12.425781 10.234375 12.984375 C 10.253906 13.003906 10.273438 13.019531 10.292969 13.035156 L 10.3125 13.050781 C 10.324219 13.0625 10.335938 13.070312 10.347656 13.078125 C 10.355469 13.085938 10.359375 13.089844 10.367188 13.09375 C 10.378906 13.101562 10.390625 13.109375 10.398438 13.113281 C 10.40625 13.117188 10.414062 13.121094 10.417969 13.125 C 10.429688 13.132812 10.4375 13.136719 10.449219 13.140625 C 10.453125 13.144531 10.460938 13.148438 10.464844 13.152344 C 10.476562 13.15625 10.484375 13.160156 10.492188 13.164062 C 10.5 13.164062 10.503906 13.167969 10.511719 13.167969 L 10.535156 13.175781 C 10.542969 13.175781 10.546875 13.175781 10.550781 13.175781 C 10.558594 13.179688 10.566406 13.179688 10.578125 13.179688 L 10.585938 13.179688 C 10.597656 13.179688 10.605469 13.179688 10.613281 13.175781 C 10.617188 13.175781 10.617188 13.175781 10.621094 13.175781 C 10.632812 13.171875 10.640625 13.171875 10.648438 13.167969 Z M 10.648438 13.167969 "/>
<path style=" stroke:none;fill-rule:nonzero;fill:rgb(0%,27.058824%,67.843137%);fill-opacity:1;" d="M 10.585938 13.199219 C 10.488281 13.199219 10.363281 13.128906 10.222656 13 C 9.644531 12.453125 8.402344 11.011719 7.582031 9.648438 C 6.765625 8.296875 6.894531 7.199219 6.894531 7.1875 L 6.894531 7.183594 C 7.03125 6.851562 7.164062 6.691406 7.296875 6.691406 C 7.554688 6.691406 7.746094 7.269531 7.902344 7.734375 C 7.941406 7.855469 7.980469 7.964844 8.011719 8.050781 C 8.253906 8.679688 9.273438 10.777344 10.148438 11.78125 C 10.683594 12.398438 10.828125 12.898438 10.738281 13.101562 C 10.707031 13.164062 10.65625 13.199219 10.585938 13.199219 Z M 10.585938 13.199219 "/>
<path style=" stroke:none;fill-rule:nonzero;fill:rgb(0%,24.705882%,61.960784%);fill-opacity:1;" d="M 7.6875 7.460938 C 7.6875 7.527344 7.671875 8.660156 8.929688 10.472656 C 9.839844 11.785156 10.40625 12.453125 10.609375 12.453125 C 10.636719 12.453125 10.671875 12.441406 10.6875 12.363281 C 10.738281 12.105469 10.601562 11.707031 10.265625 11.152344 C 10.203125 11.046875 10.097656 10.882812 9.976562 10.6875 C 9.546875 10.007812 8.828125 8.871094 8.660156 8.414062 C 8.492188 7.953125 8.148438 7.261719 7.890625 7.261719 C 7.8125 7.261719 7.742188 7.328125 7.6875 7.460938 Z M 7.6875 7.460938 "/>
<path style=" stroke:none;fill-rule:nonzero;fill:rgb(0%,23.137255%,57.647059%);fill-opacity:1;" d="M 8.257812 7.855469 C 8.257812 7.855469 8.847656 9.328125 9.433594 10.226562 C 10.019531 11.121094 10.703125 11.855469 10.59375 11.136719 C 10.484375 10.414062 9.910156 9.734375 9.910156 9.734375 C 9.910156 9.734375 8.890625 7.140625 8.257812 7.855469 Z M 8.257812 7.855469 "/>
<path style=" stroke:none;fill-rule:nonzero;fill:rgb(0.784314%,21.960784%,38.823529%);fill-opacity:1;" d="M 10.515625 11.445312 C 10.304688 11.445312 9.8125 10.839844 9.421875 10.238281 C 8.839844 9.351562 8.246094 7.875 8.238281 7.859375 L 8.234375 7.851562 L 8.242188 7.839844 C 8.320312 7.753906 8.40625 7.710938 8.503906 7.710938 C 9.125 7.710938 9.882812 9.609375 9.925781 9.726562 C 9.964844 9.769531 10.503906 10.4375 10.613281 11.132812 C 10.636719 11.277344 10.628906 11.371094 10.589844 11.414062 C 10.570312 11.4375 10.546875 11.445312 10.515625 11.445312 Z M 8.277344 7.859375 C 8.332031 7.996094 8.898438 9.371094 9.453125 10.21875 C 9.910156 10.921875 10.347656 11.410156 10.515625 11.410156 C 10.535156 11.410156 10.546875 11.402344 10.558594 11.390625 C 10.582031 11.367188 10.601562 11.300781 10.578125 11.140625 C 10.464844 10.433594 9.902344 9.753906 9.894531 9.746094 L 9.894531 9.742188 C 9.886719 9.722656 9.105469 7.75 8.503906 7.75 C 8.421875 7.75 8.347656 7.785156 8.277344 7.859375 Z M 8.277344 7.859375 "/>
<path style=" stroke:none;fill-rule:nonzero;fill:rgb(0%,23.137255%,57.647059%);fill-opacity:1;" d="M 9.015625 8.207031 C 9.015625 8.207031 9.375 9.125 9.847656 9.839844 C 10.320312 10.554688 10.664062 10.648438 10.46875 9.949219 C 10.273438 9.242188 9.628906 7.59375 9.015625 8.207031 Z M 9.015625 8.207031 "/>
<path style=" stroke:none;fill-rule:nonzero;fill:rgb(0.784314%,21.960784%,38.823529%);fill-opacity:1;" d="M 10.433594 10.445312 C 10.304688 10.445312 10.078125 10.222656 9.832031 9.847656 C 9.363281 9.140625 9 8.222656 8.996094 8.210938 L 8.992188 8.203125 L 9 8.191406 C 9.09375 8.101562 9.191406 8.054688 9.292969 8.054688 C 9.820312 8.054688 10.304688 9.289062 10.484375 9.941406 C 10.554688 10.179688 10.5625 10.335938 10.507812 10.40625 C 10.492188 10.429688 10.464844 10.445312 10.433594 10.445312 Z M 9.035156 8.210938 C 9.078125 8.320312 9.425781 9.167969 9.863281 9.828125 C 10.144531 10.253906 10.34375 10.40625 10.433594 10.40625 C 10.453125 10.40625 10.46875 10.398438 10.480469 10.386719 C 10.503906 10.351562 10.535156 10.25 10.449219 9.953125 C 10.304688 9.433594 9.816406 8.089844 9.292969 8.089844 C 9.207031 8.089844 9.121094 8.132812 9.035156 8.210938 Z M 9.035156 8.210938 "/>
<path style=" stroke:none;fill-rule:nonzero;fill:rgb(0%,23.137255%,57.647059%);fill-opacity:1;" d="M 9.628906 8.339844 C 9.628906 8.339844 9.816406 9.03125 10.234375 9.476562 C 10.65625 9.921875 10.449219 9.023438 10.234375 8.574219 C 10.023438 8.125 9.632812 7.773438 9.628906 8.339844 Z M 9.628906 8.339844 "/>
<path style=" stroke:none;fill-rule:nonzero;fill:rgb(0.784314%,21.960784%,38.823529%);fill-opacity:1;" d="M 10.410156 9.617188 C 10.363281 9.617188 10.300781 9.574219 10.222656 9.488281 C 9.804688 9.046875 9.613281 8.351562 9.609375 8.347656 L 9.609375 8.339844 C 9.609375 8.082031 9.691406 8.027344 9.761719 8.027344 C 9.917969 8.027344 10.128906 8.304688 10.253906 8.566406 C 10.402344 8.882812 10.558594 9.445312 10.472656 9.582031 C 10.457031 9.605469 10.4375 9.617188 10.410156 9.617188 Z M 9.648438 8.339844 C 9.660156 8.382812 9.851562 9.039062 10.25 9.464844 C 10.339844 9.558594 10.386719 9.578125 10.410156 9.578125 C 10.421875 9.578125 10.433594 9.574219 10.441406 9.5625 C 10.511719 9.453125 10.375 8.914062 10.21875 8.582031 C 10.082031 8.292969 9.882812 8.066406 9.765625 8.066406 C 9.671875 8.066406 9.648438 8.214844 9.648438 8.339844 Z M 9.648438 8.339844 "/>
<path style=" stroke:none;fill-rule:nonzero;fill:rgb(98.431373%,54.509804%,1.176471%);fill-opacity:1;" d="M 7.585938 7.003906 C 7.585938 7.003906 7.585938 7.003906 7.582031 7.007812 C 7.585938 7.007812 7.585938 7.003906 7.585938 7.003906 Z M 7.585938 7.003906 "/>
<path style=" stroke:none;fill-rule:nonzero;fill:rgb(100%,76.862745%,0%);fill-opacity:1;" d="M 10.28125 8.511719 C 10.28125 8.328125 10.234375 8.136719 10.234375 8.136719 C 10.234375 8.136719 10.046875 7.644531 9.664062 7.128906 C 9.664062 7.125 9.664062 7.125 9.660156 7.121094 C 9.625 7.078125 9.589844 7.03125 9.554688 6.984375 C 9.515625 6.941406 9.480469 6.894531 9.4375 6.847656 C 9.4375 6.847656 9.433594 6.84375 9.433594 6.84375 C 9.394531 6.800781 9.355469 6.757812 9.316406 6.714844 L 9.296875 6.699219 C 9.253906 6.65625 9.214844 6.617188 9.171875 6.578125 C 9.164062 6.574219 9.160156 6.570312 9.152344 6.5625 C 9.109375 6.523438 9.066406 6.488281 9.019531 6.453125 C 9.015625 6.449219 9.015625 6.449219 9.011719 6.445312 C 8.964844 6.410156 8.917969 6.375 8.867188 6.34375 C 8.859375 6.335938 8.851562 6.328125 8.839844 6.324219 C 8.792969 6.292969 8.742188 6.261719 8.691406 6.234375 C 8.683594 6.226562 8.671875 6.222656 8.664062 6.21875 C 8.609375 6.1875 8.558594 6.160156 8.5 6.136719 C 8.136719 5.972656 7.835938 5.910156 7.597656 5.902344 C 7.40625 5.898438 7.253906 5.925781 7.136719 5.964844 C 6.933594 6.035156 6.839844 6.136719 6.839844 6.136719 C 6.839844 6.136719 6.835938 6.140625 6.835938 6.148438 C 6.832031 6.152344 6.832031 6.160156 6.828125 6.164062 C 6.828125 6.171875 6.828125 6.175781 6.824219 6.183594 C 6.820312 6.195312 6.816406 6.207031 6.8125 6.21875 C 6.8125 6.226562 6.808594 6.234375 6.808594 6.242188 C 6.804688 6.257812 6.796875 6.273438 6.796875 6.289062 C 6.792969 6.296875 6.789062 6.308594 6.789062 6.316406 C 6.785156 6.335938 6.78125 6.359375 6.773438 6.378906 C 6.773438 6.390625 6.769531 6.398438 6.769531 6.410156 C 6.765625 6.433594 6.761719 6.457031 6.757812 6.480469 C 6.753906 6.492188 6.753906 6.503906 6.75 6.519531 C 6.746094 6.542969 6.742188 6.570312 6.738281 6.597656 C 6.738281 6.613281 6.734375 6.625 6.734375 6.640625 C 6.734375 6.667969 6.730469 6.695312 6.726562 6.726562 C 6.726562 6.742188 6.726562 6.757812 6.726562 6.773438 C 6.722656 6.800781 6.722656 6.832031 6.722656 6.863281 L 6.722656 6.914062 C 6.722656 6.945312 6.722656 6.976562 6.726562 7.007812 C 6.726562 7.023438 6.730469 7.042969 6.730469 7.058594 C 6.734375 7.089844 6.734375 7.125 6.742188 7.15625 C 6.742188 7.171875 6.746094 7.191406 6.75 7.210938 C 6.753906 7.242188 6.761719 7.273438 6.765625 7.308594 C 6.769531 7.328125 6.777344 7.34375 6.78125 7.363281 C 6.789062 7.394531 6.796875 7.425781 6.808594 7.457031 C 6.816406 7.476562 6.824219 7.496094 6.828125 7.515625 C 6.84375 7.546875 6.855469 7.578125 6.867188 7.609375 C 6.878906 7.628906 6.886719 7.648438 6.894531 7.667969 C 6.914062 7.695312 6.929688 7.726562 6.949219 7.757812 C 6.957031 7.777344 6.972656 7.796875 6.984375 7.8125 C 7.003906 7.84375 7.023438 7.871094 7.046875 7.898438 C 7.050781 7.90625 7.058594 7.914062 7.0625 7.921875 L 7.0625 7.917969 C 7.089844 7.949219 7.113281 7.980469 7.140625 8.011719 C 7.5 7.550781 7.585938 7.003906 7.585938 7.003906 C 7.585938 7.003906 7.582031 7.039062 7.574219 7.089844 L 7.574219 7.09375 C 7.574219 7.097656 7.574219 7.101562 7.574219 7.105469 C 7.574219 7.109375 7.574219 7.121094 7.570312 7.128906 C 7.570312 7.144531 7.570312 7.160156 7.566406 7.175781 C 7.566406 7.183594 7.566406 7.191406 7.566406 7.203125 C 7.5625 7.230469 7.5625 7.257812 7.558594 7.289062 L 7.558594 7.296875 C 7.558594 7.328125 7.558594 7.355469 7.558594 7.386719 L 7.558594 7.417969 C 7.558594 7.445312 7.558594 7.46875 7.5625 7.496094 C 7.5625 7.507812 7.5625 7.519531 7.5625 7.53125 C 7.5625 7.5625 7.566406 7.59375 7.570312 7.625 C 7.570312 7.632812 7.570312 7.640625 7.574219 7.648438 C 7.578125 7.6875 7.582031 7.730469 7.589844 7.769531 C 7.589844 7.777344 7.59375 7.789062 7.597656 7.796875 C 7.601562 7.828125 7.609375 7.859375 7.617188 7.890625 L 7.628906 7.929688 C 7.636719 7.957031 7.644531 7.984375 7.652344 8.011719 C 7.660156 8.027344 7.664062 8.039062 7.667969 8.050781 C 7.679688 8.089844 7.699219 8.128906 7.714844 8.164062 C 7.71875 8.167969 7.71875 8.171875 7.722656 8.175781 C 7.738281 8.210938 7.757812 8.242188 7.78125 8.277344 C 7.789062 8.289062 7.796875 8.300781 7.804688 8.3125 C 7.820312 8.335938 7.839844 8.359375 7.859375 8.378906 C 7.867188 8.390625 7.878906 8.402344 7.890625 8.417969 C 7.910156 8.4375 7.933594 8.457031 7.957031 8.480469 L 7.988281 8.507812 C 7.988281 8.507812 7.992188 8.511719 7.992188 8.511719 C 8.027344 8.539062 8.066406 8.5625 8.105469 8.585938 C 8.222656 8.234375 8.253906 8.019531 8.257812 7.921875 C 8.257812 7.917969 8.261719 7.910156 8.261719 7.90625 L 8.261719 7.898438 C 8.261719 7.886719 8.261719 7.875 8.261719 7.871094 L 8.261719 7.859375 C 8.277344 7.914062 8.296875 7.964844 8.3125 8.015625 C 8.316406 8.027344 8.320312 8.039062 8.328125 8.050781 C 8.34375 8.101562 8.363281 8.144531 8.382812 8.1875 C 8.382812 8.191406 8.386719 8.191406 8.386719 8.195312 C 8.402344 8.234375 8.421875 8.269531 8.445312 8.304688 L 8.460938 8.332031 C 8.480469 8.367188 8.503906 8.398438 8.523438 8.429688 C 8.527344 8.433594 8.527344 8.433594 8.53125 8.4375 C 8.550781 8.464844 8.570312 8.492188 8.589844 8.515625 C 8.597656 8.519531 8.601562 8.527344 8.609375 8.535156 C 8.628906 8.558594 8.648438 8.582031 8.671875 8.601562 L 8.679688 8.609375 C 8.699219 8.628906 8.71875 8.644531 8.734375 8.664062 C 8.742188 8.667969 8.746094 8.671875 8.75 8.675781 C 8.769531 8.691406 8.792969 8.707031 8.808594 8.722656 L 8.8125 8.722656 C 8.867188 8.765625 8.914062 8.792969 8.953125 8.820312 C 9.046875 8.609375 9.015625 8.410156 9.015625 8.410156 C 9.023438 8.425781 9.03125 8.441406 9.039062 8.453125 C 9.039062 8.457031 9.039062 8.457031 9.039062 8.457031 C 9.046875 8.472656 9.058594 8.488281 9.066406 8.5 C 9.078125 8.519531 9.085938 8.539062 9.097656 8.558594 C 9.109375 8.578125 9.125 8.597656 9.136719 8.617188 C 9.148438 8.632812 9.160156 8.648438 9.171875 8.664062 C 9.191406 8.695312 9.214844 8.722656 9.238281 8.75 C 9.25 8.761719 9.261719 8.773438 9.269531 8.785156 C 9.285156 8.796875 9.296875 8.8125 9.308594 8.824219 C 9.320312 8.835938 9.328125 8.84375 9.339844 8.855469 C 9.351562 8.867188 9.363281 8.875 9.375 8.886719 C 9.386719 8.894531 9.394531 8.902344 9.40625 8.914062 L 9.4375 8.933594 C 9.445312 8.941406 9.457031 8.949219 9.46875 8.953125 C 9.476562 8.960938 9.484375 8.964844 9.496094 8.96875 C 9.503906 8.976562 9.515625 8.980469 9.523438 8.984375 C 9.523438 8.984375 9.527344 8.984375 9.527344 8.984375 C 9.542969 8.992188 9.554688 8.996094 9.566406 9 C 9.773438 8.765625 9.765625 8.535156 9.765625 8.535156 C 9.769531 8.542969 9.777344 8.550781 9.78125 8.558594 C 9.78125 8.558594 9.78125 8.5625 9.78125 8.5625 C 9.796875 8.589844 9.8125 8.609375 9.828125 8.632812 C 9.832031 8.640625 9.839844 8.644531 9.84375 8.652344 C 9.863281 8.675781 9.882812 8.699219 9.898438 8.714844 C 9.90625 8.722656 9.910156 8.726562 9.914062 8.730469 C 9.933594 8.746094 9.953125 8.761719 9.96875 8.773438 C 9.972656 8.777344 9.980469 8.785156 9.984375 8.789062 C 10.003906 8.800781 10.023438 8.8125 10.042969 8.824219 C 10.046875 8.828125 10.050781 8.828125 10.058594 8.832031 C 10.074219 8.839844 10.089844 8.847656 10.105469 8.855469 C 10.164062 8.882812 10.207031 8.890625 10.207031 8.890625 C 10.246094 8.777344 10.28125 8.699219 10.28125 8.511719 Z M 10.28125 8.511719 "/>
<path style=" stroke:none;fill-rule:nonzero;fill:rgb(98.431373%,54.509804%,1.176471%);fill-opacity:1;" d="M 9.605469 7.640625 C 9.609375 7.585938 9.609375 7.53125 9.609375 7.476562 C 9.605469 7.53125 9.605469 7.585938 9.605469 7.640625 Z M 9.605469 7.640625 "/>
<path style=" stroke:none;fill-rule:nonzero;fill:rgb(80.784314%,8.235294%,10.588235%);fill-opacity:1;" d="M 8.957031 5.125 C 8.957031 5.125 8.1875 4.554688 7.570312 4.824219 C 6.953125 5.09375 6.730469 5.6875 6.695312 6.339844 C 6.65625 6.992188 7.269531 6.417969 7.335938 6.042969 C 7.226562 6.945312 7.710938 7.628906 7.878906 6.636719 C 7.945312 7.320312 8.269531 7.839844 8.597656 6.953125 C 8.691406 7.800781 9.101562 8.078125 9.257812 7.421875 C 9.285156 8.054688 9.660156 8.5 9.789062 7.746094 C 9.96875 8.183594 10.246094 8.332031 10.238281 8.089844 C 10.230469 7.847656 10.175781 5.671875 8.949219 4.464844 C 9.128906 5.042969 8.957031 5.125 8.957031 5.125 Z M 8.957031 5.125 "/>
<path style=" stroke:none;fill-rule:nonzero;fill:rgb(94.901961%,88.235294%,89.019608%);fill-opacity:1;" d="M 5.316406 1.890625 C 5.316406 1.890625 5.0625 1.042969 6.179688 1.125 C 7.296875 1.203125 7.785156 1.882812 7.597656 2.328125 C 7.410156 2.773438 6.875 3.710938 6.328125 3.699219 C 5.78125 3.683594 5.386719 2.191406 5.316406 1.890625 Z M 5.316406 1.890625 "/>
<path style=" stroke:none;fill-rule:nonzero;fill:rgb(8.627451%,8.627451%,8.627451%);fill-opacity:1;" d="M 6.480469 2.851562 C 6.480469 2.851562 6.375 2.960938 6.390625 3.417969 C 6.402344 3.871094 5.90625 4.667969 5.050781 4.113281 C 5.246094 3.882812 5.382812 3.46875 5.382812 3.359375 C 5.648438 3.160156 6.125 2.703125 6.480469 2.851562 Z M 6.480469 2.851562 "/>
<path style=" stroke:none;fill-rule:nonzero;fill:rgb(4.705882%,4.705882%,4.705882%);fill-opacity:1;" d="M 5.605469 4.320312 C 5.425781 4.320312 5.238281 4.253906 5.042969 4.128906 L 5.027344 4.117188 L 5.039062 4.105469 C 5.234375 3.871094 5.367188 3.460938 5.367188 3.359375 L 5.367188 3.355469 L 5.375 3.347656 C 5.414062 3.320312 5.453125 3.285156 5.5 3.25 C 5.734375 3.0625 6.050781 2.808594 6.328125 2.808594 C 6.386719 2.808594 6.507812 2.847656 6.507812 2.847656 C 6.507812 2.847656 6.390625 2.976562 6.40625 3.417969 C 6.414062 3.640625 6.300781 3.914062 6.128906 4.089844 C 5.984375 4.238281 5.800781 4.320312 5.605469 4.320312 Z M 5.605469 4.320312 "/>
<path style=" stroke:none;fill-rule:nonzero;fill:rgb(73.333333%,8.235294%,10.588235%);fill-opacity:1;" d="M 5.972656 3.113281 C 5.972656 3.113281 5.660156 3.136719 5.382812 3.359375 C 5.226562 3.832031 5.140625 4.070312 5.140625 4.070312 C 5.613281 3.898438 5.996094 3.636719 5.972656 3.113281 Z M 5.972656 3.113281 "/>
<path style=" stroke:none;fill-rule:nonzero;fill:rgb(49.019608%,0%,0%);fill-opacity:1;" d="M 5.109375 4.097656 L 5.125 4.0625 C 5.125 4.0625 5.214844 3.824219 5.367188 3.355469 L 5.375 3.347656 C 5.652344 3.121094 5.96875 3.097656 5.972656 3.09375 L 5.988281 3.09375 L 5.988281 3.109375 C 6.015625 3.691406 5.550781 3.933594 5.144531 4.082031 Z M 5.398438 3.371094 C 5.277344 3.738281 5.195312 3.960938 5.167969 4.042969 C 5.726562 3.832031 5.972656 3.546875 5.957031 3.128906 C 5.890625 3.140625 5.628906 3.183594 5.398438 3.371094 Z M 5.398438 3.371094 "/>
<path style=" stroke:none;fill-rule:nonzero;fill:rgb(98.823529%,58.431373%,58.431373%);fill-opacity:1;" d="M 5.882812 2.921875 C 5.882812 2.921875 5.351562 3.425781 5.625 3.925781 C 6.089844 3.726562 6.074219 3.035156 5.882812 2.921875 Z M 5.882812 2.921875 "/>
<path style=" stroke:none;fill-rule:nonzero;fill:rgb(96.862745%,36.078431%,36.078431%);fill-opacity:1;" d="M 5.617188 3.945312 L 5.609375 3.933594 C 5.335938 3.425781 5.863281 2.917969 5.871094 2.914062 L 5.878906 2.902344 L 5.890625 2.910156 C 5.980469 2.960938 6.035156 3.128906 6.019531 3.324219 C 6.003906 3.609375 5.859375 3.839844 5.628906 3.941406 Z M 5.882812 2.945312 C 5.816406 3.011719 5.402344 3.460938 5.632812 3.90625 C 5.941406 3.761719 5.984375 3.421875 5.992188 3.320312 C 6 3.148438 5.957031 2.996094 5.882812 2.945312 Z M 5.882812 2.945312 "/>
<path style=" stroke:none;fill-rule:nonzero;fill:rgb(11.764706%,11.764706%,11.764706%);fill-opacity:1;" d="M 5.347656 3.296875 C 5.347656 3.296875 5.238281 3.835938 5.050781 4.113281 C 5.363281 4.160156 6.09375 3.953125 6.054688 3.035156 L 5.917969 3.09375 C 5.917969 3.09375 5.984375 3.75 5.230469 3.976562 C 5.375 3.757812 5.480469 3.285156 5.480469 3.285156 Z M 5.347656 3.296875 "/>
<path style=" stroke:none;fill-rule:nonzero;fill:rgb(16.862745%,16.862745%,16.862745%);fill-opacity:1;" d="M 5.140625 4.136719 C 5.109375 4.136719 5.078125 4.132812 5.046875 4.128906 L 5.023438 4.125 L 5.035156 4.105469 C 5.222656 3.832031 5.332031 3.296875 5.332031 3.292969 L 5.335938 3.28125 L 5.5 3.269531 L 5.492188 3.289062 C 5.488281 3.308594 5.398438 3.71875 5.265625 3.949219 C 5.957031 3.71875 5.898438 3.101562 5.898438 3.097656 L 5.898438 3.085938 L 6.070312 3.011719 L 6.070312 3.035156 C 6.082031 3.378906 5.992188 3.65625 5.804688 3.855469 C 5.605469 4.0625 5.328125 4.136719 5.140625 4.136719 Z M 5.140625 4.136719 "/>
<path style=" stroke:none;fill-rule:nonzero;fill:rgb(8.627451%,8.627451%,8.627451%);fill-opacity:1;" d="M 6.496094 2.824219 C 6.496094 2.824219 6.199219 3.285156 5.441406 3.425781 C 4.6875 3.570312 4.605469 3.636719 4.558594 4.273438 C 4.167969 4.191406 3.496094 3.179688 4.171875 2.398438 C 4.789062 1.679688 5.976562 2.09375 6.101562 2.460938 C 6.230469 2.832031 6.496094 2.824219 6.496094 2.824219 Z M 6.496094 2.824219 "/>
<path style=" stroke:none;fill-rule:nonzero;fill:rgb(95.686275%,80%,68.235294%);fill-opacity:1;" d="M 6.015625 2.347656 C 5.859375 2.085938 4.796875 1.6875 4.171875 2.398438 C 3.910156 2.695312 3.851562 3.039062 3.902344 3.335938 C 4.042969 3.523438 4.371094 3.734375 4.621094 3.828125 C 4.703125 3.703125 4.726562 3.554688 5.078125 3.441406 C 5.761719 3.15625 5.941406 2.679688 6.015625 2.347656 Z M 6.015625 2.347656 "/>
<path style=" stroke:none;fill-rule:nonzero;fill:rgb(0%,0%,0%);fill-opacity:1;" d="M 6.351562 2.246094 C 6.257812 2.246094 6.171875 2.21875 6.09375 2.171875 C 5.988281 2.101562 5.917969 1.996094 5.890625 1.871094 C 5.863281 1.75 5.886719 1.621094 5.953125 1.515625 C 6.042969 1.382812 6.191406 1.300781 6.351562 1.300781 C 6.445312 1.300781 6.53125 1.328125 6.609375 1.375 C 6.714844 1.445312 6.785156 1.550781 6.8125 1.671875 C 6.839844 1.796875 6.816406 1.921875 6.746094 2.027344 C 6.660156 2.164062 6.511719 2.246094 6.351562 2.246094 Z M 6.351562 2.246094 "/>
<path style=" stroke:none;fill-rule:nonzero;fill:rgb(100%,100%,100%);fill-opacity:1;" d="M 6.351562 1.425781 C 6.417969 1.425781 6.480469 1.445312 6.539062 1.480469 C 6.699219 1.585938 6.746094 1.800781 6.640625 1.960938 C 6.578125 2.0625 6.464844 2.121094 6.351562 2.121094 C 6.285156 2.121094 6.21875 2.101562 6.164062 2.066406 C 6 1.960938 5.953125 1.746094 6.058594 1.585938 C 6.125 1.480469 6.238281 1.425781 6.351562 1.425781 M 6.351562 1.175781 C 6.148438 1.175781 5.960938 1.277344 5.847656 1.449219 C 5.761719 1.582031 5.734375 1.742188 5.765625 1.898438 C 5.800781 2.054688 5.890625 2.191406 6.027344 2.277344 C 6.121094 2.339844 6.234375 2.371094 6.351562 2.371094 C 6.554688 2.371094 6.742188 2.269531 6.851562 2.097656 C 6.9375 1.964844 6.96875 1.804688 6.933594 1.648438 C 6.902344 1.492188 6.808594 1.359375 6.675781 1.269531 C 6.578125 1.207031 6.464844 1.175781 6.351562 1.175781 Z M 6.351562 1.175781 "/>
<path style=" stroke:none;fill-rule:nonzero;fill:rgb(61.176471%,26.27451%,13.333333%);fill-opacity:1;" d="M 12.34375 10.886719 C 11.007812 11.109375 9.792969 11.027344 8.265625 10.597656 C 7.589844 10.410156 6.398438 10.046875 3.621094 9.023438 C 3.414062 9.0625 3.429688 9 3.265625 9.324219 C 3.207031 9.445312 3.183594 9.699219 3.304688 9.804688 C 6.113281 10.839844 7.523438 11.289062 8.214844 11.484375 C 9.898438 11.957031 11.207031 12.046875 12.691406 11.785156 C 12.59375 11.492188 12.503906 11.171875 12.34375 10.886719 Z M 12.34375 10.886719 "/>
<path style=" stroke:none;fill-rule:nonzero;fill:rgb(81.960784%,63.137255%,44.313725%);fill-opacity:1;" d="M 12.714844 11.285156 C 12.8125 11.535156 12.800781 11.757812 12.695312 11.785156 C 12.585938 11.8125 12.417969 11.632812 12.324219 11.386719 C 12.226562 11.136719 12.234375 10.914062 12.34375 10.886719 C 12.453125 10.859375 12.617188 11.035156 12.714844 11.285156 Z M 12.714844 11.285156 "/>
<path style="fill:none;stroke-width:1;stroke-linecap:butt;stroke-linejoin:miter;stroke:rgb(38.039216%,29.019608%,20.392157%);stroke-opacity:1;stroke-miterlimit:10;" d="M 101.71875 90.28125 C 100.9375 88.28125 99.625 86.875 98.75 87.09375 C 88.0625 88.875 78.34375 88.21875 66.125 84.78125 C 60.71875 83.28125 51.1875 80.375 28.96875 72.1875 C 27.3125 72.5 27.4375 72 26.125 74.59375 C 25.65625 75.5625 25.46875 77.59375 26.4375 78.4375 C 48.90625 86.71875 60.1875 90.3125 65.71875 91.875 C 79.1875 95.65625 89.65625 96.375 101.53125 94.28125 C 102.40625 94.0625 102.5 92.28125 101.71875 90.28125 Z M 101.71875 90.28125 " transform="matrix(0.125,0,0,0.125,0,0)"/>
<path style=" stroke:none;fill-rule:nonzero;fill:rgb(70.980392%,49.411765%,44.705882%);fill-opacity:1;" d="M 6.757812 10.859375 C 6.757812 10.859375 6.734375 11.210938 6.496094 11.167969 C 6.257812 11.125 6.238281 10.589844 6.550781 10.242188 C 6.863281 9.894531 7.300781 10.015625 7.371094 10.28125 C 7.445312 10.546875 6.757812 10.859375 6.757812 10.859375 Z M 6.757812 10.859375 "/>
<path style=" stroke:none;fill-rule:nonzero;fill:rgb(81.568627%,56.862745%,51.372549%);fill-opacity:1;" d="M 7.816406 10.496094 C 7.816406 10.496094 7.425781 10.421875 7.285156 10.78125 C 7.144531 11.144531 7.160156 11.363281 6.972656 11.304688 C 6.789062 11.25 6.632812 10.664062 6.902344 10.328125 C 7.175781 9.988281 7.683594 10 7.816406 10.496094 Z M 7.816406 10.496094 "/>
<path style=" stroke:none;fill-rule:nonzero;fill:rgb(72.941176%,50.980392%,45.882353%);fill-opacity:1;" d="M 5.839844 9.6875 C 5.839844 9.6875 5.625 9.367188 5.335938 9.515625 C 5.042969 9.667969 4.902344 10.128906 4.972656 10.414062 C 5.042969 10.695312 5.347656 10.742188 5.429688 10.414062 C 5.515625 10.082031 5.839844 9.6875 5.839844 9.6875 Z M 5.839844 9.6875 "/>
<path style=" stroke:none;fill-rule:nonzero;fill:rgb(98.431373%,54.509804%,1.176471%);fill-opacity:1;" d="M 6.234375 9.929688 C 6.234375 9.929688 5.914062 9.90625 5.84375 10.414062 C 5.773438 10.921875 5.476562 10.914062 5.390625 10.578125 C 5.300781 10.246094 5.507812 9.691406 5.8125 9.644531 C 6.113281 9.597656 6.234375 9.929688 6.234375 9.929688 Z M 6.234375 9.929688 "/>
<path style=" stroke:none;fill-rule:nonzero;fill:rgb(81.568627%,56.862745%,51.372549%);fill-opacity:1;" d="M 5.597656 10.832031 C 5.496094 10.832031 5.410156 10.738281 5.371094 10.585938 C 5.3125 10.371094 5.375 10.0625 5.515625 9.847656 C 5.597656 9.71875 5.699219 9.640625 5.808594 9.625 C 5.828125 9.625 5.847656 9.621094 5.867188 9.621094 C 6.140625 9.621094 6.25 9.921875 6.253906 9.921875 L 6.261719 9.953125 L 6.234375 9.949219 L 6.226562 9.949219 C 6.175781 9.949219 5.921875 9.972656 5.863281 10.414062 C 5.820312 10.722656 5.699219 10.832031 5.597656 10.832031 Z M 5.597656 10.832031 "/>
</g>
</svg>
