<svg enable-background="new 0 0 128 128" viewBox="0 0 128 128" xmlns="http://www.w3.org/2000/svg" xmlns:xlink="http://www.w3.org/1999/xlink"><linearGradient id="a" gradientUnits="userSpaceOnUse"><stop offset="0" stop-color="#f00"/><stop offset=".9972" stop-color="#b70904"/></linearGradient><linearGradient id="b" x1="-164.46" x2="-151.19" xlink:href="#a" y1="35.924" y2="85.985"/><linearGradient id="c" gradientUnits="userSpaceOnUse"><stop offset=".0033053" stop-color="#ff2b2b"/><stop offset=".9972" stop-color="#b70904"/></linearGradient><linearGradient id="d" x1="-162.15" x2="-136.62" xlink:href="#c" y1="34.443" y2="67.766"/><linearGradient id="e" x1="58.039" x2="71.308" xlink:href="#a" y1="-128.08" y2="-78.015"/><linearGradient id="f" x1="155.47" x2="181" xlink:href="#c" y1="-132.39" y2="-99.07"/><linearGradient id="g" x1="35.23" x2="75.483" xlink:href="#a" y1="51.869" y2="51.869"/><path d="m-107.06 91.85c-.8-1.77-2.17-2.87-3.06-2.47-5.75 2.14-11.23 3.55-16.96 4.31-.36-1.84-.83-3.92-1.39-6.21.08-1.3-.17-3.23-.69-5.63.65-1.23.26-4.53-.97-9.15.14-.21.26-.44.32-.69.08-.34.09-.7 0-1.07-.26-1.06-.53-2.12-.8-3.19-.04-.14-.07-.28-.1-.42-.27-1.05-.54-2.11-.81-3.17-.03-.11-.06-.23-.09-.34v.01c-3.03-11.53-6.79-23.04-13.46-28.87-1.34-4.85-6.78-22.63-15.66-27.91-6-3.57-14.33-3.16-20.25-2.19-3.12.51-5.28 3.16-5.38 6.13h-.01c-.01.01-.02.01-.03.02-.31.22-.62.44-.91.67-.1.08-.19.16-.29.24-.19.16-.39.31-.57.48-.11.1-.21.2-.32.3-.16.15-.32.3-.47.45-.11.11-.21.22-.31.33-.14.15-.28.29-.41.44-.1.11-.19.23-.29.35-.12.15-.25.3-.36.45-.09.12-.17.24-.26.36-.11.15-.22.31-.32.46-.08.12-.15.24-.23.36-.1.16-.2.31-.29.47-.07.12-.14.24-.2.37-.09.16-.17.32-.25.49-.06.12-.12.24-.17.37-.08.17-.15.33-.22.5-.05.12-.1.24-.15.37-.07.17-.13.34-.19.51l-.12.36c-.06.18-.11.35-.16.53-.03.12-.07.23-.1.35-.05.18-.09.36-.13.54-.02.11-.05.23-.07.34-.04.19-.07.37-.1.56-.02.11-.04.21-.05.32-.03.19-.05.39-.07.58l-.03.3c-.02.2-.03.4-.04.6 0 .09-.01.18-.01.27-.01.21-.01.42-.01.64v.18c.08 4.26 1.79 8.16 4.09 10.23-.92-3.33-.85-6.4.93-9 2.1 3.43 6.05 2.38 8.05 2.28v13.82l.19-.03c-3.98 9.21.75 27.43 12.46 37.22.97 1.16 1.98 2.23 3.02 3.21.7 2.96 1.61 6.09 2.68 8.27-1.18.47-2.21 1-3.09 1.59-5.08-.61-11.11-1.39-18.26-2.38-.27 2.32-.61 4.63-.99 6.93 5.69.79 10.68 1.44 15.06 1.99-.01.25-.01.5.01.74.04.35.13.67.26.91.13.25.28.42.41.51s.22.11.26.07-.04-.19-.11-.41c-.06-.18-.1-.41-.12-.65.33.07.71-.08.82-.49.04-.17.09-.31.13-.47 1 .12 1.97.24 2.9.35.04.19.1.37.16.56.12.72.45 1.32.77 1.66.36.39.67.51.74.43.07-.07-.26-.51-.46-1.02.27-.08.49-.3.49-.65 0-.26.02-.51.03-.77.64.07 1.26.15 1.87.22-.02.27-.03.55-.01.81.03.32.1.62.21.85s.24.4.35.49.2.11.24.08c.05-.04-.01-.18-.06-.4-.05-.21-.08-.48-.07-.76.33.06.69-.09.8-.49.04-.14.07-.26.11-.39 1.02.11 2 .22 2.93.32.06.27.15.55.25.82.02.18.04.35.09.5.1.35.26.63.44.83.35.41.68.52.74.43.04-.04-.06-.19-.17-.39-.09-.16-.17-.38-.24-.6.31-.04.59-.28.59-.67 0-.26.02-.5.03-.75 4.13.42 7.23.67 9.55.82 3.19 7.99 5.86 14.63 6.87 17.12.23.58.9.86 1.47.61l.92-.39c.01.01.01.02.02.03.1.18.2.36.3.53.12.21.23.41.35.61.09.16.19.32.28.47.11.19.22.36.32.53.09.14.17.28.25.41.1.16.2.31.3.45.08.12.16.24.23.34.09.13.18.25.27.37.07.09.14.19.21.27.09.11.17.2.25.29.06.07.12.14.18.2.08.08.16.15.23.21.05.04.1.09.15.13.08.06.15.09.22.12.03.02.07.05.11.06.1.03.19.04.27.01.05-.02.09-.07.12-.14.01-.02.01-.03.02-.05.02-.08.03-.17.03-.3v-.01c0-.13-.02-.28-.05-.45-.01-.04-.01-.09-.02-.13-.03-.18-.07-.38-.13-.61 0-.02-.01-.04-.01-.05-.05-.22-.12-.46-.19-.71-.02-.06-.04-.13-.06-.19-.08-.28-.17-.57-.27-.88-.01-.03-.02-.07-.03-.1-.09-.29-.2-.61-.31-.93-.03-.08-.05-.16-.08-.24-.12-.36-.25-.73-.39-1.13-.02-.05-.04-.1-.05-.14-.13-.36-.27-.74-.41-1.13-.03-.09-.07-.18-.1-.28-.16-.43-.33-.88-.51-1.34-.02-.06-.05-.12-.07-.18-.16-.42-.33-.86-.51-1.3-.04-.1-.08-.2-.12-.29-.2-.5-.4-1.01-.6-1.53-.03-.07-.06-.14-.08-.21-.19-.48-.39-.96-.59-1.46-.04-.1-.08-.19-.12-.29-.23-.55-.46-1.12-.69-1.69-.03-.07-.06-.14-.09-.21-.22-.53-.44-1.06-.66-1.6-.01-.02-.02-.04-.02-.06.11.22.22.43.33.64.02.03.03.06.05.1.57 1.12 1.13 2.2 1.66 3.25.23.45.46.91.69 1.35.06.13.13.25.19.38.37.72.73 1.43 1.08 2.11.01.03.03.06.04.09.31.62.62 1.21.91 1.79.07.13.13.26.2.38.3.59.59 1.16.87 1.72.06.11.11.22.17.33.24.47.47.93.7 1.37.05.11.11.22.16.32.25.49.48.95.71 1.4.06.12.12.23.18.35.23.45.45.9.66 1.31 1.04 2.08 3.48.74 2.19-1.78-.24-.48-.5-.98-.77-1.51-.01-.01-.01-.02-.02-.03l-.81-1.62c-.02-.03-.03-.06-.05-.09l-.93-1.86c-.28-.57-.57-1.15-.86-1.75l-.09-.18c-.29-.6-.59-1.21-.9-1.83-.04-.08-.08-.17-.12-.25-.3-.61-.61-1.24-.92-1.88-.04-.08-.08-.17-.12-.25-.32-.65-.64-1.32-.97-1.99-.03-.06-.06-.12-.09-.19-.03-.05-.05-.11-.08-.17 1.09 1.99 1.92 3.52 2.36 4.33.2.36.65.49 1.01.29l1.27-.72c.12-.07.21-.17.27-.29.01.02.02.03.04.05.14.2.27.38.4.57.21.29.41.59.61.87.14.19.27.37.4.56.18.26.37.51.54.75.13.18.26.35.39.53.17.22.33.45.49.66.12.17.25.32.37.48.15.2.3.39.45.58.11.15.23.29.34.42.14.17.28.34.41.5.1.13.21.25.31.36.13.15.25.28.37.42.09.1.19.21.28.3.11.12.22.23.33.33l.24.24c.1.1.2.17.29.25.07.06.14.12.2.17.09.07.17.12.26.17.05.03.11.07.16.1.08.04.16.06.23.07.04.01.08.03.11.03.1.01.19-.01.26-.06.05-.03.07-.1.09-.18 0-.02.01-.04.01-.06.01-.09 0-.2-.03-.33 0-.02-.01-.04-.01-.05-.03-.13-.07-.28-.12-.44-.01-.04-.02-.08-.04-.12-.06-.19-.14-.39-.23-.62-.02-.04-.04-.09-.06-.13-.09-.21-.18-.43-.29-.67-.02-.05-.04-.1-.07-.15-.13-.27-.26-.57-.41-.88-.03-.07-.07-.14-.1-.21-.14-.29-.3-.59-.46-.91-.02-.04-.04-.08-.06-.13-.18-.35-.38-.73-.58-1.11-.05-.09-.09-.17-.14-.26-.43-.8-.89-1.65-1.4-2.56-.05-.1-.11-.19-.16-.29-.26-.46-.52-.92-.79-1.4-.02-.04-.05-.08-.07-.13-.26-.45-.53-.92-.8-1.39-.06-.1-.11-.2-.17-.3-.29-.5-.59-1.01-.89-1.54-.05-.08-.1-.17-.15-.25-.28-.48-.56-.96-.85-1.45-.03-.05-.06-.1-.09-.15.23-.41.26-1.3.12-2.61.47-.04.94-.09 1.41-.14.61.84 1.1 1.25 1.44 1.14.29-.09.45-.57.49-1.37 6.38-.84 12.48-2.43 18.99-4.9.85-.41.92-2.17.12-3.94zm-50.37 1.17c-.05-.25-.08-.5-.15-.76.07-.05.14-.09.19-.15.23-.29.46-.63.69-1.01.2.47.4.91.61 1.31-.37.21-.72.42-1.05.65-.1-.02-.2-.03-.29-.04zm5.9.6 2.06.19c-.65-.06-1.33-.12-2.06-.19zm-6.18-.63c-.67-.07-1.36-.15-2.07-.23zm8.33.82c-.12-.64-.08-1.18-.99-2.05.23-.44.45-.91.67-1.41.47 1.19.94 2.38 1.41 3.56-.36-.03-.72-.07-1.09-.1z" style="fill:none;stroke:#ba0505;stroke-linecap:round;stroke-linejoin:round;stroke-miterlimit:10;stroke-width:2.9252"/><path d="m-158.44 65.39 3.49-2.21s35.41 54.72 33.17 56.19c-2.24 1.45-17.38-23.56-36.66-53.98z" fill="#f00"/><path d="m-131.94 99.86c-.21.49-.5.95-.88 1.34-.72.73-1.57.95-2.41.81 7.31 11.26 12.25 18.14 13.45 17.35.87-.57-3.95-9.18-10.16-19.5z" fill="#05b3db"/><path d="m-135.35 118.14-1.72.73c-.58.24-1.24-.03-1.47-.61-3.25-8.05-23.96-59.44-22.99-59.85 1.04-.44 12.99 25.56 26.78 58.27.24.56-.03 1.22-.6 1.46z" fill="#022c69"/><path d="m-160.84 64.89 3.77-1.69s27.41 59.55 24.86 60.33c-2.56.78-13.86-25.79-28.63-58.64z" fill="#b70904"/><path d="m-139.09 103.79c-.29.57-.75 1.03-1.45 1.26-.71.24-1.51.22-2.24-.01 5.44 11.7 9.21 18.9 10.56 18.49.97-.3-2.36-9.01-6.87-19.74z" fill="#047ba0"/><path d="m-129.5 111.3-1.27.72c-.36.2-.82.07-1.01-.29-2.87-5.25-21.94-40.21-21.29-40.59.7-.4 11.34 17.07 23.84 39.15.21.36.08.81-.27 1.01z" fill="#0433b7"/><path d="m-158.08 66.49 3.7-1.83s19.32 41.46 26.96 56.34c1.29 2.52-1.15 3.86-2.19 1.78-4.72-9.44-15.71-30.48-28.47-56.29z" fill="#f00"/><path d="m-127.43 121c-1.97-3.83-4.71-9.43-7.69-15.62-.29.5-.69.91-1.29 1.13-.53.2-1.02.17-1.48.04 3.55 6.95 6.4 12.5 8.27 16.24 1.04 2.07 3.49.73 2.19-1.79z" fill="#0392c0"/><path d="m-130.9 117.11c-.05.01-.1-.01-.12-.06l-20.27-40.85c-.03-.05 0-.12.05-.14.05-.03.12 0 .14.05l20.27 40.85c.03.05 0 .12-.05.14-.01 0-.02 0-.02.01z" fill="#b70904"/><path d="m-136.7 114.45c-.05.01-.1-.01-.13-.06l-19.37-42.33c-.02-.05 0-.12.05-.14s.12 0 .14.05l19.37 42.33c.02.05 0 .12-.05.14 0 0-.01 0-.01.01z" fill="#930303"/><path d="m-128.48 109.05c-.05.01-.09-.01-.12-.05l-21.64-35.46c-.03-.05-.01-.12.04-.15s.12-.01.15.04l21.64 35.46c.03.05.01.12-.04.15-.02.01-.03.01-.03.01z" fill="#b70904"/><path d="m-158.7 58.06 4.55-2.63s17.04 31.82 15.78 32.54c-1.26.73-10.36-12.66-20.33-29.91z" fill="#022a5b"/><path d="m-169.4 56.77 4.08-3.31s26.49 34.56 25.36 35.48c-1.13.91-14.31-13.49-29.44-32.17z" fill="#0433b7"/><path d="m-162.64 53.26 4.55-2.63s17.04 31.82 15.78 32.54c-1.25.73-10.36-12.66-20.33-29.91z" fill="#0433b7"/><path d="m-169.29 51.45 4.27-3.07s19.48 29.1 18.3 29.95-11.28-11.19-22.57-26.88z" fill="#1858e8"/><path d="m-110.12 89.39c-10.97 4.08-20.97 5.53-33.52 4.84-5.54-.3-16.94-1.33-39.78-4.48-.27 2.32-.61 4.63-.99 6.93 23.1 3.19 34.71 4.23 40.39 4.54 13.86.76 24.6-.8 36.8-5.44-.83-2.09-1.58-4.44-2.9-6.39z" fill="#755425"/><path d="m-107.05 91.85c.8 1.77.73 3.53-.17 3.93-.89.4-2.26-.7-3.06-2.47s-.73-3.53.17-3.93c.88-.4 2.26.71 3.06 2.47z" fill="#a37b4b"/><path d="m-107.32 91.98c.67 1.48.61 2.94-.14 3.28-.74.34-1.89-.59-2.56-2.06-.67-1.48-.61-2.94.14-3.28s1.89.58 2.56 2.06z" fill="#8c6133"/><path d="m-107.42 92.02c.62 1.37.56 2.73-.13 3.05-.69.31-1.75-.54-2.37-1.91s-.56-2.73.13-3.05 1.75.54 2.37 1.91z" fill="#a37b4b"/><path d="m-107.7 92.14c.48 1.07.44 2.13-.1 2.37s-1.36-.42-1.85-1.49c-.48-1.07-.44-2.13.1-2.37.55-.24 1.37.43 1.85 1.49z" fill="#8c6133"/><path d="m-107.79 92.19c.44.97.4 1.93-.09 2.15s-1.24-.38-1.68-1.35-.4-1.93.09-2.15c.5-.23 1.25.38 1.68 1.35z" fill="#a37b4b"/><path d="m-150.95 86.23-.16 4.9c1.71 1.28 1.59 1.9 1.73 2.68l-2.52-.23c-2.2 1.63-3.09 4.18-3.09 7.48 0 .75-1.01.95-1.31.27-1.22-2.78-.2-5.69.91-6.81-2.62 1.23-3.53 2.49-4.33 5.69-.18.73-1.24.67-1.34-.08-.45-3.28 1.99-6.88 7.68-8.95l-.27-4.94c-.01-1.09 2.7-1.09 2.7-.01z" fill="#d09183"/><path d="m-159.05 85.37-.16 4.9c1.71 1.28 1.63 1.98 1.78 2.75l-2.54-.28c-2.2 1.63-3.12 4.16-3.11 7.46 0 .75-1.01.95-1.31.27-1.22-2.78-.2-5.69.91-6.81-2.62 1.23-3.53 2.49-4.33 5.69-.18.73-1.24.67-1.34-.08-.45-3.28 1.99-6.88 7.68-8.95l-.27-4.94c-.02-1.1 2.69-1.1 2.69-.01z" fill="#b56052"/><g fill="#3d3d3d"><path d="m-160.44 99.89c.04-.22.06-.37.06-.37l-.8-.07c-.03.34-.05.68-.02 1s.1.62.21.85.24.4.35.49.2.11.24.08c.05-.04-.01-.18-.06-.4-.05-.21-.08-.49-.07-.78s.06-.58.09-.8z"/><path d="m-155.34 102.33c-.11-.21-.23-.49-.3-.78-.06-.29-.07-.58-.05-.79.01-.1.03-.19.04-.25s.02-.09.02-.09l-.79-.15c-.08.42-.04.83.06 1.17.1.35.26.63.44.83.35.41.68.52.74.43.05-.02-.05-.16-.16-.37z"/><path d="m-163.84 99.87c-.03-.22-.03-.37-.03-.37l-.8.08c.08.82.46 1.49.81 1.87.36.39.67.51.74.43s-.34-.6-.53-1.19c-.1-.3-.17-.6-.19-.82z"/><path d="m-168.66 99.65c0-.31.04-.62.07-.86.04-.24.06-.41.06-.41l-.81-.06c-.03.37-.04.74-.01 1.09.04.35.13.67.26.91.13.25.28.42.41.51s.22.11.26.07-.04-.19-.11-.41c-.07-.23-.13-.54-.13-.84z"/></g><path d="m-166.38 73.86s2.04 13.87 5.21 18.21c.6.82 3.17.81 3.78.03 3.46-4.35 6.33-18.61 6.33-18.61z" fill="#8a0703"/><path d="m-170.85 36.25c18.3 1.74 13.62 27.26 10.71 47.45-23.03-9.37-29.01-49.18-10.71-47.45z" fill="#920904"/><path d="m-141.14 55.83c1.27 17.68-1.07 32.34-6.43 33.22-9.91 1.64-23-8.25-28.39-25.14-3.87-12.13-4.12-24.36-1.33-29.29 1.77-3.12 18.68-7.25 21.43-6.1 8.27 3.44 13.77 13.99 14.72 27.31z" fill="url(#b)"/><path d="m-180.42 41.87v-13.82l-5.62-14.85c-1.23-3.74 1.17-7.7 5.06-8.33 5.92-.97 14.25-1.38 20.25 2.19 10.31 6.14 15.99 29.15 15.99 29.15z" fill="#f00"/><path d="m-166.15 15.39c.52 5-3.77 9.55-9.58 10.15s-8.61-2.5-9.13-7.51c-.52-5-.8-9.75 7.25-10.62 5.81-.62 10.94 2.98 11.46 7.98z" fill="#fff"/><path d="m-160.55 75.43s2.04 13.87 5.21 18.21c.6.82 3.17.81 3.78.03 3.46-4.35 6.33-18.61 6.33-18.61z" fill="#c00704"/><g fill="#023784"><path d="m-154.88 56.57c7.6 16.87 12.37 31.17 10.66 31.94s-9.26-12.28-16.86-29.15c-2.15-4.73 4.06-7.53 6.2-2.79z"/><path d="m-147.41 64.32c7.6 16.87 12.37 31.17 10.66 31.94s-9.26-12.28-16.86-29.15c-2.15-4.74 4.06-7.54 6.2-2.79z"/><path d="m-138.07 71.24c6.28 17.41 9.93 32.03 8.16 32.67s-8.29-12.96-14.57-30.36c-1.76-4.9 4.64-7.21 6.41-2.31z"/><path d="m-133.76 69.12c5.69 17.61 8.85 32.35 7.06 32.93s-7.85-13.23-13.53-30.84c-1.6-4.94 4.87-7.03 6.47-2.09z"/></g><g fill="#0392c0"><path d="m-154.15 49.56c7.28 16.83 11.16 31.42 8.67 32.58-2.49 1.17-10.4-11.53-17.68-28.36-2.04-4.73 6.97-8.95 9.01-4.22z"/><path d="m-155.2 46.95c2.92 8.24 7.01 15.2 9.27 20.54 2.33 5.31 2.84 9 .05 9.99-2.63.94-7.84-1.48-12.02-6.81-4.25-5.26-7.48-13.42-7.72-22.23.03-2.47 2.44-3.56 4.78-3.92 2.39-.28 4.7.15 5.64 2.43z"/><path d="m-146.68 53.86c7.28 16.83 11.16 31.42 8.67 32.58-2.49 1.17-10.4-11.53-17.68-28.36-2.04-4.72 6.97-8.95 9.01-4.22z"/><path d="m-141.53 55.04c7.28 16.83 11.16 31.42 8.67 32.58-2.49 1.17-10.4-11.53-17.68-28.36-2.04-4.72 6.97-8.95 9.01-4.22z"/><path d="m-137.87 56.74c7.28 16.83 11.16 31.42 8.67 32.58-2.49 1.17-10.4-11.53-17.68-28.36-2.04-4.73 6.96-8.96 9.01-4.22z"/></g><g fill="#60bf00"><path d="m-155.58 42.43c7.6 16.87 11.68 31.48 9.11 32.64s-10.81-11.58-18.41-28.45c-2.13-4.74 7.16-8.93 9.3-4.19z"/><path d="m-156.68 39.82c3.06 8.26 7.31 15.24 9.68 20.6 2.43 5.32 2.97 9.02.1 10-2.71.93-8.11-1.51-12.46-6.87-4.42-5.28-7.79-13.46-8.08-22.28.02-2.47 2.51-3.55 4.92-3.9 2.46-.28 4.86.16 5.84 2.45z"/><path d="m-147.84 46.77c7.6 16.87 11.68 31.48 9.11 32.64s-10.81-11.58-18.41-28.45c-2.13-4.74 7.17-8.93 9.3-4.19z"/><path d="m-142.51 47.97c7.6 16.87 11.68 31.48 9.11 32.64s-10.81-11.58-18.41-28.45c-2.13-4.74 7.17-8.93 9.3-4.19z"/><path d="m-138.72 49.68c7.6 16.87 11.68 31.48 9.11 32.64s-10.81-11.58-18.41-28.45c-2.13-4.74 7.17-8.93 9.3-4.19z"/></g><path d="m-160.66 31.82c19.77-5.45 25.75 18.75 30.85 39.13.37 1.47-.82 2.87-2.33 2.75-27.6-2.25-48.49-36.37-28.52-41.88z" fill="url(#d)"/><path d="m-129.81 70.95c-.58-2.34-1.18-4.73-1.81-7.11.42 3.84-.04 6.78-2.41 6.78-8.25 0-15.49-2.7-21.22-6.71 6.31 5.18 14.37 9.08 23.1 9.79 1.52.12 2.7-1.28 2.34-2.75z" fill="#fc0"/><g fill="#ef0000"><path d="m-178.77 19.77c-.8-.7-1.66-1.53-2.57-2.4-1.24-1.19-2.5-2.41-3.73-3.42-.01.1-.01.2-.01.3 1.18.98 2.39 2.15 3.58 3.29.91.88 1.77 1.7 2.58 2.41 1.55 1.36 2.77 3.4 3.44 5.57l.24-.03c-.69-2.24-1.93-4.33-3.53-5.72z"/><path d="m-174.84 18.14c-.81-.42-1.57-.82-2.12-1.18-1.71-1.12-3.02-2.6-4.29-4.03-.82-.93-1.67-1.88-2.62-2.74-.05.06-.09.13-.14.2.94.84 1.77 1.78 2.58 2.7 1.28 1.45 2.6 2.94 4.34 4.07.56.37 1.33.77 2.14 1.19 2.07 1.08 4.69 2.45 5.88 4.26.06-.05.12-.11.18-.16-1.24-1.85-3.86-3.22-5.95-4.31z"/><path d="m-176.57 18.55c-1.49-1.14-2.8-2.51-4.06-3.83-1.19-1.24-2.41-2.51-3.79-3.61-.03.07-.07.15-.1.23 1.35 1.09 2.55 2.33 3.71 3.55 1.27 1.33 2.59 2.7 4.09 3.85 2.2 1.69 3.87 3.44 4.61 5.85.07-.03.15-.07.22-.1-.76-2.45-2.45-4.22-4.68-5.94z"/><path d="m-184.9 17.67.03.3c3.35 2.07 5.85 4.31 7.64 7.65h.27c-1.85-3.5-4.43-5.81-7.94-7.95z"/><path d="m-184.54 19.92c.03.1.05.2.08.3 2.58 1.24 4.55 2.99 6.02 5.33.1.01.2.02.31.03-1.54-2.52-3.64-4.38-6.41-5.66z"/><path d="m-177.55 19.26c-2.76-2.37-4.95-4.5-7.1-7.58-.03.09-.06.19-.09.28 2.13 3.02 4.3 5.14 7.03 7.48 2.18 1.86 3.11 3.57 3.64 5.81.08-.02.15-.04.23-.06-.54-2.28-1.48-4.02-3.71-5.93z"/></g><path d="m-188.47 25.77c2.1 3.43 6.05 2.38 8.05 2.28.59-.98 1.5-5.71-.02-8.97-3.52.69-6.91 1.96-8.03 6.69z"/><path d="m-186.37 11c-10.11 6.98-7.88 19.41-3.03 23.78-.92-3.33-.85-6.4.93-9 5.98-.49 3.63-4.86 8.03-6.69-.01-.01-1.83-8.42-5.93-8.09z" fill="#212121"/><path d="m-190.75 23.65c1.16-1.32.99-3.29 2.41-4.5.7-.59 1.57-.9 2.35-1.37.91-.55 1.84-1.36 2.39-2.29.35-.59.64-1.59.61-2.5-.88-1.22-2.01-2.11-3.39-2-5.31 3.66-7.22 8.83-7.13 13.55.92.28 1.91.07 2.76-.89z" fill="#f4ccae"/><circle cx="-175.75" cy="12" fill="#e6e6e6" r="5.5"/><circle cx="-175.75" cy="12" r="2.78"/><path d="m-51.44-29.9c-.8-1.77-2.17-2.87-3.06-2.47-5.75 2.14-11.23 3.55-16.96 4.31-.36-1.84-.83-3.92-1.39-6.21.08-1.3-.17-3.23-.69-5.63.65-1.23.26-4.53-.97-9.15.14-.21.26-.44.32-.69.08-.34.09-.7 0-1.07-.26-1.06-.53-2.12-.8-3.19-.04-.14-.07-.28-.1-.42-.27-1.05-.54-2.11-.81-3.17-.03-.11-.06-.23-.09-.34v.01c-3.03-11.53-6.79-23.04-13.46-28.87-1.34-4.85-6.78-22.63-15.66-27.91-6-3.57-14.33-3.16-20.25-2.19-3.12.51-5.28 3.16-5.38 6.13h-.01c-.01.01-.02.01-.03.02-.31.22-.62.44-.91.67-.1.08-.19.16-.29.24-.19.16-.39.31-.57.48-.11.1-.21.2-.32.3-.16.15-.32.3-.47.45-.11.11-.21.22-.31.33-.14.15-.28.29-.41.44-.1.11-.19.23-.29.35-.12.15-.25.3-.36.45-.09.12-.17.24-.26.36-.11.15-.22.31-.33.46-.08.12-.15.24-.23.36-.1.16-.2.31-.29.47-.07.12-.14.24-.2.37-.09.16-.17.32-.25.49-.06.12-.12.24-.17.37-.08.17-.15.33-.22.5-.05.12-.1.24-.15.37-.07.17-.13.34-.19.51l-.12.36c-.06.18-.11.35-.16.53-.03.12-.07.23-.1.35-.05.18-.09.36-.13.54-.02.11-.05.23-.07.34-.04.19-.07.37-.1.56-.02.11-.04.21-.05.32-.03.19-.05.39-.07.58l-.03.3c-.02.2-.03.4-.04.6 0 .09-.01.18-.01.27-.01.21-.01.42-.01.64v.18c.08 4.26 1.79 8.16 4.09 10.23-.92-3.33-.85-6.4.93-9 2.1 3.43 6.05 2.38 8.05 2.28v13.82l.19-.03c-3.98 9.21.75 27.43 12.46 37.22.97 1.16 1.98 2.23 3.02 3.21.7 2.96 1.61 6.09 2.68 8.27-1.18.47-2.21 1-3.09 1.59-5.08-.61-11.11-1.39-18.26-2.38-.27 2.32-.61 4.63-.99 6.93 5.69.79 10.68 1.44 15.06 1.99-.01.25-.01.5.01.74.04.35.13.67.26.91.13.25.28.42.41.51s.22.11.26.07-.04-.19-.11-.41c-.06-.18-.1-.41-.12-.65.33.07.71-.08.82-.49.04-.17.09-.31.13-.47 1 .12 1.97.24 2.9.35.04.19.1.37.16.56.12.72.45 1.32.77 1.66.36.39.67.51.74.43.07-.07-.26-.51-.46-1.02.27-.08.49-.3.49-.65 0-.26.02-.51.03-.77.64.07 1.26.15 1.87.22-.02.27-.03.55-.01.81.03.32.1.62.21.85s.24.4.35.49.2.11.24.08c.05-.04-.01-.18-.06-.4-.05-.21-.08-.48-.07-.76.33.06.69-.09.8-.49.04-.14.07-.26.11-.39 1.02.11 2 .22 2.93.32.06.27.15.55.25.82.02.18.04.35.09.5.1.35.26.63.44.83.35.41.68.52.74.43.04-.04-.06-.19-.17-.39-.09-.16-.17-.38-.24-.6.31-.04.59-.28.59-.67 0-.26.02-.5.03-.75 4.13.42 7.23.67 9.55.82 3.19 7.99 5.86 14.63 6.87 17.12.23.58.9.86 1.47.61l.92-.39c.01.01.01.02.02.03.1.18.2.36.3.53.12.21.23.41.35.61.09.16.19.32.28.47.11.19.22.36.32.53.09.14.17.28.25.41.1.16.2.31.3.45.08.12.16.24.23.34.09.13.18.25.27.37.07.09.14.19.21.27.09.11.17.2.25.29.06.07.12.14.18.2.08.08.16.15.23.21.05.04.1.09.15.13.08.06.15.09.22.12.03.02.07.05.11.06.1.03.19.04.27.01.05-.02.09-.07.12-.14.01-.02.01-.03.02-.05.02-.08.03-.17.03-.3v-.01c0-.13-.02-.28-.05-.45-.01-.04-.01-.09-.02-.13-.03-.18-.07-.38-.13-.61 0-.02-.01-.04-.01-.05-.05-.22-.12-.46-.19-.71-.02-.06-.04-.13-.06-.19-.08-.28-.17-.57-.27-.88-.01-.03-.02-.07-.03-.1-.09-.29-.2-.61-.31-.93-.03-.08-.05-.16-.08-.24-.12-.36-.25-.73-.39-1.13-.02-.05-.04-.1-.05-.14-.13-.36-.27-.74-.41-1.13-.03-.09-.07-.18-.1-.28-.16-.43-.33-.88-.51-1.34-.02-.06-.05-.12-.07-.18-.16-.42-.33-.86-.51-1.3-.04-.1-.08-.2-.12-.29-.2-.5-.4-1.01-.6-1.53-.03-.07-.06-.14-.08-.21-.19-.48-.39-.96-.59-1.46-.04-.1-.08-.19-.12-.29-.23-.55-.46-1.12-.69-1.69-.03-.07-.06-.14-.09-.21-.22-.53-.44-1.06-.66-1.6-.01-.02-.02-.04-.02-.06.11.22.22.43.33.64.02.03.03.06.05.1.57 1.12 1.13 2.2 1.66 3.25.23.45.46.91.69 1.35.06.13.13.25.19.38.37.72.73 1.43 1.08 2.11.01.03.03.06.04.09.31.62.62 1.21.91 1.79.07.13.13.26.2.38.3.59.59 1.16.87 1.72.06.11.11.22.17.33.24.47.47.93.7 1.37.05.11.11.22.16.32.25.49.48.95.7 1.4.06.12.12.23.18.35.23.45.45.9.66 1.31 1.04 2.08 3.48.74 2.19-1.78-.24-.48-.5-.98-.77-1.51-.01-.01-.01-.02-.02-.03l-.81-1.62c-.02-.03-.03-.06-.05-.09l-.93-1.86c-.28-.57-.57-1.15-.86-1.75l-.09-.18c-.29-.6-.59-1.21-.9-1.83-.04-.08-.08-.17-.12-.25-.3-.61-.61-1.24-.92-1.88-.04-.08-.08-.17-.12-.25-.32-.65-.64-1.32-.97-1.99-.03-.06-.06-.12-.09-.19-.03-.05-.05-.11-.08-.17 1.09 1.99 1.92 3.52 2.36 4.33.2.36.65.49 1.01.29l1.27-.72c.12-.07.21-.17.27-.29.01.02.02.03.04.05.14.2.27.38.4.57.21.29.41.59.61.87.14.19.27.37.4.56.18.26.37.51.54.75.13.18.26.35.39.53.17.22.33.45.49.66.12.17.25.32.37.48.15.2.3.39.45.58.11.15.23.29.34.42.14.17.28.34.41.5.1.13.21.25.31.36.13.15.25.28.37.42.09.1.19.21.28.3.11.12.22.23.33.33l.24.24c.1.1.2.17.29.25.07.06.14.12.2.17.09.07.17.12.26.17.05.03.11.07.16.1.08.04.16.06.23.07.04.01.08.03.11.03.1.01.19-.01.26-.06.05-.03.07-.1.09-.18 0-.02.01-.04.01-.06.01-.09 0-.2-.03-.33 0-.02-.01-.04-.01-.05-.03-.13-.07-.28-.12-.44-.01-.04-.02-.08-.04-.12-.06-.19-.14-.39-.23-.62-.02-.04-.04-.09-.06-.13-.09-.21-.18-.43-.29-.67-.02-.05-.04-.1-.07-.15-.13-.27-.26-.57-.41-.88-.03-.07-.07-.14-.1-.21-.14-.29-.3-.59-.46-.91-.02-.04-.04-.08-.06-.13-.18-.35-.38-.73-.58-1.11-.05-.09-.09-.17-.14-.26-.43-.8-.89-1.65-1.4-2.56-.05-.1-.11-.19-.16-.29-.26-.46-.52-.92-.79-1.4-.02-.04-.05-.08-.07-.13-.26-.45-.53-.92-.8-1.39-.06-.1-.11-.2-.17-.3-.29-.5-.59-1.01-.89-1.54-.05-.08-.1-.17-.15-.25-.28-.48-.56-.96-.85-1.45-.03-.05-.06-.1-.09-.15.23-.41.26-1.3.12-2.61.47-.04.94-.09 1.41-.14.61.84 1.1 1.25 1.44 1.14.29-.09.45-.57.49-1.37 6.38-.84 12.48-2.43 18.99-4.9.87-.42.94-2.18.14-3.94zm-50.38 1.16c-.05-.25-.08-.5-.15-.76.07-.05.14-.09.19-.15.23-.29.46-.63.69-1.01.2.47.4.91.61 1.31-.37.21-.72.42-1.05.65-.09-.02-.19-.03-.29-.04zm5.91.6 2.06.19c-.65-.06-1.34-.12-2.06-.19zm-6.19-.63c-.67-.07-1.36-.15-2.07-.23zm8.33.83c-.12-.64-.08-1.18-.99-2.05.23-.44.45-.91.67-1.41.47 1.19.94 2.38 1.41 3.56-.35-.04-.71-.07-1.09-.1z" style="fill:none;stroke:#ba0505;stroke-linecap:round;stroke-linejoin:round;stroke-miterlimit:10;stroke-width:2.9252"/><path d="m64.06-98.61 3.49-2.21s35.41 54.72 33.17 56.19c-2.24 1.45-17.38-23.56-36.66-53.98z" fill="#f00"/><path d="m90.56-64.14c-.21.49-.5.95-.88 1.34-.72.73-1.57.95-2.41.81 7.31 11.26 12.25 18.14 13.45 17.35.87-.57-3.95-9.18-10.16-19.5z" fill="#05b3db"/><path d="m87.15-45.86-1.72.73c-.58.24-1.24-.03-1.47-.61-3.25-8.05-23.96-59.44-22.99-59.85 1.04-.44 12.99 25.56 26.78 58.27.24.56-.03 1.22-.6 1.46z" fill="#022c69"/><path d="m61.66-99.11 3.77-1.69s27.41 59.55 24.86 60.33c-2.56.78-13.86-25.79-28.63-58.64z" fill="#b70904"/><path d="m83.41-60.21c-.29.57-.75 1.03-1.45 1.26-.71.24-1.51.22-2.24-.01 5.44 11.7 9.21 18.9 10.56 18.49.97-.3-2.36-9.01-6.87-19.74z" fill="#047ba0"/><path d="m93-52.7-1.27.72c-.36.2-.82.07-1.01-.29-2.87-5.25-21.94-40.21-21.29-40.59.7-.4 11.34 17.07 23.84 39.15.21.36.08.81-.27 1.01z" fill="#0433b7"/><path d="m64.42-97.51 3.7-1.83s19.32 41.46 26.96 56.34c1.29 2.52-1.15 3.86-2.19 1.78-4.72-9.44-15.71-30.48-28.47-56.29z" fill="#f00"/><path d="m95.07-43c-1.97-3.83-4.71-9.43-7.69-15.62-.29.5-.69.91-1.29 1.13-.53.2-1.02.17-1.48.04 3.55 6.95 6.4 12.5 8.27 16.24 1.04 2.07 3.49.73 2.19-1.79z" fill="#0392c0"/><path d="m91.6-46.89c-.05.01-.1-.01-.12-.06l-20.27-40.85c-.03-.05 0-.12.05-.14.05-.03.12 0 .14.05l20.27 40.85c.03.05 0 .12-.05.14-.01 0-.02 0-.02.01z" fill="#b70904"/><path d="m85.8-49.55c-.05.01-.1-.01-.13-.06l-19.37-42.33c-.02-.05 0-.12.05-.14s.12 0 .14.05l19.38 42.33c.02.05 0 .12-.05.14-.01 0-.02 0-.02.01z" fill="#930303"/><path d="m94.02-54.95c-.05.01-.09-.01-.12-.05l-21.64-35.46c-.03-.05-.01-.12.04-.15s.12-.01.15.04l21.63 35.47c.03.05.01.12-.04.15z" fill="#b70904"/><path d="m63.8-105.94 4.55-2.63s17.04 31.82 15.78 32.54-10.36-12.66-20.33-29.91z" fill="#022a5b"/><path d="m53.1-107.23 4.08-3.31s26.49 34.56 25.36 35.48c-1.13.91-14.31-13.49-29.44-32.17z" fill="#0433b7"/><path d="m59.86-110.74 4.55-2.63s17.04 31.82 15.78 32.54c-1.25.73-10.36-12.66-20.33-29.91z" fill="#0433b7"/><path d="m53.21-112.55 4.27-3.07s19.48 29.1 18.3 29.95-11.28-11.19-22.57-26.88z" fill="#1858e8"/><path d="m112.38-74.61c-10.97 4.08-20.97 5.53-33.52 4.84-5.54-.3-16.94-1.33-39.78-4.48-.27 2.32-.61 4.63-.99 6.93 23.1 3.19 34.71 4.23 40.39 4.54 13.86.76 24.6-.8 36.8-5.44-.83-2.09-1.58-4.44-2.9-6.39z" fill="#755425"/><path d="m115.45-72.15c.8 1.77.73 3.53-.17 3.93-.89.4-2.26-.7-3.06-2.47s-.73-3.53.17-3.93c.88-.4 2.26.71 3.06 2.47z" fill="#a37b4b"/><path d="m115.18-72.02c.67 1.48.61 2.94-.14 3.28-.74.34-1.89-.59-2.56-2.06-.67-1.48-.61-2.94.14-3.28s1.89.58 2.56 2.06z" fill="#8c6133"/><path d="m115.08-71.98c.62 1.37.56 2.73-.13 3.05-.69.31-1.75-.54-2.37-1.91s-.56-2.73.13-3.05 1.75.54 2.37 1.91z" fill="#a37b4b"/><path d="m114.8-71.86c.48 1.07.44 2.13-.1 2.37s-1.36-.42-1.85-1.49c-.48-1.07-.44-2.13.1-2.37.55-.24 1.37.43 1.85 1.49z" fill="#8c6133"/><path d="m114.71-71.81c.44.97.4 1.93-.09 2.15s-1.24-.38-1.68-1.35-.4-1.93.09-2.15c.5-.23 1.25.38 1.68 1.35z" fill="#a37b4b"/><path d="m71.55-77.77-.16 4.9c1.71 1.28 1.59 1.9 1.73 2.68l-2.52-.23c-2.2 1.63-3.09 4.18-3.09 7.48 0 .75-1.01.95-1.31.27-1.22-2.78-.2-5.69.91-6.81-2.62 1.23-3.53 2.49-4.33 5.69-.18.73-1.24.67-1.34-.08-.45-3.28 1.99-6.88 7.68-8.95l-.27-4.94c-.01-1.09 2.7-1.09 2.7-.01z" fill="#d09183"/><path d="m63.45-78.63-.16 4.9c1.71 1.28 1.63 1.98 1.78 2.75l-2.54-.28c-2.2 1.63-3.12 4.16-3.11 7.46 0 .75-1.01.95-1.31.27-1.22-2.78-.2-5.69.91-6.81-2.62 1.23-3.53 2.49-4.33 5.69-.18.73-1.24.67-1.34-.08-.45-3.28 1.99-6.88 7.68-8.95l-.27-4.94c-.02-1.1 2.69-1.1 2.69-.01z" fill="#b56052"/><g fill="#3d3d3d"><path d="m62.06-64.11c.04-.22.06-.37.06-.37l-.8-.07c-.03.34-.05.68-.02 1s.1.62.21.85.24.4.35.49.2.11.24.08c.05-.04-.01-.18-.06-.4-.05-.21-.08-.49-.07-.78s.06-.58.09-.8z"/><path d="m67.16-61.67c-.11-.21-.23-.49-.3-.78-.06-.29-.07-.58-.05-.79.01-.1.03-.19.04-.25s.02-.09.02-.09l-.79-.15c-.08.42-.04.83.06 1.17.1.35.26.63.44.83.35.41.68.52.74.43.05-.02-.05-.16-.16-.37z"/><path d="m58.66-64.13c-.03-.22-.03-.37-.03-.37l-.8.08c.08.82.46 1.49.81 1.87.36.39.67.51.74.43s-.34-.6-.53-1.19c-.1-.3-.17-.6-.19-.82z"/><path d="m53.84-64.35c0-.31.04-.62.07-.86.04-.24.06-.41.06-.41l-.81-.06c-.03.37-.04.74-.01 1.09.04.35.13.67.26.91.13.25.28.42.41.51s.22.11.26.07-.04-.19-.11-.41c-.07-.23-.13-.54-.13-.84z"/></g><path d="m56.12-90.14s2.04 13.87 5.21 18.21c.6.82 3.17.81 3.78.03 3.46-4.35 6.33-18.61 6.33-18.61z" fill="#8a0703"/><path d="m-47.35-124.75c18.3 1.74 13.62 27.26 10.71 47.45-23.03-9.37-29.01-49.18-10.71-47.45z" fill="#920904"/><path d="m81.36-108.17c1.27 17.68-1.07 32.34-6.43 33.22-9.91 1.64-23-8.25-28.39-25.14-3.87-12.13-4.12-24.36-1.33-29.29 1.77-3.12 18.68-7.25 21.43-6.1 8.27 3.44 13.77 13.99 14.72 27.31z" fill="url(#e)"/><path d="m42.08-122.13v-13.82l-5.62-14.85c-1.23-3.74 1.17-7.7 5.06-8.33 5.92-.97 14.25-1.38 20.25 2.19 10.31 6.14 15.99 29.15 15.99 29.15z" fill="#f00"/><path d="m56.35-148.61c.52 5-3.77 9.55-9.58 10.15s-8.61-2.5-9.13-7.51c-.52-5-.8-9.75 7.25-10.62 5.81-.62 10.94 2.98 11.46 7.98z" fill="#fff"/><path d="m61.95-88.57s2.04 13.87 5.21 18.21c.6.82 3.17.81 3.78.03 3.46-4.35 6.33-18.61 6.33-18.61z" fill="#c00704"/><g fill="#023784"><path d="m162.74-110.26c7.6 16.87 12.37 31.17 10.66 31.94s-9.26-12.28-16.86-29.15c-2.15-4.74 4.06-7.54 6.2-2.79z"/><path d="m170.21-102.52c7.6 16.87 12.37 31.17 10.66 31.94s-9.26-12.28-16.86-29.15c-2.15-4.74 4.06-7.53 6.2-2.79z"/><path d="m179.55-95.6c6.28 17.41 9.93 32.03 8.16 32.67s-8.29-12.96-14.57-30.36c-1.76-4.89 4.64-7.2 6.41-2.31z"/><path d="m183.86-97.71c5.69 17.61 8.85 32.35 7.06 32.93s-7.85-13.23-13.53-30.84c-1.6-4.95 4.87-7.04 6.47-2.09z"/></g><g fill="#0392c0"><path d="m163.47-117.28c7.28 16.83 11.16 31.42 8.67 32.58-2.49 1.17-10.4-11.53-17.68-28.36-2.04-4.72 6.97-8.95 9.01-4.22z"/><path d="m162.42-119.88c2.92 8.24 7.01 15.2 9.27 20.54 2.33 5.31 2.84 9 .05 9.99-2.63.94-7.84-1.48-12.02-6.81-4.25-5.26-7.48-13.42-7.72-22.23.03-2.47 2.44-3.56 4.78-3.92 2.39-.29 4.7.15 5.64 2.43z"/><path d="m170.95-112.97c7.28 16.83 11.16 31.42 8.67 32.58-2.49 1.17-10.4-11.53-17.68-28.36-2.05-4.73 6.96-8.95 9.01-4.22z"/><path d="m176.09-111.8c7.28 16.83 11.16 31.42 8.67 32.58-2.49 1.17-10.4-11.53-17.68-28.36-2.04-4.72 6.97-8.95 9.01-4.22z"/><path d="m179.75-110.1c7.28 16.83 11.16 31.42 8.67 32.58-2.49 1.17-10.4-11.53-17.68-28.36-2.04-4.73 6.97-8.95 9.01-4.22z"/></g><g fill="#60bf00"><path d="m162.04-124.41c7.6 16.87 11.68 31.48 9.11 32.64s-10.81-11.58-18.41-28.45c-2.13-4.74 7.16-8.93 9.3-4.19z"/><path d="m160.94-127.02c3.06 8.26 7.31 15.24 9.68 20.6 2.43 5.32 2.97 9.02.1 10-2.71.93-8.11-1.51-12.46-6.87-4.42-5.28-7.79-13.46-8.08-22.28.02-2.47 2.51-3.55 4.92-3.9 2.46-.28 4.86.17 5.84 2.45z"/><path d="m169.78-120.07c7.6 16.87 11.68 31.48 9.11 32.64s-10.81-11.58-18.41-28.45c-2.13-4.74 7.17-8.93 9.3-4.19z"/><path d="m175.11-118.87c7.6 16.87 11.68 31.48 9.11 32.64s-10.81-11.58-18.41-28.45c-2.13-4.74 7.17-8.93 9.3-4.19z"/><path d="m178.9-117.15c7.6 16.87 11.68 31.48 9.11 32.64s-10.81-11.58-18.41-28.45c-2.13-4.75 7.17-8.94 9.3-4.19z"/></g><path d="m156.96-135.01c19.77-5.45 25.75 18.75 30.85 39.13.37 1.47-.82 2.87-2.33 2.75-27.6-2.26-48.49-36.38-28.52-41.88z" fill="url(#f)"/><path d="m187.81-95.89c-.58-2.34-1.18-4.73-1.81-7.11.42 3.84-.04 6.78-2.41 6.78-8.25 0-15.49-2.7-21.22-6.71 6.31 5.18 14.37 9.08 23.1 9.79 1.52.12 2.71-1.27 2.34-2.75z" fill="#fc0"/><g fill="#ef0000"><path d="m43.73-144.23c-.8-.7-1.66-1.53-2.57-2.4-1.24-1.19-2.5-2.41-3.73-3.42-.01.1-.01.2-.01.3 1.18.98 2.39 2.15 3.58 3.29.91.88 1.77 1.7 2.58 2.41 1.55 1.36 2.77 3.4 3.44 5.57l.24-.03c-.69-2.24-1.93-4.33-3.53-5.72z"/><path d="m47.66-145.86c-.81-.42-1.57-.82-2.12-1.18-1.71-1.12-3.02-2.6-4.29-4.03-.82-.93-1.67-1.88-2.62-2.74-.05.06-.09.13-.14.2.94.84 1.77 1.78 2.58 2.7 1.28 1.45 2.6 2.94 4.34 4.07.56.37 1.33.77 2.14 1.19 2.07 1.08 4.69 2.45 5.88 4.26.06-.05.12-.11.18-.16-1.24-1.85-3.86-3.22-5.95-4.31z"/><path d="m45.93-145.45c-1.49-1.14-2.8-2.51-4.06-3.83-1.19-1.24-2.41-2.51-3.79-3.61-.03.07-.07.15-.1.23 1.35 1.09 2.55 2.33 3.71 3.55 1.27 1.33 2.59 2.7 4.09 3.85 2.2 1.69 3.87 3.44 4.61 5.85.07-.03.15-.07.22-.1-.76-2.45-2.45-4.22-4.68-5.94z"/><path d="m37.6-146.33.03.3c3.35 2.07 5.85 4.31 7.64 7.65h.27c-1.85-3.5-4.43-5.81-7.94-7.95z"/><path d="m37.96-144.08c.03.1.05.2.08.3 2.58 1.24 4.55 2.99 6.02 5.33.1.01.2.02.31.03-1.54-2.52-3.64-4.38-6.41-5.66z"/><path d="m44.95-144.74c-2.76-2.37-4.95-4.5-7.1-7.58-.03.09-.06.19-.09.28 2.13 3.02 4.3 5.14 7.03 7.48 2.18 1.86 3.11 3.57 3.64 5.81.08-.02.15-.04.23-.06-.54-2.28-1.48-4.02-3.71-5.93z"/></g><path d="m34.03-138.23c2.1 3.43 6.05 2.38 8.05 2.28.59-.98 1.5-5.71-.02-8.97-3.52.69-6.91 1.96-8.03 6.69z"/><path d="m36.13-153c-10.11 6.98-7.88 19.41-3.03 23.78-.92-3.33-.85-6.4.93-9 5.98-.49 3.63-4.86 8.03-6.69-.01-.01-1.83-8.42-5.93-8.09z" fill="#212121"/><path d="m31.75-140.35c1.16-1.32.99-3.29 2.41-4.5.7-.59 1.57-.9 2.35-1.37.91-.55 1.84-1.36 2.39-2.29.35-.59.64-1.59.61-2.5-.88-1.22-2.01-2.11-3.39-2-5.31 3.66-7.22 8.83-7.13 13.55.92.28 1.91.07 2.76-.89z" fill="#f4ccae"/><circle cx="46.75" cy="-152" fill="#e6e6e6" r="5.5"/><path d="m40.77 15.95c3.19 0 6.09 1.28 7.17 2.42.48.42.83.86.98 1.29.97 2.83 3 2.89 3.17 2.89h.01s-.03.05-.08.12c.1.03.17.05.17.05s-.93 1.04-.82 4.56c.06 1.8-.84 3.97-2.23 5.38-1.18 1.2-2.63 1.83-4.22 1.83-1.43 0-2.95-.51-4.53-1.51l-.18-.03.04-.06-.01-.01.09-.1c.98-1.43 1.69-3.74 2.07-5.19-4.97 1-5.57 1.8-5.93 6.54-2.4-.5-6.09-5.28-5.35-10.29v-.02c.04-.27.09-.54.16-.8.02-.07.03-.14.05-.2.06-.24.14-.47.23-.71.05-.15.11-.29.18-.44.04-.1.09-.2.14-.3.13-.27.27-.54.43-.81.06-.1.11-.19.18-.29.09-.14.19-.28.29-.42.17-.24.36-.48.56-.71.48-.55 1.01-.99 1.55-1.39 1.82-1.31 3.91-1.8 5.88-1.8m0-1.01c-2.42 0-4.66.7-6.48 2.01-.69.5-1.24.99-1.72 1.54-.2.23-.4.49-.61.78-.11.15-.22.3-.32.46-.06.09-.11.17-.16.26l-.04.06c-.18.3-.34.6-.48.9-.05.11-.11.22-.15.34-.07.17-.14.33-.2.49-.1.27-.18.53-.25.78-.02.06-.03.12-.04.17l-.02.07c-.07.29-.13.59-.18.89-.81 5.46 3.13 10.82 6.13 11.44.07.01.14.02.2.02.22 0 .43-.07.6-.2.23-.17.38-.44.4-.73.28-3.64.46-4.5 3.49-5.26-.45 1.38-.94 2.5-1.43 3.23l-.05.06c-.08.09-.14.19-.18.3-.12.26-.13.56-.01.82.13.31.41.53.74.59 1.68 1.03 3.32 1.56 4.88 1.56 1.86 0 3.57-.74 4.94-2.14 1.59-1.63 2.58-4.03 2.52-6.12-.09-2.93.59-3.88.6-3.89.23-.25.3-.59.21-.92-.03-.11-.08-.22-.15-.31-.16-.35-.51-.59-.91-.59h-.03c-.13 0-1.47-.08-2.2-2.22-.2-.57-.61-1.14-1.23-1.69-1.31-1.34-4.42-2.7-7.87-2.7z" fill="#ab8f7a"/><path d="m92.95 114.99c-2.88-3.65-5.15-7.35-6.86-10.85.14-1.05-.21-2.61-1.18-4.53.2 0 .47-.08.6-.7.35-1.73-.37-4.24-2.18-7.6.31.17.59.27.82.27s.42-.08.56-.25c.31-.36.37-1.1.19-2.25-.31-1.97-1.05-3.91-1.89-5.61.17.06.32.1.46.1.25 0 .46-.1.61-.3.42-.55.36-1.8-.18-3.73-.22-.79-.5-1.69-.82-2.64.07.02.15.04.21.04.2 0 .37-.1.49-.28.65-1.03-.44-5.13-1.56-7.7.03-.26.04-.54.04-.86 0-1.49-.39-3.02-.39-3.02.02-.1.02-.22.02-.35-.07-1.93-.49-19.32-10.3-28.97-2.14-4.02-2.03-8.01-3.95-16.34-1.99-8.64-6.2-13.89-17.84-14.39s-15.67 3.17-14.33 12.33c.76 5.22 12.28 8.8 11.29 15.36s-7.16 9.98-7.12 24.42 15.17 27.1 20.24 31.47c4.72 4.07 9.57 9.35 11.46 10.08.27 1.75.48 3.5.52 5.07l.01.22.26-.18c.6-.41 1.07-.81 1.42-1.28.06 1.12.04 2.06-.1 2.69l-.09.41.37-.36c.3-.3.56-.66.79-1.05.24 3.65.59 7.67 1.05 10.04 1.46 7.5 2.68 8.46 3.59 8.46h.03c1.05-.03 1.51-2.3 1.84-6.28.29.59.59 1.11.9 1.54 2.49 3.49 4.25 5.06 4.89 5.06.03 0 .06-.03.11-.03 1.28-.05 1.26-2.85.58-6.82 3.44 3.01 6.71 5.1 8.06 5.1.22 0 .41-.05.53-.15.87-.68-1.24-3.72-3.15-6.14z" style="fill:none;stroke:#ba0505;stroke-linecap:round;stroke-linejoin:round;stroke-miterlimit:10;stroke-width:2.9252"/><path d="m79.16 122.7c-.9 0-2.13-.96-3.59-8.46-.99-5.12-1.47-18-1.48-18.13.06-1.21.64-1.46 1.11-1.46 1.47 0 3.43 2.53 3.5 5.22.05 1.97.69 4.72 1.32 7.38.65 2.78 1.27 5.4 1.17 6.95l-.01.18c-.34 5.24-.78 8.28-1.99 8.31z" fill="#049cbf"/><path d="m79.86 88.51c-.05-1.44-.78-2.17-2.17-2.17-1.38 0-2.98.71-3.28.85.14 1.1 3.2 24.7 7.53 30.78 2.49 3.49 4.25 5.06 4.89 5.06.03 0 .06-.03.11-.03 4.49-.2-7.08-34.49-7.08-34.49" fill="#05b3db"/><path d="m95.58 121.27c-1.52 0-5.43-2.62-9.3-6.22-6.93-6.45-8.75-27.41-8.77-27.62l-.01-.07.12-.01c.01 0 .22-.02.56-.02.86 0 2.94.17 3.75 1.7l.01.01v.01c-.15 5.78 3.2 16.05 11.01 25.93 1.92 2.43 4.02 5.46 3.17 6.14-.13.1-.32.15-.54.15z" fill="#05b3db"/><path d="m68.94 87.43s2.88 9.62 3.08 16.31c2.08-1.41 2.48-2.82 2.28-6.69-.2-3.86-.3-8.68-5.36-9.62z" fill="#004a93"/><path d="m71.87 103.97-.01-.22c-.2-6.61-3.05-16.21-3.08-16.3l-.04-.13.24.04c5.02.93 5.25 5.61 5.44 9.37l.02.32c.21 4.02-.25 5.34-2.31 6.74zm-2.75-16.42c.34 1.17 2.79 9.78 3.03 15.96 1.79-1.3 2.19-2.66 1.99-6.46l-.02-.32c-.17-3.65-.4-8.17-5-9.18z" fill="#023863"/><path d="m71.31 87.43s3.09 14.07 2.29 17.78c3.28-3.24 1.89-11.92 1.49-17.78-2.28-.94-3.78 0-3.78 0z" fill="#00447c"/><path d="m73.37 105.61.09-.41c.78-3.66-2.26-17.62-2.29-17.76l-.01-.03.04-.03c.03-.02.72-.45 1.9-.45.68 0 1.39.15 2.09.44l.05.02v.04c.06.89.14 1.83.23 2.82.47 5.45 1.06 12.23-1.73 15zm-1.9-18.15c.17.77 2.84 13.21 2.35 17.33 2.36-2.94 1.8-9.34 1.35-14.53-.09-.98-.17-1.91-.23-2.79-.63-.25-1.25-.38-1.85-.38-.88 0-1.47.29-1.62.37z" fill="#023863"/><path d="m73.61 92.92s-.36 5.86-1.9 5.84-6.76-5.8-11.83-10.17-20.2-17.02-20.24-31.47c-.04-14.44 6.12-17.87 7.12-24.42.99-6.55-10.53-10.13-11.29-15.36-1.33-9.17 2.7-12.83 14.33-12.33 11.64.5 15.85 5.75 17.84 14.39s1.79 12.61 4.18 16.78 5.85 50.35 1.79 56.74z" fill="url(#g)"/><path d="m85.2 105.33h.01c.55-.26.81-.96.73-2.01-.16-1.99-1.6-5.22-4.86-8.96-7.17-8.24-15.33-25.21-17.12-29.88s-4.57-16.98-8.65-6.95c0 0-.21 1.67.1 4.45v.02c.04.36.09.74.15 1.14.01.05.02.11.02.16.06.39.13.79.21 1.21.01.08.03.15.04.23.09.42.18.86.29 1.31.02.08.04.15.06.23.12.47.25.95.39 1.44.01.04.03.09.04.13.15.49.31 1 .49 1.52.02.05.03.09.05.14.18.52.39 1.06.61 1.6.04.09.07.18.11.27.22.53.46 1.08.71 1.63.05.1.09.2.14.3.27.56.55 1.13.86 1.71.04.08.09.16.13.24.33.61.68 1.23 1.06 1.86 6.56 10.88 16.36 22.3 21.11 26.76.16.15.31.28.46.41l.15.12c.1.08.19.16.29.23.06.04.11.07.16.11.09.06.17.12.25.17.05.03.11.06.16.09.08.04.16.09.23.13.05.03.1.05.15.07.07.03.15.06.22.09.04.02.09.03.13.04l.21.06c.04.01.08.02.11.02.07.01.14.02.21.02h.09c.07 0 .14-.01.21-.02.02 0 .04 0 .06-.01.09-.02.16-.05.23-.08z" fill="#004a93"/><path d="m84.69 105.59c-.79 0-1.79-.55-2.9-1.6-4.64-4.36-14.56-15.9-21.14-26.8-6.52-10.8-5.5-19.6-5.49-19.69l.01-.04c1.07-2.64 2.13-3.92 3.22-3.92 2.05 0 3.59 4.63 4.83 8.35.31.94.61 1.83.88 2.53 1.93 5.02 10.1 21.81 17.09 29.84 4.29 4.93 5.45 8.92 4.71 10.55-.23.51-.65.78-1.21.78z" fill="#0045ad"/><path d="m61.51 59.69c-.02.53-.15 9.58 9.93 24.1 7.29 10.5 11.81 15.82 13.45 15.82.2 0 .48-.07.61-.7.42-2.08-.68-5.24-3.36-9.68-.51-.84-1.35-2.18-2.34-3.73-3.43-5.43-9.18-14.52-10.51-18.18-1.34-3.71-4.1-9.23-6.18-9.23-.62-.01-1.16.53-1.6 1.6z" fill="#003f9e"/><path d="m66.05 62.83s4.74 11.81 9.43 18.98 10.16 13.03 9.27 7.27-5.47-11.22-5.47-11.22-8.16-20.73-13.23-15.03z" fill="#003b93"/><path d="m84.14 91.57c-1.7 0-5.63-4.86-8.78-9.67-4.65-7.1-9.4-18.89-9.44-19.01l-.03-.09.06-.07c.62-.69 1.31-1.04 2.07-1.04 4.97 0 11.04 15.18 11.4 16.11.3.36 4.62 5.71 5.49 11.27.18 1.15.12 1.89-.19 2.25-.16.17-.35.25-.58.25zm-17.91-28.7c.44 1.09 4.96 12.11 9.38 18.87 3.67 5.62 7.18 9.54 8.53 9.54.14 0 .25-.05.34-.15.17-.2.33-.71.13-2.01-.88-5.65-5.39-11.09-5.44-11.14l-.02-.04c-.06-.16-6.32-15.94-11.13-15.94-.65-.01-1.25.28-1.79.87z" fill="#023863"/><path d="m72.12 65.65s2.88 7.35 6.66 13.07c3.78 5.71 6.54 6.47 4.97.86-1.56-5.63-6.71-18.82-11.63-13.93z" fill="#003b93"/><path d="m83.47 83.56c-1.04 0-2.84-1.78-4.81-4.77-3.74-5.66-6.65-13.02-6.68-13.09l-.04-.09.07-.07c.74-.73 1.53-1.11 2.34-1.11 4.22 0 8.09 9.87 9.54 15.09.54 1.93.6 3.18.18 3.73-.14.2-.35.31-.6.31zm-11.18-17.88c.35.87 3.11 7.65 6.61 12.95 2.26 3.41 3.84 4.63 4.56 4.63.16 0 .28-.06.37-.18.2-.26.44-1.07-.23-3.47-1.15-4.14-5.07-14.88-9.25-14.88-.7 0-1.39.32-2.06.95z" fill="#023863"/><path d="m77.04 66.73s1.5 5.52 4.85 9.09 1.69-3.64 0-7.23-4.84-6.39-4.85-1.86z" fill="#003b93"/><path d="m83.29 76.93c-.38 0-.87-.33-1.51-1.01-3.34-3.55-4.87-9.1-4.89-9.15l-.01-.04c0-2.07.66-2.5 1.22-2.5 1.23 0 2.94 2.21 3.92 4.3 1.19 2.52 2.45 7.04 1.75 8.13-.1.18-.27.27-.48.27zm-6.1-10.22c.1.36 1.62 5.61 4.81 9.01.71.76 1.1.92 1.29.92.1 0 .17-.04.24-.14.57-.89-.52-5.18-1.77-7.84-1.09-2.31-2.69-4.13-3.65-4.13-.75 0-.91 1.18-.92 2.18z" fill="#023863"/><path d="m60.68 56.03s0 .01-.01.04c.01-.02.01-.04.01-.04z" fill="#fb8b03"/><path d="m82.26 68.1c0-1.49-.39-3.02-.39-3.02s-1.49-3.93-4.55-8.05c-.01-.02-.02-.03-.04-.05-.27-.36-.55-.73-.84-1.09l-.01-.01c-.3-.36-.6-.73-.92-1.09-.01-.02-.03-.03-.04-.05-.31-.34-.62-.68-.95-1.01l-.15-.15c-.33-.33-.66-.65-1.01-.96-.04-.04-.09-.07-.13-.11-.35-.31-.7-.6-1.07-.89-.02-.02-.04-.04-.07-.05-.37-.29-.75-.56-1.14-.83-.07-.05-.14-.1-.22-.15-.39-.25-.78-.5-1.19-.73-.07-.04-.15-.08-.22-.12-.43-.23-.86-.46-1.31-.66-2.93-1.3-5.33-1.79-7.24-1.85-1.53-.04-2.75.19-3.68.5-1.63.55-2.38 1.35-2.38 1.35s-.01.03-.03.1c-.01.03-.03.09-.04.14-.02.05-.03.08-.05.15-.02.08-.05.18-.08.28-.02.06-.03.11-.05.18-.03.12-.07.26-.1.39-.02.07-.04.14-.05.22-.04.15-.07.32-.11.49-.02.09-.04.16-.05.25-.04.18-.07.37-.1.57-.02.1-.03.19-.05.3-.03.2-.06.42-.08.64-.01.11-.03.22-.04.33-.02.22-.04.45-.06.69-.01.12-.02.24-.02.37-.01.24-.02.48-.02.73v.39c0 .25.01.5.03.76.01.14.02.27.03.41.02.26.05.52.09.78.02.14.04.29.06.43.04.26.1.52.15.78.03.15.07.3.11.44.07.26.14.52.23.77.05.15.1.3.16.45.1.25.2.5.31.76.07.15.15.3.22.45.13.24.26.49.41.73.09.15.19.3.3.45.16.23.32.46.5.69.04.05.08.11.12.17v-.03c.21.25.4.5.64.74 2.86-3.67 3.55-8.04 3.55-8.04s-.04.27-.09.69v.01c0 .03-.01.07-.01.09-.01.06-.01.13-.02.2-.01.12-.02.25-.03.38-.01.07-.01.13-.02.21-.02.22-.03.45-.04.7v.06c-.01.23-.01.47-.01.72v.25c0 .2.01.41.02.62 0 .1.01.19.01.29.01.24.03.48.06.73.01.07.01.14.02.21.04.31.08.63.14.95.01.08.03.16.05.24.05.24.1.48.16.72l.09.33c.06.22.13.44.21.66.04.11.07.21.11.32.11.3.24.6.38.88.02.04.04.07.06.11.14.27.29.54.46.8.06.1.13.19.2.29.13.19.27.37.42.54.08.1.17.19.26.29.17.18.35.34.54.51l.24.21c.02.01.03.03.05.05v-.01c.28.21.57.42.9.6.94-2.81 1.17-4.52 1.22-5.31v.01c0-.06.01-.1.01-.15v-.06c0-.1.01-.17.01-.22v-.04-.06c.13.45.27.87.41 1.27.04.1.07.19.11.29.15.38.29.75.45 1.08.01.02.02.03.02.05.15.32.31.62.48.9l.12.21c.17.28.34.54.51.78.02.02.03.04.05.06.16.22.33.43.49.62.04.05.09.1.13.15.17.2.34.38.51.55l.06.06c.16.15.31.29.46.42.04.03.08.07.12.1.16.13.32.26.47.37l.01.01c.44.33.83.57 1.12.78.75-1.69.5-3.28.5-3.28.07.13.14.24.2.36 0 .01 0 .02.01.03.07.12.14.23.2.34.09.15.18.31.27.46.1.16.21.31.31.46.09.13.17.26.26.38.18.25.36.47.54.68.09.11.18.2.27.29.1.11.19.22.29.31.09.09.18.17.27.26.09.08.18.16.26.24.09.08.17.14.26.21l.24.18c.08.06.17.11.25.16.07.04.14.08.22.12s.15.08.23.11c.01.01.03.02.04.02.11.04.21.08.31.11 1.64-1.89 1.59-3.72 1.59-3.72.04.07.08.12.12.19 0 .01.01.02.01.04.11.2.23.38.36.54.04.06.09.11.13.17.15.19.3.36.45.51.04.04.07.07.11.1.15.14.3.26.44.37.04.03.08.07.13.1.16.11.31.21.45.29.05.03.09.05.13.07.13.07.26.13.37.18.49.21.83.27.83.27.3-.88.6-1.53.6-3.01z" fill="#ffc400"/><path d="m76.85 61.12c.03-.43.04-.87.04-1.31-.04.44-.05.88-.04 1.31z" fill="#fb8b03"/><path d="m71.79 66.39.42.79c1.46 2.77 3.16 4.3 4.24 4.62 1.52-1.79 1.49-3.53 1.49-3.55l-.02-.64.3.57c1.08 2.07 2.85 2.62 3.31 2.73v-.01c.33-.79.59-1.41.59-2.8 0-1.45-.38-2.97-.39-2.98-.04-.1-4.56-11.8-13.78-15.89-2.75-1.22-5.29-1.84-7.55-1.84-3.59 0-5.34 1.58-5.55 1.79-.2.58-3.01 9.22 2.27 14.68 2.58-3.4 3.33-7.35 3.41-7.79l.01-.05.29.05-.01.05c-.16.95-1.36 9.27 3.9 12.34 1.26-3.82 1.18-5.59 1.18-5.6l-.07-1.35.36 1.31c1.35 4.84 3.79 6.49 5.11 7.37.07.05.14.09.2.14.63-1.56.42-3.01.42-3.03z" fill="none"/><path d="m71.65 40.99s-6.16-4.56-11.09-2.4-6.71 6.92-7.01 12.14c-.3 5.21 4.62.6 5.15-2.38-.9 7.22 2.98 12.69 4.33 4.74.52 5.46 3.13 9.63 5.74 2.55.75 6.78 4.03 8.97 5.3 3.74.22 5.05 3.21 8.62 4.25 2.59 1.42 3.5 3.65 4.69 3.58 2.75s-.5-19.33-10.32-28.99c1.46 4.6.07 5.26.07 5.26z" fill="#ce151b"/><path d="m42.53 15.14s-2.04-6.8 6.91-6.15 12.83 6.06 11.34 9.63-5.78 11.06-10.16 10.96c-4.37-.1-7.54-12.06-8.09-14.44z" fill="#f2e1e3"/><path d="m51.83 22.81s-.84.87-.72 4.52c.11 3.65-3.87 10-10.71 5.58 1.57-1.86 2.66-5.16 2.66-6.02 2.13-1.61 5.95-5.26 8.77-4.08z" fill="#161616"/><path d="m44.85 34.55c-1.43 0-2.94-.51-4.51-1.53l-.12-.08.09-.11c1.58-1.87 2.63-5.13 2.63-5.94v-.06l.05-.04c.31-.23.65-.51 1.02-.8 1.85-1.49 4.39-3.53 6.63-3.53.44 0 1.42.32 1.42.32s-.93 1.04-.82 4.56c.06 1.8-.83 3.97-2.21 5.38-1.17 1.19-2.61 1.83-4.18 1.83z" fill="#0c0c0c"/><path d="m47.79 24.9s-2.5.19-4.72 1.99c-1.25 3.78-1.96 5.67-1.96 5.67 3.79-1.38 6.87-3.46 6.68-7.66z" fill="#bb151b"/><path d="m40.89 32.77.1-.26c.01-.02.72-1.93 1.96-5.67l.01-.04.03-.02c2.22-1.8 4.77-2.01 4.79-2.02l.13-.01.01.13c.21 4.64-3.5 6.6-6.76 7.79zm2.29-5.81c-.97 2.94-1.62 4.74-1.85 5.38 4.47-1.68 6.44-3.95 6.34-7.3-.55.07-2.63.43-4.49 1.92z" fill="#7d0000"/><path d="m47.05 23.39s-4.24 4.01-2.05 8.01c3.72-1.6 3.58-7.12 2.05-8.01z" fill="#fc9595"/><path d="m44.94 31.57-.06-.1c-2.2-4.05 2.04-8.13 2.08-8.17l.07-.07.08.05c.73.42 1.16 1.75 1.06 3.3-.14 2.31-1.31 4.15-3.13 4.94zm2.13-8.01c-.54.54-3.85 4.13-2.01 7.68 2.47-1.14 2.82-3.85 2.87-4.67.07-1.38-.28-2.59-.86-3.01z" fill="#f75c5c"/><path d="m42.79 26.37s-.88 4.32-2.39 6.54c2.51.38 8.34-1.28 8.04-8.63l-1.11.47s.56 5.26-5.48 7.05c1.16-1.75 1.98-5.51 1.98-5.51z" fill="#1e1e1e"/><path d="m41.13 33.09c-.26 0-.52-.02-.75-.05l-.2-.03.11-.17c1.48-2.17 2.36-6.45 2.37-6.49l.02-.09 1.31-.11-.04.17c-.03.15-.76 3.42-1.82 5.26 5.52-1.83 5.07-6.76 5.06-6.81l-.01-.09 1.37-.58.01.18c.11 2.76-.61 4.96-2.13 6.55-1.6 1.66-3.79 2.26-5.3 2.26z" fill="#2b2b2b"/><path d="m51.97 22.6s-2.39 3.67-8.43 4.81-6.69 1.68-7.07 6.77c-3.14-.66-8.49-8.73-3.1-14.99 4.95-5.76 14.45-2.45 15.45.51 1.01 2.97 3.15 2.9 3.15 2.9z" fill="#161616"/><path d="m48.14 18.77c-1.28-2.08-9.76-5.28-14.77.43-2.08 2.37-2.56 5.1-2.15 7.49 1.11 1.49 3.75 3.17 5.75 3.92.65-1 .83-2.17 3.67-3.08 5.44-2.28 6.9-6.08 7.5-8.76z" fill="#f4ccae"/><path d="m50.8 17.96c-.73 0-1.43-.21-2.04-.6-.85-.55-1.43-1.39-1.64-2.38s-.03-2 .52-2.84c.7-1.08 1.89-1.73 3.18-1.73.73 0 1.43.21 2.04.6.85.55 1.43 1.39 1.64 2.38s.03 2-.52 2.84c-.7 1.08-1.88 1.73-3.18 1.73z"/><path d="m50.81 11.41c.52 0 1.04.14 1.5.44 1.29.83 1.66 2.55.83 3.84-.53.82-1.42 1.27-2.34 1.27-.52 0-1.04-.14-1.5-.44-1.29-.83-1.66-2.55-.83-3.84.53-.83 1.43-1.27 2.34-1.27m0-2c-1.63 0-3.13.82-4.02 2.19-.69 1.07-.92 2.35-.66 3.6.27 1.25 1.01 2.32 2.08 3.01.77.5 1.67.76 2.59.76 1.63 0 3.13-.82 4.02-2.19.69-1.07.92-2.35.66-3.6-.27-1.25-1.01-2.32-2.08-3.01-.78-.5-1.67-.76-2.59-.76z" fill="#fff"/><path d="m98.75 87.08c-10.69 1.8-20.42 1.13-32.63-2.3-5.39-1.51-14.94-4.4-37.15-12.6-1.67.33-1.52-.17-2.83 2.42-.49.96-.67 3 .3 3.84 22.46 8.29 33.76 11.88 39.28 13.43 13.48 3.79 23.93 4.52 35.82 2.41-.79-2.33-1.51-4.9-2.79-7.2z" fill="#9c4322"/><path d="m101.72 90.28c.77 1.99.69 3.78-.17 4-.87.22-2.2-1.21-2.97-3.2s-.69-3.78.17-4c.87-.22 2.2 1.21 2.97 3.2z" fill="#d1a171"/><path d="m101.72 90.28c-.77-1.99-2.1-3.42-2.97-3.2-10.69 1.8-20.42 1.13-32.63-2.3-5.39-1.51-14.94-4.4-37.15-12.6-1.67.33-1.52-.17-2.83 2.42-.49.96-.67 3 .3 3.84 22.46 8.29 33.76 11.88 39.28 13.43 13.48 3.79 23.93 4.52 35.82 2.41.88-.22.95-2.01.18-4z" fill="none" stroke="#614a34" stroke-miterlimit="10"/><path d="m54.06 86.89s-.19 2.79-2.09 2.46c-1.9-.34-2.05-4.62.45-7.41s6-1.82 6.56.3c.57 2.12-4.92 4.65-4.92 4.65z" fill="#b57e72"/><path d="m62.52 83.98s-3.11-.62-4.23 2.28-1.01 4.64-2.5 4.19c-1.49-.46-2.72-5.14-.56-7.83 2.17-2.7 6.23-2.62 7.29 1.36z" fill="#d09183"/><path d="m46.72 77.49s-1.71-2.55-4.04-1.35-3.45 4.89-2.89 7.16 2.98 2.64 3.65 0c.67-2.65 3.28-5.81 3.28-5.81z" fill="#ba8275"/><path d="m49.88 79.44s-2.56-.2-3.12 3.86-2.95 4.02-3.65 1.34c-.71-2.68.96-7.11 3.39-7.48 2.42-.38 3.38 2.28 3.38 2.28z" fill="#fb8b03"/><path d="m44.77 86.67c-.79 0-1.48-.76-1.81-1.99-.45-1.71.03-4.18 1.15-5.89.68-1.03 1.49-1.65 2.36-1.78.16-.02.32-.04.48-.04 2.17 0 3.06 2.39 3.07 2.42l.08.22-.23-.02h-.05c-.4 0-2.43.18-2.92 3.73-.33 2.47-1.32 3.35-2.13 3.35z" fill="#d09183"/></svg>