<svg enable-background="new 0 0 128 128" viewBox="0 0 128 128" xmlns="http://www.w3.org/2000/svg" xmlns:xlink="http://www.w3.org/1999/xlink"><linearGradient id="a" gradientUnits="userSpaceOnUse" x1="64" x2="64" y1="28.991" y2="110.68"><stop offset=".5" stop-color="#fee133"/><stop offset=".6118" stop-color="#fede32"/><stop offset=".7076" stop-color="#fcd32f"/><stop offset=".7975" stop-color="#fac12b"/><stop offset=".8834" stop-color="#f7a924"/><stop offset=".9" stop-color="#f6a323"/></linearGradient><linearGradient id="b" gradientUnits="userSpaceOnUse"><stop offset="0" stop-color="#ed7770"/><stop offset=".9" stop-color="#ed7770" stop-opacity="0"/></linearGradient><radialGradient id="c" cx="35.994" cy="68.577" gradientTransform="matrix(.9791 0 0 .877 -1.4908 11.44)" r="19.444" xlink:href="#b"/><radialGradient id="d" cx="97.787" cy="68.577" gradientTransform="matrix(.9791 0 0 .877 -1.4908 11.44)" r="19.444" xlink:href="#b"/><clipPath id="e"><path d="m114.72 13.5-33.47 18.87s1.59 4.38 10.36 11.14 13.7 7.39 13.7 7.39z"/></clipPath><clipPath id="f"><path d="m114.72 13.5-33.47 18.87s1.59 4.38 10.36 11.14 13.7 7.39 13.7 7.39z"/></clipPath><linearGradient id="g" gradientUnits="userSpaceOnUse" x1="82.033" x2="119.38" y1="82.759" y2="82.759"><stop offset="0" stop-color="#004054"/><stop offset=".9935" stop-color="#45a4ff"/></linearGradient><path d="m64 122c-25.94 0-53.85-16.24-53.85-51.89s27.92-51.89 53.85-51.9c14.38 0 27.69 4.76 37.48 13.4 10.71 9.46 16.38 22.77 16.38 38.49 0 15.66-5.66 28.94-16.38 38.42-9.82 8.7-23.13 13.48-37.48 13.48z" fill="url(#a)"/><path d="m64 20.21c13.89 0 26.73 4.58 36.15 12.9 10.27 9.06 15.7 21.86 15.7 37 0 15.07-5.43 27.84-15.7 36.93-9.45 8.35-22.29 12.96-36.15 12.96-13.93 0-26.77-4.54-36.16-12.8-10.27-9.03-15.69-21.85-15.69-37.1 0-15.31 5.43-28.17 15.69-37.17 9.36-8.2 22.2-12.72 36.16-12.72m0-4c-29 0-55.85 18.62-55.85 53.89 0 35.08 26.85 53.9 55.85 53.9s55.85-19.29 55.85-53.89c0-34.8-26.85-53.9-55.85-53.9z" fill="#eb8f00"/><ellipse cx="33.75" cy="71.58" fill="url(#c)" opacity=".8" rx="17.5" ry="16.5"/><ellipse cx="94.25" cy="71.58" fill="url(#d)" opacity=".8" rx="17.5" ry="16.5"/><g fill="#242424"><path d="m49.56 65.38s-.05-.07-.16-.2c-.1-.13-.24-.31-.42-.54-.15-.16-.33-.35-.54-.57-.21-.24-.47-.49-.73-.75-.27-.25-.55-.51-.84-.72-.28-.23-.59-.4-.84-.54-.26-.16-.5-.2-.65-.25-.08-.03-.15-.03-.21-.04-.03.01-.06-.01-.09 0l-.04.01h-.02-.01c.12 0-.27.01.27-.01l-.55.02c-.14 0-.05.01-.04.01.03 0 .05 0 .07-.01.08-.03 0 0-.02 0-.03 0-.07.01-.11.03-.16.05-.4.09-.65.25-.25.14-.56.31-.84.54-.28.22-.57.47-.84.72-.52.51-.98 1.02-1.3 1.39-.33.38-.51.6-.51.6l-.23.27c-1.37 1.6-3.89 1.87-5.62.61-1.18-.86-1.69-2.2-1.47-3.48 0 0 .07-.41.27-1.12.21-.71.56-1.72 1.25-2.91.69-1.18 1.69-2.57 3.38-3.84.83-.62 1.84-1.24 3.04-1.66.29-.11.6-.21.92-.29.33-.08.59-.17 1.04-.23l.62-.09c.19-.02.47-.05.51-.05l.55-.04.31-.01h.03.06l.13.01.26.01.51.03c.34.03.67.09 1 .14.65.12 1.3.29 1.89.51 1.2.42 2.21 1.03 3.04 1.66 1.69 1.27 2.69 2.66 3.38 3.84.35.59.61 1.15.8 1.64.21.47.36.97.48 1.34.11.36.11.55.16.72.03.16.04.25.04.25.37 2.02-1.12 3.93-3.31 4.26-1.59.24-3.1-.39-3.97-1.51z"/><path d="m87.06 65.38s-.05-.07-.16-.2c-.1-.13-.24-.31-.42-.54-.15-.16-.33-.35-.54-.57-.21-.24-.47-.49-.73-.75-.27-.25-.55-.51-.84-.72-.28-.23-.59-.4-.84-.54-.26-.16-.5-.2-.65-.25-.08-.03-.15-.03-.21-.04-.03.01-.06-.01-.09 0l-.04.01h-.02-.01-.01c.12 0-.27.01.27-.01l-.55.02c-.14 0-.05.01-.04.01.03 0 .05 0 .07-.01.08-.03 0 0-.02 0-.03 0-.07.01-.11.03-.16.05-.4.09-.65.25-.25.14-.56.31-.84.54-.28.22-.57.47-.84.72-.52.51-.98 1.02-1.3 1.39-.33.38-.51.6-.51.6l-.23.27c-1.37 1.6-3.89 1.87-5.62.61-1.18-.86-1.69-2.2-1.47-3.48 0 0 .07-.41.27-1.12.21-.71.56-1.72 1.25-2.91.69-1.18 1.69-2.57 3.38-3.84.83-.62 1.84-1.24 3.04-1.66.29-.11.6-.21.92-.29.33-.08.59-.17 1.04-.23l.62-.09c.19-.02.47-.05.51-.05l.55-.04.31-.01h.03.06l.13.01.26.01.51.03c.34.03.67.09 1 .14.65.12 1.3.29 1.89.51 1.2.42 2.21 1.03 3.04 1.66 1.69 1.27 2.69 2.66 3.38 3.84.35.59.61 1.15.8 1.64.21.47.36.97.48 1.34.11.36.11.55.16.72.03.16.04.25.04.25.37 2.02-1.12 3.93-3.31 4.26-1.59.24-3.1-.39-3.96-1.51z"/></g><path d="m105.06 52.88c-.22-.03-5.56-.78-14.66-7.79-8.98-6.91-10.84-11.54-11.02-12.04l-.58-1.59 39-21.99-10.98 43.64z" fill="#ff4545"/><path d="m114.72 13.5-9.41 37.4s-4.92-.63-13.7-7.39-10.36-11.14-10.36-11.14zm6.15-8.06-8.12 4.58-33.46 18.86-2.95 1.66 1.15 3.18c.33.91 2.45 5.83 11.68 12.94 9.36 7.21 15.01 8.11 15.63 8.19l3.52.45.87-3.45 9.41-37.4z" fill="#c93737"/><g clip-path="url(#e)"><path d="m97.49-2.93h9.44v47.94h-9.44z" fill="#ff0" transform="matrix(.1415 -.9899 .9899 .1415 66.925 119.26)"/><path d="m80.85 15.24 43.5 6.22-.77 5.39-43.5-6.22zm-3.39-4.53-.57 3.96-.77 5.39-.57 3.96 3.96.57 43.5 6.22 3.96.57.57-3.96.77-5.39.57-3.96-3.96-.57-43.5-6.22z" fill="#c93737"/><path d="m96.87 7.33h9.44v47.94h-9.44z" fill="#ff0" transform="matrix(.1418 -.9899 .9899 .1418 56.2 127.43)"/><path d="m80.23 25.5 43.5 6.22-.77 5.39-43.5-6.22zm-3.4-4.53-.57 3.96-.77 5.39-.57 3.96 3.96.57 43.5 6.22 3.96.57.57-3.96.77-5.39.57-3.96-3.96-.57-43.5-6.22z" fill="#c93737"/><path d="m94.41 18.63h9.44v47.94h-9.44z" fill="#ff0" transform="matrix(.1415 -.9899 .9899 .1415 42.936 134.71)"/><path d="m77.77 36.8 43.5 6.22-.77 5.39-43.5-6.22zm-3.4-4.53-.57 3.96-.77 5.39-.57 3.96 3.96.57 43.5 6.22 3.96.57.57-3.96.77-5.39.57-3.96-3.96-.57-43.5-6.22z" fill="#c93737"/></g><path d="m114.72 13.5-33.47 18.87s1.59 4.38 10.36 11.14 13.7 7.39 13.7 7.39z" fill="#ff4545"/><g clip-path="url(#f)" fill="#ff9c9c"><path d="m80.24 18.32h43.94v5.44h-43.94z" transform="matrix(.9899 .1416 -.1416 .9899 4.0104 -14.263)"/><path d="m79.62 28.58h43.94v5.44h-43.94z" transform="matrix(.9899 .1416 -.1416 .9899 5.4573 -14.071)"/><path d="m77.16 39.88h43.94v5.44h-43.94z" transform="matrix(.9899 .1416 -.1416 .9899 7.0323 -13.609)"/></g><ellipse cx="24" cy="15" fill="#ff00a2" rx="7" ry="5"/><ellipse cx="49.56" cy="25.44" fill="#fd3b3b" rx="4.16" ry="5.5" transform="matrix(.7071 -.7071 .7071 .7071 -3.4776 42.494)"/><ellipse cx="72.53" cy="18.16" fill="#0ef" rx="8.44" ry="3.87" transform="matrix(.7908 -.612 .612 .7908 4.0562 48.192)"/><ellipse cx="22.67" cy="81.67" fill="#0048ff" rx="2.9" ry="6.5" transform="matrix(.866 -.5 .5 .866 -37.797 22.275)"/><ellipse cx="96.5" cy="110.5" fill="#f63bbe" rx="3.5" ry="5.5"/><ellipse cx="115.38" cy="57.12" fill="#0c0" rx="6.5" ry="2" transform="matrix(.8177 -.5756 .5756 .8177 -11.852 76.822)"/><ellipse cx="19.24" cy="116.04" fill="#0048ff" rx="2.5" ry="6" transform="matrix(.8361 -.5486 .5486 .8361 -60.502 29.575)"/><ellipse cx="15" cy="99" fill="#7acded" rx="6" ry="2.5" transform="matrix(.9975 -.0708 .0708 .9975 -6.9722 1.3106)"/><ellipse cx="24" cy="86.67" fill="#ff82b2" rx="7.19" ry="1.72" transform="matrix(.9978 -.0664 .0664 .9978 -5.7052 1.7861)"/><path d="m71.38 90.25.38 5.12 10.49-.11c-.03-1.5-.15-3.02-.21-4.62-5.91-.2-10.66-.39-10.66-.39z" fill="#7f0099"/><path d="m118.89 78.22c-.88-2.95-2.85-5.37-5.55-6.83-4.64-2.51-10.44-.76-12.94 3.9-2.1 3.9-.63 8.79 3.26 10.9 1.59.86 3.4 1.09 5.11.67 1.8-.45 3.27-1.59 4.13-3.2.91-1.69.84-4.07-.18-5.94-.89-1.63-2.41-2.65-4.18-2.79-1.03-.08-1.94.69-2.02 1.73s.69 1.94 1.72 2.02c.19.01.76.06 1.18.84.43.79.43 1.85.17 2.35-.46.86-1.2 1.2-1.74 1.33-.78.19-1.67.08-2.42-.33-1-.54-1.74-1.44-2.06-2.54-.33-1.09-.21-2.25.33-3.26.74-1.37 1.96-2.37 3.44-2.82s3.05-.29 4.42.45c1.82.98 3.14 2.61 3.74 4.6.59 1.98.38 4.08-.6 5.9-1.95 3.64-5.6 5.97-10.96 6.04-3.11.04-13.52-.3-21.7-.59.06 1.6.18 3.12.21 4.62l21.28-.22c6.32 0 11.5-2.51 14.48-8.07 1.44-2.7 1.76-5.81.88-8.76z" fill="url(#g)"/><path d="m63.79 81.83h-.02.16.32l.64.01c.42.02.85.04 1.28.09.86.09 1.72.23 2.62.5.9.26 1.83.61 2.76 1.26.46.28.92.72 1.33 1.15.4.49.77.99 1.01 1.59.51 1.17.69 2.31.47 3.64-.2 1.33-1.08 2.65-2.04 3.35-.96.73-1.93 1.08-2.83 1.32-.45.12-.9.2-1.34.26-.46.06-.83.09-1.4.1l.09-4.63c.65.04 1.06.11 1.58.22.49.11.98.25 1.48.44.98.38 2 .96 2.86 1.87.87.89 1.5 2.15 1.69 3.35.08.31.09.59.11.89.01.31.06.55.01.91-.04.35-.08.69-.15 1.04-.06.34-.22.69-.36 1.02-.59 1.33-1.66 2.35-2.64 2.91-.99.6-1.97.98-2.9 1.23-.94.27-1.85.43-2.75.54-.93.11-1.74.17-2.78.17-1.66-.01-2.99-1.36-2.98-3.02s1.36-2.99 3.02-2.98c.06 0 .13 0 .19.01l.08.01c1.19.09 2.71.04 3.85-.2 1.22-.21 2.05-.75 2.09-.9 0-.03.06-.03.06-.08s.01-.09.04-.13c.02-.11.04-.41.02-.55-.02-.36-.11-.59-.3-.86-.2-.26-.55-.54-1.02-.77-.23-.11-.49-.21-.77-.29-.25-.08-.61-.15-.74-.18l-.09-.02c-1.27-.27-2.07-1.52-1.8-2.78.21-.99 1.03-1.7 1.98-1.83.16-.02.5-.07.75-.13.27-.06.53-.13.77-.21.48-.16.86-.39 1.02-.56.16-.19.09-.18.09-.27.02-.02-.04-.17-.04-.27-.08-.09-.06-.24-.14-.28-.08-.15-.22-.25-.51-.41-.27-.16-.71-.3-1.2-.39-.49-.1-1.05-.15-1.63-.17-.29-.01-.59 0-.88.01l-.44.03-.33.03-.29.02c-1.66 0-3-1.34-3-3 0-1.72 1.34-3.06 3-3.06z" fill="#242424"/><circle cx="120.75" cy="6.5" fill="#c93737" r="4.78"/></svg>