<svg enable-background="new 0 0 128 128" viewBox="0 0 128 128" xmlns="http://www.w3.org/2000/svg" xmlns:xlink="http://www.w3.org/1999/xlink"><linearGradient id="a" gradientUnits="userSpaceOnUse" x1="64" x2="64" y1="20.717" y2="108.7"><stop offset=".4506" stop-color="#fee133"/><stop offset=".5441" stop-color="#fdd831"/><stop offset=".6975" stop-color="#fabf2a"/><stop offset=".837" stop-color="#f6a323"/></linearGradient><linearGradient id="b" gradientUnits="userSpaceOnUse" x1="14.615" x2="46.992" y1="115.8" y2="64.922"><stop offset=".0076054" stop-color="#f6a323"/><stop offset=".0255" stop-color="#f7a724"/><stop offset=".1452" stop-color="#fac12b"/><stop offset=".2697" stop-color="#fcd32f"/><stop offset=".4008" stop-color="#fede32"/><stop offset=".5494" stop-color="#fee133"/></linearGradient><path d="m64 120.89c-27.93 0-58-17.49-58-55.89s30.07-55.89 58-55.89c15.48 0 29.81 5.12 40.36 14.43 11.54 10.18 17.64 24.52 17.64 41.46 0 16.86-6.1 31.17-17.64 41.39-10.58 9.35-24.91 14.5-40.36 14.5z" fill="url(#a)"/><g fill="#eb8f00"><path d="m64 11.11c14.99 0 28.86 4.95 39.03 13.93 11.1 9.79 16.97 23.61 16.97 39.96 0 16.27-5.87 30.07-16.97 39.89-10.21 9.03-24.07 14-39.03 14-15.04 0-28.9-4.91-39.04-13.82-11.1-9.75-16.96-23.61-16.96-40.07 0-16.54 5.86-30.42 16.96-40.15 10.11-8.86 23.97-13.74 39.04-13.74m0-4c-31.15 0-60 20-60 57.89 0 37.68 28.85 57.89 60 57.89s60-20.73 60-57.89c0-37.37-28.85-57.89-60-57.89z"/><g stroke="#eb8f00" stroke-miterlimit="10"><path d="m39.64 10.69c-.45-.76-.52-1.67-.17-2.44.35-.76 1.05-1.28 1.98-1.45 5.29-.9 10.95.39 15.54 3.53 1.71 1.16 3.22 2.56 4.48 4.15.09.12.16.22.22.33.67 1.13.46 2.43-.52 3.25-.89.74-2.41.96-3.58-.06l.41-.68-.51.6c-4.31-3.64-9.98-5.79-15.54-5.91-.97-.02-1.82-.5-2.31-1.32z"/><path d="m90.67 18.28c.81.36 1.39 1.07 1.55 1.89s-.11 1.65-.77 2.33c-3.8 3.8-9.16 6.02-14.72 6.11-2.07.04-4.11-.23-6.06-.8-.14-.04-.26-.09-.37-.14-1.2-.53-1.78-1.72-1.45-2.95.3-1.12 1.41-2.18 2.96-2.02l.06.8.07-.79c5.62.47 11.49-1.04 16.09-4.16.79-.56 1.76-.66 2.64-.27z"/></g></g><path d="m76.11 69.49c-.32-.06-.62-.21-.87-.43-4.26-3.68-9.59-6.3-15.51-7.63-5.91-1.33-11.85-1.26-17.28.24-.32.09-.66.09-.97.01-.69-.18-1.23-.75-1.36-1.46-.13-.69.16-1.38.75-1.79 5.92-4.08 13.28-5.47 20.4-3.86 7.12 1.6 13.18 6.01 16.77 12.24.36.62.33 1.37-.09 1.94-.41.59-1.14.87-1.84.74z" fill="#242424"/><path d="m27.2 123.52c-4.08 0-7.68-1.15-11.01-3.52-6.22-4.43-7.28-11.71-8.2-18.13-.52-3.58-.11-5.85.25-7.85.38-2.12.71-3.96-.08-7.41-.18-.78-.72-2.01-1.23-3.2-1.46-3.35-3.12-7.15-1.1-9.6 1.07-1.3 2.92-2.05 5.06-2.05 1.93 0 3.77.63 5.04 1.73 2.73 2.36 4.02 4.88 5.52 10.8.61 2.42 1.45 3.15 2.78 3.66.27.11.59.16.97.16 1.51 0 4.02-.8 8.39-2.67 1.65-.71 3.75-1.73 5.97-2.82 6.85-3.36 14.62-7.16 19.91-7.16.87 0 1.67.1 2.38.31 2.45.71 4.11 2.35 4.57 4.49.45 2.14-.41 4.49-2.2 6-1.84 1.55-9.99 5.37-14.96 7.22.41.38.75.83 1.01 1.33.77 1.49.77 3.34 0 5.65-.15.44-.33.81-.52 1.11 1.43 1.78 1.81 3.93 1.1 6.25-.16.53-.38.96-.66 1.34.66.73 1.38 1.95 1.06 3.97-.75 4.69-5.75 6.16-12.67 8.19-.71.21-1.44.42-2.2.65-3.47 1.05-6.46 1.55-9.18 1.55z" fill="url(#b)"/><path d="m10.88 73.78c1.35 0 2.76.4 3.73 1.24 2.4 2.08 3.48 4.24 4.89 9.78.76 2.98 2.01 4.27 4.01 5.04.5.19 1.05.29 1.68.29 1.92 0 4.64-.89 9.18-2.82 6.48-2.76 18.54-9.82 25.09-9.82.67 0 1.28.07 1.82.23 4.08 1.19 3.94 5.09 1.63 7.04-1.59 1.34-10.65 5.64-15.59 7.31-3.56 1.2-4.25 1.6-4.21 1.87.01.07.1.09.23.09.32 0 .93-.12 1.62-.12.4 0 .83.04 1.25.17 3.2.98 2.82 3.69 2.13 5.78-.5 1.5-1.43 1.26-1.28 2.01.06.32.73.55.95.81.98 1.12 1.5 2.61.89 4.57-.17.55-.37.88-.93 1.23-.53.33-.58.76-.17 1.23.53.61 1.77 1.03 1.44 3.12-.61 3.81-5.67 4.91-13.47 7.24-3.19.96-6.01 1.45-8.58 1.45-3.7 0-6.86-1.02-9.85-3.15-5.33-3.79-6.37-9.8-7.38-16.79s1.79-8.2.13-15.42c-.69-3-4.56-8.87-2.74-11.08.73-.85 2.1-1.3 3.53-1.3m0-4c-2.74 0-5.15 1.01-6.6 2.77-2.8 3.4-.8 7.99.81 11.67.46 1.05.98 2.25 1.12 2.85.7 3.05.43 4.54.06 6.61-.37 2.04-.82 4.58-.26 8.49.99 6.82 2.1 14.55 9.03 19.48 3.68 2.61 7.66 3.89 12.17 3.89 2.91 0 6.09-.53 9.72-1.62.76-.23 1.48-.44 2.19-.65 7.34-2.16 13.14-3.86 14.09-9.8.31-1.93-.1-3.38-.68-4.42.09-.22.16-.43.22-.62.77-2.49.51-4.92-.71-7 .04-.1.07-.2.11-.31.33-.98 1.28-3.86.13-6.66 4.91-2.02 11.4-5.11 13.22-6.64 2.38-2.01 3.48-5.05 2.87-7.94-.61-2.88-2.78-5.07-5.96-6-.89-.26-1.88-.39-2.94-.39-5.76 0-13.75 3.91-20.79 7.36-2.19 1.07-4.27 2.09-5.87 2.77-2.52 1.07-6.05 2.5-7.61 2.5-.15 0-.23-.02-.25-.02-.63-.24-1.08-.41-1.56-2.29-1.43-5.64-2.72-8.85-6.15-11.82-1.64-1.41-3.95-2.21-6.36-2.21z" fill="#eb8f00"/><g fill="#242424"><path d="m80.77 31.11c4.19 0 8 3.54 8 9.42s-3.81 9.42-8 9.42-8-3.54-8-9.42 3.81-9.42 8-9.42z"/><path d="m46.14 22.03c-4.19 0-8 3.54-8 9.42s3.81 9.42 8 9.42 8-3.54 8-9.42-3.8-9.42-8-9.42z"/></g></svg>