<svg enable-background="new 0 0 128 128" viewBox="0 0 128 128" xmlns="http://www.w3.org/2000/svg" xmlns:xlink="http://www.w3.org/1999/xlink"><linearGradient id="a" gradientUnits="userSpaceOnUse" x1="64" x2="64" y1="3.1667" y2="124.88"><stop offset="0" stop-color="#ffeb3b"/><stop offset=".419" stop-color="#ffdc28"/><stop offset=".9954" stop-color="#ffc107"/></linearGradient><linearGradient id="b" gradientUnits="userSpaceOnUse"><stop offset="0" stop-color="#616161"/><stop offset=".4947" stop-color="#3f3f3f"/><stop offset="1" stop-color="#212121"/></linearGradient><linearGradient id="c" x1="90.488" x2="90.488" xlink:href="#b" y1="22.5" y2="113.37"/><linearGradient id="d" x1="37.512" x2="37.512" xlink:href="#b" y1="22.5" y2="113.37"/><linearGradient id="e" x1="64" x2="64" xlink:href="#b" y1="22.5" y2="113.37"/><circle cx="64" cy="64" fill="url(#a)" r="60"/><path d="m64 7c31.43 0 57 25.57 57 57s-25.57 57-57 57-57-25.57-57-57 25.57-57 57-57m0-3c-33.14 0-60 26.86-60 60s26.86 60 60 60 60-26.86 60-60-26.86-60-60-60z" fill="#424242" opacity=".2"/><g fill="#424242" opacity=".2"><path d="m88.13 24.37c.34 0 .68.09.98.29 12.65 8.02 21.22 21.9 21.85 37.83.04 1.02-.77 1.88-1.79 1.88h-32.66c-.87 0-1.64-.62-1.76-1.49-.39-2.83-1.87-5.31-4.01-7-.71-.57-.94-1.55-.49-2.34l16.33-28.29c.33-.57.93-.88 1.55-.88m0-3c-1.71 0-3.3.92-4.15 2.39l-16.33 28.29c-1.2 2.07-.68 4.67 1.22 6.19 1.6 1.27 2.62 3.06 2.9 5.06.32 2.33 2.36 4.08 4.74 4.08h32.66c1.29 0 2.55-.54 3.45-1.47.9-.94 1.39-2.23 1.34-3.53-.65-16.39-9.33-31.44-23.24-40.25-.78-.5-1.67-.76-2.59-.76z"/><path d="m39.87 24.37c.62 0 1.22.31 1.55.89l16.33 28.29c.46.79.23 1.77-.49 2.34-2.13 1.69-3.62 4.17-4.01 7-.12.86-.89 1.49-1.76 1.49h-32.66c-1.02 0-1.83-.86-1.79-1.88.63-15.93 9.19-29.82 21.85-37.83.3-.21.64-.3.98-.3m0-3c-.92 0-1.81.26-2.59.75-13.91 8.81-22.59 23.86-23.24 40.25-.05 1.3.44 2.59 1.34 3.53.9.93 2.15 1.47 3.45 1.47h32.66c2.38 0 4.42-1.75 4.74-4.08.27-2 1.3-3.79 2.9-5.06 1.9-1.51 2.42-4.11 1.22-6.19l-16.33-28.28c-.85-1.47-2.44-2.39-4.15-2.39z"/><path d="m68.71 74.3c.62 0 1.22.33 1.54.9l16.33 28.29c.51.89.17 2.01-.74 2.49-6.53 3.44-13.96 5.39-21.85 5.39s-15.32-1.95-21.85-5.39c-.91-.48-1.25-1.6-.74-2.49l16.35-28.29c.33-.57.92-.9 1.54-.9.22 0 .43.04.65.13 1.25.51 2.62.79 4.06.79s2.81-.28 4.06-.79c.21-.09.43-.13.65-.13m0-3c-.61 0-1.21.12-1.78.35-.93.37-1.92.57-2.93.57s-2-.19-2.93-.57c-.57-.23-1.16-.35-1.78-.35-1.7 0-3.29.92-4.14 2.4l-16.33 28.29c-.66 1.14-.82 2.46-.45 3.72.36 1.25 1.23 2.32 2.39 2.93 7.13 3.75 15.16 5.74 23.24 5.74s16.12-1.98 23.24-5.74c1.16-.61 2.03-1.68 2.39-2.93.36-1.26.2-2.58-.45-3.72l-16.33-28.29c-.86-1.48-2.44-2.4-4.14-2.4z"/><path d="m64 57.14c3.99 0 7.23 3.24 7.23 7.23s-3.24 7.23-7.23 7.23-7.23-3.24-7.23-7.23 3.24-7.23 7.23-7.23m0-3c-5.64 0-10.23 4.59-10.23 10.23s4.59 10.23 10.23 10.23 10.23-4.59 10.23-10.23-4.59-10.23-10.23-10.23z"/></g><path d="m76.51 64.37h32.66c1.02 0 1.83-.86 1.79-1.88-.63-15.93-9.19-29.82-21.85-37.83-.87-.55-2.02-.29-2.53.6l-16.33 28.29c-.46.79-.23 1.77.49 2.34 2.13 1.69 3.62 4.17 4.01 7 .11.86.89 1.48 1.76 1.48z" fill="url(#c)"/><path d="m57.75 53.55-16.33-28.29c-.51-.89-1.66-1.15-2.53-.6-12.65 8.02-21.22 21.9-21.85 37.83-.04 1.02.77 1.88 1.79 1.88h32.66c.87 0 1.64-.62 1.76-1.49.39-2.83 1.87-5.31 4.01-7 .72-.56.95-1.54.49-2.33z" fill="url(#d)"/><g fill="url(#e)"><path d="m64 75.22c-1.44 0-2.81-.28-4.06-.79-.81-.33-1.75.01-2.19.77l-16.33 28.29c-.51.89-.17 2.01.74 2.49 6.53 3.44 13.96 5.39 21.85 5.39s15.32-1.95 21.85-5.39c.91-.48 1.25-1.6.74-2.49l-16.35-28.29c-.44-.76-1.37-1.11-2.19-.77-1.25.5-2.62.79-4.06.79z"/><circle cx="64" cy="64.37" r="7.23"/></g></svg>