<?xml version="1.0" encoding="UTF-8"?>
<svg xmlns="http://www.w3.org/2000/svg" xmlns:xlink="http://www.w3.org/1999/xlink" width="16pt" height="16pt" viewBox="0 0 16 16" version="1.1">
<defs>
<linearGradient id="linear0" gradientUnits="userSpaceOnUse" x1="17.181" y1="71.738" x2="45.393" y2="73.757" gradientTransform="matrix(0.125,0,0,0.125,0,0)">
<stop offset="0" style="stop-color:rgb(100%,23.921569%,16.470588%);stop-opacity:1;"/>
<stop offset="0.0408" style="stop-color:rgb(96.470588%,20.392157%,14.117647%);stop-opacity:1;"/>
<stop offset="0.1741" style="stop-color:rgb(86.666667%,11.372549%,7.843137%);stop-opacity:1;"/>
<stop offset="0.3141" style="stop-color:rgb(80%,5.098039%,3.529412%);stop-opacity:1;"/>
<stop offset="0.4638" style="stop-color:rgb(75.686275%,1.176471%,0.784314%);stop-opacity:1;"/>
<stop offset="0.6404" style="stop-color:rgb(74.509804%,0%,0%);stop-opacity:1;"/>
<stop offset="0.9902" style="stop-color:rgb(100%,8.235294%,0%);stop-opacity:1;"/>
</linearGradient>
<linearGradient id="linear1" gradientUnits="userSpaceOnUse" x1="5.4463" y1="156.28" x2="33.749" y2="158.3" gradientTransform="matrix(0.123237,-0.0209,0.0209,0.123237,0.975687,-8.913125)">
<stop offset="0" style="stop-color:rgb(100%,23.921569%,16.470588%);stop-opacity:1;"/>
<stop offset="0.0408" style="stop-color:rgb(96.470588%,20.392157%,14.117647%);stop-opacity:1;"/>
<stop offset="0.1741" style="stop-color:rgb(86.666667%,11.372549%,7.843137%);stop-opacity:1;"/>
<stop offset="0.3141" style="stop-color:rgb(80%,5.098039%,3.529412%);stop-opacity:1;"/>
<stop offset="0.4638" style="stop-color:rgb(75.686275%,1.176471%,0.784314%);stop-opacity:1;"/>
<stop offset="0.6404" style="stop-color:rgb(74.509804%,0%,0%);stop-opacity:1;"/>
<stop offset="0.9902" style="stop-color:rgb(100%,8.235294%,0%);stop-opacity:1;"/>
</linearGradient>
<linearGradient id="linear2" gradientUnits="userSpaceOnUse" x1="64.886" y1="78.777" x2="93.097" y2="80.796" gradientTransform="matrix(0.125,0,0,0.125,0,0)">
<stop offset="0" style="stop-color:rgb(100%,23.921569%,16.470588%);stop-opacity:1;"/>
<stop offset="0.0408" style="stop-color:rgb(96.470588%,20.392157%,14.117647%);stop-opacity:1;"/>
<stop offset="0.1741" style="stop-color:rgb(86.666667%,11.372549%,7.843137%);stop-opacity:1;"/>
<stop offset="0.3141" style="stop-color:rgb(80%,5.098039%,3.529412%);stop-opacity:1;"/>
<stop offset="0.4638" style="stop-color:rgb(75.686275%,1.176471%,0.784314%);stop-opacity:1;"/>
<stop offset="0.6404" style="stop-color:rgb(74.509804%,0%,0%);stop-opacity:1;"/>
<stop offset="0.9902" style="stop-color:rgb(100%,8.235294%,0%);stop-opacity:1;"/>
</linearGradient>
<linearGradient id="linear3" gradientUnits="userSpaceOnUse" x1="76.479" y1="68.922" x2="104.69" y2="70.941" gradientTransform="matrix(0.125,0,0,0.125,0,0)">
<stop offset="0" style="stop-color:rgb(100%,23.921569%,16.470588%);stop-opacity:1;"/>
<stop offset="0.0408" style="stop-color:rgb(96.470588%,20.392157%,14.117647%);stop-opacity:1;"/>
<stop offset="0.1741" style="stop-color:rgb(86.666667%,11.372549%,7.843137%);stop-opacity:1;"/>
<stop offset="0.3141" style="stop-color:rgb(80%,5.098039%,3.529412%);stop-opacity:1;"/>
<stop offset="0.4638" style="stop-color:rgb(75.686275%,1.176471%,0.784314%);stop-opacity:1;"/>
<stop offset="0.6404" style="stop-color:rgb(74.509804%,0%,0%);stop-opacity:1;"/>
<stop offset="0.9902" style="stop-color:rgb(100%,8.235294%,0%);stop-opacity:1;"/>
</linearGradient>
<linearGradient id="linear4" gradientUnits="userSpaceOnUse" x1="93.584" y1="54.139" x2="121.8" y2="56.158" gradientTransform="matrix(0.125,0,0,0.125,0,0)">
<stop offset="0" style="stop-color:rgb(100%,23.921569%,16.470588%);stop-opacity:1;"/>
<stop offset="0.0408" style="stop-color:rgb(96.470588%,20.392157%,14.117647%);stop-opacity:1;"/>
<stop offset="0.1741" style="stop-color:rgb(86.666667%,11.372549%,7.843137%);stop-opacity:1;"/>
<stop offset="0.3141" style="stop-color:rgb(80%,5.098039%,3.529412%);stop-opacity:1;"/>
<stop offset="0.4638" style="stop-color:rgb(75.686275%,1.176471%,0.784314%);stop-opacity:1;"/>
<stop offset="0.6404" style="stop-color:rgb(74.509804%,0%,0%);stop-opacity:1;"/>
<stop offset="0.9902" style="stop-color:rgb(100%,8.235294%,0%);stop-opacity:1;"/>
</linearGradient>
<linearGradient id="linear5" gradientUnits="userSpaceOnUse" x1="21.124" y1="39.244" x2="124.08" y2="39.244" gradientTransform="matrix(0.124875,0.005625,-0.005625,0.124875,-0.847675,2.119875)">
<stop offset="0.0049261" style="stop-color:rgb(98.431373%,75.294118%,17.647059%);stop-opacity:1;"/>
<stop offset="0.0811" style="stop-color:rgb(98.823529%,79.215686%,18.823529%);stop-opacity:1;"/>
<stop offset="0.2088" style="stop-color:rgb(99.215686%,83.529412%,20.392157%);stop-opacity:1;"/>
<stop offset="0.3596" style="stop-color:rgb(99.215686%,84.705882%,20.784314%);stop-opacity:1;"/>
<stop offset="0.6897" style="stop-color:rgb(100%,96.078431%,61.568627%);stop-opacity:1;"/>
<stop offset="1" style="stop-color:rgb(99.215686%,84.705882%,20.784314%);stop-opacity:1;"/>
</linearGradient>
<linearGradient id="linear6" gradientUnits="userSpaceOnUse" x1="9.7318" y1="67.527" x2="74.285" y2="67.527" gradientTransform="matrix(0.125,0,0,0.125,0,0)">
<stop offset="0" style="stop-color:rgb(100%,75.294118%,26.666667%);stop-opacity:1;"/>
<stop offset="0.8473" style="stop-color:rgb(85.098039%,37.254902%,13.72549%);stop-opacity:1;"/>
</linearGradient>
<linearGradient id="linear7" gradientUnits="userSpaceOnUse" x1="10.014" y1="44.887" x2="117.79" y2="44.887" gradientTransform="matrix(0.125,0,0,0.125,0,0)">
<stop offset="0" style="stop-color:rgb(100%,94.901961%,85.098039%);stop-opacity:1;"/>
<stop offset="0.8473" style="stop-color:rgb(96.862745%,82.745098%,59.607843%);stop-opacity:1;"/>
</linearGradient>
<linearGradient id="linear8" gradientUnits="userSpaceOnUse" x1="72.836" y1="59.201" x2="118.4" y2="59.201" gradientTransform="matrix(0.125,0,0,0.125,0,0)">
<stop offset="0" style="stop-color:rgb(100%,69.803922%,9.803922%);stop-opacity:1;"/>
<stop offset="0.8473" style="stop-color:rgb(79.215686%,26.27451%,0%);stop-opacity:1;"/>
</linearGradient>
<filter id="alpha" filterUnits="objectBoundingBox" x="0%" y="0%" width="100%" height="100%">
  <feColorMatrix type="matrix" in="SourceGraphic" values="0 0 0 0 1 0 0 0 0 1 0 0 0 0 1 0 0 0 1 0"/>
</filter>
<mask id="mask0">
  <g filter="url(#alpha)">
<rect x="0" y="0" width="16" height="16" style="fill:rgb(0%,0%,0%);fill-opacity:0.2;stroke:none;"/>
  </g>
</mask>
<clipPath id="clip1">
  <rect x="0" y="0" width="16" height="16"/>
</clipPath>
<g id="surface5" clip-path="url(#clip1)">
<path style=" stroke:none;fill-rule:nonzero;fill:rgb(25.882353%,25.882353%,25.882353%);fill-opacity:1;" d="M 7.117188 2.320312 C 7.3125 2.320312 7.542969 2.382812 7.863281 2.46875 C 7.945312 2.492188 8.03125 2.515625 8.125 2.542969 C 8.371094 2.605469 9.160156 2.839844 10.070312 3.109375 C 11.644531 3.578125 13.425781 4.109375 13.871094 4.203125 C 14.050781 4.242188 14.25 4.285156 14.332031 4.320312 C 14.332031 4.324219 14.335938 4.332031 14.335938 4.339844 C 14.335938 4.378906 14.34375 4.417969 14.355469 4.453125 C 14.371094 4.691406 14.382812 4.933594 14.390625 5.179688 C 14.390625 5.230469 14.394531 5.28125 14.398438 5.339844 C 14.40625 5.453125 14.417969 5.621094 14.402344 5.714844 C 14.398438 5.722656 14.390625 5.734375 14.378906 5.746094 C 14.296875 5.84375 14.265625 5.972656 14.296875 6.097656 C 14.328125 6.222656 14.417969 6.320312 14.539062 6.363281 C 14.640625 6.402344 14.726562 6.445312 14.796875 6.488281 C 14.84375 6.515625 14.890625 6.535156 14.941406 6.542969 L 14.941406 6.550781 C 14.941406 6.578125 14.945312 6.597656 14.949219 6.621094 L 14.949219 6.625 C 14.949219 6.648438 14.949219 6.671875 14.949219 6.695312 C 14.957031 6.761719 14.96875 6.851562 15.011719 6.949219 C 15.027344 6.988281 15.046875 7.023438 15.070312 7.058594 C 15 7.113281 14.945312 7.199219 14.925781 7.292969 C 14.910156 7.386719 14.925781 7.480469 14.972656 7.5625 C 14.824219 7.609375 14.699219 7.714844 14.632812 7.863281 C 14.5625 8.015625 14.554688 8.191406 14.621094 8.351562 C 14.671875 8.480469 14.757812 8.585938 14.859375 8.671875 C 14.832031 8.714844 14.800781 8.746094 14.789062 8.75 C 14.625 8.808594 14.515625 8.96875 14.53125 9.144531 C 14.546875 9.371094 14.558594 9.613281 14.570312 9.882812 C 14.570312 9.933594 14.574219 9.988281 14.578125 10.046875 C 14.585938 10.160156 14.597656 10.328125 14.582031 10.421875 C 14.277344 10.804688 12.003906 12.988281 11.289062 13.511719 C 11.105469 13.648438 10.902344 13.800781 10.703125 13.953125 C 10.253906 14.296875 9.648438 14.753906 9.359375 14.890625 L 9.335938 14.890625 C 9.226562 14.890625 9.109375 14.84375 8.867188 14.742188 C 8.675781 14.660156 8.417969 14.550781 8.050781 14.429688 C 7.675781 14.304688 6.996094 14.097656 6.210938 13.855469 C 4.742188 13.40625 2.328125 12.660156 1.859375 12.433594 C 1.8125 12.289062 1.804688 11.929688 1.796875 11.636719 C 1.792969 11.523438 1.792969 11.40625 1.785156 11.285156 C 1.785156 11.222656 1.792969 11.167969 1.804688 11.109375 C 1.816406 11.074219 1.832031 11.039062 1.851562 11 C 1.929688 10.851562 1.90625 10.667969 1.789062 10.546875 L 1.78125 10.539062 C 1.773438 10.53125 1.765625 10.523438 1.757812 10.515625 C 1.746094 10.5 1.734375 10.488281 1.730469 10.480469 C 1.730469 10.480469 1.730469 10.476562 1.730469 10.476562 C 1.734375 10.472656 1.761719 10.445312 1.890625 10.328125 C 1.910156 10.308594 1.925781 10.289062 1.941406 10.269531 C 1.964844 10.253906 1.984375 10.238281 2.003906 10.222656 L 2.105469 10.132812 C 2.234375 10.011719 2.269531 9.8125 2.183594 9.65625 C 2.113281 9.527344 1.980469 9.453125 1.839844 9.453125 C 1.816406 9.453125 1.789062 9.457031 1.761719 9.460938 C 1.742188 9.441406 1.722656 9.421875 1.699219 9.402344 C 1.765625 9.28125 1.765625 9.132812 1.695312 9.015625 C 1.566406 8.789062 1.332031 8.644531 1.082031 8.644531 C 1.058594 8.613281 1.03125 8.582031 0.996094 8.5625 L 0.996094 8.558594 L 1.1875 8.351562 C 1.207031 8.328125 1.226562 8.300781 1.242188 8.273438 C 1.316406 8.269531 1.390625 8.253906 1.464844 8.226562 C 1.660156 8.148438 1.757812 7.933594 1.691406 7.734375 C 1.636719 7.582031 1.628906 7.273438 1.621094 6.921875 C 1.617188 6.8125 1.613281 6.699219 1.609375 6.578125 C 1.609375 6.519531 1.613281 6.460938 1.628906 6.40625 C 1.714844 6.109375 2.03125 5.945312 2.03125 5.945312 C 2.058594 5.933594 2.082031 5.917969 2.109375 5.898438 C 2.136719 5.875 5.007812 3.539062 6.070312 2.75 C 6.144531 2.703125 6.539062 2.472656 6.882812 2.355469 C 6.957031 2.332031 7.03125 2.320312 7.117188 2.320312 M 7.117188 1.929688 C 6.996094 1.929688 6.875 1.945312 6.753906 1.988281 C 6.324219 2.136719 5.851562 2.429688 5.851562 2.429688 C 4.78125 3.222656 1.859375 5.597656 1.859375 5.597656 C 1.859375 5.597656 1.386719 5.824219 1.253906 6.300781 C 1.226562 6.390625 1.214844 6.488281 1.21875 6.59375 C 1.238281 7.160156 1.226562 7.597656 1.320312 7.863281 C 1.28125 7.878906 1.246094 7.886719 1.207031 7.886719 C 1.113281 7.886719 1.007812 7.839844 0.851562 7.769531 C 0.808594 7.828125 0.777344 7.894531 0.757812 7.964844 C 0.800781 8.015625 0.847656 8.050781 0.894531 8.089844 C 0.816406 8.175781 0.734375 8.265625 0.65625 8.355469 C 0.617188 8.292969 0.558594 8.25 0.496094 8.246094 C 0.484375 8.472656 0.472656 8.699219 0.460938 8.921875 C 0.5 8.9375 0.539062 8.945312 0.578125 8.945312 C 0.644531 8.945312 0.710938 8.921875 0.769531 8.882812 C 0.722656 9.074219 0.773438 9.296875 0.902344 9.421875 C 1.003906 9.339844 1.074219 9.191406 1.078125 9.035156 C 1.1875 9.035156 1.292969 9.105469 1.355469 9.210938 C 1.28125 9.328125 1.203125 9.445312 1.128906 9.5625 C 1.179688 9.667969 1.277344 9.734375 1.375 9.734375 C 1.40625 9.734375 1.433594 9.730469 1.460938 9.71875 C 1.496094 9.835938 1.554688 9.945312 1.625 10.042969 C 1.523438 10.132812 1.460938 10.195312 1.441406 10.214844 C 1.265625 10.414062 1.285156 10.570312 1.460938 10.773438 C 1.472656 10.789062 1.488281 10.804688 1.503906 10.824219 C 1.476562 10.878906 1.449219 10.941406 1.429688 11.011719 C 1.402344 11.097656 1.390625 11.195312 1.394531 11.300781 C 1.417969 11.976562 1.394531 12.476562 1.558594 12.710938 C 1.726562 12.945312 6.644531 14.382812 7.925781 14.808594 C 8.753906 15.082031 8.996094 15.289062 9.332031 15.289062 C 9.34375 15.289062 9.359375 15.289062 9.367188 15.285156 C 9.371094 15.296875 9.375 15.304688 9.378906 15.304688 C 9.785156 15.1875 10.757812 14.390625 11.519531 13.832031 C 12.277344 13.273438 14.867188 10.792969 14.941406 10.585938 C 15.007812 10.390625 14.964844 10.082031 14.957031 9.875 C 14.949219 9.625 14.9375 9.371094 14.917969 9.121094 C 15.089844 9.0625 15.234375 8.871094 15.269531 8.652344 C 15.277344 8.597656 15.285156 8.539062 15.277344 8.480469 C 15.109375 8.410156 14.894531 8.222656 14.984375 8.03125 C 15.015625 7.960938 15.078125 7.929688 15.144531 7.929688 C 15.1875 7.929688 15.230469 7.941406 15.265625 7.96875 C 15.359375 8.03125 15.417969 8.148438 15.472656 8.261719 C 15.628906 7.980469 15.546875 7.542969 15.308594 7.371094 C 15.496094 7.328125 15.640625 7.089844 15.625 6.855469 C 15.605469 6.898438 15.570312 6.921875 15.53125 6.921875 C 15.46875 6.921875 15.398438 6.871094 15.367188 6.800781 C 15.351562 6.757812 15.34375 6.710938 15.335938 6.660156 C 15.339844 6.652344 15.339844 6.640625 15.339844 6.632812 C 15.339844 6.605469 15.335938 6.578125 15.332031 6.550781 C 15.332031 6.503906 15.328125 6.457031 15.328125 6.414062 C 15.320312 6.28125 15.265625 6.132812 15.160156 6.113281 C 15.152344 6.109375 15.144531 6.109375 15.140625 6.109375 C 15.089844 6.109375 15.046875 6.136719 15.003906 6.160156 C 14.910156 6.101562 14.796875 6.046875 14.671875 6.003906 C 14.722656 5.941406 14.753906 5.898438 14.761719 5.878906 C 14.828125 5.679688 14.785156 5.375 14.777344 5.167969 C 14.765625 4.847656 14.753906 4.523438 14.722656 4.203125 C 14.726562 4.25 14.726562 4.289062 14.722656 4.332031 C 14.714844 3.988281 14.53125 3.949219 13.949219 3.824219 C 13.261719 3.675781 8.890625 2.34375 8.226562 2.167969 C 7.75 2.039062 7.421875 1.929688 7.117188 1.929688 Z M 1.738281 9.9375 C 1.734375 9.917969 1.734375 9.894531 1.734375 9.875 C 1.765625 9.863281 1.800781 9.855469 1.835938 9.847656 C 1.800781 9.878906 1.769531 9.910156 1.738281 9.9375 Z M 1.738281 9.9375 "/>
</g>
</defs>
<g id="surface1">
<path style=" stroke:none;fill-rule:nonzero;fill:rgb(87.45098%,53.333333%,14.901961%);fill-opacity:1;" d="M 9.28125 13.984375 C 8.925781 13.632812 8.460938 13.546875 7.964844 13.367188 C 6.539062 12.972656 5.21875 12.664062 3.828125 12.09375 C 3.4375 11.960938 3.046875 11.917969 2.652344 11.828125 C 2.1875 11.691406 1.761719 11.425781 1.429688 11.007812 C 1.402344 11.097656 1.390625 11.195312 1.394531 11.300781 C 1.417969 11.976562 1.394531 12.476562 1.558594 12.707031 C 1.726562 12.945312 6.644531 14.378906 7.925781 14.804688 C 8.820312 15.101562 9.03125 15.320312 9.414062 15.28125 C 9.367188 14.789062 9.625 14.320312 9.28125 13.984375 Z M 9.28125 13.984375 "/>
<path style=" stroke:none;fill-rule:nonzero;fill:rgb(96.470588%,85.098039%,64.313725%);fill-opacity:1;" d="M 14.890625 9.265625 C 14.949219 8.707031 14.816406 8.675781 14.128906 8.53125 C 13.441406 8.382812 9.070312 7.046875 8.402344 6.871094 C 7.738281 6.695312 7.359375 6.550781 6.929688 6.695312 C 6.503906 6.84375 6.027344 7.136719 6.027344 7.136719 C 4.960938 7.929688 2.039062 10.304688 2.039062 10.304688 C 2.039062 10.304688 1.566406 10.53125 1.429688 11.007812 C 1.765625 11.425781 2.1875 11.691406 2.65625 11.828125 C 3.046875 11.917969 3.441406 11.960938 3.832031 12.09375 C 5.222656 12.664062 6.542969 12.972656 7.964844 13.367188 C 8.445312 13.539062 8.945312 13.679688 9.296875 14 C 9.4375 13.847656 9.675781 13.882812 9.828125 13.742188 C 14.476562 10.046875 14.886719 9.292969 14.890625 9.265625 Z M 14.890625 9.265625 "/>
<path style=" stroke:none;fill-rule:nonzero;fill:rgb(84.313725%,38.431373%,3.137255%);fill-opacity:1;" d="M 9.78125 13.605469 C 9.628906 13.742188 9.28125 13.960938 9.28125 13.984375 C 9.328125 14.449219 9.339844 15.316406 9.378906 15.304688 C 9.785156 15.1875 10.757812 14.390625 11.519531 13.832031 C 12.277344 13.273438 14.867188 10.792969 14.941406 10.585938 C 15.007812 10.386719 14.964844 10.078125 14.957031 9.871094 C 14.945312 9.550781 14.933594 9.230469 14.902344 8.910156 C 14.933594 9.238281 14.71875 9.457031 14.535156 9.628906 C 13.039062 11.027344 11.523438 12.199219 9.78125 13.605469 Z M 9.78125 13.605469 "/>
<path style=" stroke:none;fill-rule:nonzero;fill:rgb(91.764706%,54.117647%,46.666667%);fill-opacity:1;" d="M 1.441406 10.214844 C 1.265625 10.414062 1.285156 10.570312 1.460938 10.773438 C 1.785156 11.15625 2.691406 11.625 4.007812 11.710938 C 5.324219 11.800781 6.503906 11.367188 7.515625 9.277344 C 8.53125 7.1875 6.183594 5.933594 6.183594 5.933594 C 6.183594 5.933594 1.621094 10.019531 1.441406 10.214844 Z M 1.441406 10.214844 "/>
<path style=" stroke:none;fill-rule:nonzero;fill:rgb(65.490196%,18.039216%,9.411765%);fill-opacity:1;" d="M 1.632812 10.320312 C 1.433594 10.503906 1.597656 10.980469 3.84375 11.433594 C 3.84375 11.433594 3.046875 10.757812 2.523438 10.4375 C 2 10.113281 1.824219 10.140625 1.632812 10.320312 Z M 1.632812 10.320312 "/>
<path style=" stroke:none;fill-rule:nonzero;fill:rgb(91.764706%,65.882353%,55.686275%);fill-opacity:1;" d="M 3.617188 10.832031 C 3.4375 11.03125 3.460938 11.1875 3.632812 11.390625 C 3.960938 11.769531 4.863281 12.238281 6.179688 12.328125 C 7.5 12.417969 8.675781 11.984375 9.691406 9.894531 C 10.707031 7.804688 8.355469 6.550781 8.355469 6.550781 C 8.355469 6.550781 3.796875 10.636719 3.617188 10.832031 Z M 3.617188 10.832031 "/>
<path style=" stroke:none;fill-rule:nonzero;fill:rgb(65.490196%,18.039216%,9.411765%);fill-opacity:1;" d="M 3.804688 10.933594 C 3.609375 11.117188 3.769531 11.59375 6.015625 12.050781 C 6.015625 12.050781 5.21875 11.375 4.699219 11.050781 C 4.175781 10.730469 3.996094 10.757812 3.804688 10.933594 Z M 3.804688 10.933594 "/>
<path style=" stroke:none;fill-rule:nonzero;fill:rgb(91.764706%,54.117647%,46.666667%);fill-opacity:1;" d="M 6.195312 11.585938 C 5.996094 11.804688 6.023438 11.980469 6.214844 12.207031 C 6.578125 12.632812 7.585938 13.152344 9.054688 13.253906 C 10.523438 13.351562 11.832031 12.867188 12.964844 10.539062 C 14.097656 8.210938 11.476562 6.816406 11.476562 6.816406 C 11.476562 6.816406 6.394531 11.363281 6.195312 11.585938 Z M 6.195312 11.585938 "/>
<path style=" stroke:none;fill-rule:nonzero;fill:rgb(65.490196%,18.039216%,9.411765%);fill-opacity:1;" d="M 6.410156 11.699219 C 6.1875 11.902344 6.367188 12.433594 8.871094 12.941406 C 8.871094 12.941406 7.984375 12.1875 7.402344 11.828125 C 6.820312 11.46875 6.621094 11.503906 6.410156 11.699219 Z M 6.410156 11.699219 "/>
<path style=" stroke:none;fill-rule:nonzero;fill:rgb(60.392157%,73.72549%,0%);fill-opacity:1;" d="M 15.308594 7.371094 C 15.496094 7.324219 15.640625 7.089844 15.625 6.855469 C 15.574219 6.96875 15.417969 6.917969 15.367188 6.800781 C 15.320312 6.683594 15.335938 6.546875 15.328125 6.414062 C 15.320312 6.28125 15.265625 6.132812 15.160156 6.113281 C 15.070312 6.097656 14.992188 6.183594 14.902344 6.207031 C 14.605469 6.289062 14.40625 5.644531 14.109375 5.738281 C 14.027344 5.765625 13.964844 5.84375 13.898438 5.910156 C 13.589844 6.210938 13.148438 6.234375 12.765625 6.117188 C 12.382812 6 12.03125 5.761719 11.664062 5.578125 C 11.46875 5.484375 11.269531 5.402344 11.066406 5.335938 C 11.703125 6.617188 12.289062 7.9375 13.5 8.394531 C 13.980469 8.558594 14.636719 8.664062 15.269531 8.652344 C 15.277344 8.597656 15.285156 8.539062 15.277344 8.480469 C 15.109375 8.410156 14.894531 8.222656 14.984375 8.03125 C 15.035156 7.917969 15.171875 7.902344 15.265625 7.96875 C 15.359375 8.03125 15.417969 8.148438 15.472656 8.261719 C 15.628906 7.980469 15.546875 7.542969 15.308594 7.371094 Z M 15.308594 7.371094 "/>
<path style=" stroke:none;fill-rule:nonzero;fill:rgb(60.392157%,73.72549%,0%);fill-opacity:1;" d="M 2.46875 6.929688 C 2.164062 7.171875 1.859375 7.421875 1.566406 7.691406 C 1.269531 7.960938 1.1875 7.921875 0.851562 7.769531 C 0.808594 7.828125 0.777344 7.894531 0.757812 7.96875 C 0.800781 8.015625 0.847656 8.050781 0.894531 8.089844 C 0.816406 8.179688 0.734375 8.265625 0.65625 8.355469 C 0.617188 8.292969 0.558594 8.25 0.496094 8.246094 C 0.484375 8.472656 0.472656 8.699219 0.460938 8.921875 C 0.5625 8.960938 0.675781 8.949219 0.769531 8.882812 C 0.71875 9.074219 0.773438 9.300781 0.898438 9.425781 C 1.003906 9.339844 1.074219 9.191406 1.078125 9.039062 C 1.183594 9.035156 1.292969 9.105469 1.355469 9.210938 C 1.28125 9.328125 1.203125 9.445312 1.128906 9.5625 C 1.191406 9.699219 1.339844 9.769531 1.460938 9.71875 C 1.519531 9.910156 1.625 10.078125 1.757812 10.195312 C 1.75 10.089844 1.738281 9.984375 1.734375 9.875 C 1.835938 9.847656 1.945312 9.820312 2.046875 9.789062 C 2.042969 9.929688 2.035156 10.082031 2.09375 10.207031 C 2.152344 10.328125 2.296875 10.398438 2.386719 10.304688 C 2.351562 10.472656 2.425781 10.640625 2.539062 10.75 C 2.703125 8.945312 3.335938 7.324219 4.042969 5.734375 C 3.515625 6.125 2.984375 6.515625 2.46875 6.929688 Z M 2.46875 6.929688 "/>
<path style=" stroke:none;fill-rule:nonzero;fill:rgb(77.647059%,83.529412%,0%);fill-opacity:1;" d="M 7.117188 5.171875 C 6.601562 4.996094 6.09375 4.785156 5.570312 4.875 C 5.121094 4.949219 4.71875 5.238281 4.328125 5.523438 C 4.234375 5.59375 4.140625 5.664062 4.042969 5.734375 C 3.339844 7.324219 2.703125 8.945312 2.539062 10.746094 C 2.574219 10.78125 2.613281 10.804688 2.652344 10.824219 C 2.820312 10.902344 3.011719 10.875 3.191406 10.839844 C 3.246094 10.675781 3.1875 10.488281 3.183594 10.308594 C 3.179688 10.132812 3.320312 9.917969 3.445312 10.007812 C 3.359375 10.339844 3.640625 10.628906 3.886719 10.804688 C 3.976562 10.867188 4.078125 10.9375 4.179688 10.902344 C 4.226562 10.886719 4.265625 10.851562 4.3125 10.839844 C 4.511719 10.796875 4.585938 11.171875 4.773438 11.265625 C 4.964844 11.359375 5.15625 10.96875 5 10.800781 C 5.226562 10.640625 5.464844 10.996094 5.574219 11.292969 C 5.648438 11.5 5.785156 11.734375 5.941406 11.800781 C 7.109375 10.136719 7.132812 7.496094 7.117188 5.171875 Z M 7.117188 5.171875 "/>
<path style=" stroke:none;fill-rule:nonzero;fill:rgb(60.392157%,73.72549%,0%);fill-opacity:1;" d="M 11.617188 11.882812 C 11.488281 11.839844 11.375 11.714844 11.363281 11.554688 L 11.363281 11.550781 C 11.269531 11.417969 11.1875 11.285156 11.125 11.171875 C 10.144531 9.058594 9.0625 7.207031 7.941406 5.363281 C 7.660156 5.34375 7.386719 5.261719 7.117188 5.171875 C 7.132812 7.496094 7.109375 10.136719 5.941406 11.800781 C 6.007812 11.828125 6.074219 11.828125 6.144531 11.777344 C 6.101562 11.632812 6.265625 11.515625 6.390625 11.542969 C 6.511719 11.570312 6.625 11.667969 6.75 11.671875 C 6.941406 11.671875 7.09375 11.378906 7.011719 11.164062 C 7.152344 11.007812 7.375 11.144531 7.496094 11.324219 C 7.613281 11.5 7.710938 11.730469 7.886719 11.796875 C 8.035156 11.859375 8.195312 11.785156 8.347656 11.746094 C 8.5 11.703125 8.691406 11.71875 8.769531 11.882812 C 8.828125 11.996094 8.816406 12.148438 8.886719 12.242188 C 8.957031 12.34375 9.082031 12.339844 9.191406 12.359375 C 9.429688 12.414062 9.621094 12.632812 9.835938 12.78125 C 10.046875 12.929688 10.351562 12.988281 10.511719 12.761719 C 10.367188 12.613281 10.378906 12.292969 10.53125 12.15625 C 10.683594 12.019531 10.929688 12.109375 11 12.328125 C 11.019531 12.390625 11.027344 12.460938 11.066406 12.511719 C 11.140625 12.609375 11.269531 12.558594 11.359375 12.484375 C 11.507812 12.359375 11.625 12.175781 11.695312 11.96875 C 11.667969 11.941406 11.644531 11.910156 11.617188 11.882812 Z M 11.617188 11.882812 "/>
<path style=" stroke:none;fill-rule:nonzero;fill:rgb(60.392157%,73.72549%,0%);fill-opacity:1;" d="M 11.617188 11.882812 C 11.640625 11.910156 11.667969 11.941406 11.691406 11.96875 C 11.703125 11.945312 11.710938 11.921875 11.71875 11.894531 C 11.6875 11.898438 11.652344 11.890625 11.617188 11.882812 Z M 11.617188 11.882812 "/>
<path style=" stroke:none;fill-rule:nonzero;fill:rgb(60.392157%,73.72549%,0%);fill-opacity:1;" d="M 9.308594 5.1875 C 8.863281 5.25 8.421875 5.390625 7.972656 5.367188 C 7.960938 5.367188 7.953125 5.363281 7.941406 5.363281 C 9.0625 7.207031 10.144531 9.058594 11.125 11.171875 C 11.1875 11.289062 11.269531 11.421875 11.363281 11.550781 C 11.351562 11.347656 11.558594 11.164062 11.695312 11.277344 C 11.613281 11.074219 11.527344 10.855469 11.546875 10.628906 C 11.5625 10.398438 11.730469 10.175781 11.910156 10.21875 C 12.089844 10.265625 12.199219 10.542969 12.382812 10.546875 C 12.480469 10.546875 12.554688 10.472656 12.628906 10.382812 C 12.476562 8.613281 10.78125 6.859375 9.777344 5.148438 C 9.625 5.152344 9.464844 5.164062 9.308594 5.1875 Z M 9.308594 5.1875 "/>
<path style=" stroke:none;fill-rule:nonzero;fill:rgb(47.843137%,55.686275%,0%);fill-opacity:1;" d="M 13.5 8.394531 C 12.289062 7.933594 11.703125 6.617188 11.066406 5.335938 C 10.648438 5.203125 10.214844 5.140625 9.78125 5.148438 C 10.78125 6.859375 12.476562 8.613281 12.632812 10.382812 C 12.734375 10.265625 12.828125 10.121094 12.964844 10.121094 C 13.046875 10.125 13.128906 10.183594 13.207031 10.15625 C 13.335938 10.113281 13.363281 9.886719 13.484375 9.816406 C 13.636719 9.722656 13.859375 9.933594 13.976562 9.78125 C 14.082031 9.636719 13.929688 9.421875 13.796875 9.320312 C 13.730469 9.078125 14 8.886719 14.203125 8.933594 C 14.410156 8.980469 14.59375 9.140625 14.800781 9.144531 C 15.023438 9.144531 15.222656 8.917969 15.269531 8.652344 C 14.636719 8.660156 13.980469 8.554688 13.5 8.394531 Z M 13.5 8.394531 "/>
<path style=" stroke:none;fill-rule:nonzero;fill:url(#linear0);" d="M 5.792969 9.085938 C 5.792969 8.488281 4.910156 8.003906 3.824219 8.003906 C 2.738281 8.003906 1.859375 8.488281 1.859375 9.085938 C 1.859375 9.6875 2.738281 10.171875 3.824219 10.171875 C 4.910156 10.171875 5.792969 9.6875 5.792969 9.085938 Z M 5.792969 9.085938 "/>
<path style=" stroke:none;fill-rule:nonzero;fill:rgb(89.411765%,25.098039%,0%);fill-opacity:1;" d="M 5.789062 8.828125 C 5.789062 8.371094 4.933594 8 3.878906 8 C 2.820312 8 1.964844 8.371094 1.964844 8.828125 C 1.964844 9.289062 2.820312 9.660156 3.878906 9.660156 C 4.933594 9.660156 5.789062 9.289062 5.789062 8.828125 Z M 5.789062 8.828125 "/>
<path style=" stroke:none;fill-rule:nonzero;fill:rgb(53.72549%,7.45098%,0.392157%);fill-opacity:1;" d="M 5.789062 8.71875 C 5.789062 8.324219 4.980469 8 3.980469 8 C 2.976562 8 2.167969 8.324219 2.167969 8.71875 C 2.167969 9.117188 2.976562 9.4375 3.980469 9.4375 C 4.980469 9.4375 5.789062 9.117188 5.789062 8.71875 Z M 5.789062 8.71875 "/>
<path style=" stroke:none;fill-rule:nonzero;fill:url(#linear1);" d="M 8.53125 9.664062 C 8.609375 10.253906 7.808594 10.914062 6.738281 11.140625 C 5.667969 11.363281 4.734375 11.066406 4.652344 10.476562 C 4.574219 9.886719 5.375 9.222656 6.445312 9 C 7.515625 8.777344 8.449219 9.074219 8.53125 9.664062 Z M 8.53125 9.664062 "/>
<path style=" stroke:none;fill-rule:nonzero;fill:rgb(89.411765%,25.098039%,0%);fill-opacity:1;" d="M 8.492188 9.382812 C 8.390625 8.9375 7.46875 8.769531 6.429688 9.003906 C 5.390625 9.238281 4.628906 9.789062 4.730469 10.230469 C 4.832031 10.675781 5.753906 10.84375 6.792969 10.609375 C 7.832031 10.375 8.589844 9.824219 8.492188 9.382812 Z M 8.492188 9.382812 "/>
<path style=" stroke:none;fill-rule:nonzero;fill:rgb(53.72549%,7.45098%,0.392157%);fill-opacity:1;" d="M 8.476562 9.28125 C 8.390625 8.894531 7.523438 8.761719 6.539062 8.980469 C 5.554688 9.199219 4.828125 9.6875 4.914062 10.074219 C 5 10.457031 5.867188 10.589844 6.851562 10.371094 C 7.832031 10.152344 8.5625 9.664062 8.476562 9.28125 Z M 8.476562 9.28125 "/>
<path style=" stroke:none;fill-rule:nonzero;fill:url(#linear2);" d="M 11.753906 9.96875 C 11.753906 9.367188 10.875 8.882812 9.789062 8.882812 C 8.703125 8.882812 7.820312 9.367188 7.820312 9.96875 C 7.820312 10.566406 8.703125 11.050781 9.789062 11.050781 C 10.875 11.050781 11.753906 10.566406 11.753906 9.96875 Z M 11.753906 9.96875 "/>
<path style=" stroke:none;fill-rule:nonzero;fill:rgb(89.411765%,25.098039%,0%);fill-opacity:1;" d="M 11.753906 9.710938 C 11.753906 9.253906 10.898438 8.882812 9.839844 8.882812 C 8.785156 8.882812 7.929688 9.253906 7.929688 9.710938 C 7.929688 10.167969 8.785156 10.539062 9.839844 10.539062 C 10.898438 10.539062 11.753906 10.167969 11.753906 9.710938 Z M 11.753906 9.710938 "/>
<path style=" stroke:none;fill-rule:nonzero;fill:rgb(53.72549%,7.45098%,0.392157%);fill-opacity:1;" d="M 11.492188 9.601562 C 11.492188 9.21875 10.734375 8.910156 9.796875 8.910156 C 8.863281 8.910156 8.105469 9.21875 8.105469 9.601562 C 8.105469 9.980469 8.863281 10.289062 9.796875 10.289062 C 10.734375 10.289062 11.492188 9.980469 11.492188 9.601562 Z M 11.492188 9.601562 "/>
<path style=" stroke:none;fill-rule:nonzero;fill:url(#linear3);" d="M 13.203125 8.734375 C 13.203125 8.136719 12.320312 7.648438 11.234375 7.648438 C 10.148438 7.648438 9.269531 8.136719 9.269531 8.734375 C 9.269531 9.335938 10.148438 9.820312 11.234375 9.820312 C 12.320312 9.820312 13.203125 9.335938 13.203125 8.734375 Z M 13.203125 8.734375 "/>
<path style=" stroke:none;fill-rule:nonzero;fill:rgb(89.411765%,25.098039%,0%);fill-opacity:1;" d="M 13.203125 8.480469 C 13.203125 8.019531 12.347656 7.648438 11.289062 7.648438 C 10.234375 7.648438 9.378906 8.019531 9.378906 8.480469 C 9.378906 8.9375 10.234375 9.308594 11.289062 9.308594 C 12.347656 9.308594 13.203125 8.9375 13.203125 8.480469 Z M 13.203125 8.480469 "/>
<path style=" stroke:none;fill-rule:nonzero;fill:rgb(53.72549%,7.45098%,0.392157%);fill-opacity:1;" d="M 12.941406 8.367188 C 12.941406 7.988281 12.183594 7.679688 11.25 7.679688 C 10.3125 7.679688 9.554688 7.988281 9.554688 8.367188 C 9.554688 8.75 10.3125 9.058594 11.25 9.058594 C 12.183594 9.058594 12.941406 8.75 12.941406 8.367188 Z M 12.941406 8.367188 "/>
<path style=" stroke:none;fill-rule:nonzero;fill:url(#linear4);" d="M 15.339844 6.886719 C 15.339844 6.289062 14.460938 5.800781 13.375 5.800781 C 12.289062 5.800781 11.410156 6.289062 11.410156 6.886719 C 11.410156 7.488281 12.289062 7.972656 13.375 7.972656 C 14.460938 7.972656 15.339844 7.488281 15.339844 6.886719 Z M 15.339844 6.886719 "/>
<path style=" stroke:none;fill-rule:nonzero;fill:rgb(89.411765%,25.098039%,0%);fill-opacity:1;" d="M 15.339844 6.632812 C 15.339844 6.171875 14.484375 5.800781 13.429688 5.800781 C 12.371094 5.800781 11.515625 6.171875 11.515625 6.632812 C 11.515625 7.089844 12.371094 7.460938 13.429688 7.460938 C 14.484375 7.460938 15.339844 7.089844 15.339844 6.632812 Z M 15.339844 6.632812 "/>
<path style=" stroke:none;fill-rule:nonzero;fill:rgb(53.72549%,7.45098%,0.392157%);fill-opacity:1;" d="M 15.078125 6.519531 C 15.078125 6.140625 14.320312 5.832031 13.386719 5.832031 C 12.453125 5.832031 11.695312 6.140625 11.695312 6.519531 C 11.695312 6.902344 12.453125 7.210938 13.386719 7.210938 C 14.320312 7.210938 15.078125 6.902344 15.078125 6.519531 Z M 15.078125 6.519531 "/>
<path style=" stroke:none;fill-rule:nonzero;fill:url(#linear5);" d="M 1.734375 7.566406 C 1.660156 7.640625 1.578125 7.71875 1.546875 7.832031 C 1.496094 8.019531 1.613281 8.226562 1.761719 8.316406 C 1.90625 8.40625 2.074219 8.417969 2.230469 8.472656 C 2.980469 8.734375 3.351562 9.863281 4.09375 10.15625 C 4.617188 10.363281 5.175781 10.097656 5.71875 10.003906 C 6.425781 9.878906 7.167969 10.0625 7.785156 10.511719 C 8.285156 10.875 8.796875 11.4375 9.363281 11.277344 C 9.742188 11.171875 10.007812 10.769531 10.300781 10.460938 C 10.785156 9.957031 11.410156 9.664062 12.042969 9.644531 C 12.234375 9.640625 12.4375 9.65625 12.625 9.589844 C 12.929688 9.480469 13.160156 9.148438 13.300781 8.796875 C 13.445312 8.441406 13.527344 8.050781 13.65625 7.6875 C 13.828125 7.199219 14.089844 6.757812 14.414062 6.40625 C 14.449219 6.367188 14.488281 6.148438 14.5 6.09375 C 14.515625 6.007812 14.453125 6.105469 14.394531 6.046875 C 14.007812 5.664062 13.484375 5.574219 13 5.445312 C 11.710938 5.101562 10.507812 4.402344 9.238281 3.957031 C 7.972656 3.515625 6.566406 3.34375 5.375 4.042969 C 5.0625 4.226562 4.890625 4.464844 4.683594 4.789062 C 4.453125 5.148438 4.101562 5.398438 3.804688 5.671875 C 3.113281 6.304688 2.425781 6.9375 1.734375 7.566406 Z M 1.734375 7.566406 "/>
<path style=" stroke:none;fill-rule:nonzero;fill:url(#linear6);" d="M 9.105469 9.277344 C 8.75 8.925781 8.285156 8.835938 7.785156 8.660156 C 6.359375 8.265625 5.042969 7.957031 3.652344 7.386719 C 3.261719 7.253906 2.867188 7.207031 2.476562 7.121094 C 2.007812 6.984375 1.585938 6.71875 1.25 6.300781 C 1.226562 6.390625 1.210938 6.488281 1.214844 6.59375 C 1.238281 7.269531 1.214844 7.765625 1.382812 8 C 1.550781 8.234375 6.46875 9.671875 7.75 10.097656 C 8.644531 10.394531 8.855469 10.609375 9.238281 10.574219 C 9.1875 10.082031 9.449219 9.609375 9.105469 9.277344 Z M 9.105469 9.277344 "/>
<path style=" stroke:none;fill-rule:nonzero;fill:url(#linear7);" d="M 14.710938 4.554688 C 14.769531 4 14.640625 3.96875 13.953125 3.824219 C 13.261719 3.675781 8.890625 2.339844 8.226562 2.164062 C 7.5625 1.988281 7.179688 1.84375 6.753906 1.988281 C 6.328125 2.136719 5.851562 2.429688 5.851562 2.429688 C 4.78125 3.222656 1.859375 5.597656 1.859375 5.597656 C 1.859375 5.597656 1.386719 5.824219 1.253906 6.300781 C 1.585938 6.71875 2.011719 6.984375 2.480469 7.121094 C 2.871094 7.207031 3.261719 7.253906 3.65625 7.386719 C 5.046875 7.957031 6.363281 8.265625 7.789062 8.660156 C 8.265625 8.828125 8.769531 8.972656 9.117188 9.292969 C 9.261719 9.140625 9.5 9.175781 9.648438 9.035156 C 14.296875 5.339844 14.707031 4.585938 14.710938 4.554688 Z M 14.710938 4.554688 "/>
<path style=" stroke:none;fill-rule:nonzero;fill:url(#linear8);" d="M 9.605469 8.894531 C 9.453125 9.035156 9.101562 9.253906 9.105469 9.277344 C 9.148438 9.738281 9.160156 10.609375 9.203125 10.597656 C 9.605469 10.480469 10.578125 9.679688 11.339844 9.125 C 12.101562 8.566406 14.691406 6.085938 14.761719 5.878906 C 14.832031 5.679688 14.789062 5.371094 14.78125 5.164062 C 14.769531 4.84375 14.753906 4.519531 14.726562 4.203125 C 14.753906 4.53125 14.539062 4.75 14.355469 4.921875 C 12.863281 6.320312 11.34375 7.492188 9.605469 8.894531 Z M 9.605469 8.894531 "/>
<use xlink:href="#surface5" mask="url(#mask0)"/>
</g>
</svg>
