<?xml version="1.0" encoding="UTF-8" standalone="no"?>
<svg
   xmlns:dc="http://purl.org/dc/elements/1.1/"
   xmlns:cc="http://creativecommons.org/ns#"
   xmlns:rdf="http://www.w3.org/1999/02/22-rdf-syntax-ns#"
   xmlns:svg="http://www.w3.org/2000/svg"
   xmlns="http://www.w3.org/2000/svg"
   xmlns:sodipodi="http://sodipodi.sourceforge.net/DTD/sodipodi-0.dtd"
   xmlns:inkscape="http://www.inkscape.org/namespaces/inkscape"
   sodipodi:docname="sarcastic.svg"
   inkscape:version="1.0 (4035a4fb49, 2020-05-01)"
   id="svg1060"
   version="1.1"
   viewBox="0 0 33.866666 33.866666"
   height="128"
   width="128">
  <defs
     id="defs1054">
    <clipPath
       id="a-3">
      <path
         id="path2-6"
         d="M 4,4 H 124 V 124 H 4 Z" />
    </clipPath>
    <clipPath
       id="c">
      <path
         d="m 28.27,82.25 v 44.16 H 96.32 V 82.25 c -10.12,1.76 -21.72,2.69 -33.66,2.69 -11.92,0 -23.5,-0.92 -33.61,-2.68"
         id="path18" />
    </clipPath>
    <clipPath
       id="clipPath898">
      <path
         d="m 28.27,82.25 v 44.16 H 96.32 V 82.25 c -10.12,1.76 -21.72,2.69 -33.66,2.69 -11.92,0 -23.5,-0.92 -33.61,-2.68"
         id="path896" />
    </clipPath>
    <clipPath
       id="clipPath902">
      <path
         d="m 28.27,82.25 v 44.16 H 96.32 V 82.25 c -10.12,1.76 -21.72,2.69 -33.66,2.69 -11.92,0 -23.5,-0.92 -33.61,-2.68"
         id="path900" />
    </clipPath>
    <clipPath
       id="b">
      <path
         d="m 62.67,80.33 c -12.72,0 -24.54,-1.07 -34.4,-2.89 -2.45,-0.45 -4.61,1.7 -4.11,4.13 3.28,16.04 19.07,29.21 38.5,29.21 21.27,0 35.58,-13.6 38.55,-29.27 0.46,-2.42 -1.7,-4.53 -4.12,-4.08 -9.87,1.84 -21.7,2.9 -34.42,2.9 z"
         id="path15" />
    </clipPath>
    <clipPath
       id="clipPath908">
      <path
         d="m 62.67,80.33 c -12.72,0 -24.54,-1.07 -34.4,-2.89 -2.45,-0.45 -4.61,1.7 -4.11,4.13 3.28,16.04 19.07,29.21 38.5,29.21 21.27,0 35.58,-13.6 38.55,-29.27 0.46,-2.42 -1.7,-4.53 -4.12,-4.08 -9.87,1.84 -21.7,2.9 -34.42,2.9 z"
         id="path906" />
    </clipPath>
    <linearGradient
       gradientTransform="matrix(0.26458333,0,0,0.26458333,-1.1e-7,-0.46831221)"
       id="a"
       gradientUnits="userSpaceOnUse"
       x1="64"
       x2="64"
       y1="19.096001"
       y2="107.08">
      <stop
         offset=".5"
         stop-color="#fee133"
         id="stop2" />
      <stop
         offset=".6118"
         stop-color="#fede32"
         id="stop4" />
      <stop
         offset=".7076"
         stop-color="#fcd32f"
         id="stop6" />
      <stop
         offset=".7975"
         stop-color="#fac12b"
         id="stop8" />
      <stop
         offset=".8834"
         stop-color="#f7a924"
         id="stop10" />
      <stop
         offset=".9"
         stop-color="#f6a323"
         id="stop12" />
    </linearGradient>
  </defs>
  <sodipodi:namedview
     inkscape:window-maximized="0"
     inkscape:window-y="47"
     inkscape:window-x="0"
     inkscape:window-height="1002"
     inkscape:window-width="1473"
     units="px"
     showgrid="false"
     inkscape:document-rotation="0"
     inkscape:current-layer="layer1"
     inkscape:document-units="mm"
     inkscape:cy="47.237361"
     inkscape:cx="13.157517"
     inkscape:zoom="2.8"
     inkscape:pageshadow="2"
     inkscape:pageopacity="0.0"
     borderopacity="1.0"
     bordercolor="#666666"
     pagecolor="#ffffff"
     id="base" />
  <metadata
     id="metadata1057">
    <rdf:RDF>
      <cc:Work
         rdf:about="">
        <dc:format>image/svg+xml</dc:format>
        <dc:type
           rdf:resource="http://purl.org/dc/dcmitype/StillImage" />
        <dc:title></dc:title>
      </cc:Work>
    </rdf:RDF>
  </metadata>
  <g
     id="layer1"
     inkscape:groupmode="layer"
     inkscape:label="Layer 1">
    <path
       style="fill:url(#a);stroke-width:0.264583"
       d="m 16.933333,31.091187 c -7.3924581,0 -15.3458332,-4.627562 -15.3458332,-14.790208 0,-10.1599997 7.9560209,-14.7902079 15.3458332,-14.7902079 4.09575,0 7.887229,1.3573125 10.678583,3.8179375 3.053292,2.6961041 4.66725,6.4902284 4.66725,10.9722704 0,4.460875 -1.613958,8.249708 -4.66725,10.951104 -2.796646,2.473854 -6.590771,3.839104 -10.678583,3.839104 z"
       fill="url(#a)"
       id="path21" />
    <path
       style="stroke-width:0.264583"
       d="m 16.933333,2.0399377 c 3.966104,0 7.635875,1.3096874 10.329333,3.6856458 2.936875,2.5929167 4.489979,6.2494575 4.489979,10.5727495 0,4.304771 -1.553104,7.956021 -4.489979,10.554229 -2.701396,2.389188 -6.368521,3.704167 -10.326687,3.706813 -3.979334,0 -7.6464583,-1.299104 -10.3293333,-3.656542 -2.9395208,-2.579687 -4.4899792,-6.246812 -4.4899792,-10.601854 0,-4.376208 1.5504584,-8.0486246 4.4873334,-10.6230205 C 9.2789374,3.3337501 12.946062,2.0399377 16.933333,2.0399377 m 0,-1.05833331 c -8.2417706,0 -15.8749998,5.29431251 -15.8749998,15.31937461 0,9.9695 7.6332292,15.319375 15.8749998,15.319375 8.241771,0 15.875,-5.484813 15.875,-15.319375 0,-9.8874788 -7.633229,-15.31937461 -15.875,-15.31937461 z"
       fill="#eb8f00"
       id="path23" />
    <path
       transform="matrix(0.26458333,0,0,0.26458333,-1.1e-7,-0.46831231)"
       clip-path="url(#b)"
       d="m 62.67,80.33 c -12.72,0 -24.54,-1.07 -34.4,-2.89 -2.45,-0.45 -4.61,1.7 -4.11,4.13 3.28,16.04 19.07,29.21 38.5,29.21 21.27,0 35.58,-13.6 38.55,-29.27 0.46,-2.42 -1.7,-4.53 -4.12,-4.08 -9.87,1.84 -21.7,2.9 -34.42,2.9 z"
       fill="#242424"
       id="path25" />
    <g
       transform="matrix(0.26458333,0,0,0.26458333,-1.1e-7,-0.46831231)"
       clip-path="url(#b)"
       opacity="0.6"
       id="g29">
      <path
         d="m 97.13,81.5 c -1.46,6.75 -5.29,12.91 -10.86,17.42 -6.35,5.15 -14.51,7.87 -23.62,7.87 -16.41,0 -31.07,-10.82 -34.42,-25.29 10.29,1.85 22.18,2.83 34.44,2.83 12.26,0 24.16,-0.98 34.46,-2.83 m 0.61,-4.12 c -0.22,0 -0.43,0.02 -0.66,0.06 -9.86,1.83 -21.69,2.9 -34.42,2.9 -12.72,0 -24.54,-1.07 -34.4,-2.89 -0.22,-0.04 -0.44,-0.06 -0.66,-0.06 -2.16,0 -3.91,1.98 -3.46,4.2 3.28,16.04 19.07,29.21 38.5,29.21 21.27,0 35.58,-13.6 38.55,-29.27 0.43,-2.21 -1.31,-4.15 -3.45,-4.15 z"
         id="path27" />
    </g>
    <path
       style="stroke-width:0.264583"
       d="m 16.581437,20.785666 c -3.3655,0 -6.492875,-0.283104 -9.1016663,-0.764645 -0.6482292,-0.119063 -1.2197292,0.449791 -1.0874375,1.092729 0.8678333,4.243916 5.0456038,7.728479 10.1864578,7.728479 5.627688,0 9.413875,-3.598333 10.199688,-7.744354 0.121708,-0.640292 -0.449792,-1.198563 -1.090084,-1.0795 -2.611437,0.486833 -5.741458,0.767291 -9.106958,0.767291 z"
       fill="none"
       id="path31" />
    <path
       style="stroke-width:0.264583"
       d="m 16.581437,20.785666 c -3.3655,0 -6.492875,-0.283104 -9.1016663,-0.764645 -0.6482292,-0.119063 -1.2197292,0.449791 -1.0874375,1.092729 0.8678333,4.243916 5.0456038,7.728479 10.1864578,7.728479 5.627688,0 9.413875,-3.598333 10.199688,-7.744354 0.121708,-0.640292 -0.449792,-1.198563 -1.090084,-1.0795 -2.611437,0.486833 -5.741458,0.767291 -9.106958,0.767291 z"
       fill="none"
       id="path33" />
    <path
       sodipodi:nodetypes="ssscccs"
       transform="matrix(0.26458333,0,0,0.26458333,-1.1e-7,-0.46831231)"
       clip-path="url(#c)"
       d="m 65.03,126.06 h -3.28 c -9.51,0 -17.21,-7.71 -17.21,-17.21 V 85.08 l 37.31,-0.9 0.4,24.66 c -0.01,9.51 -7.71,17.22 -17.22,17.22 z"
       fill="#e04c74"
       id="path35" />
    <path
       sodipodi:nodetypes="cc"
       transform="matrix(0.26458333,0,0,0.26458333,-1.1e-7,-0.46831231)"
       d="m 63.39,87.18 v 17.04"
       style="opacity:0.3;fill:none;stroke:#ab3f2e;stroke-width:4;stroke-linecap:round;stroke-miterlimit:10"
       clip-path="url(#c)"
       id="path41" />
    <circle
       style="stroke-width:0.264583"
       cx="21.844"
       cy="13.753041"
       fill="#ffffff"
       r="5.6567912"
       id="circle43" />
    <path
       style="stroke-width:0.264583"
       d="m 21.844,9.1545836 c 2.534708,0 4.598458,2.0637494 4.598458,4.5984574 0,2.534709 -2.06375,4.598459 -4.598458,4.598459 -2.534709,0 -4.598459,-2.06375 -4.598459,-4.598459 0,-2.534708 2.06375,-4.5984575 4.598459,-4.5984575 m 0,-1.0583334 c -3.12473,0 -5.656792,2.5320629 -5.656792,5.6567909 0,3.12473 2.532062,5.656792 5.656792,5.656792 3.124729,0 5.656791,-2.532062 5.656791,-5.656792 0,-3.124728 -2.532062,-5.6567908 -5.656791,-5.6567909 z"
       fill="#eb8f00"
       id="path45" />
    <g
       transform="matrix(0.26458333,0,0,0.26458333,-1.1e-7,-0.46831231)"
       fill="#242424"
       id="g53">
      <ellipse
         cx="83.309998"
         cy="53.75"
         rx="7.48"
         ry="7.5999999"
         id="ellipse47" />
      <path
         d="m 49.4,60.87 c 0,0 -0.09,-0.04 -0.26,-0.11 -0.08,-0.04 -0.19,-0.08 -0.31,-0.14 -0.08,-0.02 -0.18,-0.05 -0.29,-0.09 -0.2,-0.06 -0.55,-0.17 -0.91,-0.26 -0.37,-0.1 -0.8,-0.19 -1.27,-0.28 -0.95,-0.17 -2.11,-0.28 -3.38,-0.3 -1.26,-0.01 -2.63,0.07 -3.98,0.26 -0.25,0.04 -0.79,0.11 -1.05,0.16 -0.31,0.05 -0.62,0.11 -0.95,0.19 -0.65,0.15 -1.29,0.3 -1.9,0.48 -1.21,0.37 -2.29,0.79 -3.16,1.22 -0.87,0.43 -1.54,0.84 -1.97,1.14 -0.22,0.15 -0.39,0.27 -0.5,0.35 -0.11,0.08 -0.17,0.13 -0.17,0.13 l -0.27,0.2 c -1.09,0.81 -2.62,0.58 -3.43,-0.51 -0.66,-0.89 -0.63,-2.07 0,-2.92 0,0 0.07,-0.1 0.21,-0.28 0.14,-0.19 0.34,-0.46 0.62,-0.77 0.28,-0.31 0.63,-0.69 1.07,-1.06 0.43,-0.39 0.93,-0.79 1.5,-1.18 1.13,-0.8 2.54,-1.53 4.11,-2.13 0.78,-0.29 1.6,-0.57 2.45,-0.77 0.41,-0.11 0.86,-0.2 1.32,-0.29 0.5,-0.1 0.74,-0.13 1.26,-0.22 1.75,-0.22 3.52,-0.3 5.19,-0.15 1.67,0.14 3.22,0.46 4.53,0.92 0.66,0.22 1.25,0.46 1.77,0.72 0.53,0.25 0.94,0.49 1.34,0.74 0.2,0.12 0.38,0.24 0.52,0.34 0.1,0.08 0.19,0.16 0.26,0.21 0.14,0.12 0.22,0.18 0.22,0.18 1.06,0.86 1.23,2.42 0.37,3.48 -0.74,0.91 -1.94,1.17 -2.94,0.74 z"
         id="path49" />
      <path
         d="m 48.73,59.97 c 0,0 -0.07,-0.07 -0.21,-0.2 -0.15,-0.16 -0.32,-0.28 -0.51,-0.45 -0.45,-0.38 -1.14,-0.94 -2.03,-1.59 -0.89,-0.64 -1.96,-1.38 -3.14,-2.14 -0.6,-0.37 -1.22,-0.75 -1.85,-1.14 -0.62,-0.38 -1.31,-0.78 -1.92,-1.12 -0.72,-0.41 -1.34,-0.76 -2,-1.1 -0.66,-0.34 -1.31,-0.68 -1.93,-1 C 33.88,50.61 32.7,50.06 31.69,49.63 30.68,49.2 29.85,48.9 29.28,48.7 28.73,48.52 28.41,48.42 28.41,48.42 l -0.26,-0.08 c -1.29,-0.42 -2,-1.8 -1.58,-3.1 0.34,-1.06 1.34,-1.73 2.41,-1.7 0,0 0.12,0 0.35,0.01 0.23,0.01 0.55,0.02 0.96,0.06 0.81,0.08 1.93,0.26 3.2,0.59 1.27,0.33 2.71,0.81 4.19,1.43 0.73,0.32 1.5,0.63 2.24,1.02 0.75,0.37 1.54,0.8 2.22,1.16 0.78,0.46 1.47,0.87 2.19,1.33 0.71,0.44 1.37,0.94 2.02,1.4 1.29,0.95 2.44,1.94 3.37,2.86 0.94,0.92 1.66,1.79 2.16,2.45 0.27,0.36 0.46,0.65 0.54,0.79 0.1,0.16 0.15,0.25 0.15,0.25 0.71,1.17 0.34,2.69 -0.83,3.4 -0.98,0.6 -2.22,0.43 -3.01,-0.32 z"
         id="path51" />
    </g>
  </g>
</svg>
