<svg height="128" viewBox="0 0 33.8667 33.8667" width="128" xmlns="http://www.w3.org/2000/svg" xmlns:xlink="http://www.w3.org/1999/xlink"><clipPath id="a"><path d="m28.27 82.25v44.16h68.05v-44.16c-10.12 1.76-21.72 2.69-33.66 2.69-11.92 0-23.5-.92-33.61-2.68"/></clipPath><clipPath id="b"><path d="m62.67 80.33c-12.72 0-24.54-1.07-34.4-2.89-2.45-.45-4.61 1.7-4.11 4.13 3.28 16.04 19.07 29.21 38.5 29.21 21.27 0 35.58-13.6 38.55-29.27.46-2.42-1.7-4.53-4.12-4.08-9.87 1.84-21.7 2.9-34.42 2.9z"/></clipPath><linearGradient id="c" gradientUnits="userSpaceOnUse" x1="16.9344" x2="16.9344" y1="4.5845" y2="27.8651"><stop offset=".5" stop-color="#fee133"/><stop offset=".6118" stop-color="#fede32"/><stop offset=".7076" stop-color="#fcd32f"/><stop offset=".7975" stop-color="#fac12b"/><stop offset=".8834" stop-color="#f7a924"/><stop offset=".9" stop-color="#f6a323"/></linearGradient><path d="m16.9333 31.0912c-7.3925 0-15.3458-4.6276-15.3458-14.7902 0-10.16 7.956-14.7902 15.3458-14.7902 4.0958 0 7.8872 1.3573 10.6786 3.8179 3.0533 2.6961 4.6673 6.4902 4.6673 10.9723 0 4.4609-1.614 8.2497-4.6673 10.9511-2.7966 2.4739-6.5908 3.8391-10.6786 3.8391z" fill="url(#c)" stroke-width=".2646"/><path d="m16.9333 2.0399c3.9661 0 7.6359 1.3097 10.3293 3.6856 2.9369 2.5929 4.49 6.2495 4.49 10.5727 0 4.3048-1.5531 7.956-4.49 10.5542-2.7014 2.3892-6.3685 3.7042-10.3267 3.7068-3.9793 0-7.6465-1.2991-10.3293-3.6565-2.9395-2.5797-4.49-6.2468-4.49-10.6019 0-4.3762 1.5505-8.0486 4.4873-10.623 2.675-2.344 6.3422-3.6379 10.3294-3.6379m0-1.0583c-8.2418 0-15.875 5.2943-15.875 15.3194 0 9.9695 7.6332 15.3194 15.875 15.3194s15.875-5.4848 15.875-15.3194c0-9.8875-7.6332-15.3194-15.875-15.3194z" fill="#eb8f00" stroke-width=".2646"/><path clip-path="url(#b)" d="m62.67 80.33c-12.72 0-24.54-1.07-34.4-2.89-2.45-.45-4.61 1.7-4.11 4.13 3.28 16.04 19.07 29.21 38.5 29.21 21.27 0 35.58-13.6 38.55-29.27.46-2.42-1.7-4.53-4.12-4.08-9.87 1.84-21.7 2.9-34.42 2.9z" fill="#242424" transform="matrix(.2646 0 0 .2646 0 -.4683)"/><g clip-path="url(#b)" opacity=".6" transform="matrix(.2646 0 0 .2646 0 -.4683)"><path d="m97.13 81.5c-1.46 6.75-5.29 12.91-10.86 17.42-6.35 5.15-14.51 7.87-23.62 7.87-16.41 0-31.07-10.82-34.42-25.29 10.29 1.85 22.18 2.83 34.44 2.83s24.16-.98 34.46-2.83m.61-4.12c-.22 0-.43.02-.66.06-9.86 1.83-21.69 2.9-34.42 2.9-12.72 0-24.54-1.07-34.4-2.89-.22-.04-.44-.06-.66-.06-2.16 0-3.91 1.98-3.46 4.2 3.28 16.04 19.07 29.21 38.5 29.21 21.27 0 35.58-13.6 38.55-29.27.43-2.21-1.31-4.15-3.45-4.15z"/></g><path d="m16.5814 20.7857c-3.3655 0-6.4929-.2831-9.1017-.7646-.6482-.1191-1.2197.4498-1.0874 1.0927.8678 4.2439 5.0456 7.7285 10.1865 7.7285 5.6277 0 9.4139-3.5983 10.1997-7.7444.1217-.6403-.4498-1.1986-1.0901-1.0795-2.6114.4868-5.7415.7673-9.107.7673z" fill="none" stroke-width=".2646"/><path d="m16.5814 20.7857c-3.3655 0-6.4929-.2831-9.1017-.7646-.6482-.1191-1.2197.4498-1.0874 1.0927.8678 4.2439 5.0456 7.7285 10.1865 7.7285 5.6277 0 9.4139-3.5983 10.1997-7.7444.1217-.6403-.4498-1.1986-1.0901-1.0795-2.6114.4868-5.7415.7673-9.107.7673z" fill="none" stroke-width=".2646"/><path clip-path="url(#a)" d="m65.03 126.06h-3.28c-9.51 0-17.21-7.71-17.21-17.21v-23.77l37.31-.9.4 24.66c-.01 9.51-7.71 17.22-17.22 17.22z" fill="#e04c74" transform="matrix(.2646 0 0 .2646 0 -.4683)"/><path d="m63.39 87.18v17.04" style="opacity:.3;fill:none;stroke:#ab3f2e;stroke-width:4;stroke-linecap:round;stroke-miterlimit:10;clip-path:url(#a)" transform="matrix(.2646 0 0 .2646 0 -.4683)"/><g stroke-width=".2646"><circle cx="21.844" cy="13.753" fill="#fff" r="5.6568"/><path d="m21.844 9.1546c2.5347 0 4.5985 2.0637 4.5985 4.5985 0 2.5347-2.0638 4.5985-4.5985 4.5985s-4.5985-2.0638-4.5985-4.5985 2.0638-4.5985 4.5985-4.5985m0-1.0583c-3.1247 0-5.6568 2.5321-5.6568 5.6568s2.5321 5.6568 5.6568 5.6568 5.6568-2.5321 5.6568-5.6568-2.5321-5.6568-5.6568-5.6568z" fill="#eb8f00"/><g fill="#242424"><ellipse cx="22.0438" cy="13.754" rx="1.9792" ry="2.011"/><path d="m13.0712 15.6379s-.0238-.0106-.0688-.0291c-.0212-.0106-.0503-.0212-.082-.037-.0212-.0053-.0476-.0132-.0767-.0238-.0529-.0159-.1455-.045-.2408-.0688-.0979-.0265-.2117-.0503-.336-.0741-.2514-.045-.5583-.0741-.8943-.0794-.3334-.0026-.6959.0185-1.0531.0688-.0662.0106-.209.0291-.2778.0423-.082.0132-.1641.0291-.2514.0503-.172.0397-.3413.0794-.5027.127-.3202.0979-.6059.209-.8361.3228s-.4075.2223-.5213.3016c-.0582.0397-.1032.0714-.1323.0926s-.045.0344-.045.0344l-.0714.0529c-.2884.2143-.6933.1535-.9076-.1349-.1746-.2355-.1667-.5477 0-.7726 0 0 .0185-.0265.0556-.0741.037-.0503.09-.1217.1641-.2037s.1667-.1826.2831-.2805c.1138-.1032.2461-.209.3969-.3122.299-.2117.6721-.4048 1.0875-.5636.2064-.0767.4234-.1508.6483-.2037.1085-.0291.2276-.0529.3493-.0767.1323-.0265.1958-.0344.3334-.0582.4631-.0582.9314-.0794 1.3733-.0397.4419.037.852.1217 1.1986.2434.1746.0582.3308.1217.4683.1905.1402.0662.2487.1297.3546.1958.0529.0318.1005.0635.1376.09.0265.0212.0503.0423.0688.0556.037.0318.0582.0476.0582.0476.2805.2276.3255.6403.0979.9208-.1958.2408-.5133.3096-.7779.1958z"/><path d="m12.894 15.3998s-.0185-.0185-.0556-.0529c-.0397-.0423-.0847-.0741-.1349-.1191-.1191-.1005-.3016-.2487-.5371-.4207-.2355-.1693-.5186-.3651-.8308-.5662-.1588-.0979-.3228-.1984-.4895-.3016-.1641-.1005-.3466-.2064-.508-.2964-.1905-.1085-.3546-.2011-.5292-.2911s-.3466-.1799-.5107-.2646c-.3334-.1641-.6456-.3096-.9129-.4234s-.4869-.1932-.6377-.2461c-.1455-.0476-.2302-.0741-.2302-.0741l-.0688-.0212c-.3413-.1111-.5292-.4763-.4181-.8203.09-.2805.3546-.4578.6377-.4498 0 0 .0318 0 .0926.0026s.1455.0053.254.0159c.2143.0212.5107.0688.8467.1561s.7171.2143 1.1087.3784c.1932.0847.3969.1667.5927.2699.1984.0979.4075.2117.5874.3069.2064.1217.389.2302.5795.3519.1879.1164.3625.2487.5345.3704.3413.2514.6456.5133.8917.7568.2487.2434.4392.4736.5715.6483.0714.0953.1217.172.1429.209.0265.0423.0397.0662.0397.0662.1879.3096.09.7118-.2196.8996-.2593.1588-.5874.1138-.7964-.0847z"/></g></g></svg>