<svg enable-background="new 0 0 128 128" viewBox="0 0 128 128" xmlns="http://www.w3.org/2000/svg" xmlns:xlink="http://www.w3.org/1999/xlink"><linearGradient id="a" gradientUnits="userSpaceOnUse" x1="64" x2="64" y1="19.72" y2="107.7"><stop offset=".5" stop-color="#fee133"/><stop offset=".6118" stop-color="#fede32"/><stop offset=".7076" stop-color="#fcd32f"/><stop offset=".7975" stop-color="#fac12b"/><stop offset=".8834" stop-color="#f7a924"/><stop offset=".9" stop-color="#f6a323"/></linearGradient><path d="m64 119.9c-27.9 0-58-17.5-58-55.9s30.1-55.9 58-55.9c15.5 0 29.8 5.1 40.4 14.4 11.5 10.2 17.6 24.6 17.6 41.5s-6.1 31.2-17.6 41.4c-10.6 9.3-25 14.5-40.4 14.5z" fill="url(#a)"/><path d="m64 10.1c15 0 28.9 4.9 39 13.9 11.1 9.8 17 23.6 17 40 0 16.3-5.9 30.1-17 39.9-10.2 9-24.1 14-39 14-15 0-28.9-4.9-39-13.8-11.1-9.8-17-23.6-17-40.1s5.9-30.4 17-40.2c10.1-8.8 23.9-13.7 39-13.7m0-4c-31.2 0-60 20-60 57.9 0 37.7 28.8 57.9 60 57.9s60-20.7 60-57.9c0-37.4-28.9-57.9-60-57.9z" fill="#eb8f00"/><g fill="#242424"><path d="m77.6 92.4c0 7.1-5.7 12.8-12.8 12.8s-12.8-5.7-12.8-12.8 5.7-12.8 12.8-12.8 12.8 5.8 12.8 12.8z"/><path d="m85.7 46.9c4.2 0 8 3.5 8 9.4s-3.8 9.4-8 9.4-8-3.5-8-9.4 3.8-9.4 8-9.4z"/><path d="m42.2 46.9c-4.2 0-8 3.5-8 9.4s3.8 9.4 8 9.4 8-3.5 8-9.4-3.8-9.4-8-9.4z"/></g><g fill="#eb8f00" stroke="#eb8f00" stroke-miterlimit="10"><path d="m83.4 31.31-.1-.01c-2.21-.05-2.76-3.23-.29-3.66 1.84-.3 3.85-.27 5.83.05 5.54.82 10.23 3.87 13.22 7.72 1.49 1.98-1.14 3.9-2.79 2.4-4.21-3.68-9.86-6.23-15.87-6.5z"/><path d="m44.85 31.31.1-.01c2.21-.05 2.76-3.23.29-3.66-1.84-.3-3.85-.27-5.83.05-5.54.82-10.23 3.87-13.22 7.72-1.49 1.98 1.14 3.9 2.79 2.4 4.21-3.68 9.87-6.23 15.87-6.5z"/></g></svg>