<svg enable-background="new 0 0 128 128" viewBox="0 0 128 128" xmlns="http://www.w3.org/2000/svg" xmlns:xlink="http://www.w3.org/1999/xlink"><linearGradient id="a" gradientUnits="userSpaceOnUse" x1="63.995" x2="63.995" y1="19.897" y2="107.52"><stop offset=".5" stop-color="#fee133"/><stop offset=".6118" stop-color="#fede32"/><stop offset=".7076" stop-color="#fcd32f"/><stop offset=".7975" stop-color="#fac12b"/><stop offset=".8834" stop-color="#f7a924"/><stop offset=".9" stop-color="#f6a323"/></linearGradient><path d="m64 119.67c-27.82 0-57.76-17.42-57.76-55.67s29.93-55.67 57.75-55.67c15.42 0 29.69 5.1 40.2 14.37 11.49 10.14 17.57 24.42 17.57 41.29 0 16.79-6.08 31.05-17.57 41.22-10.53 9.33-24.81 14.46-40.19 14.46z" fill="url(#a)"/><path d="m64 10.33c14.93 0 28.73 4.93 38.87 13.87 11.05 9.75 16.89 23.51 16.89 39.79 0 16.2-5.84 29.94-16.9 39.72-10.16 8.99-23.97 13.95-38.87 13.95-14.97 0-28.78-4.89-38.88-13.76-11.04-9.71-16.88-23.51-16.88-39.9 0-16.47 5.84-30.29 16.88-39.98 10.07-8.82 23.88-13.69 38.89-13.69m0-4c-31.03 0-59.77 19.93-59.77 57.67 0 37.53 28.74 57.67 59.76 57.67 31.03 0 59.76-20.64 59.76-57.67.01-37.23-28.73-57.67-59.75-57.67z" fill="#eb8f00"/><g fill="#616161"><path d="m33.3 85.75h8.48v9.75h-8.48z"/><path d="m41.78 73.78h8.48v9.75h-8.48z"/><path d="m24.81 73.78h8.48v9.75h-8.48z"/><path d="m58.75 73.78h8.48v9.75h-8.48z"/><path d="m75.72 73.78h8.48v9.75h-8.48z"/><path d="m92.69 73.78h8.48v9.75h-8.48z"/><path d="m50.27 85.75h8.48v9.75h-8.48z"/><path d="m67.24 85.75h8.48v9.75h-8.48z"/><path d="m84.21 85.75h8.48v9.75h-8.48z"/><path d="m24.81 82.34h76.36v5.87h-76.36z"/></g><g fill="#242424"><path d="m107.06 87.4-2.01 2.01c-.82.82-2.15.82-2.97 0l-3.3-3.3c-.82-.82-.82-2.15 0-2.97l2.01-2.01c.82-.82 2.15-.82 2.97 0l3.3 3.3c.82.82.82 2.15 0 2.97z"/><path d="m121.2 93.76-7.92-7.68c-2.34-2.27-6.08-2.22-8.35.12l-1.63 1.68c-2.27 2.34-2.22 6.07.12 8.34l7.92 7.68c2.34 2.27 6.07 2.22 8.35-.12l1.63-1.68c2.27-2.34 2.21-6.07-.12-8.34zm-15.58.17c-.47-.46-.71-1.06-.72-1.66-.01-.61.21-1.22.67-1.69l2.19-2.25c.91-.94 2.41-.97 3.35-.05.47.46.71 1.06.72 1.66.01.61-.21 1.22-.67 1.69l-2.19 2.25c-.91.95-2.42.97-3.35.05zm12.39 5.2-1.35 1.39c-1.03 1.06-2.72 1.08-3.77.06l-1.52-1.47c-1.06-1.03-1.08-2.72-.06-3.77l1.36-1.39c1.03-1.06 2.72-1.08 3.77-.06l1.51 1.47c1.07 1.03 1.1 2.71.06 3.77z"/><path d="m83.76 38.05c3.69 0 7.04 4.33 7.04 11.5s-3.35 11.5-7.04 11.5-7.04-4.33-7.04-11.5 3.36-11.5 7.04-11.5z"/><path d="m44.22 38.05c-3.69 0-7.04 4.33-7.04 11.5s3.35 11.5 7.04 11.5 7.04-4.33 7.04-11.5-3.35-11.5-7.04-11.5z"/></g></svg>