<?xml version="1.0" encoding="UTF-8" standalone="no"?>
<svg
   xmlns:dc="http://purl.org/dc/elements/1.1/"
   xmlns:cc="http://creativecommons.org/ns#"
   xmlns:rdf="http://www.w3.org/1999/02/22-rdf-syntax-ns#"
   xmlns:svg="http://www.w3.org/2000/svg"
   xmlns="http://www.w3.org/2000/svg"
   xmlns:xlink="http://www.w3.org/1999/xlink"
   xmlns:sodipodi="http://sodipodi.sourceforge.net/DTD/sodipodi-0.dtd"
   xmlns:inkscape="http://www.inkscape.org/namespaces/inkscape"
   inkscape:version="1.0 (4035a4fb49, 2020-05-01)"
   sodipodi:docname="sick.svg"
   id="svg1257"
   version="1.1"
   viewBox="0 0 128 128"
   enable-background="new 0 0 128 128">
  <metadata
     id="metadata1261">
    <rdf:RDF>
      <cc:Work
         rdf:about="">
        <dc:format>image/svg+xml</dc:format>
        <dc:type
           rdf:resource="http://purl.org/dc/dcmitype/StillImage" />
      </cc:Work>
    </rdf:RDF>
  </metadata>
  <sodipodi:namedview
     inkscape:current-layer="svg1257"
     inkscape:window-maximized="1"
     inkscape:window-y="47"
     inkscape:window-x="0"
     inkscape:cy="63.77723"
     inkscape:cx="33.257696"
     inkscape:zoom="5.2591067"
     showgrid="false"
     id="namedview1259"
     inkscape:window-height="1007"
     inkscape:window-width="1920"
     inkscape:pageshadow="2"
     inkscape:pageopacity="0"
     guidetolerance="10"
     gridtolerance="10"
     objecttolerance="10"
     borderopacity="1"
     bordercolor="#666666"
     pagecolor="#ffffff" />
  <defs
     id="defs1209">
    <path
       d="m64 68.82c-16.95 0-35.33 14.17-35.33 31.67 0 4.89 5.61 7.73 10.62 5.75 6.19-2.46 15.32-4.92 24.71-4.92s18.52 2.47 24.71 4.92c5.01 1.99 10.62-.86 10.62-5.75 0-17.49-19.67-31.67-35.33-31.67z"
       id="a" />
    <linearGradient
       y2="22.3"
       y1="110.28"
       x2="64"
       x1="64"
       gradientUnits="userSpaceOnUse"
       gradientTransform="matrix(1 0 0 -1 0 130)"
       id="b">
      <stop
         id="stop1187"
         stop-color="#f6a323"
         offset=".5664" />
      <stop
         id="stop1189"
         stop-color="#fee133"
         offset=".9168" />
    </linearGradient>
    <clipPath
       id="c">
      <use
         id="use1192"
         xlink:href="#a" />
    </clipPath>
    <clipPath
       id="d">
      <path
         id="path1195"
         d="m64 81.02c12.42 0 23.94 1.61 33.04 4.56v-28.62h-66.08v28.61c9.1-2.94 20.62-4.55 33.04-4.55z" />
    </clipPath>
    <linearGradient
       y2="125.34"
       y1="85.333"
       x2="64.981"
       x1="64.981"
       gradientUnits="userSpaceOnUse"
       id="e">
      <stop
         id="stop1198"
         stop-color="#469643"
         offset="0" />
      <stop
         id="stop1200"
         stop-color="#489743"
         offset=".0203" />
      <stop
         id="stop1202"
         stop-color="#6db141"
         offset=".4427" />
      <stop
         id="stop1204"
         stop-color="#84c03f"
         offset=".7841" />
      <stop
         id="stop1206"
         stop-color="#8cc63f"
         offset="1" />
    </linearGradient>
  </defs>
  <path
     id="path1211"
     fill="url(#b)"
     d="m64 119.89c-27.93 0-58-17.49-58-55.89s30.07-55.89 58-55.89c15.48 0 29.81 5.12 40.36 14.43 11.54 10.18 17.64 24.52 17.64 41.46 0 16.86-6.1 31.17-17.64 41.39-10.58 9.35-24.91 14.5-40.36 14.5z" />
  <path
     id="path1213"
     fill="#eb8f00"
     d="m64 10.11c14.99 0 28.86 4.95 39.03 13.93 11.1 9.79 16.97 23.61 16.97 39.96 0 16.27-5.87 30.07-16.97 39.89-10.21 9.03-24.07 14-39.03 14-15.04 0-28.9-4.91-39.04-13.82-11.1-9.75-16.96-23.61-16.96-40.07 0-16.54 5.86-30.42 16.96-40.15 10.11-8.86 23.97-13.74 39.04-13.74m0-4c-31.15 0-60 20-60 57.89 0 37.68 28.85 57.89 60 57.89s60-20.73 60-57.89c0-37.37-28.85-57.89-60-57.89z" />
  <use
     id="use1215"
     xlink:href="#a"
     fill="#eb8f00" />
  <path
     id="path1217"
     fill="#242424"
     d="m64 68.82c-16.95 0-35.33 14.17-35.33 31.67 0 4.89 5.61 7.73 10.62 5.75 6.19-2.46 15.32-4.92 24.71-4.92s18.52 2.47 24.71 4.92c5.01 1.99 10.62-.86 10.62-5.75 0-17.49-19.67-31.67-35.33-31.67z"
     clip-path="url(#c)" />
  <g
     id="g1225"
     clip-path="url(#c)">
    <g
       id="g1223"
       clip-path="url(#d)">
      <path
         id="path1221"
         fill="#eb8f00"
         d="m64 72.79c6.43 0 14.15 3.11 20.15 8.1 6.71 5.59 10.4 12.55 10.4 19.6 0 1.66-1.31 2.42-2.52 2.42-.41 0-.83-.08-1.25-.25-4.02-1.6-14.69-5.31-26.78-5.31s-22.75 3.71-26.78 5.31c-.42.17-.84.25-1.25.25-1.21 0-2.52-.76-2.52-2.42 0-15.6 16.42-27.7 30.55-27.7m0-3.97c-16.95 0-35.33 14.17-35.33 31.67 0 3.82 3.42 6.39 7.3 6.39 1.09 0 2.22-.2 3.32-.64 6.19-2.46 15.32-4.92 24.71-4.92s18.52 2.47 24.71 4.92c1.1.44 2.23.64 3.32.64 3.88 0 7.3-2.57 7.3-6.39 0-17.49-19.67-31.67-35.33-31.67z" />
    </g>
  </g>
  <ellipse
     id="ellipse1227"
     transform="matrix(.9891 -.1473 .1473 .9891 -15.391 17.45)"
     ry="1.56"
     rx="2.65"
     fill="#368231"
     cy="112.62"
     cx="110.1" />
  <ellipse
     id="ellipse1229"
     transform="matrix(.2971 -.9548 .9548 .2971 -90.316 99.056)"
     ry="3.67"
     rx="2.16"
     fill="#368231"
     cy="110.88"
     cx="22.12" />
  <path
     id="path1231"
     fill="url(#e)"
     d="m96.7 119.17c4.87-1.47 6.65-3.17 6.42-4.39-.3-1.58-7.12-1.82-15.12-.68v-26.6s-8.11-2.42-24.5-2.42c-18.19 0-24.5 2.42-24.5 2.42v23.86c-5-.29-8.79.33-8.97 1.68-.14 1.07 3.03 2.36 6.92 3.46-7.59.78-12.14 2-12.14 3.37 0 2.35 14.45 4.25 32.05 4.25 7.87 0 15.16-.38 20.72-1.01 2.91.47 7.02.76 11.53.76 8.84 0 16.02-1.12 16.02-2.5.01-.95-3.4-1.78-8.43-2.2z" />
  <g
     id="g1245"
     fill="#368231">
    <ellipse
       id="ellipse1233"
       ry="4.71"
       rx="2.42"
       cy="110.54"
       cx="58.25" />
    <ellipse
       id="ellipse1235"
       ry="4.08"
       rx="2.25"
       cy="93.92"
       cx="62.75" />
    <ellipse
       id="ellipse1237"
       ry="7.25"
       rx="3.96"
       cy="103.83"
       cx="76.38" />
    <ellipse
       id="ellipse1239"
       ry="3.27"
       rx="1.88"
       cy="98.31"
       cx="48.21" />
    <path
       id="path1241"
       d="m102.34 118.42c2.3-1.43 2.71-2.84 2.5-3.91-.28-1.48-2.62-3.65-14.84-2.12l.02-24.39-2.72-.67-.3 28.5 1.71-.24c7.22-1.03 11.38-.73 12.86-.33-.6.55-2.12 1.5-5.32 2.47l-7.53 2.28 7.84.65c2.38.2 4.07.46 5.22.71-2.38.5-6.65 1-12.66 1-4.25 0-8.36-.27-11.29-.74l-.2-.03-.21.02c-5.7.65-13 1-20.54 1-15.84 0-26.59-1.47-29.8-2.75 1.37-.54 4.42-1.29 10.14-1.88l7.79-.8-7.53-2.14c-2.58-.73-4.14-1.37-5-1.81 1.17-.31 3.44-.59 6.92-.39l1.59.09.09-26.04-3.08.79v22.11c-4.32-.11-8.86.42-9.21 3.05-.13 1 .28 1.95 2.13 2.97-6.5 1.15-7.55 2.62-7.55 4.06 0 1.84 1.82 3.31 10.71 4.49 6.12.81 14.22 1.26 22.81 1.26 7.56 0 14.89-.35 20.67-1 3.1.48 7.19.75 11.56.75 14.48 0 17.52-2.17 17.52-4 .01-1.09-.62-2.18-4.3-2.96z" />
    <path
       id="path1243"
       d="m103.91 122h.01z" />
  </g>
  <path
     id="path1247"
     fill="#242424"
     d="m33.19 56.55 12.17-2.36-12.55-5.21c-.14-.07-.28-.15-.42-.23-2.61-1.6-3.06-4.89-.72-6.93 1.81-1.58 4.76-1.6 6.88-.3 4.98 3.05 16.7 10.24 21.27 13.04.82.5.7 1.58-.22 1.93l-22.91 8.6c-.15.06-.32.11-.48.16-3.03.84-6.32-.89-6.79-3.78-.35-2.2 1.35-4.25 3.77-4.92z" />
  <path
     id="path1249"
     fill="#242424"
     d="m95.81 56.3-12.17-2.36 12.55-5.21c.14-.07.28-.15.42-.23 2.61-1.6 3.06-4.89.72-6.93-1.81-1.58-4.76-1.6-6.88-.3-4.98 3.05-16.7 10.24-21.27 13.04-.82.5-.7 1.58.22 1.93l22.91 8.6c.15.06.32.11.48.16 3.03.84 6.32-.89 6.79-3.78.35-2.2-1.35-4.25-3.77-4.92z" />
  <g
     id="g1255"
     stroke-miterlimit="10"
     stroke="#6d4c41"
     fill="#6d4c41">
    <path
       id="path1251"
       d="m52.21 22.9s-.01.32-.05.88c-.02.15-.02.28-.05.47-.04.2-.1.42-.16.66s-.13.49-.2.76c-.08.25-.18.49-.28.75-.18.53-.44 1.08-.76 1.64-.29.57-.68 1.13-1.09 1.7-.44.54-.87 1.13-1.41 1.62-.51.53-1.1.99-1.67 1.46-.62.41-1.23.84-1.88 1.18-.63.38-1.31.62-1.95.89-.66.23-1.3.44-1.94.56-.63.14-1.22.23-1.79.26-.55.06-1.07.05-1.52.02-.45-.01-.84-.05-1.17-.12-.64-.11-1-.2-1-.2-1.08-.27-1.75-1.36-1.48-2.45.18-.71.7-1.24 1.35-1.44l.34-.11s.27-.09.72-.19c.23-.04.5-.13.8-.22.31-.08.65-.19 1.01-.33.37-.11.75-.29 1.16-.45.41-.15.81-.4 1.24-.59.42-.23.85-.47 1.27-.74.44-.24.84-.56 1.25-.85.39-.32.82-.61 1.17-.96.38-.33.73-.67 1.07-1.01.3-.36.65-.68.92-1.03.27-.34.55-.66.76-.98.24-.32.43-.59.58-.82.08-.12.16-.23.24-.33.08-.11.15-.28.21-.39.26-.49.43-.77.43-.77.59-.98 1.87-1.29 2.84-.7.7.41 1.06 1.12 1.04 1.83z" />
    <path
       id="path1253"
       d="m79.63 21.78s.17.28.43.77c.06.12.13.28.21.39.08.1.16.21.24.33.15.23.34.49.58.82.21.32.49.63.76.98.26.35.62.66.92 1.03.34.34.69.68 1.07 1.01.35.35.78.64 1.17.96.42.29.81.61 1.25.85.42.27.85.51 1.27.74.43.18.84.43 1.24.59.41.16.79.34 1.16.45.36.14.7.25 1.01.33.31.09.58.19.8.22.45.11.72.19.72.19l.33.11c1.07.33 1.66 1.47 1.32 2.54-.22.7-.78 1.19-1.44 1.36 0 0-.35.09-1 .2-.32.07-.71.11-1.17.12-.46.03-.97.04-1.52-.02-.56-.02-1.16-.12-1.79-.26-.63-.12-1.28-.33-1.94-.56-.64-.27-1.33-.51-1.95-.89-.65-.34-1.26-.77-1.88-1.18-.57-.48-1.16-.93-1.67-1.46-.54-.49-.97-1.08-1.41-1.62-.41-.57-.79-1.12-1.09-1.7-.31-.56-.57-1.11-.76-1.64-.1-.26-.2-.5-.28-.75-.07-.27-.14-.52-.2-.76s-.12-.46-.16-.66-.04-.33-.05-.47c-.05-.56-.05-.88-.05-.88-.03-1.14.87-2.09 2.02-2.12.8-.04 1.49.36 1.86.98z" />
  </g>
</svg>
