<svg enable-background="new 0 0 128 128" viewBox="0 0 128 128" xmlns="http://www.w3.org/2000/svg" xmlns:xlink="http://www.w3.org/1999/xlink"><linearGradient id="a" gradientTransform="matrix(-1 0 0 -1 -9952 -3126)" gradientUnits="userSpaceOnUse" x1="-10016" x2="-10016" y1="-3234.3" y2="-3146.3"><stop offset="0" stop-color="#40c0e7"/><stop offset=".138" stop-color="#46c5c9"/><stop offset=".5325" stop-color="#55d479"/><stop offset=".8126" stop-color="#5fdd46"/><stop offset=".95" stop-color="#63e133"/></linearGradient><linearGradient id="b" gradientUnits="userSpaceOnUse"><stop offset="0" stop-color="#ed7770"/><stop offset=".9" stop-color="#ed7770" stop-opacity="0"/></linearGradient><radialGradient id="c" cx="30.792" cy="85.808" gradientTransform="matrix(1 0 0 .7307 0 25.961)" r="21.667" xlink:href="#b"/><radialGradient id="d" cx="97.208" cy="85.336" gradientTransform="matrix(1 0 0 .7307 0 25.806)" r="21.667" xlink:href="#b"/><path d="m64 119.89c-15.48 0-29.81-5.12-40.36-14.43-11.54-10.18-17.64-24.52-17.64-41.46 0-16.86 6.1-31.17 17.64-41.39 10.58-9.35 24.91-14.5 40.36-14.5 27.94 0 58 17.49 58 55.89s-30.07 55.89-58 55.89z" fill="url(#a)"/><path d="m64 10.11c15.04 0 28.9 4.91 39.04 13.82 11.1 9.75 16.96 23.61 16.96 40.07 0 16.54-5.86 30.42-16.96 40.15-10.11 8.86-23.98 13.75-39.04 13.75-14.99 0-28.86-4.95-39.03-13.93-11.1-9.8-16.97-23.62-16.97-39.97 0-16.27 5.87-30.07 16.97-39.89 10.2-9.03 24.07-14 39.03-14m0-4c-31.15 0-60 20.72-60 57.89 0 37.37 28.85 57.89 60 57.89s60-20.01 60-57.89c0-37.68-28.85-57.89-60-57.89z" fill="#47a9b0"/><ellipse cx="30.79" cy="88.66" fill="url(#c)" rx="19.92" ry="15.27"/><ellipse cx="97.21" cy="88.16" fill="url(#d)" rx="19.92" ry="15.27"/><g style="fill:none;stroke:#242424;stroke-linecap:round;stroke-linejoin:round;stroke-miterlimit:10;stroke-width:5.2632"><path d="m42.89 79.61c1.93 2.21 3.32 6.7 3.26 9.64s-1.24 5.84-3.26 7.97"/><path d="m85.11 79.39c-1.93 2.21-3.32 6.92-3.26 9.86s1.24 5.84 3.26 7.97"/><path d="m46.16 89.26s4.06-5.08 17.19-5.08 18.5 5.08 18.5 5.08"/></g><path d="m82.74 46.69c4.19 0 8 3.54 8 9.42s-3.81 9.42-8 9.42-8-3.54-8-9.42 3.81-9.42 8-9.42z" fill="#242424"/><path d="m45.2 46.69c-4.19 0-8 3.54-8 9.42s3.81 9.42 8 9.42 8-3.54 8-9.42-3.81-9.42-8-9.42z" fill="#242424"/><g fill="#6d4c41"><path d="m51.1 32.55s-.01.28-.05.77c-.02.13-.01.24-.05.42-.03.18-.09.37-.14.58s-.11.43-.17.67c-.07.22-.16.43-.24.66-.16.47-.39.95-.66 1.44-.26.5-.59.99-.95 1.49-.39.47-.77.99-1.24 1.42-.45.47-.96.87-1.47 1.29-.55.36-1.08.74-1.65 1.04-.55.33-1.16.55-1.72.79-.58.2-1.15.38-1.7.49-.55.12-1.08.2-1.57.23-.49.06-.94.05-1.34.02-.4-.01-.74-.05-1.03-.1-.57-.1-.88-.18-.88-.18-.95-.24-1.54-1.2-1.3-2.15.15-.62.62-1.09 1.19-1.27l.3-.09s.24-.07.64-.17c.2-.04.44-.12.71-.2.27-.07.57-.17.89-.29.32-.1.66-.26 1.02-.4.36-.13.71-.35 1.09-.52.37-.21.75-.41 1.12-.65.39-.21.73-.5 1.1-.75.35-.28.72-.53 1.03-.84.33-.29.64-.59.94-.88.26-.32.58-.6.81-.9.24-.3.48-.58.67-.86.21-.29.38-.52.51-.72.07-.1.14-.2.21-.29.07-.1.13-.24.19-.34.23-.43.38-.68.38-.68.52-.86 1.64-1.14 2.5-.62.56.33.88.96.86 1.59z"/><path d="m80.28 31.56s.15.24.38.68c.06.1.12.25.19.34s.14.19.21.29c.13.2.3.43.51.72.19.28.43.56.67.86.23.31.54.58.81.9.3.29.61.6.94.88.31.31.68.56 1.03.84.37.25.72.54 1.1.75.37.24.75.45 1.12.65.38.16.74.38 1.09.52.36.14.69.3 1.02.4.32.12.62.22.89.29.27.08.51.16.71.2.4.1.64.17.64.17l.29.09c.94.29 1.46 1.29 1.16 2.23-.19.61-.69 1.05-1.27 1.19 0 0-.31.08-.88.18-.28.06-.63.09-1.03.1-.4.03-.85.04-1.34-.02-.5-.02-1.02-.1-1.57-.23-.56-.1-1.12-.29-1.7-.49-.56-.24-1.17-.45-1.72-.79-.57-.3-1.11-.68-1.65-1.04-.5-.42-1.02-.82-1.47-1.29-.48-.43-.85-.95-1.24-1.42-.36-.5-.7-.99-.95-1.49-.27-.49-.5-.97-.66-1.44-.09-.23-.18-.44-.24-.66-.06-.23-.12-.46-.17-.67s-.1-.4-.14-.58c-.03-.17-.03-.29-.05-.42-.04-.49-.05-.77-.05-.77-.03-1.01.77-1.84 1.77-1.87.67 0 1.27.36 1.6.9z"/></g></svg>