<?xml version="1.0" encoding="UTF-8" standalone="no"?>
<svg
   xmlns:dc="http://purl.org/dc/elements/1.1/"
   xmlns:cc="http://creativecommons.org/ns#"
   xmlns:rdf="http://www.w3.org/1999/02/22-rdf-syntax-ns#"
   xmlns:svg="http://www.w3.org/2000/svg"
   xmlns="http://www.w3.org/2000/svg"
   xmlns:sodipodi="http://sodipodi.sourceforge.net/DTD/sodipodi-0.dtd"
   xmlns:inkscape="http://www.inkscape.org/namespaces/inkscape"
   inkscape:version="1.0 (4035a4fb49, 2020-05-01)"
   sodipodi:docname="silly.svg"
   id="svg55"
   version="1.1"
   viewBox="0 0 128 128"
   enable-background="new 0 0 128 128">
  <metadata
     id="metadata61">
    <rdf:RDF>
      <cc:Work
         rdf:about="">
        <dc:format>image/svg+xml</dc:format>
        <dc:type
           rdf:resource="http://purl.org/dc/dcmitype/StillImage" />
      </cc:Work>
    </rdf:RDF>
  </metadata>
  <defs
     id="defs59" />
  <sodipodi:namedview
     inkscape:current-layer="svg55"
     inkscape:window-maximized="1"
     inkscape:window-y="47"
     inkscape:window-x="0"
     inkscape:cy="64"
     inkscape:cx="64"
     inkscape:zoom="7.4375"
     showgrid="false"
     id="namedview57"
     inkscape:window-height="1007"
     inkscape:window-width="1920"
     inkscape:pageshadow="2"
     inkscape:pageopacity="0"
     guidetolerance="10"
     gridtolerance="10"
     objecttolerance="10"
     borderopacity="1"
     bordercolor="#666666"
     pagecolor="#ffffff" />
  <linearGradient
     y2="107.7"
     y1="19.717"
     x2="64"
     x1="64"
     gradientUnits="userSpaceOnUse"
     id="a">
    <stop
       id="stop2"
       stop-color="#fee133"
       offset=".5" />
    <stop
       id="stop4"
       stop-color="#fede32"
       offset=".6118" />
    <stop
       id="stop6"
       stop-color="#fcd32f"
       offset=".7076" />
    <stop
       id="stop8"
       stop-color="#fac12b"
       offset=".7975" />
    <stop
       id="stop10"
       stop-color="#f7a924"
       offset=".8834" />
    <stop
       id="stop12"
       stop-color="#f6a323"
       offset=".9" />
  </linearGradient>
  <clipPath
     id="b">
    <path
       id="path15"
       d="m66.78 76.47c-12.05 4.06-23.6 6.83-33.52 8.25-2.46.35-3.83 3.08-2.58 5.23 8.23 14.15 27.4 21.59 45.81 15.38 20.15-6.79 29.37-24.25 27.19-40.05-.34-2.44-3.06-3.75-5.21-2.55-8.76 4.88-19.63 9.67-31.69 13.74z" />
  </clipPath>
  <clipPath
     id="c">
    <path
       id="path18"
       d="m34.79 89.27 14.11 41.85 64.48-21.73-14.1-41.85c-9.03 4.9-19.72 9.48-31.04 13.29-11.3 3.81-22.57 6.63-32.71 8.2" />
  </clipPath>
  <path
     id="path21"
     fill="url(#a)"
     d="m64 119.89c-27.93 0-58-17.49-58-55.89s30.07-55.89 58-55.89c15.48 0 29.81 5.12 40.36 14.43 11.54 10.18 17.64 24.52 17.64 41.46 0 16.86-6.1 31.17-17.64 41.39-10.58 9.35-24.91 14.5-40.36 14.5z" />
  <path
     id="path23"
     fill="#eb8f00"
     d="m64 10.11c14.99 0 28.86 4.95 39.03 13.93 11.1 9.79 16.97 23.61 16.97 39.96 0 16.27-5.87 30.07-16.97 39.89-10.21 9.03-24.07 14-39.03 14-15.04 0-28.9-4.91-39.04-13.82-11.1-9.75-16.96-23.61-16.96-40.07 0-16.54 5.86-30.42 16.96-40.15 10.11-8.86 23.97-13.74 39.04-13.74m0-4c-31.15 0-60 20-60 57.89 0 37.68 28.85 57.89 60 57.89s60-20.73 60-57.89c0-37.37-28.85-57.89-60-57.89z" />
  <circle
     id="circle25"
     r="21.99"
     fill="#fff"
     cy="40.86"
     cx="80.44" />
  <path
     id="path27"
     fill="#eb8f00"
     d="m80.44 22.86c7.37 0 13.92 4.41 16.68 11.24 3.73 9.2-.72 19.71-9.92 23.44-2.17.88-4.44 1.32-6.75 1.32-7.37 0-13.92-4.41-16.68-11.24-3.73-9.2.72-19.71 9.92-23.44 2.16-.87 4.43-1.32 6.75-1.32m0-4c-2.75 0-5.55.52-8.25 1.62-11.27 4.56-16.69 17.38-12.13 28.64 3.47 8.55 11.7 13.74 20.39 13.74 2.75 0 5.55-.52 8.25-1.62 11.26-4.56 16.68-17.39 12.12-28.65-3.46-8.54-11.69-13.73-20.38-13.73z" />
  <circle
     id="circle29"
     r="7"
     fill="#242424"
     cy="41"
     cx="80.44" />
  <circle
     id="circle31"
     r="16"
     fill="#fff"
     cy="56.91"
     cx="35.89" />
  <path
     id="path33"
     fill="#eb8f00"
     d="m35.94 44.91c4.91 0 9.28 2.94 11.12 7.49 1.2 2.97 1.18 6.23-.07 9.18s-3.57 5.24-6.54 6.44c-1.45.59-2.96.88-4.5.88-4.91 0-9.28-2.94-11.12-7.49-2.48-6.13.48-13.14 6.61-15.62 1.45-.58 2.96-.88 4.5-.88m0-4c-2 0-4.04.38-6 1.18-8.19 3.32-12.13 12.65-8.82 20.83 2.52 6.22 8.51 9.99 14.83 9.99 2 0 4.04-.38 6-1.18 8.19-3.32 12.13-12.65 8.82-20.83-2.52-6.22-8.51-9.99-14.83-9.99z" />
  <circle
     id="circle35"
     r="7"
     fill="#242424"
     cy="57"
     cx="35.95" />
  <path
     id="path37"
     fill="#242424"
     d="m66.78 76.47c-12.05 4.06-23.6 6.83-33.52 8.25-2.46.35-3.83 3.08-2.58 5.23 8.23 14.15 27.4 21.59 45.81 15.38 20.15-6.79 29.37-24.25 27.19-40.05-.34-2.44-3.06-3.75-5.21-2.55-8.76 4.88-19.63 9.67-31.69 13.74z"
     clip-path="url(#b)" />
  <g
     id="g41"
     opacity=".6"
     clip-path="url(#b)">
    <path
       id="path39"
       d="m99.81 66.56c.77 6.86-.89 13.93-4.72 19.98-4.37 6.9-11.24 12.09-19.87 15-3.93 1.33-8 2-12.08 2-11.83 0-22.98-5.85-28.62-14.96 10.35-1.53 21.92-4.4 33.54-8.31 11.62-3.93 22.58-8.66 31.75-13.71m.38-4.28c-.58 0-1.17.14-1.72.45-8.76 4.88-19.63 9.67-31.69 13.74-12.05 4.06-23.6 6.83-33.52 8.25-2.46.35-3.83 3.08-2.58 5.23 6.23 10.72 18.75 17.59 32.46 17.59 4.39 0 8.89-.7 13.36-2.21 20.15-6.79 29.37-24.25 27.19-40.05-.26-1.81-1.83-3-3.5-3z" />
  </g>
  <path
     id="path43"
     fill="none"
     d="m66.78 76.47c-12.05 4.06-23.6 6.83-33.52 8.25-2.46.35-3.83 3.08-2.58 5.23 8.23 14.15 27.4 21.59 45.81 15.38 20.15-6.79 29.37-24.25 27.19-40.05-.34-2.44-3.06-3.75-5.21-2.55-8.76 4.88-19.63 9.67-31.69 13.74z" />
  <path
     id="path45"
     fill="none"
     d="m66.78 76.47c-12.05 4.06-23.6 6.83-33.52 8.25-2.46.35-3.83 3.08-2.58 5.23 8.23 14.15 27.4 21.59 45.81 15.38 20.15-6.79 29.37-24.25 27.19-40.05-.34-2.44-3.06-3.75-5.21-2.55-8.76 4.88-19.63 9.67-31.69 13.74z" />
  <path
     sodipodi:nodetypes="ccccccc"
     id="path47"
     fill="#e04c74"
     d="m 67.1,124.92 -3.28,0.16 c -9.5,0.45 -17.56,-6.88 -18.01,-16.38 l -1.84,-21.72 37.66,-10.89 1.84,30.82 c 0.45,9.5 -6.88,17.56 -16.37,18.01 z"
     clip-path="url(#c)" />
  <g
     id="g51"
     opacity=".3"
     clip-path="url(#c)">
    <path
       sodipodi:nodetypes="ccccsccccccscccc"
       id="path49"
       fill="#ab3f2e"
       d="m 77.83,77.48 1.65,29.62 c 0.35,7.28 -5.29,13.48 -12.57,13.82 l -3.28,0.16 c -0.21,0.01 -0.43,0.02 -0.64,0.02 -7.06,0 -12.85,-5.53 -13.18,-12.59 L 48.16,86.49 Z m 3.81,-1.39 -37.66,11.29 1.84,21.32 c 0.44,9.22 8.05,16.4 17.18,16.4 0.28,0 0.55,-0.01 0.83,-0.02 l 3.28,-0.16 c 9.5,-0.45 16.83,-8.51 16.38,-18.01 z" />
  </g>
  <path
     sodipodi:nodetypes="cc"
     id="path53"
     clip-path="url(#c)"
     style="opacity:0.3;fill:none;stroke:#ab3f2e;stroke-width:4;stroke-linecap:round;stroke-miterlimit:10"
     d="m 62.81,82.08 1.61,21.1" />
</svg>
