<svg enable-background="new 0 0 128 128" viewBox="0 0 128 128" xmlns="http://www.w3.org/2000/svg" xmlns:xlink="http://www.w3.org/1999/xlink"><linearGradient id="a" gradientUnits="userSpaceOnUse" x1="64" x2="64" y1="105.26" y2="22.739"><stop offset=".001315" stop-color="#c7c7c7"/><stop offset=".2797" stop-color="#cacaca"/><stop offset=".5253" stop-color="#d5d5d5"/><stop offset=".7578" stop-color="#e7e7e7"/><stop offset=".9473" stop-color="#fcfcfc"/></linearGradient><path d="m20.37 113.71c-1.91 0-3.69-.85-4.9-2.34-1.58-1.96-1.36-4.2-1.08-5.36.14-.6 0-1.24-.39-1.72-.38-.47-.95-.74-1.56-.74h-.2c-1.99 0-3.71-.78-4.85-2.19-2.17-2.68-1.74-6.64.95-8.83 1.12-.91 2.49-1.39 3.93-1.39 1.84 0 3.56.79 4.75 2.17.07.15.16.33.3.52.33.43.81.72 1.35.78.08.01.16.02.25.02.45 0 .9-.16 1.26-.44l82.66-66.74c.42-.34.69-.84.74-1.39.05-.54-.13-1.08-.49-1.49-.15-.17-.31-.3-.42-.38-2.03-2.68-1.58-6.53 1.06-8.67 1.12-.91 2.48-1.39 3.93-1.39 1.9 0 3.69.85 4.89 2.33 1.58 1.96 1.35 4.2 1.08 5.36-.14.6 0 1.24.39 1.72.38.47.95.74 1.56.74h.19c1.99 0 3.72.78 4.86 2.19 2.17 2.68 1.74 6.64-.95 8.83-1.12.91-2.49 1.39-3.93 1.39-1.84 0-3.56-.79-4.75-2.17-.07-.15-.16-.33-.3-.52-.33-.43-.81-.72-1.35-.78-.08-.01-.16-.02-.25-.02-.46 0-.9.16-1.26.44l-82.65 66.75c-.42.34-.69.84-.74 1.39s.13 1.08.49 1.49c.15.17.31.3.43.39 2.03 2.75 1.55 6.55-1.06 8.68-1.14.89-2.5 1.37-3.94 1.37z" fill="#ccc"/><path d="m107.64 16.12c1.3 0 2.52.58 3.32 1.57 1.05 1.31.89 2.85.7 3.66-.28 1.2 0 2.47.78 3.43.76.94 1.9 1.49 3.11 1.49h.08.11c.8 0 2.29.19 3.31 1.45 1.48 1.83 1.18 4.53-.64 6.01-.97.78-1.99.95-2.68.95-1.18 0-2.28-.47-3.08-1.31-.09-.17-.22-.37-.37-.58-.65-.87-1.63-1.43-2.71-1.57-.16-.02-.33-.03-.49-.03-.91 0-1.8.31-2.51.89l-82.66 66.75c-.85.69-1.38 1.69-1.47 2.77-.09 1.09.26 2.16.98 2.98.16.18.32.33.47.46 1.23 1.81.88 4.31-.85 5.72-.97.78-1.99.95-2.67.95-1.3 0-2.52-.58-3.33-1.59-1.05-1.31-.89-2.85-.7-3.66.29-1.2 0-2.47-.78-3.44-.76-.94-1.9-1.49-3.11-1.49h-.08-.11c-.79 0-2.28-.19-3.3-1.45-1.48-1.83-1.18-4.53.64-6.01.97-.78 1.99-.95 2.68-.95 1.18 0 2.28.47 3.08 1.31.09.17.22.37.37.58.65.87 1.63 1.43 2.7 1.57.16.02.33.03.49.03.91 0 1.8-.31 2.51-.89l82.66-66.72c.85-.69 1.38-1.69 1.47-2.77.09-1.09-.26-2.16-.98-2.98-.16-.18-.32-.33-.47-.46-1.23-1.81-.88-4.31.85-5.72.98-.78 2-.95 2.68-.95m0-4c-1.82 0-3.66.6-5.19 1.84-3.55 2.88-4.11 8.08-1.24 11.63.09.13.26.18.37.3l-82.66 66.74c-.1-.13-.12-.29-.22-.42-1.63-2.02-4.02-3.07-6.43-3.07-1.83 0-3.66.6-5.19 1.84-3.55 2.88-4.11 8.08-1.24 11.63 1.63 2.01 4 2.94 6.41 2.94h.2c-.57 2.41-.19 5.01 1.47 7.09 1.64 2.02 4.04 3.08 6.45 3.08 1.82 0 3.65-.6 5.18-1.83 3.55-2.88 4.11-8.08 1.24-11.63-.09-.13-.26-.18-.37-.3l82.65-66.75c.1.13.12.29.22.42 1.63 2.02 4.02 3.07 6.43 3.07 1.83 0 3.66-.6 5.19-1.84 3.55-2.88 4.11-8.08 1.24-11.63-1.63-2.02-4.01-2.94-6.42-2.94h-.19c.57-2.41.19-5.01-1.47-7.09-1.62-2.03-4.01-3.08-6.43-3.08z" fill="#a1a1a1"/><path d="m107.63 113.71c-1.44 0-2.8-.48-3.93-1.39-2.63-2.14-3.09-5.99-1.06-8.67.12-.09.28-.21.43-.38.36-.41.54-.95.49-1.49s-.31-1.04-.74-1.39l-82.64-66.76c-.36-.29-.8-.44-1.26-.44-.08 0-.16 0-.25.02-.54.07-1.03.35-1.35.78-.15.2-.25.39-.31.53-1.15 1.35-2.88 2.16-4.74 2.16-1.45 0-2.81-.48-3.94-1.39-2.68-2.18-3.11-6.14-.94-8.82 1.14-1.41 2.87-2.19 4.86-2.19h.19c.6 0 1.18-.27 1.56-.74.39-.48.53-1.11.39-1.72-.27-1.16-.5-3.4 1.09-5.37 1.2-1.47 2.98-2.32 4.88-2.32 1.44 0 2.8.48 3.93 1.39 2.63 2.14 3.09 5.99 1.06 8.67-.12.09-.28.21-.43.38-.36.41-.54.95-.49 1.49s.31 1.05.74 1.39l82.66 66.74c.36.29.8.44 1.26.44.08 0 .16 0 .25-.02.54-.07 1.03-.35 1.35-.78.15-.2.25-.39.31-.53 1.15-1.35 2.88-2.16 4.74-2.16 1.45 0 2.81.48 3.94 1.39 2.68 2.18 3.11 6.14.94 8.82-1.14 1.41-2.87 2.19-4.85 2.19h-.2c-.6 0-1.18.27-1.56.74-.39.48-.53 1.12-.39 1.72.28 1.16.5 3.4-1.09 5.37-1.2 1.49-2.99 2.34-4.9 2.34z" fill="#ccc"/><path d="m20.36 16.12c.69 0 1.71.16 2.67.94 1.74 1.41 2.09 3.91.86 5.73-.15.13-.31.28-.47.46-.72.82-1.08 1.9-.98 2.98.09 1.09.62 2.09 1.47 2.77l82.66 66.74c.72.58 1.6.89 2.51.89.16 0 .33-.01.49-.03 1.08-.13 2.05-.7 2.7-1.57.16-.21.28-.41.37-.58.8-.84 1.9-1.31 3.08-1.31.69 0 1.71.16 2.67.94 1.83 1.49 2.13 4.19.65 6.02-1.02 1.26-2.5 1.45-3.3 1.45h-.11-.08c-1.21 0-2.35.54-3.11 1.49-.78.96-1.07 2.23-.78 3.44.19.8.35 2.35-.69 3.64-.82 1.02-2.04 1.6-3.34 1.6-.68 0-1.7-.16-2.66-.94-1.74-1.41-2.09-3.91-.86-5.73.15-.13.31-.28.47-.46.72-.82 1.08-1.9.99-2.98-.09-1.09-.62-2.09-1.47-2.77l-82.66-66.76c-.72-.58-1.6-.89-2.51-.89-.16 0-.33.01-.49.03-1.08.13-2.05.7-2.71 1.57-.16.21-.28.41-.37.58-.8.84-1.9 1.31-3.08 1.31-.69 0-1.71-.16-2.67-.94-1.83-1.49-2.13-4.19-.65-6.02 1.02-1.26 2.51-1.45 3.31-1.45h.11.08c1.21 0 2.35-.55 3.11-1.49.78-.96 1.06-2.23.78-3.43-.19-.8-.35-2.35.69-3.64.8-1.01 2.02-1.59 3.32-1.59m0-4c-2.41 0-4.8 1.05-6.44 3.07-1.67 2.07-2.04 4.68-1.47 7.09h-.19c-2.41 0-4.79.92-6.42 2.94-2.87 3.56-2.31 8.75 1.24 11.63 1.53 1.24 3.37 1.84 5.19 1.84 2.41 0 4.8-1.05 6.43-3.07.1-.13.12-.29.22-.42l82.65 66.75c-.11.12-.27.17-.37.3-2.87 3.56-2.31 8.75 1.24 11.63 1.53 1.23 3.36 1.83 5.18 1.83 2.41 0 4.81-1.05 6.45-3.08 1.67-2.07 2.04-4.68 1.47-7.09h.2c2.41 0 4.78-.93 6.41-2.94 2.87-3.56 2.31-8.75-1.24-11.63-1.53-1.24-3.37-1.84-5.19-1.84-2.41 0-4.8 1.05-6.43 3.07-.1.13-.12.29-.22.42l-82.65-66.73c.11-.12.27-.17.37-.3 2.87-3.56 2.31-8.75-1.24-11.63-1.54-1.24-3.37-1.84-5.19-1.84z" fill="#a1a1a1"/><path d="m47.06 105.26c-.94 0-1.7-.76-1.7-1.7v-11.12c0-1.1-.9-2-2-2h-5.91c-3 0-5.81-1.17-7.93-3.29-2.11-2.12-3.27-4.93-3.26-7.91v-18.77c0-20.81 16.93-37.73 37.73-37.73 20.81 0 37.74 16.93 37.74 37.73v18.76c0 6.18-5.03 11.21-11.21 11.21h-5.91c-1.1 0-2 .9-2 2v11.12c0 .94-.76 1.7-1.7 1.7z" fill="url(#a)"/><path d="m64 24.74c19.7 0 35.73 16.03 35.73 35.73v18.76c0 5.08-4.13 9.21-9.21 9.21h-5.91c-2.21 0-4 1.79-4 4v10.82h-33.25v-10.82c0-2.21-1.79-4-4-4h-5.91c-2.46 0-4.77-.96-6.51-2.71-1.73-1.74-2.68-4.05-2.68-6.5v-18.76c.01-19.7 16.04-35.73 35.74-35.73m0-4c-21.92 0-39.73 17.82-39.73 39.73v18.76c-.02 7.28 5.9 13.21 13.19 13.21h5.91v11.12c0 2.04 1.66 3.7 3.7 3.7h33.85c2.04 0 3.7-1.65 3.7-3.7v-11.12h5.91c7.28 0 13.21-5.93 13.21-13.21v-18.76c-.01-21.91-17.84-39.73-39.74-39.73z" fill="#a1a1a1"/><g fill="#242424"><path d="m66.45 83.05h-4.94c-1.78 0-3.05-1.72-2.53-3.42l1.64-5.36c1.02-3.31 5.71-3.31 6.73 0l1.64 5.36c.51 1.7-.76 3.42-2.54 3.42z"/><path d="m73.02 64.42c0-5.69 4.6-10.3 10.3-10.3 5.69 0 10.31 4.6 10.31 10.3 0 5.69-4.61 10.31-10.31 10.31-5.69-.01-10.3-4.62-10.3-10.31z"/><path d="m34.34 64.42c0-5.69 4.61-10.3 10.31-10.3 5.69 0 10.3 4.6 10.3 10.3 0 5.69-4.6 10.31-10.3 10.31-5.69-.01-10.31-4.62-10.31-10.31z"/><path d="m53.57 107.03h-.38c-1.2 0-2.17-.97-2.17-2.17v-5.75c0-1.2.97-2.17 2.17-2.17h.38c1.2 0 2.17.97 2.17 2.17v5.75c0 1.2-.97 2.17-2.17 2.17z"/><path d="m64.16 106.87h-.38c-1.2 0-2.17-.97-2.17-2.17v-5.75c0-1.2.97-2.17 2.17-2.17h.38c1.2 0 2.17.97 2.17 2.17v5.75c.01 1.2-.97 2.17-2.17 2.17z"/><path d="m74.76 106.87h-.38c-1.2 0-2.17-.97-2.17-2.17v-5.75c0-1.2.97-2.17 2.17-2.17h.38c1.2 0 2.17.97 2.17 2.17v5.75c0 1.2-.97 2.17-2.17 2.17z"/></g></svg>