<svg enable-background="new 0 0 128 128" viewBox="0 0 128 128" xmlns="http://www.w3.org/2000/svg" xmlns:xlink="http://www.w3.org/1999/xlink"><linearGradient id="a" gradientUnits="userSpaceOnUse" x1="64" x2="64" y1="21.465" y2="109.45"><stop offset=".5" stop-color="#fee133"/><stop offset=".6118" stop-color="#fede32"/><stop offset=".7076" stop-color="#fcd32f"/><stop offset=".7975" stop-color="#fac12b"/><stop offset=".8834" stop-color="#f7a924"/><stop offset=".9" stop-color="#f6a323"/></linearGradient><path d="m64 121.64c-27.93 0-58-17.49-58-55.89s30.07-55.89 58-55.9c15.48 0 29.81 5.13 40.36 14.43 11.54 10.19 17.64 24.53 17.64 41.47 0 16.86-6.1 31.17-17.64 41.39-10.57 9.35-24.91 14.5-40.36 14.5z" fill="url(#a)"/><path d="m64 11.85c14.99 0 28.86 4.95 39.03 13.93 11.1 9.8 16.97 23.62 16.97 39.97 0 16.27-5.87 30.07-16.97 39.89-10.21 9.03-24.07 14-39.03 14-15.04 0-28.9-4.91-39.04-13.82-11.1-9.75-16.96-23.61-16.96-40.07 0-16.54 5.86-30.42 16.96-40.15 10.11-8.86 23.97-13.75 39.04-13.75m0-4c-31.15 0-60 20.01-60 57.89 0 37.68 28.85 57.89 60 57.89s60-20.73 60-57.89c0-37.37-28.85-57.89-60-57.89z" fill="#eb8f00"/><g fill="#d7598b"><path d="m78.2 21.64c-.35-.17-.73-.3-1.1-.43-.44-.17-.88-.34-1.33-.47-.69-.22-1.39-.41-2.08-.63-.83-.27-1.68-.54-2.51-.81-1.6-.52-3.62-1.75-4.64.53-.22.47-.46 1.13-.43 1.63.04.84.62 1.2 1.35 1.5.74.3 1.51.56 2.27.81.25.08.51.16.77.23.15.05.4.09.38.28-.02.13-.18.25-.29.34-.18.14-.37.27-.57.4l-.27.19c-.57.37-1.13.75-1.69 1.11-.45.29-.9.59-1.33.91-.18.12-.36.24-.55.36-.61.39-1.12.82-1.67 1.26l-.21.19c-.52.46-1.05.99-1.11 1.7-.07.91.63 1.34 1.44 1.72.29.13.58.25.89.34l.03.01c.99.42 2.09.7 3.16 1.05.84.27 1.68.54 2.51.81 1.6.52 3.62 1.75 4.64-.52.22-.48.46-1.13.43-1.64-.05-.83-.62-1.2-1.34-1.5-.74-.3-1.51-.56-2.27-.8-.17-.05-.34-.1-.51-.16-.11-.04-.34-.07-.41-.15-.2-.2.18-.37.3-.45.41-.25.82-.51 1.22-.77.42-.28.85-.54 1.24-.86.21-.14.42-.26.64-.4.45-.31.92-.58 1.34-.94 1.07-.9 3.59-1.96 2.75-3.72-.21-.41-.65-.92-1.05-1.12z"/><path d="m98.05 12.08c-.4-.16-.82-.28-1.23-.4-.51-.14-1-.29-1.51-.4-.77-.17-1.55-.33-2.32-.51-.93-.22-1.87-.46-2.8-.69-1.81-.44-4.1-1.62-5.04.96-.19.53-.4 1.26-.33 1.82.12.91.78 1.26 1.6 1.53.83.27 1.69.49 2.54.7.28.07.58.13.86.2.17.04.45.06.44.27.01.15-.17.29-.27.39-.2.17-.4.33-.6.49-.1.08-.19.15-.29.23-.58.46-1.18.91-1.76 1.35-.47.36-.93.72-1.38 1.1-.19.15-.38.3-.57.43-.63.48-1.16.99-1.73 1.52-.08.07-.15.15-.22.22-.53.55-1.07 1.17-1.08 1.95 0 1 .81 1.41 1.72 1.76.33.13.65.22 1 .29l.03.01c1.11.38 2.35.6 3.54.88.94.22 1.87.46 2.81.69 1.8.43 4.11 1.61 5.04-.96.2-.53.4-1.27.33-1.82-.12-.91-.78-1.27-1.6-1.53-.84-.27-1.69-.49-2.55-.7-.19-.04-.38-.08-.57-.13-.13-.03-.36-.04-.46-.12-.24-.2.16-.42.3-.52.43-.31.85-.62 1.26-.95.43-.34.88-.66 1.29-1.04.21-.16.44-.33.66-.5.47-.36.96-.71 1.4-1.14 1.09-1.07 3.76-2.44 2.69-4.29-.22-.39-.75-.91-1.2-1.09z"/><path d="m124.61 8.96c-.3-.51-1-1.21-1.59-1.45-.53-.22-1.09-.37-1.64-.53-.66-.19-1.33-.38-2-.54-1.03-.23-2.06-.44-3.08-.69-1.24-.3-2.49-.61-3.74-.91-2.39-.58-5.45-2.16-6.69 1.27-.26.71-.54 1.69-.44 2.42.15 1.21 1.03 1.69 2.12 2.04 1.11.36 2.25.65 3.39.93.38.09.76.18 1.14.26.22.05.59.08.59.35 0 .2-.23.39-.38.52-.26.23-.53.44-.8.65-.12.1-.25.2-.37.3-.78.6-1.57 1.21-2.34 1.79-.63.47-1.24.96-1.84 1.46-.24.19-.5.39-.76.58-.84.63-1.54 1.31-2.31 2.01l-.29.29c-.7.72-1.42 1.55-1.42 2.58-.01 1.34 1.07 1.88 2.29 2.35.43.16.86.29 1.32.39l.05.02c1.47.5 3.12.79 4.71 1.17 1.24.3 2.49.61 3.74.91 2.4.58 5.46 2.16 6.7-1.27.26-.71.54-1.68.44-2.42-.15-1.21-1.02-1.69-2.12-2.04-1.12-.36-2.25-.65-3.39-.93-.26-.06-.5-.11-.76-.17-.18-.04-.49-.06-.61-.17-.31-.27.22-.56.4-.69.57-.41 1.13-.82 1.68-1.26.58-.45 1.17-.88 1.71-1.38.29-.22.59-.44.89-.66.62-.49 1.27-.95 1.85-1.51 1.43-1.39 4.97-3.21 3.55-5.67z"/></g><g fill="#242424"><path d="m55.67 103.32c-2.49 0-4.79-1.4-6-3.66s-1.09-4.89.32-7.04c3.14-4.78 7.99-7.3 14.01-7.3s10.87 2.53 14.01 7.3c1.42 2.16 1.54 4.79.32 7.04s-3.51 3.65-6 3.65c-.77 0-1.55-.13-2.3-.4-1.96-.68-3.99-1.03-6.03-1.03s-4.07.35-6.03 1.03c-.76.28-1.53.41-2.3.41z"/><path d="m49.61 54.7-.2.2c-.11.11-.36.39-.51.5-.19.16-.42.35-.69.57-.29.22-.62.46-.98.71-.37.23-.77.47-1.2.68-.42.23-.9.39-1.37.57-.48.17-.99.26-1.5.37-.51.08-1.04.12-1.57.12h.14-.01-.02-.04-.08-.16l-.31-.01c-.26 0-.3-.02-.4-.03-.16 0-.45-.05-.7-.09-.51-.11-1.02-.2-1.5-.37-.47-.18-.95-.34-1.38-.57-.43-.22-.83-.45-1.2-.68-.72-.48-1.31-.96-1.7-1.32-.4-.36-.63-.58-.63-.58l-.25-.25c-1.21-1.17-3.25-1.24-4.57-.17-1.04.85-1.3 2.16-.78 3.25l.15.3c.1.19.22.49.44.84.41.71 1.09 1.71 2.17 2.76.54.52 1.17 1.07 1.91 1.57.73.52 1.58.99 2.52 1.4.94.4 1.96.75 3.04.97.55.1 1.06.2 1.73.26.31.03.68.06.84.07l.77.03c1.13-.02 2.25-.14 3.34-.35 1.08-.22 2.1-.57 3.04-.97.93-.41 1.79-.88 2.52-1.4.75-.5 1.37-1.04 1.92-1.57.54-.52.97-1.04 1.33-1.51.17-.24.33-.46.48-.67.14-.23.28-.44.4-.63.27-.42.29-.58.39-.77.07-.16.11-.25.11-.25.67-1.49-.14-3.18-1.81-3.78-1.32-.47-2.79-.11-3.68.8z"/><path d="m94.51 54.7-.2.2c-.11.11-.36.39-.51.5-.19.16-.42.35-.69.57-.29.22-.62.46-.98.71-.37.23-.77.47-1.2.68-.42.23-.9.39-1.38.57-.48.17-.99.26-1.5.37-.51.08-1.04.12-1.57.12h.14-.01-.02-.04-.08-.16l-.31-.01c-.26 0-.3-.02-.4-.03-.16 0-.45-.05-.7-.09-.51-.11-1.02-.2-1.5-.37-.47-.18-.95-.34-1.37-.57-.43-.22-.83-.45-1.2-.68-.72-.48-1.31-.96-1.7-1.32-.4-.36-.63-.58-.63-.58l-.25-.25c-1.21-1.17-3.25-1.24-4.57-.17-1.04.85-1.3 2.16-.78 3.25l.15.3c.1.19.22.49.44.84.41.71 1.09 1.71 2.17 2.76.54.52 1.17 1.07 1.92 1.57.73.52 1.58.99 2.52 1.4.94.4 1.96.75 3.04.97.55.1 1.06.2 1.73.26.31.03.68.06.84.07l.77.03c1.13-.02 2.25-.14 3.34-.35 1.08-.22 2.1-.57 3.04-.97.93-.41 1.79-.88 2.52-1.4.75-.5 1.37-1.04 1.91-1.57.54-.52.97-1.04 1.33-1.51.17-.24.33-.46.48-.67.14-.23.28-.44.39-.63.27-.42.29-.58.39-.77.07-.16.11-.25.11-.25.67-1.49-.14-3.18-1.81-3.78-1.31-.47-2.78-.11-3.67.8z"/></g></svg>