<?xml version="1.0" encoding="UTF-8"?>
<svg xmlns="http://www.w3.org/2000/svg" xmlns:xlink="http://www.w3.org/1999/xlink" width="16pt" height="16pt" viewBox="0 0 16 16" version="1.1">
<defs>
<linearGradient id="linear0" gradientUnits="userSpaceOnUse" x1="64" y1="19.717" x2="64" y2="107.7" gradientTransform="matrix(0.125,0,0,0.125,0,0)">
<stop offset="0.5" style="stop-color:rgb(99.607843%,88.235294%,20%);stop-opacity:1;"/>
<stop offset="0.6118" style="stop-color:rgb(99.607843%,87.058824%,19.607843%);stop-opacity:1;"/>
<stop offset="0.7076" style="stop-color:rgb(98.823529%,82.745098%,18.431373%);stop-opacity:1;"/>
<stop offset="0.7975" style="stop-color:rgb(98.039216%,75.686275%,16.862745%);stop-opacity:1;"/>
<stop offset="0.8834" style="stop-color:rgb(96.862745%,66.27451%,14.117647%);stop-opacity:1;"/>
<stop offset="0.9" style="stop-color:rgb(96.470588%,63.921569%,13.72549%);stop-opacity:1;"/>
</linearGradient>
</defs>
<g id="surface1">
<path style=" stroke:none;fill-rule:nonzero;fill:url(#linear0);" d="M 8 14.984375 C 4.507812 14.984375 0.75 12.800781 0.75 8 C 0.75 3.199219 4.507812 1.015625 8 1.015625 C 9.933594 1.015625 11.726562 1.652344 13.046875 2.816406 C 14.488281 4.089844 15.25 5.882812 15.25 8 C 15.25 10.109375 14.488281 11.894531 13.046875 13.171875 C 11.722656 14.34375 9.929688 14.984375 8 14.984375 Z M 8 14.984375 "/>
<path style=" stroke:none;fill-rule:nonzero;fill:rgb(92.156863%,56.078431%,0%);fill-opacity:1;" d="M 8 1.265625 C 9.875 1.265625 11.609375 1.882812 12.878906 3.003906 C 14.265625 4.230469 15 5.957031 15 8 C 15 10.035156 14.265625 11.757812 12.878906 12.984375 C 11.601562 14.113281 9.871094 14.734375 8 14.734375 C 6.121094 14.734375 4.386719 14.121094 3.121094 13.007812 C 1.734375 11.789062 1 10.058594 1 8 C 1 5.933594 1.734375 4.199219 3.121094 2.980469 C 4.382812 1.875 6.117188 1.265625 8 1.265625 M 8 0.765625 C 4.105469 0.765625 0.5 3.265625 0.5 8 C 0.5 12.710938 4.105469 15.234375 8 15.234375 C 11.894531 15.234375 15.5 12.644531 15.5 8 C 15.5 3.328125 11.894531 0.765625 8 0.765625 Z M 8 0.765625 "/>
<path style=" stroke:none;fill-rule:nonzero;fill:rgb(14.117647%,14.117647%,14.117647%);fill-opacity:1;" d="M 8.003906 12.015625 C 6.503906 12.015625 5.429688 11.238281 5.109375 10.746094 C 4.984375 10.554688 4.917969 10.320312 5.042969 10.195312 C 5.3125 9.925781 6.453125 10.6875 8.003906 10.6875 C 9.554688 10.6875 10.71875 9.957031 10.957031 10.195312 C 11.078125 10.320312 11.015625 10.554688 10.890625 10.746094 C 10.570312 11.234375 9.503906 12.015625 8.003906 12.015625 Z M 8.003906 12.015625 "/>
<path style=" stroke:none;fill-rule:nonzero;fill:rgb(14.117647%,14.117647%,14.117647%);fill-opacity:1;" d="M 10.347656 5.171875 C 10.871094 5.171875 11.347656 5.613281 11.347656 6.347656 C 11.347656 7.082031 10.871094 7.523438 10.347656 7.523438 C 9.824219 7.523438 9.347656 7.082031 9.347656 6.347656 C 9.347656 5.613281 9.824219 5.171875 10.347656 5.171875 Z M 10.347656 5.171875 "/>
<path style=" stroke:none;fill-rule:nonzero;fill:rgb(14.117647%,14.117647%,14.117647%);fill-opacity:1;" d="M 5.652344 5.171875 C 5.128906 5.171875 4.652344 5.613281 4.652344 6.347656 C 4.652344 7.082031 5.128906 7.523438 5.652344 7.523438 C 6.175781 7.523438 6.652344 7.082031 6.652344 6.347656 C 6.652344 5.613281 6.175781 5.171875 5.652344 5.171875 Z M 5.652344 5.171875 "/>
</g>
</svg>
