<svg enable-background="new 0 0 128 128" viewBox="0 0 128 128" xmlns="http://www.w3.org/2000/svg" xmlns:xlink="http://www.w3.org/1999/xlink"><linearGradient id="a" gradientUnits="userSpaceOnUse"><stop offset="0" stop-color="#eee"/><stop offset="1" stop-color="#bdbdbd"/></linearGradient><linearGradient id="b" x1="106.6" x2="106.6" xlink:href="#a" y1="6.5" y2="75.447"/><linearGradient id="c" x1="90.539" x2="90.539" xlink:href="#a" y1="6.5" y2="67.051"/><linearGradient id="d" gradientUnits="userSpaceOnUse" x1="76" x2="76" y1="69.468" y2="94.966"><stop offset="0" stop-color="#eee"/><stop offset=".2665" stop-color="#e9e9e9"/><stop offset=".5944" stop-color="#dadada"/><stop offset=".9532" stop-color="#c1c1c1"/><stop offset="1" stop-color="#bdbdbd"/></linearGradient><linearGradient id="e" gradientUnits="userSpaceOnUse" x1="117.68" x2="117.68" y1="71.875" y2="92.899"><stop offset="0" stop-color="#ff6e40"/><stop offset=".224" stop-color="#ff6a3a"/><stop offset=".519" stop-color="#ff5d2a"/><stop offset=".8523" stop-color="#ff480e"/><stop offset="1" stop-color="#ff3d00"/></linearGradient><linearGradient id="f" gradientUnits="userSpaceOnUse" x1="22" x2="22" y1="72.5" y2="90.677"><stop offset="0" stop-color="#ffc107"/><stop offset="1" stop-color="#ffa000"/></linearGradient><path d="m119.45 65.73c1.24.74.18 2.71-1.17 2.18-7.22-2.84-18.42-12.89-16.28-30.15 2.12-17.07 2.79-25.5-8.39-31.97-.73-.42-.39-1.54.45-1.45 7.82.79 26.2 5.55 22.21 26.26-3.25 16.88-4.81 30.36 3.18 35.13z" fill="url(#b)"/><path d="m100.64 54.69c1.01.63.11 2.23-.99 1.77-5.88-2.43-14.92-10.83-12.91-24.95 1.98-13.96 2.65-20.86-6.42-26.32-.59-.36-.29-1.27.39-1.19 6.4.76 21.4 4.92 17.83 21.85-2.91 13.79-4.38 24.82 2.1 28.84z" fill="url(#c)"/><path d="m48 72h-8v20h8 64v-20z" fill="url(#d)"/><path d="m121.95 92h-10.59v-20h10.59c1.13 0 2.05.92 2.05 2.05v15.89c0 1.14-.92 2.06-2.05 2.06z" fill="url(#e)"/><path d="m8 72c-2.21 0-4 4.48-4 10s1.79 10 4 10h32v-20z" fill="url(#f)"/><path d="m37 72h3v20h-3z" fill="#424242" opacity=".2"/><path d="m40 72h8v20h-8z" fill="#eee" opacity=".8"/><g fill="#ffca28"><path d="m9.5 72.84-.8.86c-.19.21-.06.56.22.56h1.6c.27 0 .41-.35.22-.56l-.8-.86c-.13-.13-.32-.13-.44 0z"/><path d="m15.77 87.96 1.3-1.14c.31-.28.16-.82-.24-.86l-2.36-.25c-.4-.04-.65.46-.4.8l1.07 1.39c.15.2.44.23.63.06z"/><path d="m10.45 90.05-.88.97c-.21.23-.06.63.25.62l1.78-.02c.3 0 .45-.4.23-.63l-.9-.94c-.13-.15-.35-.15-.48 0z"/><path d="m16.17 77.08-.8.86c-.19.21-.06.56.22.56h1.6c.27 0 .41-.35.22-.56l-.8-.86c-.12-.12-.32-.12-.44 0z"/><path d="m6.82 78.79.8 1.94c.19.47.82.45.99-.03l1.01-2.8c.17-.48-.28-.94-.72-.73l-1.81.86c-.27.13-.39.47-.27.76z"/><path d="m8.75 85.55.31.74c.07.18.31.17.38-.01l.39-1.08c.07-.18-.11-.36-.28-.28l-.69.33c-.11.06-.16.19-.11.3z"/><path d="m11.68 79.15-.62.21c-.15.05-.17.27-.03.35l.82.45c.14.08.3-.06.25-.22l-.2-.66c-.03-.1-.13-.16-.22-.13z"/><path d="m21.25 74.74-.8.86c-.19.21-.06.56.22.56h1.6c.27 0 .41-.35.22-.56l-.8-.86c-.12-.13-.32-.13-.44 0z"/><path d="m27.79 87.95-1.67-.14c-.4-.03-.65.47-.38.8l1.54 1.94c.26.33.77.16.8-.28l.13-1.8c.01-.27-.17-.5-.42-.52z"/><path d="m27.93 78.99-.8.86c-.19.21-.06.56.22.56h1.6c.27 0 .41-.35.22-.56l-.8-.86c-.12-.13-.32-.13-.44 0z"/><path d="m33.06 75.48.69.96c.17.23.51.13.55-.16l.2-1.7c.03-.29-.28-.48-.49-.3l-.89.74c-.14.11-.16.32-.06.46z"/><path d="m35.36 77.29-1.28.65c-.31.16-.29.64.03.76l1.89.73c.32.12.62-.23.48-.57l-.61-1.38c-.09-.2-.32-.29-.51-.19z"/><path d="m29.23 84.12-.8.86c-.19.21-.06.56.22.56h1.6c.27 0 .41-.35.22-.56l-.8-.86c-.12-.13-.32-.13-.44 0z"/><path d="m23.97 73.75.25 1.61c.06.39.53.51.74.19l1.26-1.88c.21-.32-.04-.76-.4-.7l-1.5.26c-.24.05-.39.28-.35.52z"/><path d="m18.58 80.7.8 1.94c.19.47.82.45.99-.03l1.01-2.8c.17-.48-.28-.94-.72-.73l-1.81.86c-.27.13-.39.47-.27.76z"/><path d="m20.51 87.45.31.74c.07.18.31.17.38-.01l.39-1.08c.07-.18-.11-.36-.28-.28l-.69.33c-.11.06-.16.19-.11.3z"/><path d="m23.44 81.06-.62.21c-.15.05-.17.27-.03.35l.82.45c.14.08.3-.06.25-.22l-.2-.66c-.03-.11-.13-.17-.22-.13z"/><path d="m27.62 76.19-.08.6c-.02.15.13.24.24.16l.64-.51c.11-.09.07-.27-.07-.29l-.56-.09c-.08-.02-.16.04-.17.13z"/><path d="m32.06 72.36-.49.3c-.12.07-.09.26.04.3l.77.22c.13.04.24-.12.17-.24l-.28-.52c-.04-.08-.14-.11-.21-.06z"/><path d="m32.74 80.12-.91.29c-.22.07-.25.39-.05.51l1.18.69c.2.12.44-.08.37-.32l-.27-.98c-.04-.15-.18-.24-.32-.19z"/><path d="m35.23 84.08.86.79c.21.19.53.02.5-.28l-.13-1.71c-.02-.29-.36-.41-.54-.19l-.73.92c-.1.14-.09.35.04.47z"/><path d="m25.7 83.94.48.44c.12.11.29.01.28-.15l-.07-.95c-.01-.16-.2-.23-.3-.1l-.41.51c-.06.07-.05.18.02.25z"/><path d="m5.81 83.71-.94.23c-.22.06-.27.38-.08.51l1.15.78c.2.13.45-.06.39-.3l-.21-1.01c-.03-.15-.17-.24-.31-.21z"/><path d="m15.93 81.88-.62.21c-.15.05-.17.27-.03.35l.82.45c.14.08.3-.06.25-.22l-.2-.67c-.03-.1-.12-.15-.22-.12z"/><path d="m35.7 87.64-1.51.51c-.36.12-.41.66-.07.85l1.98 1.11c.34.19.72-.16.61-.55l-.48-1.62c-.06-.24-.3-.38-.53-.3z"/><path d="m15.64 73.67-.99.33c-.24.08-.27.43-.04.56l1.3.73c.22.12.47-.1.4-.36l-.31-1.06c-.05-.16-.21-.25-.36-.2z"/></g><g fill="#e64a19"><path d="m117.35 72.67-.86.86c-.21.21-.06.56.23.56h1.71c.29 0 .44-.35.23-.56l-.86-.86c-.12-.13-.32-.13-.45 0z"/><path d="m120.91 87.87 1.39-1.14c.34-.28.17-.82-.26-.86l-2.54-.25c-.43-.04-.7.46-.43.8l1.14 1.39c.19.2.49.23.7.06z"/><path d="m118.37 89.88-.94.97c-.23.23-.06.63.27.62l1.91-.02c.33 0 .48-.4.25-.63l-.97-.94c-.15-.15-.38-.14-.52 0z"/><path d="m120.01 76.08-.86.86c-.21.21-.06.56.23.56h1.71c.29 0 .44-.35.23-.56l-.86-.86c-.11-.12-.32-.12-.45 0z"/><path d="m114.48 78.63.86 1.94c.21.47.88.45 1.06-.03l1.08-2.8c.18-.48-.3-.94-.77-.73l-1.94.86c-.29.13-.42.47-.29.76z"/><path d="m116.55 85.38.33.75c.08.18.34.17.41-.01l.41-1.08c.07-.18-.12-.36-.3-.28l-.75.33c-.1.05-.15.18-.1.29z"/><path d="m119.69 78.99-.66.21c-.16.05-.18.27-.03.35l.88.45c.15.08.32-.06.27-.22l-.21-.66c-.05-.11-.15-.16-.25-.13z"/><path d="m113.4 83.55-1.01.23c-.24.06-.3.38-.09.51l1.24.78c.21.13.48-.06.42-.3l-.23-1.01c-.03-.15-.18-.25-.33-.21z"/><path d="m118.09 81.88-.66.21c-.16.05-.18.27-.03.35l.88.45c.15.08.32-.06.27-.22l-.23-.67c-.03-.1-.13-.15-.23-.12z"/><path d="m113.5 75.58-.66.21c-.16.05-.18.27-.03.35l.88.45c.15.08.32-.06.27-.22l-.21-.66c-.04-.1-.15-.16-.25-.13z"/><path d="m122.02 73.75-1.06.34c-.26.08-.29.43-.05.56l1.4.73c.24.12.51-.1.43-.36l-.34-1.06c-.05-.17-.22-.26-.38-.21z"/><path d="m121.85 82.17-1.06.34c-.26.08-.29.43-.05.56l1.4.73c.24.12.51-.1.43-.36l-.34-1.06c-.05-.17-.22-.26-.38-.21z"/><path d="m114.94 88.25-1.06.34c-.26.08-.29.43-.05.56l1.4.73c.24.12.51-.1.43-.36l-.34-1.06c-.05-.17-.22-.26-.38-.21z"/></g><g fill="#e0e0e0"><path d="m54.06 72h1v20h-1z" opacity=".1"/><path d="m59.31 72h1v20h-1z" opacity=".1"/><path d="m64.56 72h1v20h-1z" opacity=".1"/><path d="m69.81 72h1v20h-1z" opacity=".1"/><path d="m75.06 72h1v20h-1z" opacity=".1"/><path d="m80.31 72h1v20h-1z" opacity=".1"/><path d="m85.56 72h1v20h-1z" opacity=".1"/><path d="m90.81 72h1v20h-1z" opacity=".1"/><path d="m96.06 72h1v20h-1z" opacity=".1"/><path d="m101.31 72h1v20h-1z" opacity=".1"/><path d="m106.56 72h1v20h-1z" opacity=".1"/></g><g fill="#424242"><path d="m121 75v14h-112.51c-.59-.79-1.49-3.32-1.49-7s.9-6.21 1.49-7zm.95-3h-113.95c-2.21 0-4 4.48-4 10s1.79 10 4 10h113.95c1.13 0 2.05-.92 2.05-2.05v-15.9c0-1.13-.92-2.05-2.05-2.05z" opacity=".2"/><path d="m102.41 9.41c3.08 1.22 6.28 3.13 8.49 6.1 2.75 3.7 3.57 8.58 2.42 14.52-2.18 11.33-3.84 22.1-1.65 29.72-4.32-4.5-7.94-11.61-6.7-21.62 1.55-12.41 2.7-21.64-2.56-28.72m-8.44-5.08c-.77 0-1.06 1.05-.36 1.46 11.18 6.47 10.52 14.9 8.39 31.97-2.14 17.26 9.06 27.31 16.28 30.15.16.06.31.09.45.09 1.11 0 1.81-1.62.71-2.27-7.99-4.77-6.43-18.25-3.18-35.13 3.99-20.72-14.39-25.47-22.21-26.26-.02-.01-.05-.01-.08-.01z" opacity=".2"/><path d="m88.85 9.52c1.9.99 3.73 2.35 5.06 4.2 2.11 2.94 2.68 6.81 1.69 11.51-1.75 8.32-3.15 16.28-2.21 22.45-2.72-3.65-4.66-8.86-3.68-15.74 1.3-9.15 2.35-16.53-.86-22.42m-8.23-5.52c-.62 0-.87.85-.3 1.19 9.07 5.46 8.41 12.36 6.42 26.32-2 14.11 7.03 22.51 12.91 24.95.13.06.26.08.39.08.9 0 1.49-1.3.6-1.85-6.48-4.02-5.01-15.05-2.11-28.84 3.57-16.92-11.43-21.08-17.83-21.84-.02-.01-.05-.01-.08-.01z" opacity=".2"/></g></svg>