<svg enable-background="new 0 0 128 128" viewBox="0 0 128 128" xmlns="http://www.w3.org/2000/svg" xmlns:xlink="http://www.w3.org/1999/xlink"><radialGradient id="a" cx="63.934" cy="87.394" gradientTransform="matrix(0 1 -1.105 0 160.5 23.46)" gradientUnits="userSpaceOnUse" r="37.317"><stop offset=".671" stop-color="#fafafa"/><stop offset=".8856" stop-color="#cfd8dc"/></radialGradient><radialGradient id="b" cx="64.179" cy="59.232" gradientUnits="userSpaceOnUse" r="30.289"><stop offset=".6208" stop-color="#fff"/><stop offset=".8308" stop-color="#cfd8dc"/></radialGradient><path d="m64.12 112c-32.96 0-59.71 4.8-60.11 12h120.21c-.39-7.2-27.14-12-60.1-12z" fill="#cfd8dc"/><path d="m102.62 81.19c5.12 18.77-.2 42.81-38.63 42.81s-44.03-24.13-38.64-42.81c5.29-18.3 13.62-27.92 38.63-27.92s33.65 9.62 38.64 27.92z" fill="url(#a)"/><path d="m63.99 56.27c11.49 0 19.42 2.05 24.96 6.45 4.88 3.87 8.2 9.82 10.78 19.26 1.55 5.69 4.12 19.98-5.58 29.64-.81.81-1.09 2.02-.72 3.1.37 1.09 1.34 1.86 2.48 2 10.16 1.23 16.45 2.85 20.22 4.28h-103.99c3.73-1.42 9.93-3.02 19.92-4.24 1.14-.14 2.1-.92 2.47-2.01s.08-2.3-.74-3.1c-3.31-3.25-10.46-12.66-5.56-29.62 4.83-16.7 11.96-25.76 35.76-25.76m0-3c-25.01 0-33.35 9.62-38.63 27.92-3.17 10.99-2.53 23.85 6.34 32.59-16.46 2.02-27.43 5.63-27.68 10.22h120.21c-.26-4.62-11.36-8.24-27.97-10.25 8.76-8.72 9.37-21.54 6.36-32.55-4.99-18.31-13.62-27.93-38.63-27.93z" fill="#424242" opacity=".2"/><path d="m85.13 49h-42.15c-2.36 0-4.6 6.58-4.6 8.93 0 .87.62 2.57 1.62 3.87v23.81c0 3.53 2.97 6.4 6.5 6.4s6.5-2.86 6.5-6.4v-19.87c3 .32 6.59.51 10.71.51 22.57 0 25.57-5.96 25.57-8.31 0-2.36-1.79-8.94-4.15-8.94z" fill="#f44336"/><path d="m84.53 52c.79 0 1.83 4.41 1.83 5.93-.05 1.08-4.03 5.23-22.5 5.23-3.69 0-6.86-.11-10.28-.44-.1-.01-.2.01-.3.01-.74 0-1.6.29-2.15.79-.63.56-1.13 1.37-1.13 2.22v19.87c0 1.87-1.63 3.4-3.5 3.4s-3.5-1.52-3.5-3.4v-23.8c0-.69 0-1.37-.44-1.9-.71-.86-.96-1.81-1.06-2.11.06-1.54 1.26-4.8 2.06-5.8h41.44m.13-3h-42.15c-2.36 0-4.6 6.58-4.6 8.93 0 .87.62 2.57 1.62 3.87v23.81c0 3.53 2.97 6.4 6.5 6.4s6.5-2.86 6.5-6.4v-19.87c3 .32 6.59.51 10.71.51 22.57 0 25.57-5.96 25.57-8.31 0-2.36-1.79-8.94-4.15-8.94z" fill="#424242" opacity=".2"/><circle cx="63.94" cy="37.95" fill="url(#b)" r="21.48"/><path d="m63.94 19.47c10.19 0 18.48 8.29 18.48 18.48 0 5.56 0 10.37-2.15 13.49-2.32 3.36-7.66 5-16.33 5s-14.01-1.63-16.33-5c-2.15-3.12-2.15-7.92-2.15-13.49 0-10.19 8.29-18.48 18.48-18.48m0-3c-11.86 0-21.48 9.62-21.48 21.48s0 21.48 21.48 21.48 21.48-9.62 21.48-21.48-9.61-21.48-21.48-21.48z" fill="#424242" opacity=".2"/><path d="m83.47 38.78h-38.94c-1.22 0-2.23-1-2.23-2.23v-28.44c0-2.2 1.8-4 4-4h35.38c2.2 0 4 1.8 4 4v28.44c.01 1.23-.99 2.23-2.21 2.23z" fill="#424242"/><path d="m42.31 24.12h43.38v6.92h-43.38z" fill="#f44336"/><g fill="#424242"><path d="m92.21 39.18h-56.42c-1.1 0-2-.9-2-2v-4.78c0-1.1.9-2 2-2h56.41c1.1 0 2 .9 2 2v4.78c.01 1.1-.89 2-1.99 2z"/><circle cx="63.94" cy="80.82" r="4.26"/><circle cx="54.35" cy="43.5" r="2.67"/><circle cx="73.54" cy="43.5" r="2.67"/></g><circle cx="63.94" cy="47.77" fill="#ef6c00" r="3.2"/><circle cx="63.94" cy="97.88" fill="#424242" r="4.26"/><path d="m54.33 49.96c2.7 6.96 16.84 6.91 19.5-.09.51-1.36-1.66-1.94-2.17-.6-1.75 4.61-13.34 4.77-15.16.09-.52-1.34-2.7-.75-2.17.6z" fill="#424242"/><ellipse cx="33.11" cy="73.42" fill="#b0bec5" rx="3.21" ry="1.76" transform="matrix(.5201 -.8541 .8541 .5201 -46.818 63.516)"/><path d="m16.51 55.07c2.98 7.25 8.47 13.78 14.37 18.87 1.45 1.26 3.58-.86 2.12-2.12-5.47-4.73-10.93-11.05-13.6-17.55-.72-1.76-3.62-.99-2.89.8z" fill="#8d6e63"/><path d="m8.41 52.28c.16-3.92 2.49-5.77 4-6.2 3.06-.86 4.86 0 6.74 1.73s2.04 3.49 2.38 3.48c.25 0-1.08-2.7.86-3.45 1.41-.55 2.64 1.09 2.9 1.73.71 1.73 1.49 6.74.94 8.16s-7.61 5.87-9.41 5.73c-1.79-.16-8.56-7.26-8.41-11.18z" fill="#43a047"/><path d="m27.58 62.02-7.24 4.77c-1.11.73-2.61.43-3.35-.69l-.18-.27c-.73-1.11-.43-2.61.69-3.35l7.24-4.77c1.11-.73 2.61-.43 3.35.69l.18.27c.73 1.11.42 2.61-.69 3.35z" fill="#2e7d32"/><ellipse cx="94.89" cy="73.42" fill="#b0bec5" rx="1.76" ry="3.21" transform="matrix(.8541 -.5201 .5201 .8541 -24.344 60.067)"/><path d="m108.59 54.27c-2.67 6.5-8.13 12.82-13.6 17.55-1.46 1.27.67 3.38 2.12 2.12 5.89-5.1 11.39-11.62 14.37-18.87.74-1.79-2.16-2.56-2.89-.8z" fill="#8d6e63"/><path d="m119.59 52.28c-.16-3.92-2.49-5.77-4-6.2-3.06-.86-4.86 0-6.74 1.73s-2.04 3.49-2.38 3.48c-.25 0 1.08-2.7-.86-3.45-1.41-.55-2.64 1.09-2.9 1.73-.71 1.73-1.49 6.74-.94 8.16.55 1.41 7.61 5.87 9.41 5.73 1.79-.16 8.56-7.26 8.41-11.18z" fill="#43a047"/><path d="m100.42 62.02 7.24 4.77c1.11.73 2.61.43 3.35-.69l.18-.27c.73-1.11.43-2.61-.69-3.35l-7.24-4.77c-1.11-.73-2.61-.43-3.35.69l-.18.27c-.73 1.11-.42 2.61.69 3.35z" fill="#2e7d32"/><path d="m14.63 48.74c.7 0 1.34.21 2.5 1.28.74.68 1.04 1.21 1.28 1.75.26.59 1.05 2.23 3.13 2.23h.06c.58 0 1.14-.05 1.62-.36.18 1.27.28 2.59.18 3.09-.17.82.01 1.71.5 2.39.29.41.68.75 1.13.97l-5.29 3.49c.03-.52-.08-1.04-.32-1.52-.39-.76-1.08-1.31-1.89-1.53-.54-.3-2.12-1.62-3.73-3.66-1.79-2.27-2.41-3.92-2.39-4.47.11-2.87 1.8-3.42 1.82-3.43.53-.15 1-.23 1.4-.23m0-3c-.67 0-1.39.11-2.21.34-1.51.43-3.84 2.27-4 6.2-.15 3.86 6.41 10.8 8.33 11.14-.38.79-.36 1.75.16 2.54.5.75 1.32 1.16 2.15 1.16.49 0 .98-.14 1.42-.43l6.97-4.59c1.19-.78 1.52-2.38.73-3.57-.43-.66-1.12-1.04-1.84-1.13.36-1.73-.37-6.23-1.03-7.84-.22-.55-1.17-1.84-2.32-1.84-.19 0-.38-.11-.58-.03-1.95.76-.61 3.31-.87 3.31-.35 0-.5-1.61-2.38-3.34-1.38-1.26-2.72-1.92-4.53-1.92z" fill="#424242" opacity=".2"/><path d="m113.37 48.74c.4 0 .87.08 1.4.23.02 0 1.7.56 1.82 3.43.02.55-.6 2.2-2.39 4.47-1.6 2.03-3.18 3.36-3.73 3.66-.82.22-1.51.78-1.89 1.54-.24.48-.35 1-.32 1.52l-5.29-3.49c.44-.22.83-.54 1.12-.95.49-.68.67-1.54.51-2.35-.1-.5 0-1.89.18-3.16.48.32 1.04.36 1.62.36h.06c2.08 0 2.87-1.65 3.13-2.23.24-.54.54-1.14 1.28-1.82 1.16-1.07 1.8-1.21 2.5-1.21m0-3c-1.82 0-3.15.66-4.53 1.92-1.88 1.72-2.04 3.34-2.38 3.34-.25 0 1.08-2.55-.86-3.31-.2-.08-.39-.04-.58-.04-1.16 0-2.1 1.32-2.32 1.87-.66 1.61-1.39 6.13-1.03 7.86-.72.09-1.41.48-1.84 1.14-.78 1.19-.45 2.79.73 3.57l6.97 4.6c.44.29.93.43 1.42.43.84 0 1.66-.41 2.15-1.16.52-.79.54-1.75.16-2.54 1.92-.34 8.48-7.28 8.33-11.14-.16-3.92-2.49-5.77-4-6.2-.82-.23-1.55-.34-2.22-.34z" fill="#424242" opacity=".2"/><path d="m81.69 7c.54 0 1.31.57 1.31 1.11v22.29c0 1.66 1.03 2.6 2.69 2.6h5.31v3h-54v-3h5.31c1.66 0 2.69-.94 2.69-2.6v-22.29c0-.54.77-1.11 1.31-1.11h35.69m-.31-3h-35.38c-2.2 0-4.31 1.91-4.31 4.11v21.89h-6.21c-1.1 0-1.79 1.3-1.79 2.4v4.78c0 1.1.69 1.82 1.79 1.82h56.41c1.1 0 1.79-.72 1.79-1.82v-4.78c0-1.1-.69-2.4-1.79-2.4h-6.2v-21.89c0-2.2-2.11-4.11-4.31-4.11z" fill="#eee" opacity=".2"/></svg>