<svg enable-background="new 0 0 128 128" viewBox="0 0 128 128" xmlns="http://www.w3.org/2000/svg" xmlns:xlink="http://www.w3.org/1999/xlink"><clipPath id="a"><path d="m57.83 109.17 31.29 31.29 48.21-48.21-31.29-31.29c-5.92 8.42-13.48 17.29-21.94 25.75-8.45 8.45-17.3 16-25.71 21.92"/></clipPath><linearGradient id="b" gradientUnits="userSpaceOnUse" x1="64" x2="64" y1="19.717" y2="107.7"><stop offset=".5" stop-color="#fee133"/><stop offset=".6118" stop-color="#fede32"/><stop offset=".7076" stop-color="#fcd32f"/><stop offset=".7975" stop-color="#fac12b"/><stop offset=".8834" stop-color="#f7a924"/><stop offset=".9" stop-color="#f6a323"/></linearGradient><path d="m64 119.68c-27.83 0-57.78-17.43-57.78-55.68s29.95-55.68 57.78-55.68c15.42 0 29.7 5.11 40.21 14.38 11.5 10.15 17.57 24.43 17.57 41.3 0 16.8-6.08 31.05-17.58 41.23-10.53 9.32-24.81 14.45-40.2 14.45z" fill="url(#b)"/><path d="m64 10.32c14.93 0 28.74 4.93 38.88 13.88 11.05 9.76 16.9 23.52 16.9 39.81 0 16.21-5.84 29.95-16.9 39.73-10.17 9-23.97 13.95-38.88 13.95-14.98 0-28.79-4.89-38.89-13.77-11.05-9.72-16.89-23.52-16.89-39.92 0-16.47 5.84-30.3 16.89-39.99 10.07-8.83 23.88-13.69 38.89-13.69m0-4c-31.04 0-59.78 19.93-59.78 57.68 0 37.54 28.74 57.68 59.78 57.68s59.78-20.65 59.78-57.68c0-37.24-28.74-57.68-59.78-57.68z" fill="#eb8f00"/><path clip-path="url(#a)" d="m114.91 114.15-2.32 2.32c-6.73 6.73-17.65 6.73-24.39 0l-15.4253-15.7055 30.6713-21.6733 11.464 10.6688c6.73 6.74 6.73 17.66 0 24.39z" fill="#e04c74" transform="translate(-.01 -.1)"/><g clip-path="url(#a)" opacity=".3" transform="translate(-.01 -.1)"><path d="m101.3887 82.2229 10.6913 10.3671c2.5382 2.4612 3.88 5.83 3.88 9.37s-1.38 6.86-3.88 9.37l-2.32 2.32c-2.5 2.5-5.83 3.88-9.37 3.88s-6.86-1.38-9.37-3.88l-14.3307-13.7166zm2.0573-3.1317-30.6713 21.6733 15.4153 15.7055c3.3384 3.4013 7.78 5.05 12.19 5.05s8.83-1.68 12.19-5.05l2.32-2.32c6.73-6.73 6.73-17.65 0-24.39z" fill="#ab3f2e"/></g><path d="m91.7515 92.8839 6.5185 6.9561" style="opacity:.3;fill:none;stroke:#ab3f2e;stroke-width:4.2184;stroke-linecap:round;stroke-miterlimit:10;clip-path:url(#a)" transform="translate(-.01 -.1)"/><g fill="#242424"><path d="m25.11 70.39c5.7416 12.8894 18.0717 22.6747 32.07 24.86 11.834 1.9381 24.3981-1.4034 33.6306-9.0917 5.3351-4.3527 9.4189-10.0562 12.3511-16.2497 2.6307-2.7556 5.4479 1.7497 3.0983 3.9921-6.2677 15.2357-21.4553 26.2169-37.8537 27.6014-14.9721 1.54-30.5085-4.8096-39.9909-16.5376-3.2523-4.0505-6.1155-8.6219-7.5548-13.6257-.0366-2.3433 3.2635-3.0255 4.2494-.9488z"/><path d="m49.55 47.69c-1.0557-1.3065-2.1983-2.6434-3.7202-3.4195-.2605-.1874-1.2078-.1909-.6155-.1885-.6515.0163-.506-.0138-1.2443.298-1.7154.915-2.8035 2.5827-4.134 3.9348-1.8429 1.6537-5.1424 1.1656-6.3083-1.0543-.7839-1.3413-.2804-2.9243.2082-4.2694 1.5097-4.1168 5.2425-7.4886 9.6549-8.059 3.6803-.6005 7.5604.8481 10.0928 3.5568 1.7475 1.878 3.0679 4.2617 3.3942 6.8283.1889 2.1603-1.8632 3.9757-3.9493 3.9329-1.2848.0296-2.5866-.5353-3.3785-1.5601z"/><path d="m87.05 47.69c-1.0557-1.3065-2.1983-2.6434-3.7202-3.4195-.7126-.2122-.8456-.1917-.7925-.1824-.4571-.033-.7262.1192-1.3791.4636-1.5527.9482-2.5784 2.4904-3.8322 3.763-1.8429 1.6537-5.1424 1.1656-6.3083-1.0543-.7839-1.3413-.2804-2.9243.2082-4.2694 1.5097-4.1168 5.2425-7.4886 9.6549-8.059 3.6803-.6005 7.5604.8481 10.0928 3.5568 1.7475 1.878 3.0679 4.2617 3.3942 6.8283.1889 2.1603-1.8632 3.9757-3.9492 3.9329-1.2816.0296-2.5833-.5325-3.3686-1.56z"/></g></svg>