<?xml version="1.0" encoding="UTF-8" standalone="no"?>
<svg
   xmlns:dc="http://purl.org/dc/elements/1.1/"
   xmlns:cc="http://creativecommons.org/ns#"
   xmlns:rdf="http://www.w3.org/1999/02/22-rdf-syntax-ns#"
   xmlns:svg="http://www.w3.org/2000/svg"
   xmlns="http://www.w3.org/2000/svg"
   xmlns:sodipodi="http://sodipodi.sourceforge.net/DTD/sodipodi-0.dtd"
   xmlns:inkscape="http://www.inkscape.org/namespaces/inkscape"
   inkscape:version="1.0 (4035a4fb49, 2020-05-01)"
   sodipodi:docname="tongue.svg"
   id="svg55"
   version="1.1"
   viewBox="0 0 128 128"
   enable-background="new 0 0 128 128">
  <metadata
     id="metadata61">
    <rdf:RDF>
      <cc:Work
         rdf:about="">
        <dc:format>image/svg+xml</dc:format>
        <dc:type
           rdf:resource="http://purl.org/dc/dcmitype/StillImage" />
        <dc:title></dc:title>
      </cc:Work>
    </rdf:RDF>
  </metadata>
  <defs
     id="defs59">
    <clipPath
       id="b-3">
      <path
         d="m 103.02,67.51 c -3.31,17.46 -19.27,32.62 -42.97,32.62 -21.66,0 -39.26,-14.68 -42.91,-32.56 l -12.7,45.76 93.14,15.67 22.86,-5.25 4.23,-29.3 z"
         id="path15-6" />
    </clipPath>
    <clipPath
       id="c-7">
      <path
         d="m 57.83,109.17 31.29,31.29 48.21,-48.21 -31.29,-31.29 c -5.92,8.42 -13.48,17.29 -21.94,25.75 -8.45,8.45 -17.3,16 -25.71,21.92"
         id="path18-5" />
    </clipPath>
    <clipPath
       id="clipPath891">
      <path
         d="m 57.83,109.17 31.29,31.29 48.21,-48.21 -31.29,-31.29 c -5.92,8.42 -13.48,17.29 -21.94,25.75 -8.45,8.45 -17.3,16 -25.71,21.92"
         id="path889" />
    </clipPath>
    <clipPath
       id="clipPath895">
      <path
         d="m 57.83,109.17 31.29,31.29 48.21,-48.21 -31.29,-31.29 c -5.92,8.42 -13.48,17.29 -21.94,25.75 -8.45,8.45 -17.3,16 -25.71,21.92"
         id="path893" />
    </clipPath>
    <linearGradient
       gradientTransform="translate(-0.0100019,-0.099999)"
       id="a-3"
       gradientUnits="userSpaceOnUse"
       x1="64.010002"
       x2="64.010002"
       y1="19.983999"
       y2="107.63" />
  </defs>
  <sodipodi:namedview
     inkscape:current-layer="svg55"
     inkscape:window-maximized="1"
     inkscape:window-y="47"
     inkscape:window-x="0"
     inkscape:cy="60.992601"
     inkscape:cx="34.037392"
     inkscape:zoom="5.2591067"
     showgrid="false"
     id="namedview57"
     inkscape:window-height="1007"
     inkscape:window-width="1920"
     inkscape:pageshadow="2"
     inkscape:pageopacity="0"
     guidetolerance="10"
     gridtolerance="10"
     objecttolerance="10"
     borderopacity="1"
     bordercolor="#666666"
     pagecolor="#ffffff" />
  <linearGradient
     y2="107.7"
     y1="19.717"
     x2="64"
     x1="64"
     gradientUnits="userSpaceOnUse"
     id="a">
    <stop
       id="stop2"
       stop-color="#fee133"
       offset=".5" />
    <stop
       id="stop4"
       stop-color="#fede32"
       offset=".6118" />
    <stop
       id="stop6"
       stop-color="#fcd32f"
       offset=".7076" />
    <stop
       id="stop8"
       stop-color="#fac12b"
       offset=".7975" />
    <stop
       id="stop10"
       stop-color="#f7a924"
       offset=".8834" />
    <stop
       id="stop12"
       stop-color="#f6a323"
       offset=".9" />
  </linearGradient>
  <clipPath
     id="b">
    <path
       id="path15"
       d="m66.78 76.47c-12.05 4.06-23.6 6.83-33.52 8.25-2.46.35-3.83 3.08-2.58 5.23 8.23 14.15 27.4 21.59 45.81 15.38 20.15-6.79 29.37-24.25 27.19-40.05-.34-2.44-3.06-3.75-5.21-2.55-8.76 4.88-19.63 9.67-31.69 13.74z" />
  </clipPath>
  <clipPath
     id="c">
    <path
       id="path18"
       d="m34.79 89.27 14.11 41.85 64.48-21.73-14.1-41.85c-9.03 4.9-19.72 9.48-31.04 13.29-11.3 3.81-22.57 6.63-32.71 8.2" />
  </clipPath>
  <path
     style="fill:#ffcc00"
     d="m 63.999998,119.68 c -27.83,0 -57.78,-17.43 -57.78,-55.679999 0,-38.25 29.95,-55.6800002 57.78,-55.6800002 15.42,0 29.7,5.1100002 40.210002,14.3800002 11.5,10.15 17.57,24.43 17.57,41.3 0,16.8 -6.08,31.05 -17.58,41.229999 -10.530002,9.32 -24.810002,14.45 -40.200002,14.45 z"
     fill="url(#a)"
     id="path21" />
  <path
     d="m 63.999998,10.320001 c 14.93,0 28.74,4.93 38.880002,13.88 11.05,9.76 16.9,23.52 16.9,39.81 0,16.21 -5.84,29.95 -16.9,39.729999 -10.170002,9 -23.970002,13.95 -38.880002,13.95 -14.98,0 -28.79,-4.89 -38.89,-13.77 -11.05,-9.719999 -16.89,-23.519999 -16.89,-39.919999 0,-16.47 5.84,-30.3 16.89,-39.99 10.07,-8.83 23.88,-13.69 38.89,-13.69 m 0,-4.0000002 c -31.04,0 -59.7799999,19.9300002 -59.7799999,57.6800002 0,37.539999 28.7399999,57.679999 59.7799999,57.679999 31.04,0 59.780002,-20.65 59.780002,-57.679999 0,-37.24 -28.740002,-57.6800002 -59.780002,-57.6800002 z"
     fill="#eb8f00"
     id="path23" />
  <path
     transform="translate(-0.0100019,-0.099999)"
     sodipodi:nodetypes="ssccccs"
     id="path25"
     fill="#e04c74"
     d="m 114.91,114.15 -2.32,2.32 c -6.73,6.73 -17.65,6.73 -24.39,0 L 72.7747,100.7645 103.446,79.091245 114.91,89.76 c 6.73,6.74 6.73,17.66 0,24.39 z"
     clip-path="url(#c-7)" />
  <g
     transform="translate(-0.0100019,-0.099999)"
     id="g29"
     opacity="0.3"
     clip-path="url(#c-7)">
    <path
       sodipodi:nodetypes="csscsscccccsscscc"
       id="path27"
       fill="#ab3f2e"
       d="M 101.38872,82.222859 112.08,92.59 c 2.53818,2.461228 3.88,5.83 3.88,9.37 0,3.54 -1.38,6.86 -3.88,9.37 l -2.32,2.32 c -2.5,2.5 -5.83,3.88 -9.37,3.88 -3.54,0 -6.86,-1.38 -9.37,-3.88 L 76.689271,99.933377 Z M 103.446,79.091245 72.7747,100.7645 88.19,116.47 c 3.338429,3.40128 7.78,5.05 12.19,5.05 4.41,0 8.83,-1.68 12.19,-5.05 l 2.32,-2.32 c 6.73,-6.73 6.73,-17.65 0,-24.39 z" />
  </g>
  <path
     transform="translate(-0.0100019,-0.099999)"
     sodipodi:nodetypes="cc"
     id="path31"
     clip-path="url(#c-7)"
     style="opacity:0.3;fill:none;stroke:#ab3f2e;stroke-width:4.2184;stroke-linecap:round;stroke-miterlimit:10"
     d="M 91.751453,92.88392 98.27,99.84" />
  <g
     transform="translate(-0.0100019,-0.099999)"
     fill="#242424"
     id="g41">
    <path
       id="path35"
       d="m 25.12,70.49 c 5.741578,12.889447 18.071728,22.674693 32.07,24.86 11.834001,1.938121 24.398067,-1.40339 33.630645,-9.09166 5.335138,-4.352743 9.418935,-10.056155 12.351055,-16.249688 2.6307,-2.755612 5.44786,1.749716 3.0983,3.992129 C 100.00234,89.236364 84.814661,100.2176 68.41633,101.60213 53.444172,103.14212 37.907845,96.792547 28.425371,85.064492 25.173078,81.013969 22.309906,76.442631 20.870625,71.43875 20.833999,69.095542 24.134111,68.413328 25.12,70.49 Z" />
    <path
       id="path37"
       d="M 49.56,47.79 C 48.504322,46.483507 47.36171,45.146617 45.839844,44.370469 45.579323,44.183062 44.632039,44.179589 45.224326,44.182025 44.572795,44.198262 44.718253,44.168175 43.98,44.48 c -1.715445,0.915005 -2.803507,2.582654 -4.134036,3.934767 -1.842905,1.65372 -5.142354,1.165626 -6.308338,-1.054343 -0.783852,-1.34131 -0.280394,-2.92431 0.208233,-4.269408 1.509732,-4.116849 5.242506,-7.488598 9.654941,-8.059035 3.680258,-0.600537 7.560367,0.848077 10.092848,3.556841 1.747472,1.878042 3.067885,4.261658 3.394213,6.82828 0.188946,2.160282 -1.863179,3.975723 -3.949267,3.932859 C 51.653714,49.379747 50.351937,48.814793 49.56,47.79 Z" />
    <path
       id="path39"
       d="m 87.06,47.79 c -1.055678,-1.306493 -2.19829,-2.643383 -3.720156,-3.419531 -0.712624,-0.212206 -0.845648,-0.191739 -0.792542,-0.182371 -0.457107,-0.03302 -0.726159,0.11922 -1.379118,0.46364 -1.552704,0.948172 -2.578372,2.490415 -3.83222,3.763029 -1.842905,1.65372 -5.142354,1.165626 -6.308338,-1.054343 -0.783852,-1.34131 -0.280394,-2.92431 0.208233,-4.269408 1.509732,-4.116849 5.242506,-7.488598 9.654941,-8.059035 3.680258,-0.600537 7.560367,0.848077 10.092848,3.556841 1.747472,1.878042 3.067885,4.261658 3.394213,6.82828 0.188945,2.160275 -1.863166,3.975713 -3.949248,3.932859 C 89.146979,49.3796 87.845255,48.817483 87.06,47.79 Z" />
  </g>
</svg>
