<svg enable-background="new 0 0 128 128" viewBox="0 0 128 128" xmlns="http://www.w3.org/2000/svg" xmlns:xlink="http://www.w3.org/1999/xlink"><linearGradient id="a" gradientUnits="userSpaceOnUse" x1="-70.047" x2="-70.047" y1="-107.41" y2="-51.291"><stop offset=".0051299" stop-color="#eee"/><stop offset=".2817" stop-color="#eaeaea"/><stop offset=".5766" stop-color="#ddd"/><stop offset=".8789" stop-color="#c8c8c8"/><stop offset=".9998" stop-color="#bdbdbd"/></linearGradient><linearGradient id="b" gradientUnits="userSpaceOnUse" x1="69.43" x2="69.43" y1="-151.5" y2="-95.374"><stop offset=".0106" stop-color="#616161"/><stop offset=".2496" stop-color="#5d5d5d"/><stop offset=".5044" stop-color="#505050"/><stop offset=".7657" stop-color="#3b3b3b"/><stop offset="1" stop-color="#212121"/></linearGradient><linearGradient id="c" gradientUnits="userSpaceOnUse" x1="4.4414" x2="168.77" y1="6.4766" y2="84.143"><stop offset="0" stop-color="#fafafa"/><stop offset=".9992" stop-color="#eee"/></linearGradient><path d="m-19.13-78.72c-.91-4.33-4.3-20.11-5.87-27.41-.47-2.21-2.11-3.82-3.99-3.81-5.36 0-15.39-.05-16.6-.05h-44.08c-.61 0-2.56.06-4.11 1.79-4.7 5.27-12.54 20.52-13.76 22.07-.08.1-6.27 2.31-9.09 4-1.12.67-1.74 2.13-1.9 3.63l-2.46 20.75c-.64 4.1 1.7 5.76 5.37 5.76h91.51c2.8 0 5.11-.68 5.11-5.69v-19.79c0-.43-.05-.85-.13-1.25z" fill="url(#a)"/><path d="m-28.98-107c.36 0 .87.59 1.05 1.44 1.46 6.78 4.95 23.05 5.86 27.43.04.2.07.44.07.66v19.79c0 2.81-.49 2.69-2.11 2.69h-91.51c-1.3 0-2.02-.23-2.25-.5s-.3-.92-.16-1.77c.01-.04.01-.06.02-.09l2.47-20.83c.08-.8.36-1.28.46-1.36 1.87-1.12 5.83-2.66 7.51-3.31 1.46-.57 1.86-.72 2.39-1.39.5-.63 1.28-2 2.99-5.03 2.85-5.03 7.61-13.53 10.65-16.93.57-.64 1.22-.79 1.87-.79h44.08 9.21 7.4-.02m.02-3.01h-16.6-44.08-.02c-.63 0-2.55.08-4.08 1.79-4.7 5.27-12.54 20.52-13.76 22.07-.08.1-6.27 2.31-9.09 4-1.12.67-1.74 2.13-1.9 3.63l-2.46 20.75c-.64 4.1 1.7 5.76 5.37 5.76h91.51c2.8 0 5.11-.68 5.11-5.69v-19.79c0-.42-.05-.84-.13-1.24-.91-4.33-4.3-20.17-5.87-27.47-.49-2.21-2.13-3.81-4-3.81z" fill="#424242" opacity=".2"/><path d="m120.35-122.93c-.91-4.33-4.3-20.11-5.86-27.41-.47-2.21-2.11-3.75-3.99-3.75-5.36 0-15.39.01-16.6.01h-44.08c-.61 0-2.56-.01-4.11 1.73-4.7 5.27-12.54 20.49-13.76 22.03-.08.1-6.27 2.3-9.09 3.99-1.12.67-1.74 2.12-1.9 3.62l-2.46 20.8c-.64 4.1 1.7 5.82 5.37 5.82h91.51c2.8 0 5.1-.8 5.1-5.81v-19.79c-.01-.42-.05-.83-.13-1.24z" fill="url(#b)"/><path d="m110.5-151.08c.36 0 .87.53 1.05 1.38 1.46 6.78 4.95 23.03 5.86 27.4.04.2.06.41.06.63v19.79c0 2.81-.49 2.81-2.1 2.81h-91.51c-1.3 0-2.02-.29-2.25-.56s-.3-.95-.16-1.8l.02-.1 2.47-20.84c.08-.8.36-1.28.46-1.36 1.87-1.12 5.83-2.66 7.51-3.31 1.46-.57 1.86-.72 2.39-1.39.5-.63 1.28-2 2.99-5.03 2.85-5.03 7.61-13.46 10.65-16.87.57-.64 1.22-.72 1.87-.72h44.08c.75 0 4.84 0 9.12-.01zm0-3c-5.36 0-15.39.01-16.6.01h-44.08-.02c-.63 0-2.55.01-4.08 1.73-4.7 5.27-12.54 20.49-13.76 22.03-.08.1-6.27 2.3-9.09 3.99-1.12.67-1.74 2.12-1.9 3.62l-2.46 20.8c-.64 4.1 1.7 5.82 5.37 5.82h91.51c2.8 0 5.1-.8 5.1-5.81v-19.79c0-.42-.04-.84-.13-1.24-.91-4.33-4.3-20.11-5.86-27.41-.49-2.22-2.13-3.75-4-3.75z" fill="#eee" opacity=".2"/><path d="m27.69 64.01c11.78 3.01 23.93 5.62 36.08 5.14 10.19-.41 20.13-3.09 30.17-4.88 8.87-1.58 18-2.46 26.71-.5 1.49.34 2.78-1.09 2.32-2.55-3.43-10.85-13.86-43.79-16.39-51.8-.37-1.16-1.31-2.02-2.48-2.33-9.14-2.41-18.76-1.4-28.14.27-10.04 1.79-19.98 4.47-30.17 4.88-12.15.49-24.3-2.12-36.08-5.14z" fill="url(#c)"/><path d="m92.22 8.65c4.07 0 7.7.44 11.1 1.33.19.05.33.18.38.33l11.23 35.49 4.64 14.67c-3.07-.57-6.28-.85-9.76-.85-4.8 0-10.01.53-16.42 1.68-2.86.51-5.73 1.1-8.52 1.66-6.96 1.42-14.16 2.89-21.24 3.17-.93.04-1.89.06-2.85.06-10.35 0-20.86-2.21-30.75-4.69l-15.86-50.19c9.22 2.2 18.91 4 28.63 4 1.04 0 2.08-.02 3.09-.06 7.57-.3 15.01-1.82 22.2-3.29 2.75-.56 5.59-1.14 8.37-1.64 6.44-1.15 11.3-1.67 15.76-1.67m0-3c-5.42 0-10.89.74-16.28 1.71-10.04 1.79-19.98 4.47-30.17 4.88-.99.04-1.98.06-2.97.06-11.16 0-22.29-2.43-33.11-5.2l17.99 56.91c10.82 2.77 21.95 5.2 33.11 5.2.99 0 1.98-.02 2.97-.06 10.19-.41 20.13-3.09 30.17-4.88 5.25-.94 10.6-1.63 15.89-1.63 3.65 0 7.27.33 10.82 1.13.15.03.3.05.44.05 1.29 0 2.29-1.29 1.88-2.6-3.43-10.85-13.86-43.79-16.39-51.8-.37-1.16-1.31-2.02-2.48-2.33-3.89-1.03-7.87-1.44-11.87-1.44z" fill="#424242" opacity=".2"/><path d="m47.21 122.81-3.83 1.19c-1.22.38-2.52-.3-2.91-1.53l-35.15-112.88c-.71-2.29.56-4.71 2.85-5.42 2.28-.71 4.71.57 5.42 2.85l35.15 112.88c.38 1.23-.3 2.53-1.53 2.91z" fill="#bdbdbd"/><path d="m9.45 5.97c1.03 0 1.92.66 2.22 1.64l35.16 112.89c.03.1.01.19-.02.24s-.08.12-.19.16l-3.84 1.19c-.03.01-.06.02-.1.02-.11 0-.26-.07-.31-.23l-35.14-112.89c-.19-.59-.13-1.22.16-1.77s.78-.96 1.37-1.14c.23-.07.46-.11.69-.11m0-2c-.43 0-.86.06-1.29.2-2.28.71-3.55 3.13-2.84 5.42l35.15 112.89c.31.99 1.23 1.63 2.22 1.63.23 0 .46-.03.69-.11l3.84-1.19c1.22-.38 1.91-1.68 1.53-2.91l-35.16-112.88c-.58-1.86-2.29-3.05-4.14-3.05z" fill="#424242" opacity=".2"/></svg>