<svg enable-background="new 0 0 128 128" viewBox="0 0 128 128" xmlns="http://www.w3.org/2000/svg" xmlns:xlink="http://www.w3.org/1999/xlink"><linearGradient id="a" gradientUnits="userSpaceOnUse" x1="30.848" x2="95.211" y1="45.61" y2="45.61"><stop offset="0" stop-color="#bdd4d6"/><stop offset=".5074" stop-color="#d4e9ec"/><stop offset="1" stop-color="#b8d0d2"/></linearGradient><linearGradient id="b" gradientUnits="userSpaceOnUse"><stop offset="0" stop-color="#d4e9ec"/><stop offset="1" stop-color="#b8d0d2"/></linearGradient><linearGradient id="c" x1="61.956" x2="61.956" xlink:href="#b" y1="123.57" y2="79.948"/><linearGradient id="d" gradientUnits="userSpaceOnUse" x1="62.965" x2="62.965" y1="75.174" y2="39.561"><stop offset="0" stop-color="#94271d"/><stop offset=".0083422" stop-color="#95281e"/><stop offset=".1701" stop-color="#a93127"/><stop offset=".356" stop-color="#b7372d"/><stop offset=".5874" stop-color="#bf3b31"/><stop offset="1" stop-color="#c13c32"/></linearGradient><linearGradient id="e" x1="62.994" x2="62.994" xlink:href="#b" y1="19.086" y2="5.9777"/><path d="m83.69 10.86h-41.23s-11.61 18.77-11.61 40.07c0 29.03 30.48 29.42 32.11 29.42h.07s.02 0 .07 0c1.64 0 32.12-.39 32.12-29.42-.01-21.3-11.53-40.07-11.53-40.07z" fill="url(#a)"/><path d="m72.16 112.33c-2.97-1.27-6.29-3.02-6.3-6.71 0-1.02 0-24.34.15-25.32.01-.04.01-.08.01-.12-1.58.15-2.66.16-2.93.16h-.07s-.02 0-.07 0c-.37 0-2.28-.03-4.97-.41.03.19.05.37.05.53v24.45c0 1.15-.41 2.17-1.06 3.08-1.78 2.47-4.92 3.48-7.57 4.68-1.79.81-6.2 2.69-5.94 5.19.31 3.03 5.6 4.3 7.88 4.82 2.8.64 5.66.86 8.53.86 2.56 0 5.11-.18 7.64-.37 2.28-.18 4.62-.53 6.83-1.11 1.61-.41 5.49-1.4 6.02-3.3.98-3.49-6.03-5.49-8.2-6.43z" fill="url(#c)"/><path d="m85.79 44.4c-5.53 2.04-11.04 1.72-16.58-.07-5.35-1.74-10.48-4.03-16.1-4.63-3.61-.39-7.3 0-10.7 1.4-2.49 1.02-5 1.65-6.4 4.14-1.16 2.06-.6 5.78-.31 8.05.57 4.36 2.12 8.56 4.81 11.98 4.15 5.25 10.42 8.1 16.71 9.29 1.91.36 3.85.59 5.79.6 1.64.03 3.31-.19 4.91-.46 6.1-1 12.23-3.51 16.56-8.23 2.79-3.04 4.61-6.87 5.48-10.96.56-2.7.74-5.5.62-8.26-.04-1.26-.22-1.98-1.14-2.9-.75-.69-2.37-.42-3.65.05z" fill="url(#d)"/><path d="m83.16 45.21c-19.46 3.54-35.6 9.44-44.64 4.86-6.49-3.29-.72-8.42 5.15-10.09 14.18-4.06 34.59 5.63 39.49 5.23z" fill="#8f261b"/><path d="m63.07 3.79c-11.56 0-20.91 3.14-20.91 8.75 0 5.62 9.36 8.74 20.91 8.74s20.92-3.12 20.92-8.74-9.36-8.75-20.92-8.75z" fill="#b8d0d0"/><path d="m62.99 5.98c-9.72 0-17.59 2.35-17.59 6.56s7.88 6.55 17.59 6.55 17.6-2.34 17.6-6.55-7.88-6.56-17.6-6.56z" fill="url(#e)"/><path d="m50.37 117.94s5.64 2.52 14.04 1.71" style="fill:none;opacity:.6;stroke:#fff;stroke-linecap:round;stroke-miterlimit:10;stroke-width:3"/><path d="m45.35 17.51c-2.36 4.76-6.83 15.11-7.23 25.89-.06 1.55.97 2.93 2.46 3.35l2.9.74c1.94.54 3.92-.73 4.23-2.72.89-5.91 3.01-17.38 6.72-24.16-3.76-.62-6.91-1.66-9.08-3.1z" fill="#fff" opacity=".6"/></svg>