<svg enable-background="new 0 0 128 128" viewBox="0 0 128 128" xmlns="http://www.w3.org/2000/svg" xmlns:xlink="http://www.w3.org/1999/xlink"><linearGradient id="a" gradientUnits="userSpaceOnUse" x1="64" x2="64" y1="19.717" y2="107.7"><stop offset=".5" stop-color="#fee133"/><stop offset=".6118" stop-color="#fede32"/><stop offset=".7076" stop-color="#fcd32f"/><stop offset=".7975" stop-color="#fac12b"/><stop offset=".8834" stop-color="#f7a924"/><stop offset=".9" stop-color="#f6a323"/></linearGradient><path d="m64 119.89c-27.93 0-58-17.49-58-55.89s30.07-55.89 58-55.89c15.48 0 29.81 5.12 40.36 14.43 11.54 10.18 17.64 24.52 17.64 41.46 0 16.86-6.1 31.17-17.64 41.39-10.58 9.35-24.91 14.5-40.36 14.5z" fill="url(#a)"/><path d="m64 10.11c14.99 0 28.86 4.95 39.03 13.93 11.1 9.79 16.97 23.61 16.97 39.96 0 16.27-5.87 30.07-16.97 39.89-10.21 9.03-24.07 14-39.03 14-15.04 0-28.9-4.91-39.04-13.82-11.1-9.75-16.96-23.61-16.96-40.07 0-16.54 5.86-30.42 16.96-40.15 10.11-8.86 23.97-13.74 39.04-13.74m0-4c-31.15 0-60 20-60 57.89 0 37.68 28.85 57.89 60 57.89s60-20.73 60-57.89c0-37.37-28.85-57.89-60-57.89z" fill="#eb8f00"/><g fill="#242424"><path d="m72.66 57.5s.07-.06.2-.17c.06-.06.15-.12.24-.2.13-.1.31-.21.5-.34.39-.25.77-.49 1.27-.73.49-.25 1.05-.49 1.67-.7 1.24-.45 2.71-.76 4.28-.91 1.57-.16 3.24-.08 4.89.12.5.09.69.11 1.18.21.44.09.86.18 1.25.28.8.19 1.56.46 2.3.74 1.47.57 2.8 1.28 3.87 2.05 1.08.75 1.89 1.55 2.42 2.17.27.3.46.57.59.75s.2.28.2.28c.88 1.23.59 2.94-.64 3.81-.98.7-2.27.66-3.2-.02l-.28-.21s-.2-.15-.6-.39c-.39-.24-.98-.58-1.76-.94-.77-.36-1.74-.71-2.82-1.03-.54-.16-1.11-.29-1.69-.42-.3-.07-.57-.12-.84-.17-.22-.05-.74-.11-.95-.15-1.21-.18-2.42-.25-3.55-.25-1.12.01-2.15.09-2.99.22-.42.07-.8.13-1.13.21-.32.07-.63.16-.8.2-.09.02-.17.04-.25.05-.12.05-.21.09-.29.12-.16.06-.24.1-.24.1-1.42.57-3.03-.11-3.6-1.53-.46-1.14-.11-2.39.77-3.15z"/><path d="m71.97 57.82s.05-.08.13-.23c.07-.13.24-.41.5-.76.46-.64 1.12-1.46 2-2.33.87-.88 1.93-1.81 3.13-2.7.6-.44 1.22-.9 1.88-1.31.67-.43 1.3-.81 2.04-1.25.62-.33 1.36-.73 2.06-1.08.69-.36 1.41-.64 2.09-.94 1.38-.57 2.73-1 3.92-1.29 1.19-.3 2.25-.45 3.02-.51s1.25-.04 1.25-.04c1.52.06 2.71 1.34 2.65 2.86-.04 1.15-.78 2.11-1.8 2.48l-.22.08s-.28.1-.76.28c-.5.19-1.23.48-2.14.88-.9.41-1.97.91-3.1 1.49-.57.3-1.15.61-1.75.92-.59.31-1.15.62-1.82 1.01-.55.3-1.18.67-1.75 1.01-.57.35-1.14.69-1.69 1.03-1.08.68-2.06 1.34-2.87 1.9-.81.57-1.44 1.06-1.85 1.38-.17.13-.33.24-.47.38-.13.12-.2.18-.2.18-1.13 1.03-2.88.94-3.91-.19-.81-.93-.91-2.24-.34-3.25z"/></g><path d="m29.84 43.8c-.89 0-1.7-.41-2.18-1.11-.48-.69-.56-1.56-.24-2.44 1.94-5.01 5.94-9.21 10.99-11.54 1.88-.87 3.85-1.45 5.86-1.72.15-.02.27-.02.4-.02 1.31 0 2.32.85 2.52 2.11.18 1.15-.41 2.56-1.89 3.04l-.38-.71.26.75c-5.33 1.84-10.08 5.6-13.03 10.32-.5.83-1.35 1.32-2.31 1.32z" fill="#eb8f00" stroke="#eb8f00" stroke-miterlimit="10"/><g fill="#242424"><path d="m64.25 94.44c-12.74 0-21.82-6.61-24.55-10.77-1.06-1.61-1.26-3.35-.55-4.67.53-.99 1.51-1.56 2.67-1.56.39 0 .79.07 1.2.19 6.42 2.01 13.78 3.07 21.28 3.07 7.46 0 14.79-1.06 21.19-3.07.41-.13.81-.19 1.2-.19 1.16 0 2.14.57 2.67 1.56.71 1.31.5 3.06-.55 4.67-2.74 4.16-11.82 10.77-24.56 10.77z"/><path d="m44.67 45.94c-4.19 0-8 3.54-8 9.42s3.81 9.42 8 9.42 8-3.54 8-9.42-3.81-9.42-8-9.42z"/></g></svg>