<svg enable-background="new 0 0 128 128" viewBox="0 0 128 128" xmlns="http://www.w3.org/2000/svg" xmlns:xlink="http://www.w3.org/1999/xlink"><linearGradient id="a" gradientUnits="userSpaceOnUse" x1="64" x2="64" y1="18.378" y2="106.36"><stop offset=".5" stop-color="#fee133"/><stop offset=".6118" stop-color="#fede32"/><stop offset=".7076" stop-color="#fcd32f"/><stop offset=".7975" stop-color="#fac12b"/><stop offset=".8834" stop-color="#f7a924"/><stop offset=".9" stop-color="#f6a323"/></linearGradient><radialGradient id="b" cx="98.399" cy="94.791" gradientTransform="matrix(-.5231 -.8522 -.8522 .5231 187.66 122.43)" gradientUnits="userSpaceOnUse" r="48.455"><stop offset=".6676" stop-color="#fee133"/><stop offset=".8723" stop-color="#f9b928"/></radialGradient><path d="m64 118.56c-27.93 0-58-17.49-58-55.89 0-38.41 30.07-55.9 58-55.9 15.48 0 29.81 5.13 40.36 14.43 11.54 10.18 17.64 24.52 17.64 41.46 0 16.86-6.1 31.17-17.64 41.39-10.58 9.35-24.91 14.51-40.36 14.51z" fill="url(#a)"/><path d="m64 8.77c14.99 0 28.86 4.95 39.03 13.93 11.1 9.8 16.97 23.61 16.97 39.96 0 16.27-5.87 30.07-16.97 39.89-10.21 9.03-24.07 14-39.03 14-15.04 0-28.9-4.91-39.04-13.82-11.1-9.75-16.96-23.61-16.96-40.07 0-16.54 5.86-30.42 16.96-40.15 10.11-8.86 23.97-13.74 39.04-13.74m0-4c-31.15 0-60 20.01-60 57.89 0 37.68 28.85 57.89 60 57.89s60-20.73 60-57.89c0-37.37-28.85-57.89-60-57.89z" fill="#eb8f00"/><g fill="#eb8f00" stroke="#eb8f00" stroke-miterlimit="10"><path d="m50.1 23.98h.14c2.2.07 2.96-3.05.58-3.62-1.86-.4-3.85-.54-5.86-.36-5.55.47-10.52 3.15-13.72 6.83-1.58 1.86.89 3.96 2.61 2.58 4.38-3.44 10.21-5.52 16.25-5.43z"/><path d="m77.9 23.98h-.14c-2.2.07-2.96-3.05-.58-3.62 1.86-.4 3.85-.54 5.86-.36 5.55.47 10.52 3.15 13.72 6.83 1.58 1.86-.89 3.96-2.61 2.58-4.38-3.44-10.21-5.52-16.25-5.43z"/></g><g fill="none" stroke="#242424" stroke-linecap="round" stroke-miterlimit="10" stroke-width="6"><path d="m32.19 47.07s8.29 2.85 19.6-.34"/><path d="m95.81 47.07s-8.29 2.85-19.6-.34"/></g><circle cx="64" cy="82.16" fill="#242424" r="22.5"/><path d="m29.01 68.77c8.44 1.49.99 10.87.37 14.61-.14.83.05 1.87.73 1.36.28-.21 20.39-12.31 20.39-12.31 2.19-1.34 4.78-1.11 6.12 1.07s.38 4.6-1.81 5.94l-15.13 9.57 20.61-12.3c2.19-1.34 4.78-1.11 6.12 1.07s.38 4.6-1.81 5.94l-20.42 12.89 16.82-10.04c2.19-1.34 4.78-1.11 6.12 1.07s.38 4.6-1.81 5.94l-16.64 10.57 10.27-6.02c2.19-1.34 4.78-1.11 6.12 1.07s.11 4.15-2.08 5.5c0 0-22.22 13.75-24.62 14.95-6 3-19.16 2.27-25-7-7.19-11.42 1.48-21.36 3.89-25.31 1.89-3.09 4.3-6.21 5.9-9.58 1.4-2.95 3.37-9.43 5.86-8.99z" fill="url(#b)"/><path d="m30.62 123.23c-6.84 0-14.71-2.76-18.96-9.51-7.06-11.2-.35-21.12 2.87-25.89.39-.58.74-1.1 1.01-1.53.66-1.08 1.39-2.18 2.1-3.24 1.33-2 2.71-4.07 3.71-6.16.28-.59.59-1.33.91-2.13 1.67-4.03 3.55-8.6 7.11-7.98 2.45.43 4.13 1.5 5.01 3.16 1.64 3.13-.22 7.2-1.72 10.47-.09.2-.18.39-.27.59 2.79-1.69 7.85-4.75 17.09-10.3 1.48-.91 3.15-1.29 4.71-1.05 1.73.26 3.2 1.25 4.14 2.79.5.81.79 1.69.88 2.58l.06-.04c3.26-2 6.99-1.27 8.84 1.74.94 1.54 1.16 3.3.61 4.96-.35 1.07-1.02 2.05-1.92 2.86.79.48 1.49 1.16 2.02 2.03 1.85 3.02.81 6.67-2.47 8.69l-1.47.94c.74.48 1.38 1.13 1.88 1.94.97 1.58 1.11 3.32.41 4.92-.56 1.26-1.65 2.41-3.15 3.33-.9.56-22.32 13.8-24.77 15.03-2.29 1.16-5.34 1.8-8.63 1.8zm-.81-52.18c-.59-.23-1.27 0-1.61.54-.82 1.28-1.77 3.58-2.24 4.72-.35.85-.68 1.65-1 2.32-1.12 2.36-2.58 4.54-3.99 6.66-.72 1.08-1.39 2.09-2.01 3.11-.29.48-.67 1.04-1.11 1.69-3.17 4.69-8.46 12.53-2.8 21.51 5.42 8.6 17.65 8.66 22.41 6.28 1.9-.95 18.31-11.05 24.47-14.86.8-.49 1.36-1.04 1.59-1.54.13-.29.2-.63-.16-1.21-.33-.54-.77-.84-1.33-.93-.63-.09-1.34.09-2.03.51l-10.3 6.04c-1.04.61-2.4.18-2.87-.99-.37-.91.05-1.96.88-2.48l16.53-10.52c1.07-.66 2-1.88 1.18-3.21-.81-1.33-2.32-1.05-3.36-.41l-16.85 10.05c-1 .6-2.31.22-2.83-.86-.45-.93-.04-2.06.84-2.61l20.32-12.82c.71-.44 1.2-1 1.4-1.59.18-.54.11-1.07-.22-1.61-.82-1.33-2.32-1.05-3.36-.42l-20.65 12.32c-1.04.62-2.4.19-2.88-.97-.37-.91.04-1.96.88-2.49l15.04-9.52c.71-.44 1.2-1 1.4-1.59.18-.54.11-1.07-.22-1.61s-.77-.84-1.33-.93c-.62-.09-1.34.09-2.03.51-7.77 4.68-19.49 11.74-20.3 12.25-.83.59-1.84.65-2.65.15-1.49-.91-1.29-2.9-1.19-3.49.2-1.23.85-2.64 1.6-4.29 1.01-2.21 2.54-5.56 1.81-6.95-.2-.34-.59-.59-1.03-.76zm-.81 12.04c-.02.01-.04.02-.05.04 0-.01.02-.02.05-.04z" fill="#eb8f00"/></svg>